<svg width="320" height="160" viewBox="0 0 320 160" fill="none" xmlns="http://www.w3.org/2000/svg">
<g clip-path="url(#clip0_893_7154)">
<rect width="320" height="160" fill="#111111"/>
<mask id="path-1-inside-1_893_7154" fill="white">
<path d="M0 8H40V48H0V8Z"/>
</mask>
<path d="M0 8V7H-1V8H0ZM0 8V9H40V8V7H0V8ZM0 48H1V8H0H-1V48H0Z" fill="#555555" mask="url(#path-1-inside-1_893_7154)"/>
<circle cx="20" cy="28" r="6" fill="#FF001A"/>
<mask id="path-4-inside-2_893_7154" fill="white">
<path d="M280 8H320V48H280V8Z"/>
</mask>
<path d="M320 8H321V7H320V8ZM280 8V9H320V8V7H280V8ZM320 8H319V48H320H321V8H320Z" fill="#555555" mask="url(#path-4-inside-2_893_7154)"/>
<path d="M45.1 22.5C45.82 22.5 46.465 22.65 47.02 22.92C47.56 23.19 47.995 23.58 48.295 24.09C48.595 24.6 48.76 25.185 48.76 25.845C48.76 26.55 48.565 27.165 48.205 27.69C47.83 28.23 47.335 28.605 46.72 28.815L48.94 33H47.02L45.025 29.19H42.685V33H40.96V22.5H45.1ZM42.685 27.69H44.965C45.58 27.69 46.075 27.525 46.435 27.195C46.795 26.865 46.99 26.415 46.99 25.845C46.99 25.29 46.795 24.84 46.435 24.51C46.075 24.18 45.58 24 44.965 24H42.685V27.69ZM50.335 22.5H57.19V24.03H52.06V26.94H56.29V28.425H52.06V31.47H57.37V33H50.335V22.5ZM62.9271 22.5C63.6471 22.5 64.2771 22.65 64.8321 22.92C65.3721 23.19 65.8071 23.58 66.1071 24.09C66.4071 24.6 66.5571 25.185 66.5571 25.845C66.5571 26.52 66.4071 27.105 66.1071 27.615C65.8071 28.125 65.3721 28.515 64.8321 28.785C64.2771 29.055 63.6471 29.19 62.9271 29.19H60.5121V33H58.7871V22.5H62.9271ZM60.5121 27.69H62.7771C63.3921 27.69 63.8871 27.525 64.2471 27.195C64.6071 26.865 64.8021 26.415 64.8021 25.845C64.8021 25.275 64.6221 24.825 64.2621 24.495C63.9021 24.165 63.4071 24 62.7921 24H60.5121V27.69ZM67.8838 33V22.5H69.6088V31.47H74.1238V33H67.8838ZM74.705 33L78.635 22.5H80.69L84.605 33H82.76L81.77 30.405H77.465L76.49 33H74.705ZM77.945 28.935H81.29L79.61 24.36L77.945 28.935ZM83.1414 22.485H85.1664L87.9264 27.3L90.7614 22.485H92.6964L88.7814 29.115V33H87.0564V29.115L83.1414 22.485ZM97.2462 27.51C97.2462 26.52 97.4112 25.635 97.7562 24.855C98.1012 24.075 98.5962 23.475 99.2262 23.055C99.8562 22.635 100.576 22.41 101.386 22.41C102.181 22.41 102.886 22.635 103.516 23.055C104.146 23.475 104.626 24.075 104.986 24.855C105.331 25.635 105.511 26.52 105.511 27.51V27.99C105.511 29.04 105.331 29.94 104.986 30.705C104.641 31.485 104.161 32.07 103.531 32.475C102.901 32.895 102.196 33.09 101.386 33.09C100.561 33.09 99.8412 32.895 99.2112 32.475C98.5812 32.07 98.1012 31.485 97.7562 30.705C97.4112 29.94 97.2462 29.04 97.2462 27.99V27.51ZM103.171 24.855C102.721 24.195 102.136 23.865 101.386 23.865C100.636 23.865 100.036 24.195 99.5862 24.855C99.1362 25.515 98.9112 26.415 98.9112 27.57V27.93C98.9112 29.1 99.1362 30 99.5862 30.66C100.036 31.32 100.636 31.635 101.386 31.635C102.136 31.635 102.721 31.32 103.171 30.66C103.621 30 103.846 29.1 103.846 27.93V27.57C103.846 26.415 103.621 25.515 103.171 24.855ZM107.068 25.89C107.263 25.71 107.518 25.605 107.818 25.605C108.118 25.605 108.358 25.71 108.568 25.89C108.763 26.085 108.868 26.325 108.868 26.625C108.868 26.925 108.763 27.18 108.568 27.36C108.358 27.555 108.118 27.645 107.818 27.645C107.518 27.645 107.263 27.555 107.068 27.36C106.873 27.18 106.783 26.925 106.783 26.625C106.783 26.325 106.873 26.085 107.068 25.89ZM107.068 31.335C107.263 31.155 107.518 31.05 107.818 31.05C108.118 31.05 108.358 31.155 108.568 31.335C108.763 31.53 108.868 31.77 108.868 32.07C108.868 32.37 108.763 32.625 108.568 32.805C108.358 33 108.118 33.09 107.818 33.09C107.518 33.09 107.263 33 107.068 32.805C106.873 32.625 106.783 32.37 106.783 32.07C106.783 31.77 106.873 31.53 107.068 31.335ZM110.122 27.51C110.122 26.52 110.287 25.635 110.632 24.855C110.977 24.075 111.472 23.475 112.102 23.055C112.732 22.635 113.452 22.41 114.262 22.41C115.057 22.41 115.762 22.635 116.392 23.055C117.022 23.475 117.502 24.075 117.862 24.855C118.207 25.635 118.387 26.52 118.387 27.51V27.99C118.387 29.04 118.207 29.94 117.862 30.705C117.517 31.485 117.037 32.07 116.407 32.475C115.777 32.895 115.072 33.09 114.262 33.09C113.437 33.09 112.717 32.895 112.087 32.475C111.457 32.07 110.977 31.485 110.632 30.705C110.287 29.94 110.122 29.04 110.122 27.99V27.51ZM116.047 24.855C115.597 24.195 115.012 23.865 114.262 23.865C113.512 23.865 112.912 24.195 112.462 24.855C112.012 25.515 111.787 26.415 111.787 27.57V27.93C111.787 29.1 112.012 30 112.462 30.66C112.912 31.32 113.512 31.635 114.262 31.635C115.012 31.635 115.597 31.32 116.047 30.66C116.497 30 116.722 29.1 116.722 27.93V27.57C116.722 26.415 116.497 25.515 116.047 24.855ZM126.725 28.41C127.16 28.83 127.385 29.385 127.385 30.075C127.385 30.675 127.22 31.215 126.89 31.665C126.56 32.115 126.11 32.475 125.51 32.715C124.91 32.97 124.22 33.09 123.44 33.09C122.24 33.09 121.28 32.79 120.575 32.175C119.87 31.56 119.525 30.72 119.525 29.64H121.19C121.19 30.285 121.415 30.795 121.85 31.155C122.27 31.53 122.84 31.71 123.545 31.71C124.16 31.71 124.67 31.56 125.075 31.23C125.48 30.915 125.69 30.495 125.69 29.955C125.69 29.46 125.48 29.07 125.09 28.785C124.7 28.5 124.13 28.35 123.41 28.35H122.45V26.97H123.305C123.995 26.97 124.52 26.82 124.88 26.52C125.24 26.22 125.435 25.83 125.435 25.32C125.435 24.855 125.255 24.48 124.895 24.21C124.535 23.94 124.07 23.79 123.5 23.79C122.9 23.79 122.405 23.955 122.015 24.27C121.625 24.585 121.43 25.005 121.43 25.545H119.795C119.795 24.585 120.14 23.82 120.8 23.25C121.46 22.695 122.33 22.41 123.44 22.41C124.19 22.41 124.85 22.53 125.405 22.755C125.96 22.995 126.38 23.325 126.68 23.745C126.98 24.165 127.13 24.66 127.13 25.2C127.13 25.83 126.935 26.355 126.575 26.76C126.215 27.165 125.72 27.435 125.105 27.57C125.75 27.705 126.29 27.99 126.725 28.41Z" fill="#A1A1A1"/>
<mask id="path-7-inside-3_893_7154" fill="white">
<path d="M16 80C16 66.7452 26.7452 56 40 56H280C293.255 56 304 66.7452 304 80V168H16V80Z"/>
</mask>
<path d="M15 80C15 66.1929 26.1929 55 40 55H280C293.807 55 305 66.1929 305 80H303C303 67.2975 292.703 57 280 57H40C27.2975 57 17 67.2975 17 80H15ZM304 168H16H304ZM15 168V80C15 66.1929 26.1929 55 40 55V57C27.2975 57 17 67.2975 17 80V168H15ZM280 55C293.807 55 305 66.1929 305 80V168H303V80C303 67.2975 292.703 57 280 57V55Z" fill="#555555" mask="url(#path-7-inside-3_893_7154)"/>
<rect x="32" y="75" width="256" height="24" fill="#222222"/>
<rect x="32" y="107" width="256" height="24" fill="#222222"/>
<rect x="32" y="139" width="256" height="24" fill="#222222"/>
</g>
<defs>
<clipPath id="clip0_893_7154">
<rect width="320" height="160" fill="white"/>
</clipPath>
</defs>
</svg>
