<svg width="320" height="160" viewBox="0 0 320 160" fill="none" xmlns="http://www.w3.org/2000/svg">
<g clip-path="url(#clip0_1199_23008)">
<rect width="320" height="160" fill="white"/>
<path opacity="0.5" d="M0 35H320V65H0V35Z" fill="url(#paint0_linear_1199_23008)" fill-opacity="0.5"/>
<path d="M17.835 46.6C18.39 46.915 18.825 47.365 19.14 47.95C19.455 48.55 19.62 49.24 19.62 50.05C19.62 50.83 19.455 51.505 19.14 52.09C18.825 52.69 18.39 53.14 17.835 53.47C17.265 53.8 16.635 53.965 15.945 53.965C15.315 53.965 14.79 53.86 14.355 53.635C13.905 53.41 13.56 53.095 13.32 52.705V56.875H12.09V46.225H13.155L13.32 47.455C13.95 46.585 14.835 46.135 15.945 46.135C16.65 46.135 17.28 46.3 17.835 46.6ZM17.655 52.09C18.12 51.565 18.36 50.89 18.36 50.05C18.36 49.225 18.12 48.55 17.655 48.025C17.19 47.5 16.575 47.23 15.825 47.23C15.33 47.23 14.895 47.35 14.505 47.59C14.115 47.83 13.83 48.16 13.62 48.58C13.41 49 13.305 49.48 13.305 50.02C13.305 50.575 13.41 51.07 13.62 51.505C13.83 51.94 14.115 52.27 14.505 52.51C14.895 52.75 15.33 52.87 15.825 52.87C16.575 52.87 17.19 52.615 17.655 52.09ZM24.9105 46.225V47.425H24.2955C23.5605 47.425 23.0355 47.68 22.7205 48.16C22.4055 48.655 22.2555 49.255 22.2555 49.975V53.875H21.0255V46.225H22.0905L22.2555 47.38C22.4655 47.035 22.7505 46.75 23.1105 46.54C23.4555 46.33 23.9355 46.225 24.5655 46.225H24.9105ZM25.7759 47.995C26.0759 47.41 26.5109 46.96 27.0659 46.63C27.6059 46.3 28.2359 46.135 28.9559 46.135C29.6459 46.135 30.2759 46.285 30.8159 46.57C31.3559 46.87 31.7759 47.29 32.0909 47.83C32.3909 48.385 32.5559 49.03 32.5859 49.765C32.5859 49.885 32.5709 50.05 32.5559 50.29H26.6159V50.395C26.6309 51.145 26.8559 51.745 27.3059 52.195C27.7409 52.645 28.3109 52.87 29.0309 52.87C29.5709 52.87 30.0359 52.735 30.4259 52.465C30.8159 52.195 31.0709 51.805 31.2059 51.31H32.4509C32.3009 52.09 31.9259 52.735 31.3259 53.23C30.7259 53.725 29.9909 53.965 29.1209 53.965C28.3559 53.965 27.6959 53.815 27.1259 53.485C26.5559 53.155 26.1059 52.705 25.7909 52.105C25.4759 51.505 25.3259 50.83 25.3259 50.05C25.3259 49.27 25.4759 48.595 25.7759 47.995ZM31.3109 49.27C31.2509 48.625 30.9959 48.115 30.5759 47.755C30.1559 47.395 29.6159 47.215 28.9709 47.215C28.3859 47.215 27.8759 47.41 27.4409 47.785C26.9909 48.175 26.7509 48.67 26.6909 49.27H31.3109ZM32.9314 46.225H34.2514L36.5614 52.48L38.8564 46.225H40.1464L37.2814 53.875H35.7964L32.9314 46.225ZM42.2496 43.495C42.3996 43.645 42.4746 43.84 42.4746 44.065C42.4746 44.305 42.3996 44.485 42.2496 44.635C42.0996 44.785 41.9046 44.86 41.6796 44.86C41.4396 44.86 41.2596 44.785 41.1096 44.635C40.9596 44.485 40.8846 44.305 40.8846 44.065C40.8846 43.84 40.9596 43.645 41.1096 43.495C41.2596 43.345 41.4396 43.27 41.6796 43.27C41.9046 43.27 42.0996 43.345 42.2496 43.495ZM41.0646 46.225H42.2946V53.875H41.0646V46.225ZM44.1596 47.995C44.4596 47.41 44.8946 46.96 45.4496 46.63C45.9896 46.3 46.6196 46.135 47.3396 46.135C48.0296 46.135 48.6596 46.285 49.1996 46.57C49.7396 46.87 50.1596 47.29 50.4746 47.83C50.7746 48.385 50.9396 49.03 50.9696 49.765C50.9696 49.885 50.9546 50.05 50.9396 50.29H44.9996V50.395C45.0146 51.145 45.2396 51.745 45.6896 52.195C46.1246 52.645 46.6946 52.87 47.4146 52.87C47.9546 52.87 48.4196 52.735 48.8096 52.465C49.1996 52.195 49.4546 51.805 49.5896 51.31H50.8346C50.6846 52.09 50.3096 52.735 49.7096 53.23C49.1096 53.725 48.3746 53.965 47.5046 53.965C46.7396 53.965 46.0796 53.815 45.5096 53.485C44.9396 53.155 44.4896 52.705 44.1746 52.105C43.8596 51.505 43.7096 50.83 43.7096 50.05C43.7096 49.27 43.8596 48.595 44.1596 47.995ZM49.6946 49.27C49.6346 48.625 49.3796 48.115 48.9596 47.755C48.5396 47.395 47.9996 47.215 47.3546 47.215C46.7696 47.215 46.2596 47.41 45.8246 47.785C45.3746 48.175 45.1346 48.67 45.0746 49.27H49.6946ZM51.4335 46.225H52.7235L54.6285 52.45L56.6385 46.225H57.7785L59.6835 52.45L61.6785 46.225H62.9235L60.3735 53.875H59.0235L57.1785 48.19L55.2585 53.875L53.9085 53.89L51.4335 46.225Z" fill="#186E51"/>
<path d="M73.5127 53.245C72.9127 53.725 72.1627 53.965 71.2627 53.965C70.5127 53.965 69.8677 53.8 69.3127 53.47C68.7427 53.14 68.3077 52.69 68.0077 52.09C67.6927 51.49 67.5427 50.815 67.5427 50.035C67.5427 49.27 67.6927 48.595 68.0077 47.995C68.3227 47.41 68.7727 46.96 69.3427 46.63C69.9127 46.3 70.5577 46.135 71.3077 46.135C72.2077 46.135 72.9427 46.375 73.5277 46.855C74.1127 47.335 74.4877 47.995 74.6377 48.835H73.3927C73.2727 48.355 73.0177 47.965 72.6427 47.665C72.2527 47.38 71.8027 47.23 71.2627 47.23C70.5277 47.23 69.9277 47.5 69.4777 48.01C69.0277 48.535 68.8027 49.21 68.8027 50.035C68.8027 50.875 69.0277 51.565 69.4777 52.09C69.9277 52.615 70.5277 52.87 71.2627 52.87C71.8177 52.87 72.2827 52.735 72.6727 52.435C73.0477 52.15 73.2877 51.745 73.4077 51.235H74.6377C74.4727 52.09 74.0977 52.765 73.5127 53.245ZM77.4436 53.47C76.8736 53.14 76.4236 52.69 76.1086 52.09C75.7786 51.505 75.6286 50.83 75.6286 50.05C75.6286 49.285 75.7786 48.61 76.1086 48.01C76.4236 47.425 76.8736 46.96 77.4436 46.63C78.0136 46.3 78.6736 46.135 79.4236 46.135C80.1586 46.135 80.8186 46.3 81.3886 46.63C81.9586 46.96 82.4086 47.425 82.7386 48.01C83.0536 48.61 83.2186 49.285 83.2186 50.05C83.2186 50.83 83.0536 51.505 82.7386 52.09C82.4086 52.69 81.9586 53.14 81.3886 53.47C80.8186 53.8 80.1586 53.965 79.4236 53.965C78.6736 53.965 78.0136 53.8 77.4436 53.47ZM80.7436 52.51C81.1336 52.27 81.4336 51.94 81.6436 51.505C81.8536 51.085 81.9586 50.59 81.9586 50.05C81.9586 49.51 81.8536 49.03 81.6436 48.595C81.4336 48.175 81.1336 47.83 80.7436 47.59C80.3536 47.35 79.9186 47.23 79.4236 47.23C78.9136 47.23 78.4786 47.35 78.0886 47.59C77.6986 47.83 77.4136 48.175 77.2036 48.595C76.9936 49.03 76.8886 49.51 76.8886 50.05C76.8886 50.59 76.9936 51.085 77.2036 51.505C77.4136 51.94 77.6986 52.27 78.0886 52.51C78.4786 52.75 78.9136 52.87 79.4236 52.87C79.9186 52.87 80.3536 52.75 80.7436 52.51ZM95.2491 46.945C95.7891 47.485 96.0591 48.325 96.0591 49.465V53.875H94.8291V49.54C94.8291 48.805 94.6641 48.235 94.3491 47.845C94.0341 47.455 93.5841 47.26 93.0141 47.26C92.3691 47.26 91.8591 47.485 91.4991 47.935C91.1391 48.385 90.9591 49 90.9591 49.78V53.875H89.7291V49.54C89.7291 48.805 89.5641 48.235 89.2491 47.845C88.9191 47.455 88.4691 47.26 87.8841 47.26C87.2541 47.26 86.7591 47.5 86.3991 47.98C86.0391 48.46 85.8591 49.075 85.8591 49.84V53.875H84.6291V46.225H85.6941L85.8591 47.275C86.3991 46.525 87.1491 46.135 88.0941 46.135C88.6341 46.135 89.1291 46.27 89.5491 46.51C89.9691 46.75 90.2991 47.11 90.5091 47.59C91.0491 46.63 91.9341 46.135 93.1641 46.135C94.0191 46.135 94.7091 46.405 95.2491 46.945ZM103.382 46.6C103.937 46.915 104.372 47.365 104.687 47.95C105.002 48.55 105.167 49.24 105.167 50.05C105.167 50.83 105.002 51.505 104.687 52.09C104.372 52.69 103.937 53.14 103.382 53.47C102.812 53.8 102.182 53.965 101.492 53.965C100.862 53.965 100.337 53.86 99.9019 53.635C99.4519 53.41 99.1069 53.095 98.8669 52.705V56.875H97.6369V46.225H98.7019L98.8669 47.455C99.4969 46.585 100.382 46.135 101.492 46.135C102.197 46.135 102.827 46.3 103.382 46.6ZM103.202 52.09C103.667 51.565 103.907 50.89 103.907 50.05C103.907 49.225 103.667 48.55 103.202 48.025C102.737 47.5 102.122 47.23 101.372 47.23C100.877 47.23 100.442 47.35 100.052 47.59C99.6619 47.83 99.3769 48.16 99.1669 48.58C98.9569 49 98.8519 49.48 98.8519 50.02C98.8519 50.575 98.9569 51.07 99.1669 51.505C99.3769 51.94 99.6619 52.27 100.052 52.51C100.442 52.75 100.877 52.87 101.372 52.87C102.122 52.87 102.737 52.615 103.202 52.09ZM108.117 53.47C107.547 53.14 107.097 52.69 106.782 52.09C106.452 51.505 106.302 50.83 106.302 50.05C106.302 49.285 106.452 48.61 106.782 48.01C107.097 47.425 107.547 46.96 108.117 46.63C108.687 46.3 109.347 46.135 110.097 46.135C110.832 46.135 111.492 46.3 112.062 46.63C112.632 46.96 113.082 47.425 113.412 48.01C113.727 48.61 113.892 49.285 113.892 50.05C113.892 50.83 113.727 51.505 113.412 52.09C113.082 52.69 112.632 53.14 112.062 53.47C111.492 53.8 110.832 53.965 110.097 53.965C109.347 53.965 108.687 53.8 108.117 53.47ZM111.417 52.51C111.807 52.27 112.107 51.94 112.317 51.505C112.527 51.085 112.632 50.59 112.632 50.05C112.632 49.51 112.527 49.03 112.317 48.595C112.107 48.175 111.807 47.83 111.417 47.59C111.027 47.35 110.592 47.23 110.097 47.23C109.587 47.23 109.152 47.35 108.762 47.59C108.372 47.83 108.087 48.175 107.877 48.595C107.667 49.03 107.562 49.51 107.562 50.05C107.562 50.59 107.667 51.085 107.877 51.505C108.087 51.94 108.372 52.27 108.762 52.51C109.152 52.75 109.587 52.87 110.097 52.87C110.592 52.87 111.027 52.75 111.417 52.51ZM121.288 46.975C121.858 47.545 122.143 48.415 122.143 49.615V53.875H120.913V49.69C120.913 48.91 120.733 48.31 120.373 47.89C120.013 47.47 119.503 47.26 118.843 47.26C118.123 47.26 117.553 47.515 117.148 48.01C116.728 48.52 116.533 49.195 116.533 50.05V53.875H115.303V46.225H116.368L116.533 47.26C117.103 46.51 117.943 46.135 119.053 46.135C119.983 46.135 120.718 46.42 121.288 46.975ZM123.891 47.995C124.191 47.41 124.626 46.96 125.181 46.63C125.721 46.3 126.351 46.135 127.071 46.135C127.761 46.135 128.391 46.285 128.931 46.57C129.471 46.87 129.891 47.29 130.206 47.83C130.506 48.385 130.671 49.03 130.701 49.765C130.701 49.885 130.686 50.05 130.671 50.29H124.731V50.395C124.746 51.145 124.971 51.745 125.421 52.195C125.856 52.645 126.426 52.87 127.146 52.87C127.686 52.87 128.151 52.735 128.541 52.465C128.931 52.195 129.186 51.805 129.321 51.31H130.566C130.416 52.09 130.041 52.735 129.441 53.23C128.841 53.725 128.106 53.965 127.236 53.965C126.471 53.965 125.811 53.815 125.241 53.485C124.671 53.155 124.221 52.705 123.906 52.105C123.591 51.505 123.441 50.83 123.441 50.05C123.441 49.27 123.591 48.595 123.891 47.995ZM129.426 49.27C129.366 48.625 129.111 48.115 128.691 47.755C128.271 47.395 127.731 47.215 127.086 47.215C126.501 47.215 125.991 47.41 125.556 47.785C125.106 48.175 124.866 48.67 124.806 49.27H129.426ZM138.09 46.975C138.66 47.545 138.945 48.415 138.945 49.615V53.875H137.715V49.69C137.715 48.91 137.535 48.31 137.175 47.89C136.815 47.47 136.305 47.26 135.645 47.26C134.925 47.26 134.355 47.515 133.95 48.01C133.53 48.52 133.335 49.195 133.335 50.05V53.875H132.105V46.225H133.17L133.335 47.26C133.905 46.51 134.745 46.135 135.855 46.135C136.785 46.135 137.52 46.42 138.09 46.975ZM141.023 47.35H139.643V46.225H141.023V44.08H142.253V46.225H144.188V47.35H142.253V51.865C142.253 52.195 142.313 52.42 142.433 52.555C142.553 52.69 142.778 52.75 143.093 52.75H144.428V53.875H143.018C142.298 53.875 141.773 53.725 141.473 53.395C141.173 53.08 141.023 52.57 141.023 51.88V47.35ZM145.483 43.375H146.788V53.875H145.483V43.375ZM154.628 46.975C155.198 47.545 155.483 48.415 155.483 49.615V53.875H154.253V49.69C154.253 48.91 154.073 48.31 153.713 47.89C153.353 47.47 152.843 47.26 152.183 47.26C151.463 47.26 150.893 47.515 150.488 48.01C150.068 48.52 149.873 49.195 149.873 50.05V53.875H148.643V46.225H149.708L149.873 47.26C150.443 46.51 151.283 46.135 152.393 46.135C153.323 46.135 154.058 46.42 154.628 46.975ZM158.011 51.355C158.026 51.82 158.221 52.195 158.611 52.48C159.001 52.78 159.496 52.915 160.111 52.915C160.651 52.915 161.086 52.81 161.416 52.6C161.746 52.39 161.926 52.105 161.926 51.745C161.926 51.445 161.836 51.22 161.686 51.055C161.521 50.905 161.311 50.785 161.056 50.725C160.801 50.665 160.441 50.605 159.976 50.545C159.316 50.47 158.776 50.365 158.356 50.23C157.936 50.11 157.591 49.9 157.336 49.615C157.066 49.33 156.946 48.94 156.946 48.43C156.946 47.98 157.066 47.59 157.321 47.23C157.576 46.885 157.921 46.615 158.371 46.42C158.806 46.225 159.301 46.12 159.856 46.12C160.756 46.12 161.476 46.33 162.046 46.75C162.616 47.17 162.931 47.77 162.991 48.55H161.761C161.701 48.16 161.506 47.83 161.176 47.56C160.831 47.305 160.411 47.17 159.901 47.17C159.376 47.17 158.956 47.29 158.641 47.5C158.311 47.71 158.161 47.995 158.161 48.34C158.161 48.61 158.236 48.805 158.386 48.94C158.536 49.09 158.716 49.18 158.956 49.225C159.196 49.285 159.556 49.33 160.036 49.39C160.696 49.48 161.251 49.585 161.686 49.72C162.121 49.87 162.466 50.095 162.736 50.395C163.006 50.71 163.141 51.13 163.141 51.655C163.141 52.12 163.006 52.525 162.736 52.87C162.466 53.23 162.091 53.5 161.641 53.68C161.176 53.875 160.666 53.965 160.111 53.965C159.106 53.965 158.296 53.74 157.696 53.275C157.096 52.825 156.781 52.18 156.781 51.355H158.011ZM165.046 47.35H163.666V46.225H165.046V44.08H166.276V46.225H168.211V47.35H166.276V51.865C166.276 52.195 166.336 52.42 166.456 52.555C166.576 52.69 166.801 52.75 167.116 52.75H168.451V53.875H167.041C166.321 53.875 165.796 53.725 165.496 53.395C165.196 53.08 165.046 52.57 165.046 51.88V47.35ZM176.364 52.75V53.875H175.689C175.194 53.875 174.849 53.785 174.639 53.575C174.429 53.38 174.309 53.08 174.309 52.69C173.709 53.545 172.854 53.965 171.744 53.965C170.889 53.965 170.199 53.77 169.689 53.365C169.179 52.975 168.924 52.42 168.924 51.73C168.924 50.965 169.179 50.38 169.704 49.96C170.229 49.555 170.994 49.345 171.999 49.345H174.249V48.82C174.249 48.325 174.069 47.935 173.739 47.65C173.409 47.38 172.944 47.23 172.344 47.23C171.804 47.23 171.369 47.35 171.024 47.59C170.679 47.83 170.469 48.13 170.394 48.52H169.164C169.254 47.77 169.584 47.185 170.154 46.765C170.724 46.345 171.474 46.135 172.404 46.135C173.379 46.135 174.129 46.375 174.669 46.855C175.209 47.335 175.479 48.01 175.479 48.895V52.195C175.479 52.57 175.644 52.75 175.989 52.75H176.364ZM174.249 50.38H171.879C170.739 50.38 170.169 50.815 170.169 51.655C170.169 52.045 170.319 52.345 170.619 52.57C170.919 52.81 171.324 52.915 171.834 52.915C172.584 52.915 173.169 52.72 173.604 52.33C174.024 51.94 174.249 51.415 174.249 50.755V50.38ZM183.295 46.975C183.865 47.545 184.15 48.415 184.15 49.615V53.875H182.92V49.69C182.92 48.91 182.74 48.31 182.38 47.89C182.02 47.47 181.51 47.26 180.85 47.26C180.13 47.26 179.56 47.515 179.155 48.01C178.735 48.52 178.54 49.195 178.54 50.05V53.875H177.31V46.225H178.375L178.54 47.26C179.11 46.51 179.95 46.135 181.06 46.135C181.99 46.135 182.725 46.42 183.295 46.975ZM191.418 53.245C190.818 53.725 190.068 53.965 189.168 53.965C188.418 53.965 187.773 53.8 187.218 53.47C186.648 53.14 186.213 52.69 185.913 52.09C185.598 51.49 185.448 50.815 185.448 50.035C185.448 49.27 185.598 48.595 185.913 47.995C186.228 47.41 186.678 46.96 187.248 46.63C187.818 46.3 188.463 46.135 189.213 46.135C190.113 46.135 190.848 46.375 191.433 46.855C192.018 47.335 192.393 47.995 192.543 48.835H191.298C191.178 48.355 190.923 47.965 190.548 47.665C190.158 47.38 189.708 47.23 189.168 47.23C188.433 47.23 187.833 47.5 187.383 48.01C186.933 48.535 186.708 49.21 186.708 50.035C186.708 50.875 186.933 51.565 187.383 52.09C187.833 52.615 188.433 52.87 189.168 52.87C189.723 52.87 190.188 52.735 190.578 52.435C190.953 52.15 191.193 51.745 191.313 51.235H192.543C192.378 52.09 192.003 52.765 191.418 53.245ZM193.984 47.995C194.284 47.41 194.719 46.96 195.274 46.63C195.814 46.3 196.444 46.135 197.164 46.135C197.854 46.135 198.484 46.285 199.024 46.57C199.564 46.87 199.984 47.29 200.299 47.83C200.599 48.385 200.764 49.03 200.794 49.765C200.794 49.885 200.779 50.05 200.764 50.29H194.824V50.395C194.839 51.145 195.064 51.745 195.514 52.195C195.949 52.645 196.519 52.87 197.239 52.87C197.779 52.87 198.244 52.735 198.634 52.465C199.024 52.195 199.279 51.805 199.414 51.31H200.659C200.509 52.09 200.134 52.735 199.534 53.23C198.934 53.725 198.199 53.965 197.329 53.965C196.564 53.965 195.904 53.815 195.334 53.485C194.764 53.155 194.314 52.705 193.999 52.105C193.684 51.505 193.534 50.83 193.534 50.05C193.534 49.27 193.684 48.595 193.984 47.995ZM199.519 49.27C199.459 48.625 199.204 48.115 198.784 47.755C198.364 47.395 197.824 47.215 197.179 47.215C196.594 47.215 196.084 47.41 195.649 47.785C195.199 48.175 194.959 48.67 194.899 49.27H199.519ZM202.287 46.9C202.437 46.75 202.647 46.66 202.902 46.66C203.142 46.66 203.352 46.75 203.517 46.9C203.667 47.05 203.757 47.26 203.757 47.5C203.757 47.755 203.667 47.965 203.517 48.115C203.352 48.265 203.142 48.34 202.902 48.34C202.647 48.34 202.437 48.265 202.287 48.115C202.122 47.965 202.047 47.755 202.047 47.5C202.047 47.26 202.122 47.05 202.287 46.9ZM202.287 52.525C202.437 52.375 202.647 52.285 202.902 52.285C203.142 52.285 203.352 52.375 203.517 52.525C203.667 52.675 203.757 52.885 203.757 53.125C203.757 53.38 203.667 53.59 203.517 53.74C203.352 53.89 203.142 53.965 202.902 53.965C202.647 53.965 202.437 53.89 202.287 53.74C202.122 53.59 202.047 53.38 202.047 53.125C202.047 52.885 202.122 52.675 202.287 52.525ZM209.454 50.2V49.03L215.154 46.48V47.68L210.834 49.615L215.154 51.55V52.75L209.454 50.2ZM217.26 43.375H223.95V44.575H218.565V47.935H223.05V49.135H218.565V52.675H224.145V53.875H217.26V43.375ZM236.05 46.945C236.59 47.485 236.86 48.325 236.86 49.465V53.875H235.63V49.54C235.63 48.805 235.465 48.235 235.15 47.845C234.835 47.455 234.385 47.26 233.815 47.26C233.17 47.26 232.66 47.485 232.3 47.935C231.94 48.385 231.76 49 231.76 49.78V53.875H230.53V49.54C230.53 48.805 230.365 48.235 230.05 47.845C229.72 47.455 229.27 47.26 228.685 47.26C228.055 47.26 227.56 47.5 227.2 47.98C226.84 48.46 226.66 49.075 226.66 49.84V53.875H225.43V46.225H226.495L226.66 47.275C227.2 46.525 227.95 46.135 228.895 46.135C229.435 46.135 229.93 46.27 230.35 46.51C230.77 46.75 231.1 47.11 231.31 47.59C231.85 46.63 232.735 46.135 233.965 46.135C234.82 46.135 235.51 46.405 236.05 46.945ZM239.983 53.47C239.413 53.14 238.963 52.69 238.648 52.09C238.318 51.505 238.168 50.83 238.168 50.05C238.168 49.285 238.318 48.61 238.648 48.01C238.963 47.425 239.413 46.96 239.983 46.63C240.553 46.3 241.213 46.135 241.963 46.135C242.698 46.135 243.358 46.3 243.928 46.63C244.498 46.96 244.948 47.425 245.278 48.01C245.593 48.61 245.758 49.285 245.758 50.05C245.758 50.83 245.593 51.505 245.278 52.09C244.948 52.69 244.498 53.14 243.928 53.47C243.358 53.8 242.698 53.965 241.963 53.965C241.213 53.965 240.553 53.8 239.983 53.47ZM243.283 52.51C243.673 52.27 243.973 51.94 244.183 51.505C244.393 51.085 244.498 50.59 244.498 50.05C244.498 49.51 244.393 49.03 244.183 48.595C243.973 48.175 243.673 47.83 243.283 47.59C242.893 47.35 242.458 47.23 241.963 47.23C241.453 47.23 241.018 47.35 240.628 47.59C240.238 47.83 239.953 48.175 239.743 48.595C239.533 49.03 239.428 49.51 239.428 50.05C239.428 50.59 239.533 51.085 239.743 51.505C239.953 51.94 240.238 52.27 240.628 52.51C241.018 52.75 241.453 52.87 241.963 52.87C242.458 52.87 242.893 52.75 243.283 52.51ZM248.443 43.495C248.593 43.645 248.668 43.84 248.668 44.065C248.668 44.305 248.593 44.485 248.443 44.635C248.293 44.785 248.098 44.86 247.873 44.86C247.633 44.86 247.453 44.785 247.303 44.635C247.153 44.485 247.078 44.305 247.078 44.065C247.078 43.84 247.153 43.645 247.303 43.495C247.453 43.345 247.633 43.27 247.873 43.27C248.098 43.27 248.293 43.345 248.443 43.495ZM246.418 55.75C246.718 55.75 246.928 55.69 247.063 55.555C247.183 55.435 247.258 55.21 247.258 54.91V46.225H248.488V54.88C248.488 55.57 248.323 56.065 248.008 56.395C247.693 56.725 247.183 56.875 246.493 56.875H245.458V55.75H246.418ZM251.356 43.495C251.506 43.645 251.581 43.84 251.581 44.065C251.581 44.305 251.506 44.485 251.356 44.635C251.206 44.785 251.011 44.86 250.786 44.86C250.546 44.86 250.366 44.785 250.216 44.635C250.066 44.485 249.991 44.305 249.991 44.065C249.991 43.84 250.066 43.645 250.216 43.495C250.366 43.345 250.546 43.27 250.786 43.27C251.011 43.27 251.206 43.345 251.356 43.495ZM250.171 46.225H251.401V53.875H250.171V46.225ZM253.491 45.835C253.896 45.025 254.481 44.41 255.246 43.96C255.996 43.51 256.881 43.285 257.886 43.285C259.041 43.285 260.016 43.6 260.796 44.23C261.576 44.86 262.071 45.73 262.281 46.81H260.976C260.781 46.09 260.406 45.52 259.851 45.1C259.296 44.695 258.621 44.485 257.826 44.485C257.106 44.485 256.461 44.665 255.921 45.01C255.366 45.37 254.946 45.85 254.646 46.48C254.346 47.11 254.211 47.815 254.211 48.625C254.211 49.435 254.346 50.14 254.646 50.77C254.946 51.4 255.366 51.895 255.921 52.24C256.461 52.6 257.106 52.765 257.826 52.765C258.636 52.765 259.311 52.57 259.851 52.165C260.391 51.76 260.751 51.19 260.961 50.44H262.266C262.056 51.535 261.576 52.39 260.796 53.02C260.016 53.65 259.056 53.965 257.886 53.965C256.881 53.965 255.996 53.755 255.246 53.305C254.481 52.855 253.896 52.24 253.491 51.43C253.071 50.62 252.876 49.69 252.876 48.625C252.876 47.575 253.071 46.645 253.491 45.835ZM265.281 53.47C264.711 53.14 264.261 52.69 263.946 52.09C263.616 51.505 263.466 50.83 263.466 50.05C263.466 49.285 263.616 48.61 263.946 48.01C264.261 47.425 264.711 46.96 265.281 46.63C265.851 46.3 266.511 46.135 267.261 46.135C267.996 46.135 268.656 46.3 269.226 46.63C269.796 46.96 270.246 47.425 270.576 48.01C270.891 48.61 271.056 49.285 271.056 50.05C271.056 50.83 270.891 51.505 270.576 52.09C270.246 52.69 269.796 53.14 269.226 53.47C268.656 53.8 267.996 53.965 267.261 53.965C266.511 53.965 265.851 53.8 265.281 53.47ZM268.581 52.51C268.971 52.27 269.271 51.94 269.481 51.505C269.691 51.085 269.796 50.59 269.796 50.05C269.796 49.51 269.691 49.03 269.481 48.595C269.271 48.175 268.971 47.83 268.581 47.59C268.191 47.35 267.756 47.23 267.261 47.23C266.751 47.23 266.316 47.35 265.926 47.59C265.536 47.83 265.251 48.175 265.041 48.595C264.831 49.03 264.726 49.51 264.726 50.05C264.726 50.59 264.831 51.085 265.041 51.505C265.251 51.94 265.536 52.27 265.926 52.51C266.316 52.75 266.751 52.87 267.261 52.87C267.756 52.87 268.191 52.75 268.581 52.51ZM278.451 46.975C279.021 47.545 279.306 48.415 279.306 49.615V53.875H278.076V49.69C278.076 48.91 277.896 48.31 277.536 47.89C277.176 47.47 276.666 47.26 276.006 47.26C275.286 47.26 274.716 47.515 274.311 48.01C273.891 48.52 273.696 49.195 273.696 50.05V53.875H272.466V46.225H273.531L273.696 47.26C274.266 46.51 275.106 46.135 276.216 46.135C277.146 46.135 277.881 46.42 278.451 46.975ZM281.384 47.35H280.004V46.225H281.384V44.08H282.614V46.225H284.549V47.35H282.614V51.865C282.614 52.195 282.674 52.42 282.794 52.555C282.914 52.69 283.139 52.75 283.454 52.75H284.789V53.875H283.379C282.659 53.875 282.134 53.725 281.834 53.395C281.534 53.08 281.384 52.57 281.384 51.88V47.35ZM292.702 52.75V53.875H292.027C291.532 53.875 291.187 53.785 290.977 53.575C290.767 53.38 290.647 53.08 290.647 52.69C290.047 53.545 289.192 53.965 288.082 53.965C287.227 53.965 286.537 53.77 286.027 53.365C285.517 52.975 285.262 52.42 285.262 51.73C285.262 50.965 285.517 50.38 286.042 49.96C286.567 49.555 287.332 49.345 288.337 49.345H290.587V48.82C290.587 48.325 290.407 47.935 290.077 47.65C289.747 47.38 289.282 47.23 288.682 47.23C288.142 47.23 287.707 47.35 287.362 47.59C287.017 47.83 286.807 48.13 286.732 48.52H285.502C285.592 47.77 285.922 47.185 286.492 46.765C287.062 46.345 287.812 46.135 288.742 46.135C289.717 46.135 290.467 46.375 291.007 46.855C291.547 47.335 291.817 48.01 291.817 48.895V52.195C291.817 52.57 291.982 52.75 292.327 52.75H292.702ZM290.587 50.38H288.217C287.077 50.38 286.507 50.815 286.507 51.655C286.507 52.045 286.657 52.345 286.957 52.57C287.257 52.81 287.662 52.915 288.172 52.915C288.922 52.915 289.507 52.72 289.942 52.33C290.362 51.94 290.587 51.415 290.587 50.755V50.38ZM294.833 43.495C294.983 43.645 295.058 43.84 295.058 44.065C295.058 44.305 294.983 44.485 294.833 44.635C294.683 44.785 294.488 44.86 294.263 44.86C294.023 44.86 293.843 44.785 293.693 44.635C293.543 44.485 293.468 44.305 293.468 44.065C293.468 43.84 293.543 43.645 293.693 43.495C293.843 43.345 294.023 43.27 294.263 43.27C294.488 43.27 294.683 43.345 294.833 43.495ZM293.648 46.225H294.878V53.875H293.648V46.225ZM302.548 46.975C303.118 47.545 303.403 48.415 303.403 49.615V53.875H302.173V49.69C302.173 48.91 301.993 48.31 301.633 47.89C301.273 47.47 300.763 47.26 300.103 47.26C299.383 47.26 298.813 47.515 298.408 48.01C297.988 48.52 297.793 49.195 297.793 50.05V53.875H296.563V46.225H297.628L297.793 47.26C298.363 46.51 299.203 46.135 300.313 46.135C301.243 46.135 301.978 46.42 302.548 46.975ZM305.151 47.995C305.451 47.41 305.886 46.96 306.441 46.63C306.981 46.3 307.611 46.135 308.331 46.135C309.021 46.135 309.651 46.285 310.191 46.57C310.731 46.87 311.151 47.29 311.466 47.83C311.766 48.385 311.931 49.03 311.961 49.765C311.961 49.885 311.946 50.05 311.931 50.29H305.991V50.395C306.006 51.145 306.231 51.745 306.681 52.195C307.116 52.645 307.686 52.87 308.406 52.87C308.946 52.87 309.411 52.735 309.801 52.465C310.191 52.195 310.446 51.805 310.581 51.31H311.826C311.676 52.09 311.301 52.735 310.701 53.23C310.101 53.725 309.366 53.965 308.496 53.965C307.731 53.965 307.071 53.815 306.501 53.485C305.931 53.155 305.481 52.705 305.166 52.105C304.851 51.505 304.701 50.83 304.701 50.05C304.701 49.27 304.851 48.595 305.151 47.995ZM310.686 49.27C310.626 48.625 310.371 48.115 309.951 47.755C309.531 47.395 308.991 47.215 308.346 47.215C307.761 47.215 307.251 47.41 306.816 47.785C306.366 48.175 306.126 48.67 306.066 49.27H310.686ZM317.249 46.225V47.425H316.634C315.899 47.425 315.374 47.68 315.059 48.16C314.744 48.655 314.594 49.255 314.594 49.975V53.875H313.364V46.225H314.429L314.594 47.38C314.804 47.035 315.089 46.75 315.449 46.54C315.794 46.33 316.274 46.225 316.904 46.225H317.249ZM321.1 56.875L325.495 43.375H326.665L322.27 56.875H321.1ZM333.089 49.03V50.2L327.389 52.75V51.55L331.709 49.615L327.389 47.68V46.48L333.089 49.03Z" fill="#737373"/>
<g opacity="0.4">
<path d="M22.6 79.225V78.37C22.6 77.695 22.75 77.2 23.065 76.87C23.38 76.54 23.89 76.375 24.595 76.375H26.005V77.5H24.67C24.37 77.5 24.145 77.575 24.025 77.695C23.89 77.83 23.83 78.04 23.83 78.34V79.225H25.99V80.35H23.83V86.875H22.6V80.35H21.22V79.225H22.6ZM33.4064 79.225V86.875H32.3414L32.1764 85.855C31.5914 86.605 30.7814 86.965 29.7314 86.965C28.8164 86.965 28.0814 86.695 27.5414 86.125C26.9864 85.57 26.7164 84.685 26.7164 83.485V79.225H27.9464V83.41C27.9464 84.205 28.1114 84.805 28.4564 85.225C28.8014 85.645 29.2964 85.84 29.9414 85.84C30.6314 85.84 31.1864 85.6 31.5764 85.09C31.9664 84.595 32.1764 83.92 32.1764 83.05V79.225H33.4064ZM41.0682 79.975C41.6382 80.545 41.9232 81.415 41.9232 82.615V86.875H40.6932V82.69C40.6932 81.91 40.5132 81.31 40.1532 80.89C39.7932 80.47 39.2832 80.26 38.6232 80.26C37.9032 80.26 37.3332 80.515 36.9282 81.01C36.5082 81.52 36.3132 82.195 36.3132 83.05V86.875H35.0832V79.225H36.1482L36.3132 80.26C36.8832 79.51 37.7232 79.135 38.8332 79.135C39.7632 79.135 40.4982 79.42 41.0682 79.975ZM49.1914 86.245C48.5914 86.725 47.8414 86.965 46.9414 86.965C46.1914 86.965 45.5464 86.8 44.9914 86.47C44.4214 86.14 43.9864 85.69 43.6864 85.09C43.3714 84.49 43.2214 83.815 43.2214 83.035C43.2214 82.27 43.3714 81.595 43.6864 80.995C44.0014 80.41 44.4514 79.96 45.0214 79.63C45.5914 79.3 46.2364 79.135 46.9864 79.135C47.8864 79.135 48.6214 79.375 49.2064 79.855C49.7914 80.335 50.1664 80.995 50.3164 81.835H49.0714C48.9514 81.355 48.6964 80.965 48.3214 80.665C47.9314 80.38 47.4814 80.23 46.9414 80.23C46.2064 80.23 45.6064 80.5 45.1564 81.01C44.7064 81.535 44.4814 82.21 44.4814 83.035C44.4814 83.875 44.7064 84.565 45.1564 85.09C45.6064 85.615 46.2064 85.87 46.9414 85.87C47.4964 85.87 47.9614 85.735 48.3514 85.435C48.7264 85.15 48.9664 84.745 49.0864 84.235H50.3164C50.1514 85.09 49.7764 85.765 49.1914 86.245ZM52.2484 80.35H50.8684V79.225H52.2484V77.08H53.4784V79.225H55.4134V80.35H53.4784V84.865C53.4784 85.195 53.5384 85.42 53.6584 85.555C53.7784 85.69 54.0034 85.75 54.3184 85.75H55.6534V86.875H54.2434C53.5234 86.875 52.9984 86.725 52.6984 86.395C52.3984 86.08 52.2484 85.57 52.2484 84.88V80.35ZM57.7135 76.495C57.8635 76.645 57.9385 76.84 57.9385 77.065C57.9385 77.305 57.8635 77.485 57.7135 77.635C57.5635 77.785 57.3685 77.86 57.1435 77.86C56.9035 77.86 56.7235 77.785 56.5735 77.635C56.4235 77.485 56.3485 77.305 56.3485 77.065C56.3485 76.84 56.4235 76.645 56.5735 76.495C56.7235 76.345 56.9035 76.27 57.1435 76.27C57.3685 76.27 57.5635 76.345 57.7135 76.495ZM56.5285 79.225H57.7585V86.875H56.5285V79.225ZM60.9885 86.47C60.4185 86.14 59.9685 85.69 59.6535 85.09C59.3235 84.505 59.1735 83.83 59.1735 83.05C59.1735 82.285 59.3235 81.61 59.6535 81.01C59.9685 80.425 60.4185 79.96 60.9885 79.63C61.5585 79.3 62.2185 79.135 62.9685 79.135C63.7035 79.135 64.3635 79.3 64.9335 79.63C65.5035 79.96 65.9535 80.425 66.2835 81.01C66.5985 81.61 66.7635 82.285 66.7635 83.05C66.7635 83.83 66.5985 84.505 66.2835 85.09C65.9535 85.69 65.5035 86.14 64.9335 86.47C64.3635 86.8 63.7035 86.965 62.9685 86.965C62.2185 86.965 61.5585 86.8 60.9885 86.47ZM64.2885 85.51C64.6785 85.27 64.9785 84.94 65.1885 84.505C65.3985 84.085 65.5035 83.59 65.5035 83.05C65.5035 82.51 65.3985 82.03 65.1885 81.595C64.9785 81.175 64.6785 80.83 64.2885 80.59C63.8985 80.35 63.4635 80.23 62.9685 80.23C62.4585 80.23 62.0235 80.35 61.6335 80.59C61.2435 80.83 60.9585 81.175 60.7485 81.595C60.5385 82.03 60.4335 82.51 60.4335 83.05C60.4335 83.59 60.5385 84.085 60.7485 84.505C60.9585 84.94 61.2435 85.27 61.6335 85.51C62.0235 85.75 62.4585 85.87 62.9685 85.87C63.4635 85.87 63.8985 85.75 64.2885 85.51ZM74.159 79.975C74.729 80.545 75.014 81.415 75.014 82.615V86.875H73.784V82.69C73.784 81.91 73.604 81.31 73.244 80.89C72.884 80.47 72.374 80.26 71.714 80.26C70.994 80.26 70.424 80.515 70.019 81.01C69.599 81.52 69.404 82.195 69.404 83.05V86.875H68.174V79.225H69.239L69.404 80.26C69.974 79.51 70.814 79.135 71.924 79.135C72.854 79.135 73.589 79.42 74.159 79.975Z" fill="#FFA3A1"/>
<path d="M80.688 76.375H87.378V77.575H81.993V80.935H86.478V82.135H81.993V85.675H87.573V86.875H80.688V76.375ZM99.4776 79.945C100.018 80.485 100.288 81.325 100.288 82.465V86.875H99.0576V82.54C99.0576 81.805 98.8926 81.235 98.5776 80.845C98.2626 80.455 97.8126 80.26 97.2426 80.26C96.5976 80.26 96.0876 80.485 95.7276 80.935C95.3676 81.385 95.1876 82 95.1876 82.78V86.875H93.9576V82.54C93.9576 81.805 93.7926 81.235 93.4776 80.845C93.1476 80.455 92.6976 80.26 92.1126 80.26C91.4826 80.26 90.9876 80.5 90.6276 80.98C90.2676 81.46 90.0876 82.075 90.0876 82.84V86.875H88.8576V79.225H89.9226L90.0876 80.275C90.6276 79.525 91.3776 79.135 92.3226 79.135C92.8626 79.135 93.3576 79.27 93.7776 79.51C94.1976 79.75 94.5276 80.11 94.7376 80.59C95.2776 79.63 96.1626 79.135 97.3926 79.135C98.2476 79.135 98.9376 79.405 99.4776 79.945ZM103.41 86.47C102.84 86.14 102.39 85.69 102.075 85.09C101.745 84.505 101.595 83.83 101.595 83.05C101.595 82.285 101.745 81.61 102.075 81.01C102.39 80.425 102.84 79.96 103.41 79.63C103.98 79.3 104.64 79.135 105.39 79.135C106.125 79.135 106.785 79.3 107.355 79.63C107.925 79.96 108.375 80.425 108.705 81.01C109.02 81.61 109.185 82.285 109.185 83.05C109.185 83.83 109.02 84.505 108.705 85.09C108.375 85.69 107.925 86.14 107.355 86.47C106.785 86.8 106.125 86.965 105.39 86.965C104.64 86.965 103.98 86.8 103.41 86.47ZM106.71 85.51C107.1 85.27 107.4 84.94 107.61 84.505C107.82 84.085 107.925 83.59 107.925 83.05C107.925 82.51 107.82 82.03 107.61 81.595C107.4 81.175 107.1 80.83 106.71 80.59C106.32 80.35 105.885 80.23 105.39 80.23C104.88 80.23 104.445 80.35 104.055 80.59C103.665 80.83 103.38 81.175 103.17 81.595C102.96 82.03 102.855 82.51 102.855 83.05C102.855 83.59 102.96 84.085 103.17 84.505C103.38 84.94 103.665 85.27 104.055 85.51C104.445 85.75 104.88 85.87 105.39 85.87C105.885 85.87 106.32 85.75 106.71 85.51ZM111.871 76.495C112.021 76.645 112.096 76.84 112.096 77.065C112.096 77.305 112.021 77.485 111.871 77.635C111.721 77.785 111.526 77.86 111.301 77.86C111.061 77.86 110.881 77.785 110.731 77.635C110.581 77.485 110.506 77.305 110.506 77.065C110.506 76.84 110.581 76.645 110.731 76.495C110.881 76.345 111.061 76.27 111.301 76.27C111.526 76.27 111.721 76.345 111.871 76.495ZM109.846 88.75C110.146 88.75 110.356 88.69 110.491 88.555C110.611 88.435 110.686 88.21 110.686 87.91V79.225H111.916V87.88C111.916 88.57 111.751 89.065 111.436 89.395C111.121 89.725 110.611 89.875 109.921 89.875H108.886V88.75H109.846ZM114.784 76.495C114.934 76.645 115.009 76.84 115.009 77.065C115.009 77.305 114.934 77.485 114.784 77.635C114.634 77.785 114.439 77.86 114.214 77.86C113.974 77.86 113.794 77.785 113.644 77.635C113.494 77.485 113.419 77.305 113.419 77.065C113.419 76.84 113.494 76.645 113.644 76.495C113.794 76.345 113.974 76.27 114.214 76.27C114.439 76.27 114.634 76.345 114.784 76.495ZM113.599 79.225H114.829V86.875H113.599V79.225ZM116.919 78.835C117.324 78.025 117.909 77.41 118.674 76.96C119.424 76.51 120.309 76.285 121.314 76.285C122.469 76.285 123.444 76.6 124.224 77.23C125.004 77.86 125.499 78.73 125.709 79.81H124.404C124.209 79.09 123.834 78.52 123.279 78.1C122.724 77.695 122.049 77.485 121.254 77.485C120.534 77.485 119.889 77.665 119.349 78.01C118.794 78.37 118.374 78.85 118.074 79.48C117.774 80.11 117.639 80.815 117.639 81.625C117.639 82.435 117.774 83.14 118.074 83.77C118.374 84.4 118.794 84.895 119.349 85.24C119.889 85.6 120.534 85.765 121.254 85.765C122.064 85.765 122.739 85.57 123.279 85.165C123.819 84.76 124.179 84.19 124.389 83.44H125.694C125.484 84.535 125.004 85.39 124.224 86.02C123.444 86.65 122.484 86.965 121.314 86.965C120.309 86.965 119.424 86.755 118.674 86.305C117.909 85.855 117.324 85.24 116.919 84.43C116.499 83.62 116.304 82.69 116.304 81.625C116.304 80.575 116.499 79.645 116.919 78.835ZM128.708 86.47C128.138 86.14 127.688 85.69 127.373 85.09C127.043 84.505 126.893 83.83 126.893 83.05C126.893 82.285 127.043 81.61 127.373 81.01C127.688 80.425 128.138 79.96 128.708 79.63C129.278 79.3 129.938 79.135 130.688 79.135C131.423 79.135 132.083 79.3 132.653 79.63C133.223 79.96 133.673 80.425 134.003 81.01C134.318 81.61 134.483 82.285 134.483 83.05C134.483 83.83 134.318 84.505 134.003 85.09C133.673 85.69 133.223 86.14 132.653 86.47C132.083 86.8 131.423 86.965 130.688 86.965C129.938 86.965 129.278 86.8 128.708 86.47ZM132.008 85.51C132.398 85.27 132.698 84.94 132.908 84.505C133.118 84.085 133.223 83.59 133.223 83.05C133.223 82.51 133.118 82.03 132.908 81.595C132.698 81.175 132.398 80.83 132.008 80.59C131.618 80.35 131.183 80.23 130.688 80.23C130.178 80.23 129.743 80.35 129.353 80.59C128.963 80.83 128.678 81.175 128.468 81.595C128.258 82.03 128.153 82.51 128.153 83.05C128.153 83.59 128.258 84.085 128.468 84.505C128.678 84.94 128.963 85.27 129.353 85.51C129.743 85.75 130.178 85.87 130.688 85.87C131.183 85.87 131.618 85.75 132.008 85.51ZM141.879 79.975C142.449 80.545 142.734 81.415 142.734 82.615V86.875H141.504V82.69C141.504 81.91 141.324 81.31 140.964 80.89C140.604 80.47 140.094 80.26 139.434 80.26C138.714 80.26 138.144 80.515 137.739 81.01C137.319 81.52 137.124 82.195 137.124 83.05V86.875H135.894V79.225H136.959L137.124 80.26C137.694 79.51 138.534 79.135 139.644 79.135C140.574 79.135 141.309 79.42 141.879 79.975ZM144.812 80.35H143.432V79.225H144.812V77.08H146.042V79.225H147.977V80.35H146.042V84.865C146.042 85.195 146.102 85.42 146.222 85.555C146.342 85.69 146.567 85.75 146.882 85.75H148.217V86.875H146.807C146.087 86.875 145.562 86.725 145.262 86.395C144.962 86.08 144.812 85.57 144.812 84.88V80.35ZM156.13 85.75V86.875H155.455C154.96 86.875 154.615 86.785 154.405 86.575C154.195 86.38 154.075 86.08 154.075 85.69C153.475 86.545 152.62 86.965 151.51 86.965C150.655 86.965 149.965 86.77 149.455 86.365C148.945 85.975 148.69 85.42 148.69 84.73C148.69 83.965 148.945 83.38 149.47 82.96C149.995 82.555 150.76 82.345 151.765 82.345H154.015V81.82C154.015 81.325 153.835 80.935 153.505 80.65C153.175 80.38 152.71 80.23 152.11 80.23C151.57 80.23 151.135 80.35 150.79 80.59C150.445 80.83 150.235 81.13 150.16 81.52H148.93C149.02 80.77 149.35 80.185 149.92 79.765C150.49 79.345 151.24 79.135 152.17 79.135C153.145 79.135 153.895 79.375 154.435 79.855C154.975 80.335 155.245 81.01 155.245 81.895V85.195C155.245 85.57 155.41 85.75 155.755 85.75H156.13ZM154.015 83.38H151.645C150.505 83.38 149.935 83.815 149.935 84.655C149.935 85.045 150.085 85.345 150.385 85.57C150.685 85.81 151.09 85.915 151.6 85.915C152.35 85.915 152.935 85.72 153.37 85.33C153.79 84.94 154.015 84.415 154.015 83.755V83.38ZM158.26 76.495C158.41 76.645 158.485 76.84 158.485 77.065C158.485 77.305 158.41 77.485 158.26 77.635C158.11 77.785 157.915 77.86 157.69 77.86C157.45 77.86 157.27 77.785 157.12 77.635C156.97 77.485 156.895 77.305 156.895 77.065C156.895 76.84 156.97 76.645 157.12 76.495C157.27 76.345 157.45 76.27 157.69 76.27C157.915 76.27 158.11 76.345 158.26 76.495ZM157.075 79.225H158.305V86.875H157.075V79.225ZM165.975 79.975C166.545 80.545 166.83 81.415 166.83 82.615V86.875H165.6V82.69C165.6 81.91 165.42 81.31 165.06 80.89C164.7 80.47 164.19 80.26 163.53 80.26C162.81 80.26 162.24 80.515 161.835 81.01C161.415 81.52 161.22 82.195 161.22 83.05V86.875H159.99V79.225H161.055L161.22 80.26C161.79 79.51 162.63 79.135 163.74 79.135C164.67 79.135 165.405 79.42 165.975 79.975ZM168.579 80.995C168.879 80.41 169.314 79.96 169.869 79.63C170.409 79.3 171.039 79.135 171.759 79.135C172.449 79.135 173.079 79.285 173.619 79.57C174.159 79.87 174.579 80.29 174.894 80.83C175.194 81.385 175.359 82.03 175.389 82.765C175.389 82.885 175.374 83.05 175.359 83.29H169.419V83.395C169.434 84.145 169.659 84.745 170.109 85.195C170.544 85.645 171.114 85.87 171.834 85.87C172.374 85.87 172.839 85.735 173.229 85.465C173.619 85.195 173.874 84.805 174.009 84.31H175.254C175.104 85.09 174.729 85.735 174.129 86.23C173.529 86.725 172.794 86.965 171.924 86.965C171.159 86.965 170.499 86.815 169.929 86.485C169.359 86.155 168.909 85.705 168.594 85.105C168.279 84.505 168.129 83.83 168.129 83.05C168.129 82.27 168.279 81.595 168.579 80.995ZM174.114 82.27C174.054 81.625 173.799 81.115 173.379 80.755C172.959 80.395 172.419 80.215 171.774 80.215C171.189 80.215 170.679 80.41 170.244 80.785C169.794 81.175 169.554 81.67 169.494 82.27H174.114ZM180.677 79.225V80.425H180.062C179.327 80.425 178.802 80.68 178.487 81.16C178.172 81.655 178.022 82.255 178.022 82.975V86.875H176.792V79.225H177.857L178.022 80.38C178.232 80.035 178.517 79.75 178.877 79.54C179.222 79.33 179.702 79.225 180.332 79.225H180.677ZM185.462 76.375C184.562 77.62 183.917 78.745 183.557 79.735C183.182 80.725 183.002 81.865 183.002 83.125C183.002 84.385 183.182 85.525 183.557 86.515C183.917 87.505 184.562 88.63 185.462 89.875H184.172C183.332 88.735 182.717 87.64 182.342 86.59C181.967 85.54 181.787 84.385 181.787 83.125C181.787 81.865 181.967 80.725 182.342 79.675C182.717 78.625 183.332 77.53 184.172 76.375H185.462ZM188.932 79.675C189.307 80.725 189.502 81.865 189.502 83.125C189.502 84.385 189.307 85.54 188.932 86.59C188.557 87.64 187.957 88.735 187.117 89.875H185.827C186.727 88.63 187.357 87.505 187.732 86.515C188.092 85.525 188.287 84.385 188.287 83.125C188.287 81.865 188.092 80.725 187.732 79.735C187.357 78.745 186.727 77.62 185.827 76.375H187.117C187.957 77.53 188.557 78.625 188.932 79.675ZM197.265 77.83C196.995 78.07 196.875 78.415 196.875 78.865C196.875 78.97 196.89 79.15 196.935 79.405L197.235 80.815C197.28 81.07 197.31 81.28 197.31 81.43C197.31 81.865 197.175 82.225 196.935 82.525C196.68 82.825 196.32 83.02 195.87 83.125C196.32 83.215 196.68 83.395 196.935 83.68C197.19 83.98 197.325 84.34 197.325 84.76C197.325 84.97 197.295 85.195 197.235 85.435L196.935 86.845C196.89 87.115 196.875 87.295 196.875 87.4C196.875 87.85 196.995 88.195 197.265 88.435C197.52 88.675 197.895 88.795 198.39 88.795L198.855 88.81V89.875H198.435C197.58 89.875 196.905 89.68 196.425 89.29C195.945 88.9 195.705 88.345 195.705 87.64C195.705 87.4 195.72 87.19 195.765 86.98L196.05 85.51C196.08 85.33 196.11 85.12 196.11 84.91C196.11 84.52 195.975 84.22 195.72 84.01C195.45 83.8 195.075 83.695 194.595 83.665V82.585C195.09 82.57 195.465 82.45 195.735 82.24C195.99 82.03 196.125 81.73 196.125 81.34C196.125 81.19 196.095 80.995 196.05 80.74L195.765 79.27C195.72 79.075 195.705 78.85 195.705 78.61C195.705 77.92 195.945 77.365 196.425 76.975C196.905 76.585 197.58 76.375 198.435 76.375H198.855V77.44L198.39 77.455C197.895 77.455 197.52 77.59 197.265 77.83Z" fill="#111111"/>
</g>
<path opacity="0.4" d="M35.975 105.225V106.425H35.36C34.625 106.425 34.1 106.68 33.785 107.16C33.47 107.655 33.32 108.255 33.32 108.975V112.875H32.09V105.225H33.155L33.32 106.38C33.53 106.035 33.815 105.75 34.175 105.54C34.52 105.33 35 105.225 35.63 105.225H35.975ZM36.8403 106.995C37.1403 106.41 37.5753 105.96 38.1303 105.63C38.6703 105.3 39.3003 105.135 40.0203 105.135C40.7103 105.135 41.3403 105.285 41.8803 105.57C42.4203 105.87 42.8403 106.29 43.1553 106.83C43.4553 107.385 43.6203 108.03 43.6503 108.765C43.6503 108.885 43.6353 109.05 43.6203 109.29H37.6803V109.395C37.6953 110.145 37.9203 110.745 38.3703 111.195C38.8053 111.645 39.3753 111.87 40.0953 111.87C40.6353 111.87 41.1003 111.735 41.4903 111.465C41.8803 111.195 42.1353 110.805 42.2703 110.31H43.5153C43.3653 111.09 42.9903 111.735 42.3903 112.23C41.7903 112.725 41.0553 112.965 40.1853 112.965C39.4203 112.965 38.7603 112.815 38.1903 112.485C37.6203 112.155 37.1703 111.705 36.8553 111.105C36.5403 110.505 36.3903 109.83 36.3903 109.05C36.3903 108.27 36.5403 107.595 36.8403 106.995ZM42.3753 108.27C42.3153 107.625 42.0603 107.115 41.6403 106.755C41.2203 106.395 40.6803 106.215 40.0353 106.215C39.4503 106.215 38.9403 106.41 38.5053 106.785C38.0553 107.175 37.8153 107.67 37.7553 108.27H42.3753ZM45.476 106.35H44.096V105.225H45.476V103.08H46.706V105.225H48.641V106.35H46.706V110.865C46.706 111.195 46.766 111.42 46.886 111.555C47.006 111.69 47.231 111.75 47.546 111.75H48.881V112.875H47.471C46.751 112.875 46.226 112.725 45.926 112.395C45.626 112.08 45.476 111.57 45.476 110.88V106.35ZM56.341 105.225V112.875H55.276L55.111 111.855C54.526 112.605 53.716 112.965 52.666 112.965C51.751 112.965 51.016 112.695 50.476 112.125C49.921 111.57 49.651 110.685 49.651 109.485V105.225H50.881V109.41C50.881 110.205 51.046 110.805 51.391 111.225C51.736 111.645 52.231 111.84 52.876 111.84C53.566 111.84 54.121 111.6 54.511 111.09C54.901 110.595 55.111 109.92 55.111 109.05V105.225H56.341ZM61.9027 105.225V106.425H61.2877C60.5527 106.425 60.0277 106.68 59.7127 107.16C59.3977 107.655 59.2477 108.255 59.2477 108.975V112.875H58.0177V105.225H59.0827L59.2477 106.38C59.4577 106.035 59.7427 105.75 60.1027 105.54C60.4477 105.33 60.9277 105.225 61.5577 105.225H61.9027ZM69.0125 105.975C69.5825 106.545 69.8675 107.415 69.8675 108.615V112.875H68.6375V108.69C68.6375 107.91 68.4575 107.31 68.0975 106.89C67.7375 106.47 67.2275 106.26 66.5675 106.26C65.8475 106.26 65.2775 106.515 64.8725 107.01C64.4525 107.52 64.2575 108.195 64.2575 109.05V112.875H63.0275V105.225H64.0925L64.2575 106.26C64.8275 105.51 65.6675 105.135 66.7775 105.135C67.7075 105.135 68.4425 105.42 69.0125 105.975ZM77.6115 103.83C77.3415 104.07 77.2215 104.415 77.2215 104.865C77.2215 104.97 77.2365 105.15 77.2815 105.405L77.5815 106.815C77.6265 107.07 77.6565 107.28 77.6565 107.43C77.6565 107.865 77.5215 108.225 77.2815 108.525C77.0265 108.825 76.6665 109.02 76.2165 109.125C76.6665 109.215 77.0265 109.395 77.2815 109.68C77.5365 109.98 77.6715 110.34 77.6715 110.76C77.6715 110.97 77.6415 111.195 77.5815 111.435L77.2815 112.845C77.2365 113.115 77.2215 113.295 77.2215 113.4C77.2215 113.85 77.3415 114.195 77.6115 114.435C77.8665 114.675 78.2415 114.795 78.7365 114.795L79.2015 114.81V115.875H78.7815C77.9265 115.875 77.2515 115.68 76.7715 115.29C76.2915 114.9 76.0515 114.345 76.0515 113.64C76.0515 113.4 76.0665 113.19 76.1115 112.98L76.3965 111.51C76.4265 111.33 76.4565 111.12 76.4565 110.91C76.4565 110.52 76.3215 110.22 76.0665 110.01C75.7965 109.8 75.4215 109.695 74.9415 109.665V108.585C75.4365 108.57 75.8115 108.45 76.0815 108.24C76.3365 108.03 76.4715 107.73 76.4715 107.34C76.4715 107.19 76.4415 106.995 76.3965 106.74L76.1115 105.27C76.0665 105.075 76.0515 104.85 76.0515 104.61C76.0515 103.92 76.2915 103.365 76.7715 102.975C77.2515 102.585 77.9265 102.375 78.7815 102.375H79.2015V103.44L78.7365 103.455C78.2415 103.455 77.8665 103.59 77.6115 103.83Z" fill="#FFA3A1"/>
<path opacity="0.4" d="M44.83 135.2V134.03L50.53 131.48V132.68L46.21 134.615L50.53 136.55V137.75L44.83 135.2ZM51.7512 128.375H53.1312L56.3412 137.33L59.5362 128.375H60.8862L57.1062 138.875H55.5312L51.7512 128.375ZM63.0455 128.495C63.1955 128.645 63.2705 128.84 63.2705 129.065C63.2705 129.305 63.1955 129.485 63.0455 129.635C62.8955 129.785 62.7005 129.86 62.4755 129.86C62.2355 129.86 62.0555 129.785 61.9055 129.635C61.7555 129.485 61.6805 129.305 61.6805 129.065C61.6805 128.84 61.7555 128.645 61.9055 128.495C62.0555 128.345 62.2355 128.27 62.4755 128.27C62.7005 128.27 62.8955 128.345 63.0455 128.495ZM61.8605 131.225H63.0905V138.875H61.8605V131.225ZM64.9555 132.995C65.2555 132.41 65.6905 131.96 66.2455 131.63C66.7855 131.3 67.4155 131.135 68.1355 131.135C68.8255 131.135 69.4555 131.285 69.9955 131.57C70.5355 131.87 70.9555 132.29 71.2705 132.83C71.5705 133.385 71.7355 134.03 71.7655 134.765C71.7655 134.885 71.7505 135.05 71.7355 135.29H65.7955V135.395C65.8105 136.145 66.0355 136.745 66.4855 137.195C66.9205 137.645 67.4905 137.87 68.2105 137.87C68.7505 137.87 69.2155 137.735 69.6055 137.465C69.9955 137.195 70.2505 136.805 70.3855 136.31H71.6305C71.4805 137.09 71.1055 137.735 70.5055 138.23C69.9055 138.725 69.1705 138.965 68.3005 138.965C67.5355 138.965 66.8755 138.815 66.3055 138.485C65.7355 138.155 65.2855 137.705 64.9705 137.105C64.6555 136.505 64.5055 135.83 64.5055 135.05C64.5055 134.27 64.6555 133.595 64.9555 132.995ZM70.4905 134.27C70.4305 133.625 70.1755 133.115 69.7555 132.755C69.3355 132.395 68.7955 132.215 68.1505 132.215C67.5655 132.215 67.0555 132.41 66.6205 132.785C66.1705 133.175 65.9305 133.67 65.8705 134.27H70.4905ZM72.2294 131.225H73.5194L75.4244 137.45L77.4344 131.225H78.5744L80.4794 137.45L82.4744 131.225H83.7194L81.1694 138.875H79.8194L77.9744 133.19L76.0544 138.875L74.7044 138.89L72.2294 131.225ZM89.5686 136.355C89.5836 136.82 89.7786 137.195 90.1686 137.48C90.5586 137.78 91.0536 137.915 91.6686 137.915C92.2086 137.915 92.6436 137.81 92.9736 137.6C93.3036 137.39 93.4836 137.105 93.4836 136.745C93.4836 136.445 93.3936 136.22 93.2436 136.055C93.0786 135.905 92.8686 135.785 92.6136 135.725C92.3586 135.665 91.9986 135.605 91.5336 135.545C90.8736 135.47 90.3336 135.365 89.9136 135.23C89.4936 135.11 89.1486 134.9 88.8936 134.615C88.6236 134.33 88.5036 133.94 88.5036 133.43C88.5036 132.98 88.6236 132.59 88.8786 132.23C89.1336 131.885 89.4786 131.615 89.9286 131.42C90.3636 131.225 90.8586 131.12 91.4136 131.12C92.3136 131.12 93.0336 131.33 93.6036 131.75C94.1736 132.17 94.4886 132.77 94.5486 133.55H93.3186C93.2586 133.16 93.0636 132.83 92.7336 132.56C92.3886 132.305 91.9686 132.17 91.4586 132.17C90.9336 132.17 90.5136 132.29 90.1986 132.5C89.8686 132.71 89.7186 132.995 89.7186 133.34C89.7186 133.61 89.7936 133.805 89.9436 133.94C90.0936 134.09 90.2736 134.18 90.5136 134.225C90.7536 134.285 91.1136 134.33 91.5936 134.39C92.2536 134.48 92.8086 134.585 93.2436 134.72C93.6786 134.87 94.0236 135.095 94.2936 135.395C94.5636 135.71 94.6986 136.13 94.6986 136.655C94.6986 137.12 94.5636 137.525 94.2936 137.87C94.0236 138.23 93.6486 138.5 93.1986 138.68C92.7336 138.875 92.2236 138.965 91.6686 138.965C90.6636 138.965 89.8536 138.74 89.2536 138.275C88.6536 137.825 88.3386 137.18 88.3386 136.355H89.5686ZM96.6039 132.35H95.2239V131.225H96.6039V129.08H97.8339V131.225H99.7689V132.35H97.8339V136.865C97.8339 137.195 97.8939 137.42 98.0139 137.555C98.1339 137.69 98.3589 137.75 98.6739 137.75H100.009V138.875H98.5989C97.8789 138.875 97.3539 138.725 97.0539 138.395C96.7539 138.08 96.6039 137.57 96.6039 136.88V132.35ZM101.424 131.225L103.779 137.465L106.059 131.225H107.364L103.839 140.165C103.659 140.63 103.494 140.975 103.359 141.2C103.209 141.44 103.044 141.605 102.834 141.71C102.624 141.83 102.339 141.875 101.994 141.875H100.524V140.75H101.619C101.859 140.75 102.039 140.735 102.159 140.675C102.279 140.63 102.369 140.555 102.444 140.435C102.519 140.315 102.609 140.12 102.729 139.85L103.119 138.935L100.119 131.225H101.424ZM108.281 128.375H109.511V138.875H108.281V128.375ZM111.376 132.995C111.676 132.41 112.111 131.96 112.666 131.63C113.206 131.3 113.836 131.135 114.556 131.135C115.246 131.135 115.876 131.285 116.416 131.57C116.956 131.87 117.376 132.29 117.691 132.83C117.991 133.385 118.156 134.03 118.186 134.765C118.186 134.885 118.171 135.05 118.156 135.29H112.216V135.395C112.231 136.145 112.456 136.745 112.906 137.195C113.341 137.645 113.911 137.87 114.631 137.87C115.171 137.87 115.636 137.735 116.026 137.465C116.416 137.195 116.671 136.805 116.806 136.31H118.051C117.901 137.09 117.526 137.735 116.926 138.23C116.326 138.725 115.591 138.965 114.721 138.965C113.956 138.965 113.296 138.815 112.726 138.485C112.156 138.155 111.706 137.705 111.391 137.105C111.076 136.505 110.926 135.83 110.926 135.05C110.926 134.27 111.076 133.595 111.376 132.995ZM116.911 134.27C116.851 133.625 116.596 133.115 116.176 132.755C115.756 132.395 115.216 132.215 114.571 132.215C113.986 132.215 113.476 132.41 113.041 132.785C112.591 133.175 112.351 133.67 112.291 134.27H116.911ZM119.77 133.7V132.65H125.59V133.7H119.77ZM119.77 136.82V135.785H125.59V136.82H119.77ZM129.706 129.83C129.436 130.07 129.316 130.415 129.316 130.865C129.316 130.97 129.331 131.15 129.376 131.405L129.676 132.815C129.721 133.07 129.751 133.28 129.751 133.43C129.751 133.865 129.616 134.225 129.376 134.525C129.121 134.825 128.761 135.02 128.311 135.125C128.761 135.215 129.121 135.395 129.376 135.68C129.631 135.98 129.766 136.34 129.766 136.76C129.766 136.97 129.736 137.195 129.676 137.435L129.376 138.845C129.331 139.115 129.316 139.295 129.316 139.4C129.316 139.85 129.436 140.195 129.706 140.435C129.961 140.675 130.336 140.795 130.831 140.795L131.296 140.81V141.875H130.876C130.021 141.875 129.346 141.68 128.866 141.29C128.386 140.9 128.146 140.345 128.146 139.64C128.146 139.4 128.161 139.19 128.206 138.98L128.491 137.51C128.521 137.33 128.551 137.12 128.551 136.91C128.551 136.52 128.416 136.22 128.161 136.01C127.891 135.8 127.516 135.695 127.036 135.665V134.585C127.531 134.57 127.906 134.45 128.176 134.24C128.431 134.03 128.566 133.73 128.566 133.34C128.566 133.19 128.536 132.995 128.491 132.74L128.206 131.27C128.161 131.075 128.146 130.85 128.146 130.61C128.146 129.92 128.386 129.365 128.866 128.975C129.346 128.585 130.021 128.375 130.876 128.375H131.296V129.44L130.831 129.455C130.336 129.455 129.961 129.59 129.706 129.83ZM133.353 136.355C133.368 136.82 133.563 137.195 133.953 137.48C134.343 137.78 134.838 137.915 135.453 137.915C135.993 137.915 136.428 137.81 136.758 137.6C137.088 137.39 137.268 137.105 137.268 136.745C137.268 136.445 137.178 136.22 137.028 136.055C136.863 135.905 136.653 135.785 136.398 135.725C136.143 135.665 135.783 135.605 135.318 135.545C134.658 135.47 134.118 135.365 133.698 135.23C133.278 135.11 132.933 134.9 132.678 134.615C132.408 134.33 132.288 133.94 132.288 133.43C132.288 132.98 132.408 132.59 132.663 132.23C132.918 131.885 133.263 131.615 133.713 131.42C134.148 131.225 134.643 131.12 135.198 131.12C136.098 131.12 136.818 131.33 137.388 131.75C137.958 132.17 138.273 132.77 138.333 133.55H137.103C137.043 133.16 136.848 132.83 136.518 132.56C136.173 132.305 135.753 132.17 135.243 132.17C134.718 132.17 134.298 132.29 133.983 132.5C133.653 132.71 133.503 132.995 133.503 133.34C133.503 133.61 133.578 133.805 133.728 133.94C133.878 134.09 134.058 134.18 134.298 134.225C134.538 134.285 134.898 134.33 135.378 134.39C136.038 134.48 136.593 134.585 137.028 134.72C137.463 134.87 137.808 135.095 138.078 135.395C138.348 135.71 138.483 136.13 138.483 136.655C138.483 137.12 138.348 137.525 138.078 137.87C137.808 138.23 137.433 138.5 136.983 138.68C136.518 138.875 136.008 138.965 135.453 138.965C134.448 138.965 133.638 138.74 133.038 138.275C132.438 137.825 132.123 137.18 132.123 136.355H133.353ZM140.388 132.35H139.008V131.225H140.388V129.08H141.618V131.225H143.553V132.35H141.618V136.865C141.618 137.195 141.678 137.42 141.798 137.555C141.918 137.69 142.143 137.75 142.458 137.75H143.793V138.875H142.383C141.663 138.875 141.138 138.725 140.838 138.395C140.538 138.08 140.388 137.57 140.388 136.88V132.35ZM145.208 131.225L147.563 137.465L149.843 131.225H151.148L147.623 140.165C147.443 140.63 147.278 140.975 147.143 141.2C146.993 141.44 146.828 141.605 146.618 141.71C146.408 141.83 146.123 141.875 145.778 141.875H144.308V140.75H145.403C145.643 140.75 145.823 140.735 145.943 140.675C146.063 140.63 146.153 140.555 146.228 140.435C146.303 140.315 146.393 140.12 146.513 139.85L146.903 138.935L143.903 131.225H145.208ZM152.066 128.375H153.296V138.875H152.066V128.375ZM155.161 132.995C155.461 132.41 155.896 131.96 156.451 131.63C156.991 131.3 157.621 131.135 158.341 131.135C159.031 131.135 159.661 131.285 160.201 131.57C160.741 131.87 161.161 132.29 161.476 132.83C161.776 133.385 161.941 134.03 161.971 134.765C161.971 134.885 161.956 135.05 161.941 135.29H156.001V135.395C156.016 136.145 156.241 136.745 156.691 137.195C157.126 137.645 157.696 137.87 158.416 137.87C158.956 137.87 159.421 137.735 159.811 137.465C160.201 137.195 160.456 136.805 160.591 136.31H161.836C161.686 137.09 161.311 137.735 160.711 138.23C160.111 138.725 159.376 138.965 158.506 138.965C157.741 138.965 157.081 138.815 156.511 138.485C155.941 138.155 155.491 137.705 155.176 137.105C154.861 136.505 154.711 135.83 154.711 135.05C154.711 134.27 154.861 133.595 155.161 132.995ZM160.696 134.27C160.636 133.625 160.381 133.115 159.961 132.755C159.541 132.395 159.001 132.215 158.356 132.215C157.771 132.215 157.261 132.41 156.826 132.785C156.376 133.175 156.136 133.67 156.076 134.27H160.696ZM164.305 136.355C164.32 136.82 164.515 137.195 164.905 137.48C165.295 137.78 165.79 137.915 166.405 137.915C166.945 137.915 167.38 137.81 167.71 137.6C168.04 137.39 168.22 137.105 168.22 136.745C168.22 136.445 168.13 136.22 167.98 136.055C167.815 135.905 167.605 135.785 167.35 135.725C167.095 135.665 166.735 135.605 166.27 135.545C165.61 135.47 165.07 135.365 164.65 135.23C164.23 135.11 163.885 134.9 163.63 134.615C163.36 134.33 163.24 133.94 163.24 133.43C163.24 132.98 163.36 132.59 163.615 132.23C163.87 131.885 164.215 131.615 164.665 131.42C165.1 131.225 165.595 131.12 166.15 131.12C167.05 131.12 167.77 131.33 168.34 131.75C168.91 132.17 169.225 132.77 169.285 133.55H168.055C167.995 133.16 167.8 132.83 167.47 132.56C167.125 132.305 166.705 132.17 166.195 132.17C165.67 132.17 165.25 132.29 164.935 132.5C164.605 132.71 164.455 132.995 164.455 133.34C164.455 133.61 164.53 133.805 164.68 133.94C164.83 134.09 165.01 134.18 165.25 134.225C165.49 134.285 165.85 134.33 166.33 134.39C166.99 134.48 167.545 134.585 167.98 134.72C168.415 134.87 168.76 135.095 169.03 135.395C169.3 135.71 169.435 136.13 169.435 136.655C169.435 137.12 169.3 137.525 169.03 137.87C168.76 138.23 168.385 138.5 167.935 138.68C167.47 138.875 166.96 138.965 166.405 138.965C165.4 138.965 164.59 138.74 163.99 138.275C163.39 137.825 163.075 137.18 163.075 136.355H164.305ZM170.803 137.525C170.953 137.375 171.163 137.285 171.418 137.285C171.658 137.285 171.868 137.375 172.033 137.525C172.183 137.675 172.273 137.885 172.273 138.125C172.273 138.38 172.183 138.59 172.033 138.74C171.868 138.89 171.658 138.965 171.418 138.965C171.163 138.965 170.953 138.89 170.803 138.74C170.638 138.59 170.563 138.38 170.563 138.125C170.563 137.885 170.638 137.675 170.803 137.525ZM173.486 132.995C173.786 132.41 174.221 131.96 174.776 131.63C175.316 131.3 175.946 131.135 176.666 131.135C177.356 131.135 177.986 131.285 178.526 131.57C179.066 131.87 179.486 132.29 179.801 132.83C180.101 133.385 180.266 134.03 180.296 134.765C180.296 134.885 180.281 135.05 180.266 135.29H174.326V135.395C174.341 136.145 174.566 136.745 175.016 137.195C175.451 137.645 176.021 137.87 176.741 137.87C177.281 137.87 177.746 137.735 178.136 137.465C178.526 137.195 178.781 136.805 178.916 136.31H180.161C180.011 137.09 179.636 137.735 179.036 138.23C178.436 138.725 177.701 138.965 176.831 138.965C176.066 138.965 175.406 138.815 174.836 138.485C174.266 138.155 173.816 137.705 173.501 137.105C173.186 136.505 173.036 135.83 173.036 135.05C173.036 134.27 173.186 133.595 173.486 132.995ZM179.021 134.27C178.961 133.625 178.706 133.115 178.286 132.755C177.866 132.395 177.326 132.215 176.681 132.215C176.096 132.215 175.586 132.41 175.151 132.785C174.701 133.175 174.461 133.67 174.401 134.27H179.021ZM192.319 131.945C192.859 132.485 193.129 133.325 193.129 134.465V138.875H191.899V134.54C191.899 133.805 191.734 133.235 191.419 132.845C191.104 132.455 190.654 132.26 190.084 132.26C189.439 132.26 188.929 132.485 188.569 132.935C188.209 133.385 188.029 134 188.029 134.78V138.875H186.799V134.54C186.799 133.805 186.634 133.235 186.319 132.845C185.989 132.455 185.539 132.26 184.954 132.26C184.324 132.26 183.829 132.5 183.469 132.98C183.109 133.46 182.929 134.075 182.929 134.84V138.875H181.699V131.225H182.764L182.929 132.275C183.469 131.525 184.219 131.135 185.164 131.135C185.704 131.135 186.199 131.27 186.619 131.51C187.039 131.75 187.369 132.11 187.579 132.59C188.119 131.63 189.004 131.135 190.234 131.135C191.089 131.135 191.779 131.405 192.319 131.945ZM196.252 138.47C195.682 138.14 195.232 137.69 194.917 137.09C194.587 136.505 194.437 135.83 194.437 135.05C194.437 134.285 194.587 133.61 194.917 133.01C195.232 132.425 195.682 131.96 196.252 131.63C196.822 131.3 197.482 131.135 198.232 131.135C198.967 131.135 199.627 131.3 200.197 131.63C200.767 131.96 201.217 132.425 201.547 133.01C201.862 133.61 202.027 134.285 202.027 135.05C202.027 135.83 201.862 136.505 201.547 137.09C201.217 137.69 200.767 138.14 200.197 138.47C199.627 138.8 198.967 138.965 198.232 138.965C197.482 138.965 196.822 138.8 196.252 138.47ZM199.552 137.51C199.942 137.27 200.242 136.94 200.452 136.505C200.662 136.085 200.767 135.59 200.767 135.05C200.767 134.51 200.662 134.03 200.452 133.595C200.242 133.175 199.942 132.83 199.552 132.59C199.162 132.35 198.727 132.23 198.232 132.23C197.722 132.23 197.287 132.35 196.897 132.59C196.507 132.83 196.222 133.175 196.012 133.595C195.802 134.03 195.697 134.51 195.697 135.05C195.697 135.59 195.802 136.085 196.012 136.505C196.222 136.94 196.507 137.27 196.897 137.51C197.287 137.75 197.722 137.87 198.232 137.87C198.727 137.87 199.162 137.75 199.552 137.51ZM204.713 128.495C204.863 128.645 204.938 128.84 204.938 129.065C204.938 129.305 204.863 129.485 204.713 129.635C204.563 129.785 204.368 129.86 204.143 129.86C203.903 129.86 203.723 129.785 203.573 129.635C203.423 129.485 203.348 129.305 203.348 129.065C203.348 128.84 203.423 128.645 203.573 128.495C203.723 128.345 203.903 128.27 204.143 128.27C204.368 128.27 204.563 128.345 204.713 128.495ZM202.688 140.75C202.988 140.75 203.198 140.69 203.333 140.555C203.453 140.435 203.528 140.21 203.528 139.91V131.225H204.758V139.88C204.758 140.57 204.593 141.065 204.278 141.395C203.963 141.725 203.453 141.875 202.763 141.875H201.728V140.75H202.688ZM207.626 128.495C207.776 128.645 207.851 128.84 207.851 129.065C207.851 129.305 207.776 129.485 207.626 129.635C207.476 129.785 207.281 129.86 207.056 129.86C206.816 129.86 206.636 129.785 206.486 129.635C206.336 129.485 206.261 129.305 206.261 129.065C206.261 128.84 206.336 128.645 206.486 128.495C206.636 128.345 206.816 128.27 207.056 128.27C207.281 128.27 207.476 128.345 207.626 128.495ZM206.441 131.225H207.671V138.875H206.441V131.225ZM213.571 128.375C214.261 128.375 214.861 128.51 215.401 128.78C215.926 129.05 216.331 129.425 216.616 129.905C216.901 130.385 217.051 130.955 217.051 131.6C217.051 132.26 216.901 132.83 216.616 133.31C216.316 133.805 215.911 134.18 215.386 134.45C214.861 134.72 214.261 134.84 213.571 134.84H210.841V138.875H209.536V128.375H213.571ZM210.841 133.64H213.451C214.141 133.64 214.681 133.46 215.101 133.085C215.506 132.725 215.716 132.23 215.716 131.6C215.716 130.985 215.506 130.49 215.101 130.13C214.696 129.77 214.156 129.575 213.466 129.575H210.841V133.64ZM219.411 138.47C218.841 138.14 218.391 137.69 218.076 137.09C217.746 136.505 217.596 135.83 217.596 135.05C217.596 134.285 217.746 133.61 218.076 133.01C218.391 132.425 218.841 131.96 219.411 131.63C219.981 131.3 220.641 131.135 221.391 131.135C222.126 131.135 222.786 131.3 223.356 131.63C223.926 131.96 224.376 132.425 224.706 133.01C225.021 133.61 225.186 134.285 225.186 135.05C225.186 135.83 225.021 136.505 224.706 137.09C224.376 137.69 223.926 138.14 223.356 138.47C222.786 138.8 222.126 138.965 221.391 138.965C220.641 138.965 219.981 138.8 219.411 138.47ZM222.711 137.51C223.101 137.27 223.401 136.94 223.611 136.505C223.821 136.085 223.926 135.59 223.926 135.05C223.926 134.51 223.821 134.03 223.611 133.595C223.401 133.175 223.101 132.83 222.711 132.59C222.321 132.35 221.886 132.23 221.391 132.23C220.881 132.23 220.446 132.35 220.056 132.59C219.666 132.83 219.381 133.175 219.171 133.595C218.961 134.03 218.856 134.51 218.856 135.05C218.856 135.59 218.961 136.085 219.171 136.505C219.381 136.94 219.666 137.27 220.056 137.51C220.446 137.75 220.881 137.87 221.391 137.87C221.886 137.87 222.321 137.75 222.711 137.51ZM232.342 131.6C232.897 131.915 233.332 132.365 233.647 132.95C233.962 133.55 234.127 134.24 234.127 135.05C234.127 135.83 233.962 136.505 233.647 137.09C233.332 137.69 232.897 138.14 232.342 138.47C231.772 138.8 231.142 138.965 230.452 138.965C229.822 138.965 229.297 138.86 228.862 138.635C228.412 138.41 228.067 138.095 227.827 137.705V141.875H226.597V131.225H227.662L227.827 132.455C228.457 131.585 229.342 131.135 230.452 131.135C231.157 131.135 231.787 131.3 232.342 131.6ZM232.162 137.09C232.627 136.565 232.867 135.89 232.867 135.05C232.867 134.225 232.627 133.55 232.162 133.025C231.697 132.5 231.082 132.23 230.332 132.23C229.837 132.23 229.402 132.35 229.012 132.59C228.622 132.83 228.337 133.16 228.127 133.58C227.917 134 227.812 134.48 227.812 135.02C227.812 135.575 227.917 136.07 228.127 136.505C228.337 136.94 228.622 137.27 229.012 137.51C229.402 137.75 229.837 137.87 230.332 137.87C231.082 137.87 231.697 137.615 232.162 137.09ZM242.117 131.225V138.875H241.052L240.887 137.855C240.302 138.605 239.492 138.965 238.442 138.965C237.527 138.965 236.792 138.695 236.252 138.125C235.697 137.57 235.427 136.685 235.427 135.485V131.225H236.657V135.41C236.657 136.205 236.822 136.805 237.167 137.225C237.512 137.645 238.007 137.84 238.652 137.84C239.342 137.84 239.897 137.6 240.287 137.09C240.677 136.595 240.887 135.92 240.887 135.05V131.225H242.117ZM249.539 131.6C250.094 131.915 250.529 132.365 250.844 132.95C251.159 133.55 251.324 134.24 251.324 135.05C251.324 135.83 251.159 136.505 250.844 137.09C250.529 137.69 250.094 138.14 249.539 138.47C248.969 138.8 248.339 138.965 247.649 138.965C247.019 138.965 246.494 138.86 246.059 138.635C245.609 138.41 245.264 138.095 245.024 137.705V141.875H243.794V131.225H244.859L245.024 132.455C245.654 131.585 246.539 131.135 247.649 131.135C248.354 131.135 248.984 131.3 249.539 131.6ZM249.359 137.09C249.824 136.565 250.064 135.89 250.064 135.05C250.064 134.225 249.824 133.55 249.359 133.025C248.894 132.5 248.279 132.23 247.529 132.23C247.034 132.23 246.599 132.35 246.209 132.59C245.819 132.83 245.534 133.16 245.324 133.58C245.114 134 245.009 134.48 245.009 135.02C245.009 135.575 245.114 136.07 245.324 136.505C245.534 136.94 245.819 137.27 246.209 137.51C246.599 137.75 247.034 137.87 247.529 137.87C248.279 137.87 248.894 137.615 249.359 137.09ZM253.135 130.835C253.54 130.025 254.125 129.41 254.89 128.96C255.64 128.51 256.525 128.285 257.53 128.285C258.685 128.285 259.66 128.6 260.44 129.23C261.22 129.86 261.715 130.73 261.925 131.81H260.62C260.425 131.09 260.05 130.52 259.495 130.1C258.94 129.695 258.265 129.485 257.47 129.485C256.75 129.485 256.105 129.665 255.565 130.01C255.01 130.37 254.59 130.85 254.29 131.48C253.99 132.11 253.855 132.815 253.855 133.625C253.855 134.435 253.99 135.14 254.29 135.77C254.59 136.4 255.01 136.895 255.565 137.24C256.105 137.6 256.75 137.765 257.47 137.765C258.28 137.765 258.955 137.57 259.495 137.165C260.035 136.76 260.395 136.19 260.605 135.44H261.91C261.7 136.535 261.22 137.39 260.44 138.02C259.66 138.65 258.7 138.965 257.53 138.965C256.525 138.965 255.64 138.755 254.89 138.305C254.125 137.855 253.54 137.24 253.135 136.43C252.715 135.62 252.52 134.69 252.52 133.625C252.52 132.575 252.715 131.645 253.135 130.835ZM264.924 138.47C264.354 138.14 263.904 137.69 263.589 137.09C263.259 136.505 263.109 135.83 263.109 135.05C263.109 134.285 263.259 133.61 263.589 133.01C263.904 132.425 264.354 131.96 264.924 131.63C265.494 131.3 266.154 131.135 266.904 131.135C267.639 131.135 268.299 131.3 268.869 131.63C269.439 131.96 269.889 132.425 270.219 133.01C270.534 133.61 270.699 134.285 270.699 135.05C270.699 135.83 270.534 136.505 270.219 137.09C269.889 137.69 269.439 138.14 268.869 138.47C268.299 138.8 267.639 138.965 266.904 138.965C266.154 138.965 265.494 138.8 264.924 138.47ZM268.224 137.51C268.614 137.27 268.914 136.94 269.124 136.505C269.334 136.085 269.439 135.59 269.439 135.05C269.439 134.51 269.334 134.03 269.124 133.595C268.914 133.175 268.614 132.83 268.224 132.59C267.834 132.35 267.399 132.23 266.904 132.23C266.394 132.23 265.959 132.35 265.569 132.59C265.179 132.83 264.894 133.175 264.684 133.595C264.474 134.03 264.369 134.51 264.369 135.05C264.369 135.59 264.474 136.085 264.684 136.505C264.894 136.94 265.179 137.27 265.569 137.51C265.959 137.75 266.394 137.87 266.904 137.87C267.399 137.87 267.834 137.75 268.224 137.51ZM278.095 131.975C278.665 132.545 278.95 133.415 278.95 134.615V138.875H277.72V134.69C277.72 133.91 277.54 133.31 277.18 132.89C276.82 132.47 276.31 132.26 275.65 132.26C274.93 132.26 274.36 132.515 273.955 133.01C273.535 133.52 273.34 134.195 273.34 135.05V138.875H272.11V131.225H273.175L273.34 132.26C273.91 131.51 274.75 131.135 275.86 131.135C276.79 131.135 277.525 131.42 278.095 131.975ZM281.028 132.35H279.648V131.225H281.028V129.08H282.258V131.225H284.193V132.35H282.258V136.865C282.258 137.195 282.318 137.42 282.438 137.555C282.558 137.69 282.783 137.75 283.098 137.75H284.433V138.875H283.023C282.303 138.875 281.778 138.725 281.478 138.395C281.178 138.08 281.028 137.57 281.028 136.88V132.35ZM292.346 137.75V138.875H291.671C291.176 138.875 290.831 138.785 290.621 138.575C290.411 138.38 290.291 138.08 290.291 137.69C289.691 138.545 288.836 138.965 287.726 138.965C286.871 138.965 286.181 138.77 285.671 138.365C285.161 137.975 284.906 137.42 284.906 136.73C284.906 135.965 285.161 135.38 285.686 134.96C286.211 134.555 286.976 134.345 287.981 134.345H290.231V133.82C290.231 133.325 290.051 132.935 289.721 132.65C289.391 132.38 288.926 132.23 288.326 132.23C287.786 132.23 287.351 132.35 287.006 132.59C286.661 132.83 286.451 133.13 286.376 133.52H285.146C285.236 132.77 285.566 132.185 286.136 131.765C286.706 131.345 287.456 131.135 288.386 131.135C289.361 131.135 290.111 131.375 290.651 131.855C291.191 132.335 291.461 133.01 291.461 133.895V137.195C291.461 137.57 291.626 137.75 291.971 137.75H292.346ZM290.231 135.38H287.861C286.721 135.38 286.151 135.815 286.151 136.655C286.151 137.045 286.301 137.345 286.601 137.57C286.901 137.81 287.306 137.915 287.816 137.915C288.566 137.915 289.151 137.72 289.586 137.33C290.006 136.94 290.231 136.415 290.231 135.755V135.38ZM294.476 128.495C294.626 128.645 294.701 128.84 294.701 129.065C294.701 129.305 294.626 129.485 294.476 129.635C294.326 129.785 294.131 129.86 293.906 129.86C293.666 129.86 293.486 129.785 293.336 129.635C293.186 129.485 293.111 129.305 293.111 129.065C293.111 128.84 293.186 128.645 293.336 128.495C293.486 128.345 293.666 128.27 293.906 128.27C294.131 128.27 294.326 128.345 294.476 128.495ZM293.291 131.225H294.521V138.875H293.291V131.225ZM302.191 131.975C302.761 132.545 303.046 133.415 303.046 134.615V138.875H301.816V134.69C301.816 133.91 301.636 133.31 301.276 132.89C300.916 132.47 300.406 132.26 299.746 132.26C299.026 132.26 298.456 132.515 298.051 133.01C297.631 133.52 297.436 134.195 297.436 135.05V138.875H296.206V131.225H297.271L297.436 132.26C298.006 131.51 298.846 131.135 299.956 131.135C300.886 131.135 301.621 131.42 302.191 131.975ZM304.794 132.995C305.094 132.41 305.529 131.96 306.084 131.63C306.624 131.3 307.254 131.135 307.974 131.135C308.664 131.135 309.294 131.285 309.834 131.57C310.374 131.87 310.794 132.29 311.109 132.83C311.409 133.385 311.574 134.03 311.604 134.765C311.604 134.885 311.589 135.05 311.574 135.29H305.634V135.395C305.649 136.145 305.874 136.745 306.324 137.195C306.759 137.645 307.329 137.87 308.049 137.87C308.589 137.87 309.054 137.735 309.444 137.465C309.834 137.195 310.089 136.805 310.224 136.31H311.469C311.319 137.09 310.944 137.735 310.344 138.23C309.744 138.725 309.009 138.965 308.139 138.965C307.374 138.965 306.714 138.815 306.144 138.485C305.574 138.155 305.124 137.705 304.809 137.105C304.494 136.505 304.344 135.83 304.344 135.05C304.344 134.27 304.494 133.595 304.794 132.995ZM310.329 134.27C310.269 133.625 310.014 133.115 309.594 132.755C309.174 132.395 308.634 132.215 307.989 132.215C307.404 132.215 306.894 132.41 306.459 132.785C306.009 133.175 305.769 133.67 305.709 134.27H310.329ZM316.893 131.225V132.425H316.278C315.543 132.425 315.018 132.68 314.703 133.16C314.388 133.655 314.238 134.255 314.238 134.975V138.875H313.008V131.225H314.073L314.238 132.38C314.448 132.035 314.733 131.75 315.093 131.54C315.438 131.33 315.918 131.225 316.548 131.225H316.893ZM320.358 131.675C320.733 132.725 320.928 133.865 320.928 135.125C320.928 136.385 320.733 137.54 320.358 138.59C319.983 139.64 319.383 140.735 318.543 141.875H317.253C318.153 140.63 318.783 139.505 319.158 138.515C319.518 137.525 319.713 136.385 319.713 135.125C319.713 133.865 319.518 132.725 319.158 131.735C318.783 130.745 318.153 129.62 317.253 128.375H318.543C319.383 129.53 319.983 130.625 320.358 131.675ZM328.455 134.03V135.2L322.755 137.75V136.55L327.075 134.615L322.755 132.68V131.48L328.455 134.03Z" fill="#111111"/>
<path d="M20.686 19.662C20.28 20.418 19.72 21.02 18.992 21.44C18.264 21.874 17.452 22.084 16.528 22.084C15.604 22.084 14.778 21.874 14.05 21.44C13.322 21.02 12.762 20.418 12.37 19.662C11.964 18.906 11.768 18.052 11.768 17.1C11.768 16.148 11.964 15.294 12.37 14.538C12.762 13.782 13.322 13.194 14.05 12.76C14.778 12.34 15.604 12.116 16.528 12.116C17.452 12.116 18.264 12.34 18.992 12.76C19.72 13.194 20.28 13.782 20.686 14.538C21.078 15.294 21.288 16.148 21.288 17.1C21.288 18.052 21.078 18.906 20.686 19.662ZM13.812 18.948C14.064 19.494 14.428 19.914 14.904 20.222C15.38 20.53 15.912 20.67 16.528 20.67C17.13 20.67 17.662 20.53 18.138 20.222C18.614 19.914 18.978 19.494 19.244 18.948C19.496 18.402 19.636 17.786 19.636 17.1C19.636 16.428 19.496 15.812 19.244 15.266C18.978 14.72 18.614 14.3 18.138 13.992C17.662 13.684 17.13 13.53 16.528 13.53C15.912 13.53 15.38 13.684 14.904 13.992C14.428 14.3 14.064 14.72 13.812 15.266C13.546 15.812 13.42 16.428 13.42 17.1C13.42 17.786 13.546 18.402 13.812 18.948ZM28.1327 15.196C28.6367 15.49 29.0427 15.91 29.3367 16.47C29.6167 17.03 29.7707 17.674 29.7707 18.416C29.7707 19.144 29.6167 19.788 29.3367 20.348C29.0427 20.908 28.6367 21.328 28.1327 21.636C27.6147 21.944 27.0267 22.084 26.3827 22.084C25.8507 22.084 25.3887 21.986 24.9967 21.79C24.6047 21.594 24.2827 21.328 24.0587 20.992V24.8H22.5467V14.832H23.8627L24.0447 15.896C24.6187 15.14 25.4027 14.748 26.3827 14.748C27.0267 14.748 27.6147 14.902 28.1327 15.196ZM27.6427 20.138C28.0347 19.69 28.2307 19.116 28.2307 18.416C28.2307 17.716 28.0347 17.142 27.6427 16.694C27.2507 16.26 26.7467 16.036 26.1307 16.036C25.5007 16.036 24.9967 16.26 24.6187 16.694C24.2267 17.128 24.0447 17.688 24.0447 18.388C24.0447 19.116 24.2267 19.69 24.6187 20.138C24.9967 20.586 25.5007 20.81 26.1307 20.81C26.7467 20.81 27.2507 20.586 27.6427 20.138ZM31.1502 16.498C31.4442 15.938 31.8502 15.518 32.3822 15.21C32.9142 14.902 33.5162 14.748 34.2022 14.748C34.8882 14.748 35.4902 14.888 36.0222 15.168C36.5542 15.448 36.9602 15.854 37.2682 16.358C37.5762 16.876 37.7302 17.478 37.7442 18.164C37.7442 18.36 37.7302 18.542 37.7022 18.738H32.2982V18.822C32.3262 19.452 32.5222 19.942 32.8862 20.306C33.2362 20.67 33.7122 20.852 34.3002 20.852C34.7622 20.852 35.1542 20.754 35.4762 20.53C35.7842 20.306 35.9942 19.998 36.1062 19.592H37.6182C37.4782 20.32 37.1282 20.922 36.5542 21.384C35.9802 21.86 35.2662 22.084 34.4122 22.084C33.6562 22.084 33.0122 21.944 32.4522 21.636C31.8922 21.328 31.4722 20.908 31.1642 20.348C30.8562 19.802 30.7162 19.158 30.7162 18.43C30.7162 17.702 30.8562 17.058 31.1502 16.498ZM36.2042 17.632C36.1342 17.114 35.9242 16.708 35.5742 16.414C35.2242 16.12 34.7902 15.966 34.2582 15.966C33.7542 15.966 33.3342 16.12 32.9702 16.428C32.6062 16.736 32.4102 17.128 32.3542 17.632H36.2042ZM44.8186 15.532C45.3506 16.064 45.6306 16.904 45.6306 18.052V22H44.1046V18.136C44.1046 17.464 43.9506 16.946 43.6706 16.582C43.3766 16.232 42.9566 16.05 42.3966 16.05C41.7946 16.05 41.3186 16.26 40.9826 16.68C40.6466 17.1 40.4786 17.66 40.4786 18.388V22H38.9666V14.832H40.2826L40.4506 15.77C40.9826 15.098 41.7526 14.748 42.7466 14.748C43.5866 14.748 44.2866 15.014 44.8186 15.532ZM56.1737 15.196C56.6777 15.49 57.0837 15.91 57.3777 16.47C57.6577 17.03 57.8117 17.674 57.8117 18.416C57.8117 19.144 57.6577 19.788 57.3777 20.348C57.0837 20.908 56.6777 21.328 56.1737 21.636C55.6557 21.944 55.0677 22.084 54.4237 22.084C53.8917 22.084 53.4297 21.986 53.0377 21.79C52.6457 21.594 52.3237 21.328 52.0997 20.992V24.8H50.5877V14.832H51.9037L52.0857 15.896C52.6597 15.14 53.4437 14.748 54.4237 14.748C55.0677 14.748 55.6557 14.902 56.1737 15.196ZM55.6837 20.138C56.0757 19.69 56.2717 19.116 56.2717 18.416C56.2717 17.716 56.0757 17.142 55.6837 16.694C55.2917 16.26 54.7877 16.036 54.1717 16.036C53.5417 16.036 53.0377 16.26 52.6597 16.694C52.2677 17.128 52.0857 17.688 52.0857 18.388C52.0857 19.116 52.2677 19.69 52.6597 20.138C53.0377 20.586 53.5417 20.81 54.1717 20.81C54.7877 20.81 55.2917 20.586 55.6837 20.138ZM62.9853 14.832V16.246H62.3133C61.6833 16.246 61.2353 16.456 60.9553 16.862C60.6753 17.268 60.5353 17.786 60.5353 18.402V22H59.0233V14.832H60.3673L60.5353 15.91C60.7313 15.574 60.9973 15.322 61.3333 15.126C61.6553 14.93 62.0893 14.832 62.6493 14.832H62.9853ZM63.7713 16.498C64.0653 15.938 64.4713 15.518 65.0033 15.21C65.5353 14.902 66.1373 14.748 66.8233 14.748C67.5093 14.748 68.1113 14.888 68.6433 15.168C69.1753 15.448 69.5813 15.854 69.8893 16.358C70.1973 16.876 70.3513 17.478 70.3653 18.164C70.3653 18.36 70.3513 18.542 70.3233 18.738H64.9193V18.822C64.9473 19.452 65.1433 19.942 65.5073 20.306C65.8573 20.67 66.3333 20.852 66.9213 20.852C67.3833 20.852 67.7753 20.754 68.0973 20.53C68.4053 20.306 68.6153 19.998 68.7273 19.592H70.2393C70.0993 20.32 69.7493 20.922 69.1753 21.384C68.6013 21.86 67.8873 22.084 67.0333 22.084C66.2773 22.084 65.6333 21.944 65.0733 21.636C64.5133 21.328 64.0933 20.908 63.7853 20.348C63.4773 19.802 63.3373 19.158 63.3373 18.43C63.3373 17.702 63.4773 17.058 63.7713 16.498ZM68.8253 17.632C68.7553 17.114 68.5453 16.708 68.1953 16.414C67.8453 16.12 67.4113 15.966 66.8793 15.966C66.3753 15.966 65.9553 16.12 65.5913 16.428C65.2273 16.736 65.0313 17.128 64.9753 17.632H68.8253ZM70.6003 14.832H72.2243L74.1983 20.376L76.1443 14.832H77.7403L75.0943 22H73.2463L70.6003 14.832ZM79.9197 12.228C80.0877 12.396 80.1857 12.62 80.1857 12.872C80.1857 13.138 80.0877 13.362 79.9197 13.53C79.7377 13.698 79.5137 13.782 79.2617 13.782C78.9957 13.782 78.7717 13.698 78.6037 13.53C78.4217 13.362 78.3377 13.138 78.3377 12.872C78.3377 12.62 78.4217 12.396 78.6037 12.228C78.7717 12.06 78.9957 11.962 79.2617 11.962C79.5137 11.962 79.7377 12.06 79.9197 12.228ZM78.5057 14.832H80.0177V22H78.5057V14.832ZM81.6678 16.498C81.9618 15.938 82.3678 15.518 82.8998 15.21C83.4318 14.902 84.0338 14.748 84.7198 14.748C85.4058 14.748 86.0078 14.888 86.5398 15.168C87.0718 15.448 87.4778 15.854 87.7858 16.358C88.0938 16.876 88.2478 17.478 88.2618 18.164C88.2618 18.36 88.2478 18.542 88.2198 18.738H82.8158V18.822C82.8438 19.452 83.0398 19.942 83.4038 20.306C83.7538 20.67 84.2298 20.852 84.8178 20.852C85.2798 20.852 85.6718 20.754 85.9938 20.53C86.3018 20.306 86.5118 19.998 86.6238 19.592H88.1358C87.9958 20.32 87.6458 20.922 87.0718 21.384C86.4978 21.86 85.7838 22.084 84.9298 22.084C84.1738 22.084 83.5298 21.944 82.9698 21.636C82.4098 21.328 81.9898 20.908 81.6818 20.348C81.3738 19.802 81.2338 19.158 81.2338 18.43C81.2338 17.702 81.3738 17.058 81.6678 16.498ZM86.7218 17.632C86.6518 17.114 86.4418 16.708 86.0918 16.414C85.7418 16.12 85.3078 15.966 84.7758 15.966C84.2718 15.966 83.8518 16.12 83.4878 16.428C83.1238 16.736 82.9278 17.128 82.8718 17.632H86.7218ZM88.5931 14.832H90.1891L91.8271 20.32L93.4651 14.832H94.8511L96.4191 20.32L98.1131 14.832H99.6531L97.2731 22H95.6491L94.1371 17.128L92.5691 22L90.9311 22.014L88.5931 14.832Z" fill="#57B495"/>
<rect y="35" width="1" height="125" fill="#D4E5DF"/>
<rect x="160" width="160" height="160" fill="url(#paint1_linear_1199_23008)"/>
</g>
<defs>
<linearGradient id="paint0_linear_1199_23008" x1="3.09399e-06" y1="36.5625" x2="306.805" y2="115.977" gradientUnits="userSpaceOnUse">
<stop stop-color="#38A880"/>
<stop offset="1" stop-color="#38A880" stop-opacity="0"/>
</linearGradient>
<linearGradient id="paint1_linear_1199_23008" x1="320" y1="80" x2="160" y2="80" gradientUnits="userSpaceOnUse">
<stop stop-color="white"/>
<stop offset="1" stop-color="white" stop-opacity="0"/>
</linearGradient>
<clipPath id="clip0_1199_23008">
<rect width="320" height="160" fill="white"/>
</clipPath>
</defs>
</svg>
