<svg width="320" height="160" viewBox="0 0 320 160" fill="none" xmlns="http://www.w3.org/2000/svg">
<rect width="320" height="160" fill="#111111"/>
<path d="M1 61C1 56.5817 4.58172 53 9 53H320V89H1V61Z" fill="#222222"/>
<mask id="path-2-inside-1_893_7157" fill="white">
<path d="M1 61C1 56.5817 4.58172 53 9 53H320V160H1V61Z"/>
</mask>
<path d="M0 61C0 56.0294 4.02944 52 9 52H320V54H9C5.13401 54 2 57.134 2 61H0ZM320 160H1H320ZM0 160V61C0 56.0294 4.02944 52 9 52V54C5.13401 54 2 57.134 2 61V160H0ZM320 53V160V53Z" fill="#333333" mask="url(#path-2-inside-1_893_7157)"/>
<rect x="2.25" y="89.25" width="317.5" height="0.5" fill="#333333" stroke="#333333" stroke-width="0.5"/>
<rect x="80" width="240" height="160" fill="url(#paint0_linear_893_7157)"/>
<path d="M17.707 68.3C18.213 68.3 18.653 68.399 19.049 68.597C19.434 68.795 19.731 69.07 19.94 69.422C20.149 69.774 20.259 70.192 20.259 70.665C20.259 71.149 20.149 71.567 19.94 71.919C19.72 72.282 19.423 72.557 19.038 72.755C18.653 72.953 18.213 73.041 17.707 73.041H15.705V76H14.748V68.3H17.707ZM15.705 72.161H17.619C18.125 72.161 18.521 72.029 18.829 71.754C19.126 71.49 19.28 71.127 19.28 70.665C19.28 70.214 19.126 69.851 18.829 69.587C18.532 69.323 18.136 69.18 17.63 69.18H15.705V72.161ZM24.2273 68.3C24.7333 68.3 25.1733 68.399 25.5693 68.597C25.9543 68.795 26.2513 69.07 26.4713 69.422C26.6803 69.774 26.7903 70.192 26.7903 70.665C26.7903 71.204 26.6363 71.666 26.3392 72.062C26.0423 72.458 25.6463 72.722 25.1513 72.854L26.8783 76H25.8003L24.2053 73.041H22.2363V76H21.2793V68.3H24.2273ZM22.2363 72.161H24.1503C24.6563 72.161 25.0523 72.029 25.3603 71.754C25.6573 71.49 25.8113 71.127 25.8113 70.665C25.8113 70.225 25.6573 69.862 25.3603 69.587C25.0523 69.323 24.6563 69.18 24.1613 69.18H22.2363V72.161ZM34.4854 74.163C34.1774 74.757 33.7374 75.23 33.1874 75.56C32.6264 75.901 31.9884 76.066 31.2844 76.066C30.5694 76.066 29.9314 75.901 29.3814 75.56C28.8204 75.23 28.3804 74.757 28.0724 74.163C27.7644 73.569 27.6104 72.898 27.6104 72.15C27.6104 71.402 27.7644 70.731 28.0724 70.137C28.3804 69.543 28.8204 69.081 29.3814 68.74C29.9314 68.41 30.5694 68.234 31.2844 68.234C31.9884 68.234 32.6264 68.41 33.1874 68.74C33.7374 69.081 34.1774 69.543 34.4854 70.137C34.7934 70.731 34.9584 71.402 34.9584 72.15C34.9584 72.898 34.7934 73.569 34.4854 74.163ZM28.9304 73.723C29.1504 74.185 29.4694 74.537 29.8764 74.801C30.2834 75.065 30.7564 75.186 31.2844 75.186C31.8124 75.186 32.2744 75.065 32.6814 74.801C33.0884 74.537 33.4074 74.185 33.6384 73.723C33.8584 73.261 33.9794 72.744 33.9794 72.15C33.9794 71.567 33.8584 71.05 33.6384 70.588C33.4074 70.126 33.0884 69.774 32.6814 69.51C32.2744 69.246 31.8124 69.114 31.2844 69.114C30.7564 69.114 30.2834 69.246 29.8764 69.51C29.4694 69.774 29.1504 70.126 28.9304 70.588C28.6994 71.05 28.5894 71.567 28.5894 72.15C28.5894 72.744 28.6994 73.261 28.9304 73.723ZM38.8959 68.3C39.7099 68.3 40.3369 68.476 40.7769 68.828C41.2169 69.18 41.4479 69.675 41.4479 70.291C41.4479 70.753 41.3269 71.127 41.0959 71.424C40.8539 71.721 40.5129 71.93 40.0729 72.04C41.1949 72.26 41.7669 72.865 41.7669 73.877C41.7669 74.537 41.5249 75.065 41.0409 75.439C40.5569 75.813 39.8749 76 38.9729 76H36.1679V68.3H38.8959ZM37.1249 71.644H38.9399C39.4239 71.644 39.8089 71.534 40.0839 71.314C40.3479 71.094 40.4909 70.797 40.4909 70.401C40.4909 70.016 40.3479 69.719 40.0839 69.499C39.8199 69.279 39.4349 69.169 38.9399 69.169H37.1249V71.644ZM37.1249 75.131H38.9729C39.5559 75.131 40.0069 75.021 40.3149 74.79C40.6229 74.57 40.7879 74.251 40.7879 73.844C40.7879 73.415 40.6229 73.085 40.3149 72.854C39.9959 72.623 39.5449 72.502 38.9729 72.502H37.1249V75.131ZM43.0214 76V68.3H43.9784V75.12H47.4874V76H43.0214ZM48.5107 68.3H53.4167V69.18H49.4677V71.644H52.7567V72.524H49.4677V75.12H53.5597V76H48.5107V68.3ZM54.6337 68.3H55.8437L58.5717 74.691L61.2667 68.3H62.4547V76H61.5197V69.928L58.9677 76H58.1207L55.5687 69.928V76H54.6337V68.3ZM64.6072 73.481C64.6402 74.009 64.8492 74.427 65.2342 74.735C65.6082 75.043 66.0922 75.197 66.6862 75.197C67.2142 75.197 67.6322 75.087 67.9622 74.856C68.2922 74.625 68.4572 74.306 68.4572 73.888C68.4572 73.591 68.3582 73.349 68.1822 73.173C68.0062 72.997 67.7752 72.876 67.4892 72.788C67.2032 72.7 66.8292 72.623 66.3452 72.535C65.5752 72.403 64.9592 72.194 64.5082 71.886C64.0462 71.589 63.8262 71.105 63.8262 70.423C63.8262 69.994 63.9362 69.609 64.1562 69.279C64.3762 68.949 64.6842 68.685 65.0802 68.498C65.4762 68.322 65.9382 68.223 66.4552 68.223C66.9942 68.223 67.4782 68.322 67.8962 68.52C68.3142 68.718 68.6442 69.004 68.8862 69.356C69.1282 69.708 69.2602 70.115 69.2932 70.577H68.3472C68.2812 70.137 68.0832 69.774 67.7422 69.499C67.3902 69.235 66.9612 69.092 66.4552 69.092C65.9382 69.092 65.5312 69.213 65.2342 69.433C64.9262 69.653 64.7832 69.972 64.7832 70.368C64.7832 70.665 64.8712 70.896 65.0472 71.061C65.2232 71.226 65.4432 71.347 65.7292 71.435C66.0042 71.523 66.3892 71.6 66.8732 71.677C67.6432 71.809 68.2592 72.029 68.7212 72.337C69.1832 72.645 69.4142 73.129 69.4142 73.8C69.4142 74.24 69.2932 74.636 69.0622 74.977C68.8312 75.329 68.5122 75.593 68.0942 75.78C67.6762 75.978 67.2032 76.066 66.6752 76.066C66.0702 76.066 65.5422 75.967 65.1022 75.747C64.6512 75.527 64.2992 75.23 64.0572 74.834C63.8152 74.438 63.6832 73.987 63.6612 73.481H64.6072Z" fill="#737373"/>
<path d="M97.337 74.163C97.029 74.757 96.589 75.23 96.039 75.56C95.478 75.901 94.84 76.066 94.136 76.066C93.421 76.066 92.783 75.901 92.233 75.56C91.672 75.23 91.232 74.757 90.924 74.163C90.616 73.569 90.462 72.898 90.462 72.15C90.462 71.402 90.616 70.731 90.924 70.137C91.232 69.543 91.672 69.081 92.233 68.74C92.783 68.41 93.421 68.234 94.136 68.234C94.84 68.234 95.478 68.41 96.039 68.74C96.589 69.081 97.029 69.543 97.337 70.137C97.645 70.731 97.81 71.402 97.81 72.15C97.81 72.898 97.645 73.569 97.337 74.163ZM91.782 73.723C92.002 74.185 92.321 74.537 92.728 74.801C93.135 75.065 93.608 75.186 94.136 75.186C94.664 75.186 95.126 75.065 95.533 74.801C95.94 74.537 96.259 74.185 96.49 73.723C96.71 73.261 96.831 72.744 96.831 72.15C96.831 71.567 96.71 71.05 96.49 70.588C96.259 70.126 95.94 69.774 95.533 69.51C95.126 69.246 94.664 69.114 94.136 69.114C93.608 69.114 93.135 69.246 92.728 69.51C92.321 69.774 92.002 70.126 91.782 70.588C91.551 71.05 91.441 71.567 91.441 72.15C91.441 72.744 91.551 73.261 91.782 73.723ZM99.9325 68.3V72.766C99.9325 74.383 100.581 75.186 101.901 75.186C103.221 75.186 103.892 74.383 103.892 72.766V68.3H104.849V72.711C104.849 73.811 104.596 74.647 104.09 75.219C103.584 75.791 102.858 76.066 101.901 76.066C100.933 76.066 100.207 75.791 99.7125 75.219C99.2175 74.647 98.9755 73.811 98.9755 72.711V68.3H99.9325ZM105.83 68.3H111.781V69.18H109.284V76H108.327V69.18H105.83V68.3ZM115.761 68.3C116.267 68.3 116.707 68.399 117.103 68.597C117.488 68.795 117.785 69.07 117.994 69.422C118.203 69.774 118.313 70.192 118.313 70.665C118.313 71.149 118.203 71.567 117.994 71.919C117.774 72.282 117.477 72.557 117.092 72.755C116.707 72.953 116.267 73.041 115.761 73.041H113.759V76H112.802V68.3H115.761ZM113.759 72.161H115.673C116.179 72.161 116.575 72.029 116.883 71.754C117.18 71.49 117.334 71.127 117.334 70.665C117.334 70.214 117.18 69.851 116.883 69.587C116.586 69.323 116.19 69.18 115.684 69.18H113.759V72.161ZM120.246 68.3V72.766C120.246 74.383 120.895 75.186 122.215 75.186C123.535 75.186 124.206 74.383 124.206 72.766V68.3H125.163V72.711C125.163 73.811 124.91 74.647 124.404 75.219C123.898 75.791 123.172 76.066 122.215 76.066C121.247 76.066 120.521 75.791 120.026 75.219C119.531 74.647 119.289 73.811 119.289 72.711V68.3H120.246ZM126.143 68.3H132.094V69.18H129.597V76H128.64V69.18H126.143V68.3Z" fill="#737373"/>
<path d="M156.707 68.3C157.213 68.3 157.653 68.399 158.049 68.597C158.434 68.795 158.731 69.07 158.94 69.422C159.149 69.774 159.259 70.192 159.259 70.665C159.259 71.149 159.149 71.567 158.94 71.919C158.72 72.282 158.423 72.557 158.038 72.755C157.653 72.953 157.213 73.041 156.707 73.041H154.705V76H153.748V68.3H156.707ZM154.705 72.161H156.619C157.125 72.161 157.521 72.029 157.829 71.754C158.126 71.49 158.28 71.127 158.28 70.665C158.28 70.214 158.126 69.851 157.829 69.587C157.532 69.323 157.136 69.18 156.63 69.18H154.705V72.161ZM166.868 74.163C166.56 74.757 166.12 75.23 165.57 75.56C165.009 75.901 164.371 76.066 163.667 76.066C162.952 76.066 162.314 75.901 161.764 75.56C161.203 75.23 160.763 74.757 160.455 74.163C160.147 73.569 159.993 72.898 159.993 72.15C159.993 71.402 160.147 70.731 160.455 70.137C160.763 69.543 161.203 69.081 161.764 68.74C162.314 68.41 162.952 68.234 163.667 68.234C164.371 68.234 165.009 68.41 165.57 68.74C166.12 69.081 166.56 69.543 166.868 70.137C167.176 70.731 167.341 71.402 167.341 72.15C167.341 72.898 167.176 73.569 166.868 74.163ZM161.313 73.723C161.533 74.185 161.852 74.537 162.259 74.801C162.666 75.065 163.139 75.186 163.667 75.186C164.195 75.186 164.657 75.065 165.064 74.801C165.471 74.537 165.79 74.185 166.021 73.723C166.241 73.261 166.362 72.744 166.362 72.15C166.362 71.567 166.241 71.05 166.021 70.588C165.79 70.126 165.471 69.774 165.064 69.51C164.657 69.246 164.195 69.114 163.667 69.114C163.139 69.114 162.666 69.246 162.259 69.51C161.852 69.774 161.533 70.126 161.313 70.588C161.082 71.05 160.972 71.567 160.972 72.15C160.972 72.744 161.082 73.261 161.313 73.723ZM171.499 68.3C172.005 68.3 172.445 68.399 172.841 68.597C173.226 68.795 173.523 69.07 173.743 69.422C173.952 69.774 174.062 70.192 174.062 70.665C174.062 71.204 173.908 71.666 173.611 72.062C173.314 72.458 172.918 72.722 172.423 72.854L174.15 76H173.072L171.477 73.041H169.508V76H168.551V68.3H171.499ZM169.508 72.161H171.422C171.928 72.161 172.324 72.029 172.632 71.754C172.929 71.49 173.083 71.127 173.083 70.665C173.083 70.225 172.929 69.862 172.632 69.587C172.324 69.323 171.928 69.18 171.433 69.18H169.508V72.161ZM174.383 68.3H180.334V69.18H177.837V76H176.88V69.18H174.383V68.3ZM181.629 73.481C181.662 74.009 181.871 74.427 182.256 74.735C182.63 75.043 183.114 75.197 183.708 75.197C184.236 75.197 184.654 75.087 184.984 74.856C185.314 74.625 185.479 74.306 185.479 73.888C185.479 73.591 185.38 73.349 185.204 73.173C185.028 72.997 184.797 72.876 184.511 72.788C184.225 72.7 183.851 72.623 183.367 72.535C182.597 72.403 181.981 72.194 181.53 71.886C181.068 71.589 180.848 71.105 180.848 70.423C180.848 69.994 180.958 69.609 181.178 69.279C181.398 68.949 181.706 68.685 182.102 68.498C182.498 68.322 182.96 68.223 183.477 68.223C184.016 68.223 184.5 68.322 184.918 68.52C185.336 68.718 185.666 69.004 185.908 69.356C186.15 69.708 186.282 70.115 186.315 70.577H185.369C185.303 70.137 185.105 69.774 184.764 69.499C184.412 69.235 183.983 69.092 183.477 69.092C182.96 69.092 182.553 69.213 182.256 69.433C181.948 69.653 181.805 69.972 181.805 70.368C181.805 70.665 181.893 70.896 182.069 71.061C182.245 71.226 182.465 71.347 182.751 71.435C183.026 71.523 183.411 71.6 183.895 71.677C184.665 71.809 185.281 72.029 185.743 72.337C186.205 72.645 186.436 73.129 186.436 73.8C186.436 74.24 186.315 74.636 186.084 74.977C185.853 75.329 185.534 75.593 185.116 75.78C184.698 75.978 184.225 76.066 183.697 76.066C183.092 76.066 182.564 75.967 182.124 75.747C181.673 75.527 181.321 75.23 181.079 74.834C180.837 74.438 180.705 73.987 180.683 73.481H181.629Z" fill="#737373"/>
<path d="M207.748 68.3H210.025C210.817 68.3 211.499 68.465 212.082 68.784C212.665 69.103 213.116 69.554 213.424 70.126C213.732 70.709 213.897 71.38 213.897 72.15C213.897 72.92 213.732 73.591 213.424 74.174C213.116 74.757 212.665 75.208 212.082 75.527C211.499 75.846 210.817 76 210.025 76H207.748V68.3ZM210.025 75.12C210.938 75.12 211.653 74.856 212.159 74.317C212.665 73.789 212.918 73.063 212.918 72.15C212.918 71.237 212.665 70.511 212.159 69.983C211.653 69.455 210.949 69.18 210.025 69.18H208.705V75.12H210.025ZM215.106 68.3H220.012V69.18H216.063V71.644H219.352V72.524H216.063V75.12H220.155V76H215.106V68.3ZM223.957 68.3C224.771 68.3 225.398 68.476 225.838 68.828C226.278 69.18 226.509 69.675 226.509 70.291C226.509 70.753 226.388 71.127 226.157 71.424C225.915 71.721 225.574 71.93 225.134 72.04C226.256 72.26 226.828 72.865 226.828 73.877C226.828 74.537 226.586 75.065 226.102 75.439C225.618 75.813 224.936 76 224.034 76H221.229V68.3H223.957ZM222.186 71.644H224.001C224.485 71.644 224.87 71.534 225.145 71.314C225.409 71.094 225.552 70.797 225.552 70.401C225.552 70.016 225.409 69.719 225.145 69.499C224.881 69.279 224.496 69.169 224.001 69.169H222.186V71.644ZM222.186 75.131H224.034C224.617 75.131 225.068 75.021 225.376 74.79C225.684 74.57 225.849 74.251 225.849 73.844C225.849 73.415 225.684 73.085 225.376 72.854C225.057 72.623 224.606 72.502 224.034 72.502H222.186V75.131ZM228.942 68.3V72.766C228.942 74.383 229.591 75.186 230.911 75.186C232.231 75.186 232.902 74.383 232.902 72.766V68.3H233.859V72.711C233.859 73.811 233.606 74.647 233.1 75.219C232.594 75.791 231.868 76.066 230.911 76.066C229.943 76.066 229.217 75.791 228.722 75.219C228.227 74.647 227.985 73.811 227.985 72.711V68.3H228.942ZM235.477 70.104C235.774 69.51 236.203 69.059 236.764 68.729C237.314 68.399 237.963 68.234 238.7 68.234C239.547 68.234 240.262 68.465 240.834 68.927C241.406 69.389 241.769 70.016 241.923 70.808H240.977C240.823 70.28 240.548 69.862 240.152 69.565C239.745 69.268 239.25 69.114 238.678 69.114C238.15 69.114 237.677 69.246 237.27 69.499C236.863 69.763 236.555 70.115 236.335 70.577C236.115 71.039 236.005 71.567 236.005 72.15C236.005 72.744 236.115 73.261 236.335 73.723C236.555 74.185 236.863 74.548 237.27 74.801C237.666 75.065 238.128 75.186 238.656 75.186C239.118 75.186 239.536 75.098 239.91 74.922C240.284 74.746 240.57 74.482 240.779 74.152C240.988 73.822 241.098 73.426 241.098 72.975V72.711H238.788V71.831H242.033V76H241.241L241.142 74.779C240.922 75.131 240.603 75.428 240.185 75.681C239.756 75.945 239.239 76.066 238.645 76.066C237.941 76.066 237.314 75.901 236.764 75.571C236.214 75.241 235.785 74.79 235.477 74.196C235.169 73.602 235.026 72.92 235.026 72.15C235.026 71.38 235.169 70.698 235.477 70.104ZM246.574 70.104C246.871 69.51 247.3 69.059 247.861 68.729C248.411 68.399 249.06 68.234 249.797 68.234C250.644 68.234 251.359 68.465 251.931 68.927C252.503 69.389 252.866 70.027 253.02 70.819H252.063C251.92 70.291 251.645 69.873 251.238 69.565C250.831 69.268 250.336 69.114 249.753 69.114C249.225 69.114 248.752 69.246 248.356 69.499C247.949 69.763 247.641 70.115 247.421 70.577C247.201 71.039 247.102 71.556 247.102 72.15C247.102 72.744 247.201 73.261 247.421 73.723C247.641 74.185 247.949 74.548 248.356 74.801C248.752 75.065 249.225 75.186 249.753 75.186C250.347 75.186 250.842 75.043 251.238 74.746C251.634 74.449 251.898 74.031 252.052 73.481H253.009C252.855 74.284 252.503 74.911 251.931 75.373C251.359 75.835 250.655 76.066 249.797 76.066C249.06 76.066 248.411 75.912 247.861 75.582C247.3 75.252 246.871 74.801 246.574 74.207C246.266 73.613 246.123 72.931 246.123 72.15C246.123 71.38 246.266 70.698 246.574 70.104ZM260.69 74.163C260.382 74.757 259.942 75.23 259.392 75.56C258.831 75.901 258.193 76.066 257.489 76.066C256.774 76.066 256.136 75.901 255.586 75.56C255.025 75.23 254.585 74.757 254.277 74.163C253.969 73.569 253.815 72.898 253.815 72.15C253.815 71.402 253.969 70.731 254.277 70.137C254.585 69.543 255.025 69.081 255.586 68.74C256.136 68.41 256.774 68.234 257.489 68.234C258.193 68.234 258.831 68.41 259.392 68.74C259.942 69.081 260.382 69.543 260.69 70.137C260.998 70.731 261.163 71.402 261.163 72.15C261.163 72.898 260.998 73.569 260.69 74.163ZM255.135 73.723C255.355 74.185 255.674 74.537 256.081 74.801C256.488 75.065 256.961 75.186 257.489 75.186C258.017 75.186 258.479 75.065 258.886 74.801C259.293 74.537 259.612 74.185 259.843 73.723C260.063 73.261 260.184 72.744 260.184 72.15C260.184 71.567 260.063 71.05 259.843 70.588C259.612 70.126 259.293 69.774 258.886 69.51C258.479 69.246 258.017 69.114 257.489 69.114C256.961 69.114 256.488 69.246 256.081 69.51C255.674 69.774 255.355 70.126 255.135 70.588C254.904 71.05 254.794 71.567 254.794 72.15C254.794 72.744 254.904 73.261 255.135 73.723ZM262.372 76V68.3H263.252L267.388 74.24V68.3H268.323V76H267.443L263.307 70.06V76H262.372ZM270.476 73.481C270.509 74.009 270.718 74.427 271.103 74.735C271.477 75.043 271.961 75.197 272.555 75.197C273.083 75.197 273.501 75.087 273.831 74.856C274.161 74.625 274.326 74.306 274.326 73.888C274.326 73.591 274.227 73.349 274.051 73.173C273.875 72.997 273.644 72.876 273.358 72.788C273.072 72.7 272.698 72.623 272.214 72.535C271.444 72.403 270.828 72.194 270.377 71.886C269.915 71.589 269.695 71.105 269.695 70.423C269.695 69.994 269.805 69.609 270.025 69.279C270.245 68.949 270.553 68.685 270.949 68.498C271.345 68.322 271.807 68.223 272.324 68.223C272.863 68.223 273.347 68.322 273.765 68.52C274.183 68.718 274.513 69.004 274.755 69.356C274.997 69.708 275.129 70.115 275.162 70.577H274.216C274.15 70.137 273.952 69.774 273.611 69.499C273.259 69.235 272.83 69.092 272.324 69.092C271.807 69.092 271.4 69.213 271.103 69.433C270.795 69.653 270.652 69.972 270.652 70.368C270.652 70.665 270.74 70.896 270.916 71.061C271.092 71.226 271.312 71.347 271.598 71.435C271.873 71.523 272.258 71.6 272.742 71.677C273.512 71.809 274.128 72.029 274.59 72.337C275.052 72.645 275.283 73.129 275.283 73.8C275.283 74.24 275.162 74.636 274.931 74.977C274.7 75.329 274.381 75.593 273.963 75.78C273.545 75.978 273.072 76.066 272.544 76.066C271.939 76.066 271.411 75.967 270.971 75.747C270.52 75.527 270.168 75.23 269.926 74.834C269.684 74.438 269.552 73.987 269.53 73.481H270.476ZM283.087 74.163C282.779 74.757 282.339 75.23 281.789 75.56C281.228 75.901 280.59 76.066 279.886 76.066C279.171 76.066 278.533 75.901 277.983 75.56C277.422 75.23 276.982 74.757 276.674 74.163C276.366 73.569 276.212 72.898 276.212 72.15C276.212 71.402 276.366 70.731 276.674 70.137C276.982 69.543 277.422 69.081 277.983 68.74C278.533 68.41 279.171 68.234 279.886 68.234C280.59 68.234 281.228 68.41 281.789 68.74C282.339 69.081 282.779 69.543 283.087 70.137C283.395 70.731 283.56 71.402 283.56 72.15C283.56 72.898 283.395 73.569 283.087 74.163ZM277.532 73.723C277.752 74.185 278.071 74.537 278.478 74.801C278.885 75.065 279.358 75.186 279.886 75.186C280.414 75.186 280.876 75.065 281.283 74.801C281.69 74.537 282.009 74.185 282.24 73.723C282.46 73.261 282.581 72.744 282.581 72.15C282.581 71.567 282.46 71.05 282.24 70.588C282.009 70.126 281.69 69.774 281.283 69.51C280.876 69.246 280.414 69.114 279.886 69.114C279.358 69.114 278.885 69.246 278.478 69.51C278.071 69.774 277.752 70.126 277.532 70.588C277.301 71.05 277.191 71.567 277.191 72.15C277.191 72.744 277.301 73.261 277.532 73.723ZM284.769 76V68.3H285.726V75.12H289.235V76H284.769ZM290.259 68.3H295.165V69.18H291.216V71.644H294.505V72.524H291.216V75.12H295.308V76H290.259V68.3Z" fill="#FAFAFA"/>
<rect x="228" y="8" width="81" height="34" rx="17" fill="#222222"/>
<path d="M267.952 30V20.2H269.17V28.88H273.636V30H267.952ZM275.83 29.622C275.298 29.314 274.878 28.894 274.584 28.334C274.276 27.788 274.136 27.158 274.136 26.43C274.136 25.716 274.276 25.086 274.584 24.526C274.878 23.98 275.298 23.546 275.83 23.238C276.362 22.93 276.978 22.776 277.678 22.776C278.364 22.776 278.98 22.93 279.512 23.238C280.044 23.546 280.464 23.98 280.772 24.526C281.066 25.086 281.22 25.716 281.22 26.43C281.22 27.158 281.066 27.788 280.772 28.334C280.464 28.894 280.044 29.314 279.512 29.622C278.98 29.93 278.364 30.084 277.678 30.084C276.978 30.084 276.362 29.93 275.83 29.622ZM278.91 28.726C279.274 28.502 279.554 28.194 279.75 27.788C279.946 27.396 280.044 26.934 280.044 26.43C280.044 25.926 279.946 25.478 279.75 25.072C279.554 24.68 279.274 24.358 278.91 24.134C278.546 23.91 278.14 23.798 277.678 23.798C277.202 23.798 276.796 23.91 276.432 24.134C276.068 24.358 275.802 24.68 275.606 25.072C275.41 25.478 275.312 25.926 275.312 26.43C275.312 26.934 275.41 27.396 275.606 27.788C275.802 28.194 276.068 28.502 276.432 28.726C276.796 28.95 277.202 29.062 277.678 29.062C278.14 29.062 278.546 28.95 278.91 28.726ZM289.312 22.86V29.65C289.312 31.806 288.122 32.884 285.77 32.884C284.846 32.884 284.09 32.674 283.502 32.254C282.914 31.834 282.578 31.246 282.494 30.462H283.67C283.754 30.91 283.992 31.26 284.384 31.498C284.762 31.75 285.252 31.862 285.854 31.862C287.394 31.862 288.164 31.12 288.164 29.608V28.768C287.646 29.65 286.834 30.084 285.714 30.084C285.042 30.084 284.454 29.944 283.936 29.65C283.418 29.37 283.012 28.95 282.718 28.39C282.424 27.844 282.284 27.186 282.284 26.43C282.284 25.716 282.424 25.086 282.718 24.526C283.012 23.98 283.418 23.546 283.95 23.238C284.468 22.93 285.056 22.776 285.714 22.776C286.288 22.776 286.778 22.902 287.198 23.126C287.604 23.35 287.926 23.672 288.164 24.092L288.318 22.86H289.312ZM287.044 28.74C287.408 28.516 287.688 28.208 287.884 27.816C288.08 27.424 288.178 26.962 288.178 26.458C288.178 25.954 288.08 25.492 287.884 25.086C287.688 24.68 287.408 24.358 287.044 24.134C286.68 23.91 286.274 23.798 285.826 23.798C285.112 23.798 284.538 24.05 284.104 24.54C283.67 25.03 283.46 25.66 283.46 26.43C283.46 27.214 283.67 27.844 284.104 28.334C284.538 28.824 285.112 29.062 285.826 29.062C286.274 29.062 286.68 28.964 287.044 28.74ZM291.772 27.648C291.786 28.082 291.968 28.432 292.332 28.698C292.696 28.978 293.158 29.104 293.732 29.104C294.236 29.104 294.642 29.006 294.95 28.81C295.258 28.614 295.426 28.348 295.426 28.012C295.426 27.732 295.342 27.522 295.202 27.368C295.048 27.228 294.852 27.116 294.614 27.06C294.376 27.004 294.04 26.948 293.606 26.892C292.99 26.822 292.486 26.724 292.094 26.598C291.702 26.486 291.38 26.29 291.142 26.024C290.89 25.758 290.778 25.394 290.778 24.918C290.778 24.498 290.89 24.134 291.128 23.798C291.366 23.476 291.688 23.224 292.108 23.042C292.514 22.86 292.976 22.762 293.494 22.762C294.334 22.762 295.006 22.958 295.538 23.35C296.07 23.742 296.364 24.302 296.42 25.03H295.272C295.216 24.666 295.034 24.358 294.726 24.106C294.404 23.868 294.012 23.742 293.536 23.742C293.046 23.742 292.654 23.854 292.36 24.05C292.052 24.246 291.912 24.512 291.912 24.834C291.912 25.086 291.982 25.268 292.122 25.394C292.262 25.534 292.43 25.618 292.654 25.66C292.878 25.716 293.214 25.758 293.662 25.814C294.278 25.898 294.796 25.996 295.202 26.122C295.608 26.262 295.93 26.472 296.182 26.752C296.434 27.046 296.56 27.438 296.56 27.928C296.56 28.362 296.434 28.74 296.182 29.062C295.93 29.398 295.58 29.65 295.16 29.818C294.726 30 294.25 30.084 293.732 30.084C292.794 30.084 292.038 29.874 291.478 29.44C290.918 29.02 290.624 28.418 290.624 27.648H291.772Z" fill="#FAFAFA"/>
<path d="M253.584 19.4389L255.07 18M256.652 24.8885C256.652 24.0765 256.318 23.2978 255.725 22.7236C255.132 22.1495 254.328 21.8269 253.489 21.8269H250.326C249.487 21.8269 248.682 22.1495 248.089 22.7236C247.496 23.2978 247.163 24.0765 247.163 24.8885V27.1846C247.165 27.8336 247.306 28.475 247.579 29.0681C247.851 29.6611 248.248 30.1927 248.744 30.6288M259 20.2962C259 21.9035 257.735 23.2046 256.232 23.3577M244.791 32.5423C244.791 30.935 246.135 29.5573 247.795 29.4808M247.163 26.4192H244M247.582 23.3577C246.056 23.2046 244.791 21.9035 244.791 20.2962M248.744 18L250.231 19.4389M249.535 21.9264V21.161C249.521 20.8509 249.571 20.5411 249.684 20.2504C249.797 19.9597 249.969 19.6942 250.191 19.4698C250.413 19.2454 250.679 19.0668 250.974 18.9448C251.269 18.8228 251.586 18.7599 251.907 18.7599C252.228 18.7599 252.545 18.8228 252.84 18.9448C253.135 19.0668 253.402 19.2454 253.623 19.4698C253.845 19.6942 254.017 19.9597 254.13 20.2504C254.243 20.5411 254.294 20.8509 254.279 21.161V21.9264M252.512 32.9418C252.452 32.978 252.384 32.9981 252.313 32.9999C252.242 33.0017 252.173 32.9851 252.111 32.952C252.049 32.9189 251.998 32.8704 251.962 32.8115C251.926 32.7527 251.907 32.6856 251.907 32.6173V26.3442C251.907 26.2759 251.926 26.2088 251.962 26.15C251.998 26.0911 252.049 26.0426 252.111 26.0095C252.173 25.9764 252.242 25.9599 252.313 25.9617C252.384 25.9634 252.452 25.9835 252.512 26.0197L257.16 28.8317C257.274 28.9005 257.367 28.9962 257.433 29.1097C257.498 29.2233 257.532 29.3509 257.532 29.4808C257.532 29.6106 257.498 29.7383 257.433 29.8518C257.367 29.9653 257.274 30.061 257.16 30.1298L252.512 32.9418Z" stroke="#FAFAFA" stroke-width="1.5" stroke-linecap="round" stroke-linejoin="round"/>
<circle cx="308" cy="12" r="10" fill="#57B495"/>
<path d="M308.421 12.623C308.85 12.249 309.18 11.919 309.4 11.611C309.62 11.303 309.73 10.962 309.73 10.577C309.73 10.104 309.576 9.73 309.268 9.455C308.96 9.191 308.553 9.048 308.047 9.048C307.541 9.048 307.145 9.202 306.848 9.51C306.54 9.818 306.397 10.236 306.397 10.764V10.907H305.473V10.709C305.473 10.225 305.572 9.796 305.792 9.422C306.001 9.048 306.298 8.762 306.694 8.542C307.09 8.333 307.541 8.223 308.047 8.223C308.861 8.223 309.51 8.432 309.972 8.85C310.434 9.268 310.676 9.829 310.676 10.533C310.676 10.907 310.599 11.237 310.456 11.534C310.313 11.842 310.126 12.117 309.906 12.359C309.675 12.601 309.378 12.887 309.015 13.195L306.705 15.153H310.731V16H305.429V15.219L308.421 12.623Z" fill="#FAFAFA"/>
<rect x="207" y="88" width="89" height="1" fill="#57B495"/>
<path d="M18 117L22 113L18 109" stroke="#57B495" stroke-width="2" stroke-linecap="round" stroke-linejoin="round"/>
<path d="M18 140L22 136L18 132" stroke="#57B495" stroke-width="2" stroke-linecap="round" stroke-linejoin="round"/>
<path d="M31.44 113.984C31.452 114.356 31.608 114.656 31.92 114.884C32.232 115.124 32.628 115.232 33.12 115.232C33.552 115.232 33.9 115.148 34.164 114.98C34.428 114.812 34.572 114.584 34.572 114.296C34.572 114.056 34.5 113.876 34.38 113.744C34.248 113.624 34.08 113.528 33.876 113.48C33.672 113.432 33.384 113.384 33.012 113.336C32.484 113.276 32.052 113.192 31.716 113.084C31.38 112.988 31.104 112.82 30.9 112.592C30.684 112.364 30.588 112.052 30.588 111.644C30.588 111.284 30.684 110.972 30.888 110.684C31.092 110.408 31.368 110.192 31.728 110.036C32.076 109.88 32.472 109.796 32.916 109.796C33.636 109.796 34.212 109.964 34.668 110.3C35.124 110.636 35.376 111.116 35.424 111.74H34.44C34.392 111.428 34.236 111.164 33.972 110.948C33.696 110.744 33.36 110.636 32.952 110.636C32.532 110.636 32.196 110.732 31.944 110.9C31.68 111.068 31.56 111.296 31.56 111.572C31.56 111.788 31.62 111.944 31.74 112.052C31.86 112.172 32.004 112.244 32.196 112.28C32.388 112.328 32.676 112.364 33.06 112.412C33.588 112.484 34.032 112.568 34.38 112.676C34.728 112.796 35.004 112.976 35.22 113.216C35.436 113.468 35.544 113.804 35.544 114.224C35.544 114.596 35.436 114.92 35.22 115.196C35.004 115.484 34.704 115.7 34.344 115.844C33.972 116 33.564 116.072 33.12 116.072C32.316 116.072 31.668 115.892 31.188 115.52C30.708 115.16 30.456 114.644 30.456 113.984H31.44ZM36.8043 111.296C37.0443 110.828 37.3923 110.468 37.8363 110.204C38.2683 109.94 38.7723 109.808 39.3483 109.808C39.9003 109.808 40.4043 109.928 40.8363 110.156C41.2683 110.396 41.6043 110.732 41.8563 111.164C42.0963 111.608 42.2283 112.124 42.2523 112.712C42.2523 112.808 42.2403 112.94 42.2283 113.132H37.4763V113.216C37.4883 113.816 37.6683 114.296 38.0283 114.656C38.3763 115.016 38.8323 115.196 39.4083 115.196C39.8403 115.196 40.2123 115.088 40.5243 114.872C40.8363 114.656 41.0403 114.344 41.1483 113.948H42.1443C42.0243 114.572 41.7243 115.088 41.2443 115.484C40.7643 115.88 40.1763 116.072 39.4803 116.072C38.8683 116.072 38.3403 115.952 37.8843 115.688C37.4283 115.424 37.0683 115.064 36.8163 114.584C36.5643 114.104 36.4443 113.564 36.4443 112.94C36.4443 112.316 36.5643 111.776 36.8043 111.296ZM41.2323 112.316C41.1843 111.8 40.9803 111.392 40.6443 111.104C40.3083 110.816 39.8763 110.672 39.3603 110.672C38.8923 110.672 38.4843 110.828 38.1363 111.128C37.7763 111.44 37.5843 111.836 37.5363 112.316H41.2323ZM48.1631 110.48C48.6191 110.936 48.8471 111.632 48.8471 112.592V116H47.8631V112.652C47.8631 112.028 47.7191 111.548 47.4311 111.212C47.1431 110.876 46.7351 110.708 46.2071 110.708C45.6311 110.708 45.1751 110.912 44.8511 111.308C44.5151 111.716 44.3591 112.256 44.3591 112.94V116H43.3751V109.88H44.2271L44.3591 110.708C44.8151 110.108 45.4871 109.808 46.3751 109.808C47.1191 109.808 47.7071 110.036 48.1631 110.48ZM55.9097 107.6V116H55.0577L54.9257 115.016C54.4097 115.724 53.7137 116.072 52.8257 116.072C52.2497 116.072 51.7457 115.952 51.3017 115.7C50.8577 115.46 50.5097 115.1 50.2577 114.62C50.0057 114.152 49.8857 113.588 49.8857 112.94C49.8857 112.328 50.0057 111.788 50.2577 111.308C50.5097 110.84 50.8577 110.468 51.3137 110.204C51.7577 109.94 52.2617 109.808 52.8257 109.808C53.3177 109.808 53.7377 109.904 54.0977 110.084C54.4457 110.264 54.7217 110.504 54.9257 110.816V107.6H55.9097ZM53.9657 114.92C54.2777 114.728 54.5177 114.464 54.6857 114.128C54.8537 113.792 54.9377 113.396 54.9377 112.964C54.9377 112.532 54.8537 112.136 54.6857 111.788C54.5177 111.44 54.2777 111.164 53.9657 110.972C53.6537 110.78 53.3057 110.684 52.9217 110.684C52.3097 110.684 51.8177 110.9 51.4457 111.32C51.0737 111.74 50.8937 112.28 50.8937 112.94C50.8937 113.612 51.0737 114.152 51.4457 114.572C51.8177 114.992 52.3097 115.196 52.9217 115.196C53.3057 115.196 53.6537 115.112 53.9657 114.92ZM68.8868 110.456C69.3188 110.888 69.5348 111.56 69.5348 112.472V116H68.5508V112.532C68.5508 111.944 68.4188 111.488 68.1668 111.176C67.9148 110.864 67.5548 110.708 67.0988 110.708C66.5828 110.708 66.1748 110.888 65.8867 111.248C65.5988 111.608 65.4548 112.1 65.4548 112.724V116H64.4708V112.532C64.4708 111.944 64.3388 111.488 64.0868 111.176C63.8228 110.864 63.4628 110.708 62.9948 110.708C62.4908 110.708 62.0948 110.9 61.8068 111.284C61.5188 111.668 61.3748 112.16 61.3748 112.772V116H60.3908V109.88H61.2428L61.3748 110.72C61.8068 110.12 62.4068 109.808 63.1628 109.808C63.5948 109.808 63.9908 109.916 64.3268 110.108C64.6628 110.3 64.9268 110.588 65.0948 110.972C65.5268 110.204 66.2348 109.808 67.2188 109.808C67.9028 109.808 68.4548 110.024 68.8868 110.456ZM70.941 111.296C71.181 110.828 71.529 110.468 71.973 110.204C72.405 109.94 72.909 109.808 73.485 109.808C74.037 109.808 74.541 109.928 74.973 110.156C75.405 110.396 75.741 110.732 75.993 111.164C76.233 111.608 76.365 112.124 76.389 112.712C76.389 112.808 76.377 112.94 76.365 113.132H71.613V113.216C71.625 113.816 71.805 114.296 72.165 114.656C72.513 115.016 72.969 115.196 73.545 115.196C73.977 115.196 74.349 115.088 74.661 114.872C74.973 114.656 75.177 114.344 75.285 113.948H76.281C76.161 114.572 75.861 115.088 75.381 115.484C74.901 115.88 74.313 116.072 73.617 116.072C73.005 116.072 72.477 115.952 72.021 115.688C71.565 115.424 71.205 115.064 70.953 114.584C70.701 114.104 70.581 113.564 70.581 112.94C70.581 112.316 70.701 111.776 70.941 111.296ZM75.369 112.316C75.321 111.8 75.117 111.392 74.781 111.104C74.445 110.816 74.013 110.672 73.497 110.672C73.029 110.672 72.621 110.828 72.273 111.128C71.913 111.44 71.721 111.836 71.673 112.316H75.369ZM78.2564 113.984C78.2684 114.356 78.4244 114.656 78.7364 114.884C79.0484 115.124 79.4444 115.232 79.9364 115.232C80.3684 115.232 80.7164 115.148 80.9804 114.98C81.2444 114.812 81.3884 114.584 81.3884 114.296C81.3884 114.056 81.3164 113.876 81.1964 113.744C81.0644 113.624 80.8964 113.528 80.6924 113.48C80.4884 113.432 80.2004 113.384 79.8284 113.336C79.3004 113.276 78.8684 113.192 78.5324 113.084C78.1964 112.988 77.9204 112.82 77.7164 112.592C77.5004 112.364 77.4044 112.052 77.4044 111.644C77.4044 111.284 77.5004 110.972 77.7044 110.684C77.9084 110.408 78.1844 110.192 78.5444 110.036C78.8924 109.88 79.2884 109.796 79.7324 109.796C80.4524 109.796 81.0284 109.964 81.4844 110.3C81.9404 110.636 82.1924 111.116 82.2404 111.74H81.2564C81.2084 111.428 81.0524 111.164 80.7884 110.948C80.5124 110.744 80.1764 110.636 79.7684 110.636C79.3484 110.636 79.0124 110.732 78.7604 110.9C78.4964 111.068 78.3764 111.296 78.3764 111.572C78.3764 111.788 78.4364 111.944 78.5564 112.052C78.6764 112.172 78.8204 112.244 79.0124 112.28C79.2044 112.328 79.4924 112.364 79.8764 112.412C80.4044 112.484 80.8484 112.568 81.1964 112.676C81.5444 112.796 81.8204 112.976 82.0364 113.216C82.2524 113.468 82.3604 113.804 82.3604 114.224C82.3604 114.596 82.2524 114.92 82.0364 115.196C81.8204 115.484 81.5204 115.7 81.1604 115.844C80.7884 116 80.3804 116.072 79.9364 116.072C79.1324 116.072 78.4844 115.892 78.0044 115.52C77.5244 115.16 77.2724 114.644 77.2724 113.984H78.2564ZM84.1275 113.984C84.1395 114.356 84.2955 114.656 84.6075 114.884C84.9195 115.124 85.3155 115.232 85.8075 115.232C86.2395 115.232 86.5875 115.148 86.8515 114.98C87.1155 114.812 87.2595 114.584 87.2595 114.296C87.2595 114.056 87.1875 113.876 87.0675 113.744C86.9355 113.624 86.7675 113.528 86.5635 113.48C86.3595 113.432 86.0715 113.384 85.6995 113.336C85.1715 113.276 84.7395 113.192 84.4035 113.084C84.0675 112.988 83.7915 112.82 83.5875 112.592C83.3715 112.364 83.2755 112.052 83.2755 111.644C83.2755 111.284 83.3715 110.972 83.5755 110.684C83.7795 110.408 84.0555 110.192 84.4155 110.036C84.7635 109.88 85.1595 109.796 85.6035 109.796C86.3235 109.796 86.8995 109.964 87.3555 110.3C87.8115 110.636 88.0635 111.116 88.1115 111.74H87.1275C87.0795 111.428 86.9235 111.164 86.6595 110.948C86.3835 110.744 86.0475 110.636 85.6395 110.636C85.2195 110.636 84.8835 110.732 84.6315 110.9C84.3675 111.068 84.2475 111.296 84.2475 111.572C84.2475 111.788 84.3075 111.944 84.4275 112.052C84.5475 112.172 84.6915 112.244 84.8835 112.28C85.0755 112.328 85.3635 112.364 85.7475 112.412C86.2755 112.484 86.7195 112.568 87.0675 112.676C87.4155 112.796 87.6915 112.976 87.9075 113.216C88.1235 113.468 88.2315 113.804 88.2315 114.224C88.2315 114.596 88.1235 114.92 87.9075 115.196C87.6915 115.484 87.3915 115.7 87.0315 115.844C86.6595 116 86.2515 116.072 85.8075 116.072C85.0035 116.072 84.3555 115.892 83.8755 115.52C83.3955 115.16 83.1435 114.644 83.1435 113.984H84.1275ZM95.0718 115.1V116H94.5318C94.1358 116 93.8598 115.928 93.6918 115.76C93.5238 115.604 93.4278 115.364 93.4278 115.052C92.9478 115.736 92.2638 116.072 91.3758 116.072C90.6918 116.072 90.1398 115.916 89.7318 115.592C89.3238 115.28 89.1198 114.836 89.1198 114.284C89.1198 113.672 89.3238 113.204 89.7438 112.868C90.1638 112.544 90.7758 112.376 91.5798 112.376H93.3798V111.956C93.3798 111.56 93.2358 111.248 92.9718 111.02C92.7078 110.804 92.3358 110.684 91.8558 110.684C91.4238 110.684 91.0758 110.78 90.7998 110.972C90.5238 111.164 90.3558 111.404 90.2958 111.716H89.3118C89.3838 111.116 89.6478 110.648 90.1038 110.312C90.5598 109.976 91.1598 109.808 91.9038 109.808C92.6838 109.808 93.2838 110 93.7158 110.384C94.1478 110.768 94.3638 111.308 94.3638 112.016V114.656C94.3638 114.956 94.4958 115.1 94.7718 115.1H95.0718ZM93.3798 113.204H91.4838C90.5718 113.204 90.1158 113.552 90.1158 114.224C90.1158 114.536 90.2358 114.776 90.4758 114.956C90.7158 115.148 91.0398 115.232 91.4478 115.232C92.0478 115.232 92.5158 115.076 92.8638 114.764C93.1998 114.452 93.3798 114.032 93.3798 113.504V113.204ZM101.636 109.88V115.7C101.636 117.548 100.616 118.472 98.6003 118.472C97.8083 118.472 97.1603 118.292 96.6562 117.932C96.1523 117.572 95.8643 117.068 95.7923 116.396H96.8003C96.8723 116.78 97.0763 117.08 97.4123 117.284C97.7363 117.5 98.1562 117.596 98.6723 117.596C99.9923 117.596 100.652 116.96 100.652 115.664V114.944C100.208 115.7 99.5123 116.072 98.5523 116.072C97.9763 116.072 97.4723 115.952 97.0283 115.7C96.5843 115.46 96.2363 115.1 95.9843 114.62C95.7323 114.152 95.6123 113.588 95.6123 112.94C95.6123 112.328 95.7323 111.788 95.9843 111.308C96.2363 110.84 96.5843 110.468 97.0403 110.204C97.4843 109.94 97.9883 109.808 98.5523 109.808C99.0443 109.808 99.4643 109.916 99.8243 110.108C100.172 110.3 100.448 110.576 100.652 110.936L100.784 109.88H101.636ZM99.6923 114.92C100.004 114.728 100.244 114.464 100.412 114.128C100.58 113.792 100.664 113.396 100.664 112.964C100.664 112.532 100.58 112.136 100.412 111.788C100.244 111.44 100.004 111.164 99.6923 110.972C99.3803 110.78 99.0323 110.684 98.6483 110.684C98.0363 110.684 97.5443 110.9 97.1723 111.32C96.8003 111.74 96.6203 112.28 96.6203 112.94C96.6203 113.612 96.8003 114.152 97.1723 114.572C97.5443 114.992 98.0363 115.196 98.6483 115.196C99.0323 115.196 99.3803 115.112 99.6923 114.92ZM103.121 111.296C103.361 110.828 103.709 110.468 104.153 110.204C104.585 109.94 105.089 109.808 105.665 109.808C106.217 109.808 106.721 109.928 107.153 110.156C107.585 110.396 107.921 110.732 108.173 111.164C108.413 111.608 108.545 112.124 108.569 112.712C108.569 112.808 108.557 112.94 108.545 113.132H103.793V113.216C103.805 113.816 103.985 114.296 104.345 114.656C104.693 115.016 105.149 115.196 105.725 115.196C106.157 115.196 106.529 115.088 106.841 114.872C107.153 114.656 107.357 114.344 107.465 113.948H108.461C108.341 114.572 108.041 115.088 107.561 115.484C107.081 115.88 106.493 116.072 105.797 116.072C105.185 116.072 104.657 115.952 104.201 115.688C103.745 115.424 103.385 115.064 103.133 114.584C102.881 114.104 102.761 113.564 102.761 112.94C102.761 112.316 102.881 111.776 103.121 111.296ZM107.549 112.316C107.501 111.8 107.297 111.392 106.961 111.104C106.625 110.816 106.193 110.672 105.677 110.672C105.209 110.672 104.801 110.828 104.453 111.128C104.093 111.44 103.901 111.836 103.853 112.316H107.549Z" fill="#FAFAFA"/>
<path d="M31.44 136.984C31.452 137.356 31.608 137.656 31.92 137.884C32.232 138.124 32.628 138.232 33.12 138.232C33.552 138.232 33.9 138.148 34.164 137.98C34.428 137.812 34.572 137.584 34.572 137.296C34.572 137.056 34.5 136.876 34.38 136.744C34.248 136.624 34.08 136.528 33.876 136.48C33.672 136.432 33.384 136.384 33.012 136.336C32.484 136.276 32.052 136.192 31.716 136.084C31.38 135.988 31.104 135.82 30.9 135.592C30.684 135.364 30.588 135.052 30.588 134.644C30.588 134.284 30.684 133.972 30.888 133.684C31.092 133.408 31.368 133.192 31.728 133.036C32.076 132.88 32.472 132.796 32.916 132.796C33.636 132.796 34.212 132.964 34.668 133.3C35.124 133.636 35.376 134.116 35.424 134.74H34.44C34.392 134.428 34.236 134.164 33.972 133.948C33.696 133.744 33.36 133.636 32.952 133.636C32.532 133.636 32.196 133.732 31.944 133.9C31.68 134.068 31.56 134.296 31.56 134.572C31.56 134.788 31.62 134.944 31.74 135.052C31.86 135.172 32.004 135.244 32.196 135.28C32.388 135.328 32.676 135.364 33.06 135.412C33.588 135.484 34.032 135.568 34.38 135.676C34.728 135.796 35.004 135.976 35.22 136.216C35.436 136.468 35.544 136.804 35.544 137.224C35.544 137.596 35.436 137.92 35.22 138.196C35.004 138.484 34.704 138.7 34.344 138.844C33.972 139 33.564 139.072 33.12 139.072C32.316 139.072 31.668 138.892 31.188 138.52C30.708 138.16 30.456 137.644 30.456 136.984H31.44ZM36.8043 134.296C37.0443 133.828 37.3923 133.468 37.8363 133.204C38.2683 132.94 38.7723 132.808 39.3483 132.808C39.9003 132.808 40.4043 132.928 40.8363 133.156C41.2683 133.396 41.6043 133.732 41.8563 134.164C42.0963 134.608 42.2283 135.124 42.2523 135.712C42.2523 135.808 42.2403 135.94 42.2283 136.132H37.4763V136.216C37.4883 136.816 37.6683 137.296 38.0283 137.656C38.3763 138.016 38.8323 138.196 39.4083 138.196C39.8403 138.196 40.2123 138.088 40.5243 137.872C40.8363 137.656 41.0403 137.344 41.1483 136.948H42.1443C42.0243 137.572 41.7243 138.088 41.2443 138.484C40.7643 138.88 40.1763 139.072 39.4803 139.072C38.8683 139.072 38.3403 138.952 37.8843 138.688C37.4283 138.424 37.0683 138.064 36.8163 137.584C36.5643 137.104 36.4443 136.564 36.4443 135.94C36.4443 135.316 36.5643 134.776 36.8043 134.296ZM41.2323 135.316C41.1843 134.8 40.9803 134.392 40.6443 134.104C40.3083 133.816 39.8763 133.672 39.3603 133.672C38.8923 133.672 38.4843 133.828 38.1363 134.128C37.7763 134.44 37.5843 134.836 37.5363 135.316H41.2323ZM48.1631 133.48C48.6191 133.936 48.8471 134.632 48.8471 135.592V139H47.8631V135.652C47.8631 135.028 47.7191 134.548 47.4311 134.212C47.1431 133.876 46.7351 133.708 46.2071 133.708C45.6311 133.708 45.1751 133.912 44.8511 134.308C44.5151 134.716 44.3591 135.256 44.3591 135.94V139H43.3751V132.88H44.2271L44.3591 133.708C44.8151 133.108 45.4871 132.808 46.3751 132.808C47.1191 132.808 47.7071 133.036 48.1631 133.48ZM55.9097 130.6V139H55.0577L54.9257 138.016C54.4097 138.724 53.7137 139.072 52.8257 139.072C52.2497 139.072 51.7457 138.952 51.3017 138.7C50.8577 138.46 50.5097 138.1 50.2577 137.62C50.0057 137.152 49.8857 136.588 49.8857 135.94C49.8857 135.328 50.0057 134.788 50.2577 134.308C50.5097 133.84 50.8577 133.468 51.3137 133.204C51.7577 132.94 52.2617 132.808 52.8257 132.808C53.3177 132.808 53.7377 132.904 54.0977 133.084C54.4457 133.264 54.7217 133.504 54.9257 133.816V130.6H55.9097ZM53.9657 137.92C54.2777 137.728 54.5177 137.464 54.6857 137.128C54.8537 136.792 54.9377 136.396 54.9377 135.964C54.9377 135.532 54.8537 135.136 54.6857 134.788C54.5177 134.44 54.2777 134.164 53.9657 133.972C53.6537 133.78 53.3057 133.684 52.9217 133.684C52.3097 133.684 51.8177 133.9 51.4457 134.32C51.0737 134.74 50.8937 135.28 50.8937 135.94C50.8937 136.612 51.0737 137.152 51.4457 137.572C51.8177 137.992 52.3097 138.196 52.9217 138.196C53.3057 138.196 53.6537 138.112 53.9657 137.92ZM68.8868 133.456C69.3188 133.888 69.5348 134.56 69.5348 135.472V139H68.5508V135.532C68.5508 134.944 68.4188 134.488 68.1668 134.176C67.9148 133.864 67.5548 133.708 67.0988 133.708C66.5828 133.708 66.1748 133.888 65.8867 134.248C65.5988 134.608 65.4548 135.1 65.4548 135.724V139H64.4708V135.532C64.4708 134.944 64.3388 134.488 64.0868 134.176C63.8228 133.864 63.4628 133.708 62.9948 133.708C62.4908 133.708 62.0948 133.9 61.8068 134.284C61.5188 134.668 61.3748 135.16 61.3748 135.772V139H60.3908V132.88H61.2428L61.3748 133.72C61.8068 133.12 62.4068 132.808 63.1628 132.808C63.5948 132.808 63.9908 132.916 64.3268 133.108C64.6628 133.3 64.9268 133.588 65.0948 133.972C65.5268 133.204 66.2348 132.808 67.2188 132.808C67.9028 132.808 68.4548 133.024 68.8868 133.456ZM70.941 134.296C71.181 133.828 71.529 133.468 71.973 133.204C72.405 132.94 72.909 132.808 73.485 132.808C74.037 132.808 74.541 132.928 74.973 133.156C75.405 133.396 75.741 133.732 75.993 134.164C76.233 134.608 76.365 135.124 76.389 135.712C76.389 135.808 76.377 135.94 76.365 136.132H71.613V136.216C71.625 136.816 71.805 137.296 72.165 137.656C72.513 138.016 72.969 138.196 73.545 138.196C73.977 138.196 74.349 138.088 74.661 137.872C74.973 137.656 75.177 137.344 75.285 136.948H76.281C76.161 137.572 75.861 138.088 75.381 138.484C74.901 138.88 74.313 139.072 73.617 139.072C73.005 139.072 72.477 138.952 72.021 138.688C71.565 138.424 71.205 138.064 70.953 137.584C70.701 137.104 70.581 136.564 70.581 135.94C70.581 135.316 70.701 134.776 70.941 134.296ZM75.369 135.316C75.321 134.8 75.117 134.392 74.781 134.104C74.445 133.816 74.013 133.672 73.497 133.672C73.029 133.672 72.621 133.828 72.273 134.128C71.913 134.44 71.721 134.836 71.673 135.316H75.369ZM78.2564 136.984C78.2684 137.356 78.4244 137.656 78.7364 137.884C79.0484 138.124 79.4444 138.232 79.9364 138.232C80.3684 138.232 80.7164 138.148 80.9804 137.98C81.2444 137.812 81.3884 137.584 81.3884 137.296C81.3884 137.056 81.3164 136.876 81.1964 136.744C81.0644 136.624 80.8964 136.528 80.6924 136.48C80.4884 136.432 80.2004 136.384 79.8284 136.336C79.3004 136.276 78.8684 136.192 78.5324 136.084C78.1964 135.988 77.9204 135.82 77.7164 135.592C77.5004 135.364 77.4044 135.052 77.4044 134.644C77.4044 134.284 77.5004 133.972 77.7044 133.684C77.9084 133.408 78.1844 133.192 78.5444 133.036C78.8924 132.88 79.2884 132.796 79.7324 132.796C80.4524 132.796 81.0284 132.964 81.4844 133.3C81.9404 133.636 82.1924 134.116 82.2404 134.74H81.2564C81.2084 134.428 81.0524 134.164 80.7884 133.948C80.5124 133.744 80.1764 133.636 79.7684 133.636C79.3484 133.636 79.0124 133.732 78.7604 133.9C78.4964 134.068 78.3764 134.296 78.3764 134.572C78.3764 134.788 78.4364 134.944 78.5564 135.052C78.6764 135.172 78.8204 135.244 79.0124 135.28C79.2044 135.328 79.4924 135.364 79.8764 135.412C80.4044 135.484 80.8484 135.568 81.1964 135.676C81.5444 135.796 81.8204 135.976 82.0364 136.216C82.2524 136.468 82.3604 136.804 82.3604 137.224C82.3604 137.596 82.2524 137.92 82.0364 138.196C81.8204 138.484 81.5204 138.7 81.1604 138.844C80.7884 139 80.3804 139.072 79.9364 139.072C79.1324 139.072 78.4844 138.892 78.0044 138.52C77.5244 138.16 77.2724 137.644 77.2724 136.984H78.2564ZM84.1275 136.984C84.1395 137.356 84.2955 137.656 84.6075 137.884C84.9195 138.124 85.3155 138.232 85.8075 138.232C86.2395 138.232 86.5875 138.148 86.8515 137.98C87.1155 137.812 87.2595 137.584 87.2595 137.296C87.2595 137.056 87.1875 136.876 87.0675 136.744C86.9355 136.624 86.7675 136.528 86.5635 136.48C86.3595 136.432 86.0715 136.384 85.6995 136.336C85.1715 136.276 84.7395 136.192 84.4035 136.084C84.0675 135.988 83.7915 135.82 83.5875 135.592C83.3715 135.364 83.2755 135.052 83.2755 134.644C83.2755 134.284 83.3715 133.972 83.5755 133.684C83.7795 133.408 84.0555 133.192 84.4155 133.036C84.7635 132.88 85.1595 132.796 85.6035 132.796C86.3235 132.796 86.8995 132.964 87.3555 133.3C87.8115 133.636 88.0635 134.116 88.1115 134.74H87.1275C87.0795 134.428 86.9235 134.164 86.6595 133.948C86.3835 133.744 86.0475 133.636 85.6395 133.636C85.2195 133.636 84.8835 133.732 84.6315 133.9C84.3675 134.068 84.2475 134.296 84.2475 134.572C84.2475 134.788 84.3075 134.944 84.4275 135.052C84.5475 135.172 84.6915 135.244 84.8835 135.28C85.0755 135.328 85.3635 135.364 85.7475 135.412C86.2755 135.484 86.7195 135.568 87.0675 135.676C87.4155 135.796 87.6915 135.976 87.9075 136.216C88.1235 136.468 88.2315 136.804 88.2315 137.224C88.2315 137.596 88.1235 137.92 87.9075 138.196C87.6915 138.484 87.3915 138.7 87.0315 138.844C86.6595 139 86.2515 139.072 85.8075 139.072C85.0035 139.072 84.3555 138.892 83.8755 138.52C83.3955 138.16 83.1435 137.644 83.1435 136.984H84.1275ZM95.0718 138.1V139H94.5318C94.1358 139 93.8598 138.928 93.6918 138.76C93.5238 138.604 93.4278 138.364 93.4278 138.052C92.9478 138.736 92.2638 139.072 91.3758 139.072C90.6918 139.072 90.1398 138.916 89.7318 138.592C89.3238 138.28 89.1198 137.836 89.1198 137.284C89.1198 136.672 89.3238 136.204 89.7438 135.868C90.1638 135.544 90.7758 135.376 91.5798 135.376H93.3798V134.956C93.3798 134.56 93.2358 134.248 92.9718 134.02C92.7078 133.804 92.3358 133.684 91.8558 133.684C91.4238 133.684 91.0758 133.78 90.7998 133.972C90.5238 134.164 90.3558 134.404 90.2958 134.716H89.3118C89.3838 134.116 89.6478 133.648 90.1038 133.312C90.5598 132.976 91.1598 132.808 91.9038 132.808C92.6838 132.808 93.2838 133 93.7158 133.384C94.1478 133.768 94.3638 134.308 94.3638 135.016V137.656C94.3638 137.956 94.4958 138.1 94.7718 138.1H95.0718ZM93.3798 136.204H91.4838C90.5718 136.204 90.1158 136.552 90.1158 137.224C90.1158 137.536 90.2358 137.776 90.4758 137.956C90.7158 138.148 91.0398 138.232 91.4478 138.232C92.0478 138.232 92.5158 138.076 92.8638 137.764C93.1998 137.452 93.3798 137.032 93.3798 136.504V136.204ZM101.636 132.88V138.7C101.636 140.548 100.616 141.472 98.6003 141.472C97.8083 141.472 97.1603 141.292 96.6562 140.932C96.1523 140.572 95.8643 140.068 95.7923 139.396H96.8003C96.8723 139.78 97.0763 140.08 97.4123 140.284C97.7363 140.5 98.1562 140.596 98.6723 140.596C99.9923 140.596 100.652 139.96 100.652 138.664V137.944C100.208 138.7 99.5123 139.072 98.5523 139.072C97.9763 139.072 97.4723 138.952 97.0283 138.7C96.5843 138.46 96.2363 138.1 95.9843 137.62C95.7323 137.152 95.6123 136.588 95.6123 135.94C95.6123 135.328 95.7323 134.788 95.9843 134.308C96.2363 133.84 96.5843 133.468 97.0403 133.204C97.4843 132.94 97.9883 132.808 98.5523 132.808C99.0443 132.808 99.4643 132.916 99.8243 133.108C100.172 133.3 100.448 133.576 100.652 133.936L100.784 132.88H101.636ZM99.6923 137.92C100.004 137.728 100.244 137.464 100.412 137.128C100.58 136.792 100.664 136.396 100.664 135.964C100.664 135.532 100.58 135.136 100.412 134.788C100.244 134.44 100.004 134.164 99.6923 133.972C99.3803 133.78 99.0323 133.684 98.6483 133.684C98.0363 133.684 97.5443 133.9 97.1723 134.32C96.8003 134.74 96.6203 135.28 96.6203 135.94C96.6203 136.612 96.8003 137.152 97.1723 137.572C97.5443 137.992 98.0363 138.196 98.6483 138.196C99.0323 138.196 99.3803 138.112 99.6923 137.92ZM103.121 134.296C103.361 133.828 103.709 133.468 104.153 133.204C104.585 132.94 105.089 132.808 105.665 132.808C106.217 132.808 106.721 132.928 107.153 133.156C107.585 133.396 107.921 133.732 108.173 134.164C108.413 134.608 108.545 135.124 108.569 135.712C108.569 135.808 108.557 135.94 108.545 136.132H103.793V136.216C103.805 136.816 103.985 137.296 104.345 137.656C104.693 138.016 105.149 138.196 105.725 138.196C106.157 138.196 106.529 138.088 106.841 137.872C107.153 137.656 107.357 137.344 107.465 136.948H108.461C108.341 137.572 108.041 138.088 107.561 138.484C107.081 138.88 106.493 139.072 105.797 139.072C105.185 139.072 104.657 138.952 104.201 138.688C103.745 138.424 103.385 138.064 103.133 137.584C102.881 137.104 102.761 136.564 102.761 135.94C102.761 135.316 102.881 134.776 103.121 134.296ZM107.549 135.316C107.501 134.8 107.297 134.392 106.961 134.104C106.625 133.816 106.193 133.672 105.677 133.672C105.209 133.672 104.801 133.828 104.453 134.128C104.093 134.44 103.901 134.836 103.853 135.316H107.549Z" fill="#FAFAFA"/>
<defs>
<linearGradient id="paint0_linear_893_7157" x1="320" y1="80" x2="80" y2="80" gradientUnits="userSpaceOnUse">
<stop stop-color="#111111"/>
<stop offset="1" stop-color="#111111" stop-opacity="0"/>
</linearGradient>
</defs>
</svg>
