<svg width="320" height="160" viewBox="0 0 320 160" fill="none" xmlns="http://www.w3.org/2000/svg">
<g clip-path="url(#clip0_893_7153)">
<rect width="320" height="160" fill="#111111"/>
<mask id="path-1-inside-1_893_7153" fill="white">
<path d="M1 32C1 18.7452 11.7452 8 25 8H295C308.255 8 319 18.7452 319 32V168H1V32Z"/>
</mask>
<path d="M0 32C0 18.1929 11.1929 7 25 7H295C308.807 7 320 18.1929 320 32H318C318 19.2975 307.703 9 295 9H25C12.2975 9 2 19.2975 2 32H0ZM319 168H1H319ZM0 168V32C0 18.1929 11.1929 7 25 7V9C12.2975 9 2 19.2975 2 32V168H0ZM295 7C308.807 7 320 18.1929 320 32V168H318V32C318 19.2975 307.703 9 295 9V7Z" fill="#333333" mask="url(#path-1-inside-1_893_7153)"/>
<path d="M24.816 28.6H27.3C28.164 28.6 28.908 28.78 29.544 29.128C30.18 29.476 30.672 29.968 31.008 30.592C31.344 31.228 31.524 31.96 31.524 32.8C31.524 33.64 31.344 34.372 31.008 35.008C30.672 35.644 30.18 36.136 29.544 36.484C28.908 36.832 28.164 37 27.3 37H24.816V28.6ZM27.3 36.04C28.296 36.04 29.076 35.752 29.628 35.164C30.18 34.588 30.456 33.796 30.456 32.8C30.456 31.804 30.18 31.012 29.628 30.436C29.076 29.86 28.308 29.56 27.3 29.56H25.86V36.04H27.3ZM32.8433 28.6H38.1953V29.56H33.8873V32.248H37.4753V33.208H33.8873V36.04H38.3513V37H32.8433V28.6ZM38.7564 28.6H39.8604L42.4284 35.764L44.9844 28.6H46.0644L43.0404 37H41.7804L38.7564 28.6ZM46.9879 28.6H48.0319V37H46.9879V28.6ZM49.8398 30.568C50.1638 29.92 50.6318 29.428 51.2438 29.068C51.8438 28.708 52.5518 28.528 53.3558 28.528C54.2798 28.528 55.0598 28.78 55.6838 29.284C56.3078 29.788 56.7038 30.484 56.8718 31.348H55.8278C55.6718 30.772 55.3718 30.316 54.9278 29.98C54.4838 29.656 53.9438 29.488 53.3078 29.488C52.7318 29.488 52.2158 29.632 51.7838 29.908C51.3398 30.196 51.0038 30.58 50.7638 31.084C50.5238 31.588 50.4158 32.152 50.4158 32.8C50.4158 33.448 50.5238 34.012 50.7638 34.516C51.0038 35.02 51.3398 35.416 51.7838 35.692C52.2158 35.98 52.7318 36.112 53.3078 36.112C53.9558 36.112 54.4958 35.956 54.9278 35.632C55.3598 35.308 55.6478 34.852 55.8158 34.252H56.8598C56.6918 35.128 56.3078 35.812 55.6838 36.316C55.0598 36.82 54.2918 37.072 53.3558 37.072C52.5518 37.072 51.8438 36.904 51.2438 36.544C50.6318 36.184 50.1638 35.692 49.8398 35.044C49.5038 34.396 49.3478 33.652 49.3478 32.8C49.3478 31.96 49.5038 31.216 49.8398 30.568ZM58.1793 28.6H63.5313V29.56H59.2233V32.248H62.8113V33.208H59.2233V36.04H63.6873V37H58.1793V28.6ZM67.3156 37L70.5196 28.6H71.7556L74.9476 37H73.8316L72.9436 34.732H69.2836L68.3956 37H67.3156ZM69.5956 33.784H72.6316L71.1076 29.74L69.5956 33.784ZM79.126 28.6C79.678 28.6 80.158 28.708 80.59 28.924C81.01 29.14 81.334 29.44 81.562 29.824C81.79 30.208 81.91 30.664 81.91 31.18C81.91 31.708 81.79 32.164 81.562 32.548C81.322 32.944 80.998 33.244 80.578 33.46C80.158 33.676 79.678 33.772 79.126 33.772H76.942V37H75.898V28.6H79.126ZM76.942 32.812H79.03C79.582 32.812 80.014 32.668 80.35 32.368C80.674 32.08 80.842 31.684 80.842 31.18C80.842 30.688 80.674 30.292 80.35 30.004C80.026 29.716 79.594 29.56 79.042 29.56H76.942V32.812ZM86.251 28.6C86.803 28.6 87.283 28.708 87.715 28.924C88.135 29.14 88.459 29.44 88.687 29.824C88.915 30.208 89.035 30.664 89.035 31.18C89.035 31.708 88.915 32.164 88.687 32.548C88.447 32.944 88.123 33.244 87.703 33.46C87.283 33.676 86.803 33.772 86.251 33.772H84.067V37H83.023V28.6H86.251ZM84.067 32.812H86.155C86.707 32.812 87.139 32.668 87.475 32.368C87.799 32.08 87.967 31.684 87.967 31.18C87.967 30.688 87.799 30.292 87.475 30.004C87.151 29.716 86.719 29.56 86.167 29.56H84.067V32.812ZM90.148 28.6H95.5V29.56H91.192V32.248H94.78V33.208H91.192V36.04H95.656V37H90.148V28.6ZM96.1437 37L99.3477 28.6H100.584L103.776 37H102.66L101.772 34.732H98.1117L97.2237 37H96.1437ZM98.4237 33.784H101.46L99.9357 29.74L98.4237 33.784ZM107.942 28.6C108.494 28.6 108.974 28.708 109.406 28.924C109.826 29.14 110.15 29.44 110.39 29.824C110.618 30.208 110.738 30.664 110.738 31.18C110.738 31.768 110.57 32.272 110.246 32.704C109.922 33.136 109.49 33.424 108.95 33.568L110.834 37H109.658L107.918 33.772H105.77V37H104.726V28.6H107.942ZM105.77 32.812H107.858C108.41 32.812 108.842 32.668 109.178 32.368C109.502 32.08 109.67 31.684 109.67 31.18C109.67 30.7 109.502 30.304 109.178 30.004C108.842 29.716 108.41 29.56 107.87 29.56H105.77V32.812ZM111.214 37L114.418 28.6H115.654L118.846 37H117.73L116.842 34.732H113.182L112.294 37H111.214ZM113.494 33.784H116.53L115.006 29.74L113.494 33.784ZM119.796 37V28.6H120.756L125.268 35.08V28.6H126.288V37H125.328L120.816 30.52V37H119.796ZM128.098 30.568C128.422 29.92 128.89 29.428 129.502 29.068C130.102 28.708 130.81 28.528 131.614 28.528C132.538 28.528 133.318 28.78 133.942 29.284C134.566 29.788 134.962 30.484 135.13 31.348H134.086C133.93 30.772 133.63 30.316 133.186 29.98C132.742 29.656 132.202 29.488 131.566 29.488C130.99 29.488 130.474 29.632 130.042 29.908C129.598 30.196 129.262 30.58 129.022 31.084C128.782 31.588 128.674 32.152 128.674 32.8C128.674 33.448 128.782 34.012 129.022 34.516C129.262 35.02 129.598 35.416 130.042 35.692C130.474 35.98 130.99 36.112 131.566 36.112C132.214 36.112 132.754 35.956 133.186 35.632C133.618 35.308 133.906 34.852 134.074 34.252H135.118C134.95 35.128 134.566 35.812 133.942 36.316C133.318 36.82 132.55 37.072 131.614 37.072C130.81 37.072 130.102 36.904 129.502 36.544C128.89 36.184 128.422 35.692 128.098 35.044C127.762 34.396 127.606 33.652 127.606 32.8C127.606 31.96 127.762 31.216 128.098 30.568ZM136.437 28.6H141.789V29.56H137.481V32.248H141.069V33.208H137.481V36.04H141.945V37H136.437V28.6Z" fill="#555555"/>
<path d="M24.3 96.6H30.792V97.56H28.068V105H27.024V97.56H24.3V96.6ZM31.9058 96.6H37.2578V97.56H32.9498V100.248H36.5378V101.208H32.9498V104.04H37.4138V105H31.9058V96.6ZM40.9735 100.704L38.2975 96.6H39.5215L41.6455 99.864L43.7935 96.6H44.9215L42.2455 100.704L45.1015 105H43.8655L41.5615 101.544L39.2455 105H38.1175L40.9735 100.704ZM45.7453 96.6H52.2373V97.56H49.5133V105H48.4693V97.56H45.7453V96.6ZM57.2118 102.252C57.2478 102.828 57.4758 103.284 57.8958 103.62C58.3038 103.956 58.8318 104.124 59.4798 104.124C60.0558 104.124 60.5118 104.004 60.8718 103.752C61.2318 103.5 61.4118 103.152 61.4118 102.696C61.4118 102.372 61.3038 102.108 61.1118 101.916C60.9198 101.724 60.6678 101.592 60.3558 101.496C60.0438 101.4 59.6358 101.316 59.1078 101.22C58.2678 101.076 57.5958 100.848 57.1038 100.512C56.5998 100.188 56.3598 99.66 56.3598 98.916C56.3598 98.448 56.4798 98.028 56.7198 97.668C56.9598 97.308 57.2958 97.02 57.7278 96.816C58.1598 96.624 58.6638 96.516 59.2278 96.516C59.8158 96.516 60.3438 96.624 60.7998 96.84C61.2558 97.056 61.6158 97.368 61.8798 97.752C62.1438 98.136 62.2878 98.58 62.3238 99.084H61.2918C61.2198 98.604 61.0038 98.208 60.6318 97.908C60.2478 97.62 59.7798 97.464 59.2278 97.464C58.6638 97.464 58.2198 97.596 57.8958 97.836C57.5598 98.076 57.4038 98.424 57.4038 98.856C57.4038 99.18 57.4998 99.432 57.6918 99.612C57.8838 99.792 58.1238 99.924 58.4358 100.02C58.7358 100.116 59.1558 100.2 59.6838 100.284C60.5238 100.428 61.1958 100.668 61.6998 101.004C62.2038 101.34 62.4558 101.868 62.4558 102.6C62.4558 103.08 62.3238 103.512 62.0718 103.884C61.8198 104.268 61.4718 104.556 61.0158 104.76C60.5598 104.976 60.0438 105.072 59.4678 105.072C58.8078 105.072 58.2318 104.964 57.7518 104.724C57.2598 104.484 56.8758 104.16 56.6118 103.728C56.3478 103.296 56.2038 102.804 56.1798 102.252H57.2118ZM63.7808 96.6H64.8248V105H63.7808V96.6ZM66.1527 96.6H72.4167V97.356L67.4007 104.04H72.5727V105H65.9967V104.244L71.0127 97.56H66.1527V96.6ZM73.7535 96.6H79.1055V97.56H74.7975V100.248H78.3855V101.208H74.7975V104.04H79.2615V105H73.7535V96.6Z" fill="#555555"/>
<circle cx="97" cy="66" r="8" fill="#444444"/>
<circle cx="97" cy="66" r="4" fill="#57B495"/>
<path d="M46.816 71V62.6H47.86V70.04H51.688V71H46.816ZM53.6083 62.696C53.7283 62.816 53.7883 62.972 53.7883 63.152C53.7883 63.344 53.7283 63.488 53.6083 63.608C53.4883 63.728 53.3323 63.788 53.1523 63.788C52.9603 63.788 52.8163 63.728 52.6963 63.608C52.5763 63.488 52.5163 63.344 52.5163 63.152C52.5163 62.972 52.5763 62.816 52.6963 62.696C52.8163 62.576 52.9603 62.516 53.1523 62.516C53.3323 62.516 53.4883 62.576 53.6083 62.696ZM52.6603 64.88H53.6443V71H52.6603V64.88ZM60.8003 64.88V70.7C60.8003 72.548 59.7803 73.472 57.7643 73.472C56.9723 73.472 56.3243 73.292 55.8203 72.932C55.3163 72.572 55.0283 72.068 54.9563 71.396H55.9643C56.0363 71.78 56.2403 72.08 56.5763 72.284C56.9003 72.5 57.3203 72.596 57.8363 72.596C59.1563 72.596 59.8163 71.96 59.8163 70.664V69.944C59.3723 70.7 58.6763 71.072 57.7163 71.072C57.1403 71.072 56.6363 70.952 56.1923 70.7C55.7483 70.46 55.4003 70.1 55.1483 69.62C54.8963 69.152 54.7763 68.588 54.7763 67.94C54.7763 67.328 54.8963 66.788 55.1483 66.308C55.4003 65.84 55.7483 65.468 56.2043 65.204C56.6483 64.94 57.1523 64.808 57.7163 64.808C58.2083 64.808 58.6283 64.916 58.9883 65.108C59.3363 65.3 59.6123 65.576 59.8163 65.936L59.9483 64.88H60.8003ZM58.8563 69.92C59.1683 69.728 59.4083 69.464 59.5763 69.128C59.7443 68.792 59.8283 68.396 59.8283 67.964C59.8283 67.532 59.7443 67.136 59.5763 66.788C59.4083 66.44 59.1683 66.164 58.8563 65.972C58.5443 65.78 58.1963 65.684 57.8123 65.684C57.2003 65.684 56.7083 65.9 56.3363 66.32C55.9643 66.74 55.7843 67.28 55.7843 67.94C55.7843 68.612 55.9643 69.152 56.3363 69.572C56.7083 69.992 57.2003 70.196 57.8123 70.196C58.1963 70.196 58.5443 70.112 58.8563 69.92ZM66.9408 65.48C67.3968 65.936 67.6248 66.632 67.6248 67.592V71H66.6408V67.652C66.6408 67.028 66.4968 66.548 66.2088 66.212C65.9208 65.876 65.5008 65.708 64.9728 65.708C64.3968 65.708 63.9528 65.912 63.6168 66.308C63.2808 66.716 63.1248 67.256 63.1248 67.94V71H62.1408V62.6H63.1248V65.888C63.3168 65.576 63.5808 65.312 63.9168 65.108C64.2528 64.916 64.6608 64.808 65.1408 64.808C65.8848 64.808 66.4848 65.036 66.9408 65.48ZM69.287 65.78H68.183V64.88H69.287V63.164H70.271V64.88H71.819V65.78H70.271V69.392C70.271 69.656 70.319 69.836 70.415 69.944C70.511 70.052 70.691 70.1 70.943 70.1H72.011V71H70.883C70.307 71 69.887 70.88 69.647 70.616C69.407 70.364 69.287 69.956 69.287 69.404V65.78Z" fill="#FAFAFA"/>
<path d="M111.816 62.6H114.3C115.164 62.6 115.908 62.78 116.544 63.128C117.18 63.476 117.672 63.968 118.008 64.592C118.344 65.228 118.524 65.96 118.524 66.8C118.524 67.64 118.344 68.372 118.008 69.008C117.672 69.644 117.18 70.136 116.544 70.484C115.908 70.832 115.164 71 114.3 71H111.816V62.6ZM114.3 70.04C115.296 70.04 116.076 69.752 116.628 69.164C117.18 68.588 117.456 67.796 117.456 66.8C117.456 65.804 117.18 65.012 116.628 64.436C116.076 63.86 115.308 63.56 114.3 63.56H112.86V70.04H114.3ZM125.423 70.1V71H124.883C124.487 71 124.211 70.928 124.043 70.76C123.875 70.604 123.779 70.364 123.779 70.052C123.299 70.736 122.615 71.072 121.727 71.072C121.043 71.072 120.491 70.916 120.083 70.592C119.675 70.28 119.471 69.836 119.471 69.284C119.471 68.672 119.675 68.204 120.095 67.868C120.515 67.544 121.127 67.376 121.931 67.376H123.731V66.956C123.731 66.56 123.587 66.248 123.323 66.02C123.059 65.804 122.687 65.684 122.207 65.684C121.775 65.684 121.427 65.78 121.151 65.972C120.875 66.164 120.707 66.404 120.647 66.716H119.663C119.735 66.116 119.999 65.648 120.455 65.312C120.911 64.976 121.511 64.808 122.255 64.808C123.035 64.808 123.635 65 124.067 65.384C124.499 65.768 124.715 66.308 124.715 67.016V69.656C124.715 69.956 124.847 70.1 125.123 70.1H125.423ZM123.731 68.204H121.835C120.923 68.204 120.467 68.552 120.467 69.224C120.467 69.536 120.587 69.776 120.827 69.956C121.067 70.148 121.391 70.232 121.799 70.232C122.399 70.232 122.867 70.076 123.215 69.764C123.551 69.452 123.731 69.032 123.731 68.504V68.204ZM129.288 64.88V65.84H128.796C128.208 65.84 127.788 66.044 127.536 66.428C127.284 66.824 127.164 67.304 127.164 67.88V71H126.18V64.88H127.032L127.164 65.804C127.332 65.528 127.56 65.3 127.848 65.132C128.124 64.964 128.508 64.88 129.012 64.88H129.288ZM130.188 62.6H131.172V68.168L134.28 64.88H135.456L133.104 67.388L135.624 71H134.436L132.396 68.096L131.172 69.38V71H130.188V62.6Z" fill="#FAFAFA"/>
<path d="M24.064 133L26.16 127.4H27.256L29.344 133H28.36L27.832 131.616H25.536L25.016 133H24.064ZM25.792 130.832H27.576L26.68 128.392L25.792 130.832Z" fill="#FAFAFA"/>
<path d="M287.112 134L290.78 124.2H292.698L296.352 134H294.63L293.706 131.578H289.688L288.778 134H287.112ZM290.136 130.206H293.258L291.69 125.936L290.136 130.206Z" fill="#FAFAFA"/>
<rect x="34" y="129" width="248" height="2" fill="#444444"/>
<rect x="34" y="127" width="2" height="6" fill="#444444"/>
<rect x="75" y="127" width="2" height="6" fill="#444444"/>
<rect x="116" y="127" width="2" height="6" fill="#444444"/>
<rect x="157" y="127" width="2" height="6" fill="#444444"/>
<rect x="198" y="127" width="2" height="6" fill="#444444"/>
<rect x="239" y="127" width="2" height="6" fill="#444444"/>
<rect x="280" y="127" width="2" height="6" fill="#444444"/>
<circle cx="76" cy="130" r="8" fill="#57B495"/>
<circle cx="32" cy="66" r="7.5" stroke="#444444"/>
</g>
<defs>
<clipPath id="clip0_893_7153">
<rect width="320" height="160" fill="white"/>
</clipPath>
</defs>
</svg>
