<svg width="320" height="160" viewBox="0 0 320 160" fill="none" xmlns="http://www.w3.org/2000/svg">
<rect width="320" height="160" fill="white"/>
<mask id="path-1-inside-1_1199_23047" fill="white">
<path d="M1 48C1 34.7452 11.7452 24 25 24H295C308.255 24 319 34.7452 319 48V160H1V48Z"/>
</mask>
<path d="M0 48C0 34.1929 11.1929 23 25 23H295C308.807 23 320 34.1929 320 48H318C318 35.2975 307.703 25 295 25H25C12.2975 25 2 35.2975 2 48H0ZM319 160H1H319ZM0 160V48C0 34.1929 11.1929 23 25 23V25C12.2975 25 2 35.2975 2 48V160H0ZM295 23C308.807 23 320 34.1929 320 48V160H318V48C318 35.2975 307.703 25 295 25V23Z" fill="#D4E5DF" mask="url(#path-1-inside-1_1199_23047)"/>
<rect x="10" y="33" width="300" height="40" rx="20" fill="#DFF2EC"/>
<path d="M24.616 60.2L29.304 45.8H30.552L25.864 60.2H24.616ZM31.1505 50.728C31.4705 50.104 31.9345 49.624 32.5265 49.272C33.1025 48.92 33.7745 48.744 34.5425 48.744C35.2785 48.744 35.9505 48.904 36.5265 49.208C37.1025 49.528 37.5505 49.976 37.8865 50.552C38.2065 51.144 38.3825 51.832 38.4145 52.616C38.4145 52.744 38.3985 52.92 38.3825 53.176H32.0465V53.288C32.0625 54.088 32.3025 54.728 32.7825 55.208C33.2465 55.688 33.8545 55.928 34.6225 55.928C35.1985 55.928 35.6945 55.784 36.1105 55.496C36.5265 55.208 36.7985 54.792 36.9425 54.264H38.2705C38.1105 55.096 37.7105 55.784 37.0705 56.312C36.4305 56.84 35.6465 57.096 34.7185 57.096C33.9025 57.096 33.1985 56.936 32.5905 56.584C31.9825 56.232 31.5025 55.752 31.1665 55.112C30.8305 54.472 30.6705 53.752 30.6705 52.92C30.6705 52.088 30.8305 51.368 31.1505 50.728ZM37.0545 52.088C36.9905 51.4 36.7185 50.856 36.2705 50.472C35.8225 50.088 35.2465 49.896 34.5585 49.896C33.9345 49.896 33.3905 50.104 32.9265 50.504C32.4465 50.92 32.1905 51.448 32.1265 52.088H37.0545ZM41.9351 52.808L39.0391 48.84H40.6071L42.7831 51.864L44.9911 48.84H46.4471L43.5351 52.808L46.6551 57H45.0871L42.6871 53.72L40.2871 57H38.8311L41.9351 52.808ZM53.8053 49.24C54.3973 49.576 54.8612 50.056 55.1973 50.68C55.5333 51.32 55.7093 52.056 55.7093 52.92C55.7093 53.752 55.5333 54.472 55.1973 55.096C54.8612 55.736 54.3973 56.216 53.8053 56.568C53.1973 56.92 52.5253 57.096 51.7893 57.096C51.1173 57.096 50.5573 56.984 50.0933 56.744C49.6133 56.504 49.2453 56.168 48.9893 55.752V60.2H47.6773V48.84H48.8133L48.9893 50.152C49.6613 49.224 50.6053 48.744 51.7893 48.744C52.5413 48.744 53.2133 48.92 53.8053 49.24ZM53.6133 55.096C54.1093 54.536 54.3653 53.816 54.3653 52.92C54.3653 52.04 54.1093 51.32 53.6133 50.76C53.1173 50.2 52.4613 49.912 51.6613 49.912C51.1333 49.912 50.6693 50.04 50.2533 50.296C49.8373 50.552 49.5333 50.904 49.3093 51.352C49.0853 51.8 48.9733 52.312 48.9733 52.888C48.9733 53.48 49.0853 54.008 49.3093 54.472C49.5333 54.936 49.8373 55.288 50.2533 55.544C50.6693 55.8 51.1333 55.928 51.6613 55.928C52.4613 55.928 53.1173 55.656 53.6133 55.096Z" fill="#111111"/>
<path d="M57.4005 45.8H58.7125V60.2H57.4005V45.8Z" fill="#57B495"/>
<path d="M26.536 99.252C26.572 99.828 26.8 100.284 27.22 100.62C27.628 100.956 28.156 101.124 28.804 101.124C29.38 101.124 29.836 101.004 30.196 100.752C30.556 100.5 30.736 100.152 30.736 99.696C30.736 99.372 30.628 99.108 30.436 98.916C30.244 98.724 29.992 98.592 29.68 98.496C29.368 98.4 28.96 98.316 28.432 98.22C27.592 98.076 26.92 97.848 26.428 97.512C25.924 97.188 25.684 96.66 25.684 95.916C25.684 95.448 25.804 95.028 26.044 94.668C26.284 94.308 26.62 94.02 27.052 93.816C27.484 93.624 27.988 93.516 28.552 93.516C29.14 93.516 29.668 93.624 30.124 93.84C30.58 94.056 30.94 94.368 31.204 94.752C31.468 95.136 31.612 95.58 31.648 96.084H30.616C30.544 95.604 30.328 95.208 29.956 94.908C29.572 94.62 29.104 94.464 28.552 94.464C27.988 94.464 27.544 94.596 27.22 94.836C26.884 95.076 26.728 95.424 26.728 95.856C26.728 96.18 26.824 96.432 27.016 96.612C27.208 96.792 27.448 96.924 27.76 97.02C28.06 97.116 28.48 97.2 29.008 97.284C29.848 97.428 30.52 97.668 31.024 98.004C31.528 98.34 31.78 98.868 31.78 99.6C31.78 100.08 31.648 100.512 31.396 100.884C31.144 101.268 30.796 101.556 30.34 101.76C29.884 101.976 29.368 102.072 28.792 102.072C28.132 102.072 27.556 101.964 27.076 101.724C26.584 101.484 26.2 101.16 25.936 100.728C25.672 100.296 25.528 99.804 25.504 99.252H26.536ZM38.2291 95.88V102H37.3771L37.2451 101.184C36.7771 101.784 36.1291 102.072 35.2891 102.072C34.5571 102.072 33.9691 101.856 33.5371 101.4C33.0931 100.956 32.8771 100.248 32.8771 99.288V95.88H33.8611V99.228C33.8611 99.864 33.9931 100.344 34.2691 100.68C34.5451 101.016 34.9411 101.172 35.4571 101.172C36.0091 101.172 36.4531 100.98 36.7651 100.572C37.0771 100.176 37.2451 99.636 37.2451 98.94V95.88H38.2291ZM45.3784 95.88V101.7C45.3784 103.548 44.3584 104.472 42.3424 104.472C41.5504 104.472 40.9024 104.292 40.3984 103.932C39.8944 103.572 39.6064 103.068 39.5344 102.396H40.5424C40.6144 102.78 40.8184 103.08 41.1544 103.284C41.4784 103.5 41.8984 103.596 42.4144 103.596C43.7344 103.596 44.3944 102.96 44.3944 101.664V100.944C43.9504 101.7 43.2544 102.072 42.2944 102.072C41.7184 102.072 41.2144 101.952 40.7704 101.7C40.3264 101.46 39.9784 101.1 39.7264 100.62C39.4744 100.152 39.3544 99.588 39.3544 98.94C39.3544 98.328 39.4744 97.788 39.7264 97.308C39.9784 96.84 40.3264 96.468 40.7824 96.204C41.2264 95.94 41.7304 95.808 42.2944 95.808C42.7864 95.808 43.2064 95.916 43.5664 96.108C43.9144 96.3 44.1904 96.576 44.3944 96.936L44.5264 95.88H45.3784ZM43.4344 100.92C43.7464 100.728 43.9864 100.464 44.1544 100.128C44.3224 99.792 44.4064 99.396 44.4064 98.964C44.4064 98.532 44.3224 98.136 44.1544 97.788C43.9864 97.44 43.7464 97.164 43.4344 96.972C43.1224 96.78 42.7744 96.684 42.3904 96.684C41.7784 96.684 41.2864 96.9 40.9144 97.32C40.5424 97.74 40.3624 98.28 40.3624 98.94C40.3624 99.612 40.5424 100.152 40.9144 100.572C41.2864 100.992 41.7784 101.196 42.3904 101.196C42.7744 101.196 43.1224 101.112 43.4344 100.92ZM52.5269 95.88V101.7C52.5269 103.548 51.5069 104.472 49.4909 104.472C48.6989 104.472 48.0509 104.292 47.5469 103.932C47.0429 103.572 46.7549 103.068 46.6829 102.396H47.6909C47.7629 102.78 47.9669 103.08 48.3029 103.284C48.6269 103.5 49.0469 103.596 49.5629 103.596C50.8829 103.596 51.5429 102.96 51.5429 101.664V100.944C51.0989 101.7 50.4029 102.072 49.4429 102.072C48.8669 102.072 48.3629 101.952 47.9189 101.7C47.4749 101.46 47.1269 101.1 46.8749 100.62C46.6229 100.152 46.5029 99.588 46.5029 98.94C46.5029 98.328 46.6229 97.788 46.8749 97.308C47.1269 96.84 47.4749 96.468 47.9309 96.204C48.3749 95.94 48.8789 95.808 49.4429 95.808C49.9349 95.808 50.3549 95.916 50.7149 96.108C51.0629 96.3 51.3389 96.576 51.5429 96.936L51.6749 95.88H52.5269ZM50.5829 100.92C50.8949 100.728 51.1349 100.464 51.3029 100.128C51.4709 99.792 51.5549 99.396 51.5549 98.964C51.5549 98.532 51.4709 98.136 51.3029 97.788C51.1349 97.44 50.8949 97.164 50.5829 96.972C50.2709 96.78 49.9229 96.684 49.5389 96.684C48.9269 96.684 48.4349 96.9 48.0629 97.32C47.6909 97.74 47.5109 98.28 47.5109 98.94C47.5109 99.612 47.6909 100.152 48.0629 100.572C48.4349 100.992 48.9269 101.196 49.5389 101.196C49.9229 101.196 50.2709 101.112 50.5829 100.92ZM54.0113 97.296C54.2513 96.828 54.5993 96.468 55.0433 96.204C55.4753 95.94 55.9793 95.808 56.5553 95.808C57.1073 95.808 57.6113 95.928 58.0433 96.156C58.4753 96.396 58.8113 96.732 59.0633 97.164C59.3033 97.608 59.4353 98.124 59.4593 98.712C59.4593 98.808 59.4473 98.94 59.4353 99.132H54.6833V99.216C54.6953 99.816 54.8753 100.296 55.2353 100.656C55.5833 101.016 56.0393 101.196 56.6153 101.196C57.0473 101.196 57.4193 101.088 57.7313 100.872C58.0433 100.656 58.2473 100.344 58.3553 99.948H59.3513C59.2313 100.572 58.9313 101.088 58.4513 101.484C57.9713 101.88 57.3833 102.072 56.6873 102.072C56.0753 102.072 55.5473 101.952 55.0913 101.688C54.6353 101.424 54.2753 101.064 54.0233 100.584C53.7713 100.104 53.6513 99.564 53.6513 98.94C53.6513 98.316 53.7713 97.776 54.0113 97.296ZM58.4393 98.316C58.3913 97.8 58.1873 97.392 57.8513 97.104C57.5153 96.816 57.0833 96.672 56.5673 96.672C56.0993 96.672 55.6913 96.828 55.3433 97.128C54.9833 97.44 54.7913 97.836 54.7433 98.316H58.4393ZM61.3267 99.984C61.3387 100.356 61.4947 100.656 61.8067 100.884C62.1187 101.124 62.5147 101.232 63.0067 101.232C63.4387 101.232 63.7867 101.148 64.0507 100.98C64.3147 100.812 64.4587 100.584 64.4587 100.296C64.4587 100.056 64.3867 99.876 64.2667 99.744C64.1347 99.624 63.9667 99.528 63.7627 99.48C63.5587 99.432 63.2707 99.384 62.8987 99.336C62.3707 99.276 61.9387 99.192 61.6027 99.084C61.2667 98.988 60.9907 98.82 60.7867 98.592C60.5707 98.364 60.4747 98.052 60.4747 97.644C60.4747 97.284 60.5707 96.972 60.7747 96.684C60.9787 96.408 61.2547 96.192 61.6147 96.036C61.9627 95.88 62.3587 95.796 62.8027 95.796C63.5227 95.796 64.0987 95.964 64.5547 96.3C65.0107 96.636 65.2627 97.116 65.3107 97.74H64.3267C64.2787 97.428 64.1227 97.164 63.8587 96.948C63.5827 96.744 63.2467 96.636 62.8387 96.636C62.4187 96.636 62.0827 96.732 61.8307 96.9C61.5667 97.068 61.4467 97.296 61.4467 97.572C61.4467 97.788 61.5067 97.944 61.6267 98.052C61.7467 98.172 61.8907 98.244 62.0827 98.28C62.2747 98.328 62.5627 98.364 62.9467 98.412C63.4747 98.484 63.9187 98.568 64.2667 98.676C64.6147 98.796 64.8907 98.976 65.1067 99.216C65.3227 99.468 65.4307 99.804 65.4307 100.224C65.4307 100.596 65.3227 100.92 65.1067 101.196C64.8907 101.484 64.5907 101.7 64.2307 101.844C63.8587 102 63.4507 102.072 63.0067 102.072C62.2027 102.072 61.5547 101.892 61.0747 101.52C60.5947 101.16 60.3427 100.644 60.3427 99.984H61.3267ZM66.955 96.78H65.851V95.88H66.955V94.164H67.939V95.88H69.487V96.78H67.939V100.392C67.939 100.656 67.987 100.836 68.083 100.944C68.179 101.052 68.359 101.1 68.611 101.1H69.679V102H68.551C67.975 102 67.555 101.88 67.315 101.616C67.075 101.364 66.955 100.956 66.955 100.404V96.78ZM70.3707 97.296C70.6107 96.828 70.9587 96.468 71.4027 96.204C71.8347 95.94 72.3387 95.808 72.9147 95.808C73.4667 95.808 73.9707 95.928 74.4027 96.156C74.8347 96.396 75.1707 96.732 75.4227 97.164C75.6627 97.608 75.7947 98.124 75.8187 98.712C75.8187 98.808 75.8067 98.94 75.7947 99.132H71.0427V99.216C71.0547 99.816 71.2347 100.296 71.5947 100.656C71.9427 101.016 72.3987 101.196 72.9747 101.196C73.4067 101.196 73.7787 101.088 74.0907 100.872C74.4027 100.656 74.6067 100.344 74.7147 99.948H75.7107C75.5907 100.572 75.2907 101.088 74.8107 101.484C74.3307 101.88 73.7427 102.072 73.0467 102.072C72.4347 102.072 71.9067 101.952 71.4507 101.688C70.9947 101.424 70.6347 101.064 70.3827 100.584C70.1307 100.104 70.0107 99.564 70.0107 98.94C70.0107 98.316 70.1307 97.776 70.3707 97.296ZM74.7987 98.316C74.7507 97.8 74.5467 97.392 74.2107 97.104C73.8747 96.816 73.4427 96.672 72.9267 96.672C72.4587 96.672 72.0507 96.828 71.7027 97.128C71.3427 97.44 71.1507 97.836 71.1027 98.316H74.7987ZM82.7495 93.6V102H81.8975L81.7655 101.016C81.2495 101.724 80.5535 102.072 79.6655 102.072C79.0895 102.072 78.5855 101.952 78.1415 101.7C77.6975 101.46 77.3495 101.1 77.0975 100.62C76.8455 100.152 76.7255 99.588 76.7255 98.94C76.7255 98.328 76.8455 97.788 77.0975 97.308C77.3495 96.84 77.6975 96.468 78.1535 96.204C78.5975 95.94 79.1015 95.808 79.6655 95.808C80.1575 95.808 80.5775 95.904 80.9375 96.084C81.2855 96.264 81.5615 96.504 81.7655 96.816V93.6H82.7495ZM80.8055 100.92C81.1175 100.728 81.3575 100.464 81.5255 100.128C81.6935 99.792 81.7775 99.396 81.7775 98.964C81.7775 98.532 81.6935 98.136 81.5255 97.788C81.3575 97.44 81.1175 97.164 80.8055 96.972C80.4935 96.78 80.1455 96.684 79.7615 96.684C79.1495 96.684 78.6575 96.9 78.2855 97.32C77.9135 97.74 77.7335 98.28 77.7335 98.94C77.7335 99.612 77.9135 100.152 78.2855 100.572C78.6575 100.992 79.1495 101.196 79.7615 101.196C80.1455 101.196 80.4935 101.112 80.8055 100.92ZM91.8266 96.18C92.2706 96.432 92.6186 96.792 92.8706 97.26C93.1226 97.74 93.2546 98.292 93.2546 98.94C93.2546 99.564 93.1226 100.104 92.8706 100.572C92.6186 101.052 92.2706 101.412 91.8266 101.676C91.3706 101.94 90.8666 102.072 90.3146 102.072C89.8106 102.072 89.3906 101.988 89.0426 101.808C88.6826 101.628 88.4066 101.376 88.2146 101.064V104.4H87.2306V95.88H88.0826L88.2146 96.864C88.7186 96.168 89.4266 95.808 90.3146 95.808C90.8786 95.808 91.3826 95.94 91.8266 96.18ZM91.6826 100.572C92.0546 100.152 92.2466 99.612 92.2466 98.94C92.2466 98.28 92.0546 97.74 91.6826 97.32C91.3106 96.9 90.8186 96.684 90.2186 96.684C89.8226 96.684 89.4746 96.78 89.1626 96.972C88.8506 97.164 88.6226 97.428 88.4546 97.764C88.2866 98.1 88.2026 98.484 88.2026 98.916C88.2026 99.36 88.2866 99.756 88.4546 100.104C88.6226 100.452 88.8506 100.716 89.1626 100.908C89.4746 101.1 89.8226 101.196 90.2186 101.196C90.8186 101.196 91.3106 100.992 91.6826 100.572ZM100.103 101.1V102H99.563C99.167 102 98.891 101.928 98.723 101.76C98.555 101.604 98.459 101.364 98.459 101.052C97.979 101.736 97.295 102.072 96.407 102.072C95.723 102.072 95.171 101.916 94.763 101.592C94.355 101.28 94.151 100.836 94.151 100.284C94.151 99.672 94.355 99.204 94.775 98.868C95.195 98.544 95.807 98.376 96.611 98.376H98.411V97.956C98.411 97.56 98.267 97.248 98.003 97.02C97.739 96.804 97.367 96.684 96.887 96.684C96.455 96.684 96.107 96.78 95.831 96.972C95.555 97.164 95.387 97.404 95.327 97.716H94.343C94.415 97.116 94.679 96.648 95.135 96.312C95.591 95.976 96.191 95.808 96.935 95.808C97.715 95.808 98.315 96 98.747 96.384C99.179 96.768 99.395 97.308 99.395 98.016V100.656C99.395 100.956 99.527 101.1 99.803 101.1H100.103ZM98.411 99.204H96.515C95.603 99.204 95.147 99.552 95.147 100.224C95.147 100.536 95.267 100.776 95.507 100.956C95.747 101.148 96.071 101.232 96.479 101.232C97.079 101.232 97.547 101.076 97.895 100.764C98.231 100.452 98.411 100.032 98.411 99.504V99.204ZM101.268 96.78H100.163V95.88H101.268V94.164H102.252V95.88H103.8V96.78H102.252V100.392C102.252 100.656 102.3 100.836 102.396 100.944C102.492 101.052 102.672 101.1 102.924 101.1H103.992V102H102.864C102.288 102 101.868 101.88 101.628 101.616C101.388 101.364 101.268 100.956 101.268 100.404V96.78ZM109.492 96.48C109.948 96.936 110.176 97.632 110.176 98.592V102H109.192V98.652C109.192 98.028 109.048 97.548 108.76 97.212C108.472 96.876 108.052 96.708 107.524 96.708C106.948 96.708 106.504 96.912 106.168 97.308C105.832 97.716 105.676 98.256 105.676 98.94V102H104.692V93.6H105.676V96.888C105.868 96.576 106.132 96.312 106.468 96.108C106.804 95.916 107.212 95.808 107.692 95.808C108.436 95.808 109.036 96.036 109.492 96.48ZM112.198 99.984C112.21 100.356 112.366 100.656 112.678 100.884C112.99 101.124 113.386 101.232 113.878 101.232C114.31 101.232 114.658 101.148 114.922 100.98C115.186 100.812 115.33 100.584 115.33 100.296C115.33 100.056 115.258 99.876 115.138 99.744C115.006 99.624 114.838 99.528 114.634 99.48C114.43 99.432 114.142 99.384 113.77 99.336C113.242 99.276 112.81 99.192 112.474 99.084C112.138 98.988 111.862 98.82 111.658 98.592C111.442 98.364 111.346 98.052 111.346 97.644C111.346 97.284 111.442 96.972 111.646 96.684C111.85 96.408 112.126 96.192 112.486 96.036C112.834 95.88 113.23 95.796 113.674 95.796C114.394 95.796 114.97 95.964 115.426 96.3C115.882 96.636 116.134 97.116 116.182 97.74H115.198C115.15 97.428 114.994 97.164 114.73 96.948C114.454 96.744 114.118 96.636 113.71 96.636C113.29 96.636 112.954 96.732 112.702 96.9C112.438 97.068 112.318 97.296 112.318 97.572C112.318 97.788 112.378 97.944 112.498 98.052C112.618 98.172 112.762 98.244 112.954 98.28C113.146 98.328 113.434 98.364 113.818 98.412C114.346 98.484 114.79 98.568 115.138 98.676C115.486 98.796 115.762 98.976 115.978 99.216C116.194 99.468 116.302 99.804 116.302 100.224C116.302 100.596 116.194 100.92 115.978 101.196C115.762 101.484 115.462 101.7 115.102 101.844C114.73 102 114.322 102.072 113.878 102.072C113.074 102.072 112.426 101.892 111.946 101.52C111.466 101.16 111.214 100.644 111.214 99.984H112.198Z" fill="#57B495"/>
<path d="M24.616 132.2L29.304 117.8H30.552L25.864 132.2H24.616ZM31.1505 122.728C31.4705 122.104 31.9345 121.624 32.5265 121.272C33.1025 120.92 33.7745 120.744 34.5425 120.744C35.2785 120.744 35.9505 120.904 36.5265 121.208C37.1025 121.528 37.5505 121.976 37.8865 122.552C38.2065 123.144 38.3825 123.832 38.4145 124.616C38.4145 124.744 38.3985 124.92 38.3825 125.176H32.0465V125.288C32.0625 126.088 32.3025 126.728 32.7825 127.208C33.2465 127.688 33.8545 127.928 34.6225 127.928C35.1985 127.928 35.6945 127.784 36.1105 127.496C36.5265 127.208 36.7985 126.792 36.9425 126.264H38.2705C38.1105 127.096 37.7105 127.784 37.0705 128.312C36.4305 128.84 35.6465 129.096 34.7185 129.096C33.9025 129.096 33.1985 128.936 32.5905 128.584C31.9825 128.232 31.5025 127.752 31.1665 127.112C30.8305 126.472 30.6705 125.752 30.6705 124.92C30.6705 124.088 30.8305 123.368 31.1505 122.728ZM37.0545 124.088C36.9905 123.4 36.7185 122.856 36.2705 122.472C35.8225 122.088 35.2465 121.896 34.5585 121.896C33.9345 121.896 33.3905 122.104 32.9265 122.504C32.4465 122.92 32.1905 123.448 32.1265 124.088H37.0545ZM41.9351 124.808L39.0391 120.84H40.6071L42.7831 123.864L44.9911 120.84H46.4471L43.5351 124.808L46.6551 129H45.0871L42.6871 125.72L40.2871 129H38.8311L41.9351 124.808ZM53.8053 121.24C54.3973 121.576 54.8612 122.056 55.1973 122.68C55.5333 123.32 55.7093 124.056 55.7093 124.92C55.7093 125.752 55.5333 126.472 55.1973 127.096C54.8612 127.736 54.3973 128.216 53.8053 128.568C53.1973 128.92 52.5253 129.096 51.7893 129.096C51.1173 129.096 50.5573 128.984 50.0933 128.744C49.6133 128.504 49.2453 128.168 48.9893 127.752V132.2H47.6773V120.84H48.8133L48.9893 122.152C49.6613 121.224 50.6053 120.744 51.7893 120.744C52.5413 120.744 53.2133 120.92 53.8053 121.24ZM53.6133 127.096C54.1093 126.536 54.3653 125.816 54.3653 124.92C54.3653 124.04 54.1093 123.32 53.6133 122.76C53.1173 122.2 52.4613 121.912 51.6613 121.912C51.1333 121.912 50.6693 122.04 50.2533 122.296C49.8373 122.552 49.5333 122.904 49.3093 123.352C49.0853 123.8 48.9733 124.312 48.9733 124.888C48.9733 125.48 49.0853 126.008 49.3093 126.472C49.5333 126.936 49.8373 127.288 50.2533 127.544C50.6693 127.8 51.1333 127.928 51.6613 127.928C52.4613 127.928 53.1173 127.656 53.6133 127.096ZM57.2085 117.8H58.5205V129H57.2085V117.8ZM61.9659 128.568C61.3579 128.216 60.8779 127.736 60.5419 127.096C60.1899 126.472 60.0299 125.752 60.0299 124.92C60.0299 124.104 60.1899 123.384 60.5419 122.744C60.8779 122.12 61.3579 121.624 61.9659 121.272C62.5739 120.92 63.2779 120.744 64.0779 120.744C64.8619 120.744 65.5659 120.92 66.1739 121.272C66.7819 121.624 67.2619 122.12 67.6139 122.744C67.9499 123.384 68.1259 124.104 68.1259 124.92C68.1259 125.752 67.9499 126.472 67.6139 127.096C67.2619 127.736 66.7819 128.216 66.1739 128.568C65.5659 128.92 64.8619 129.096 64.0779 129.096C63.2779 129.096 62.5739 128.92 61.9659 128.568ZM65.4859 127.544C65.9019 127.288 66.2219 126.936 66.4459 126.472C66.6699 126.024 66.7819 125.496 66.7819 124.92C66.7819 124.344 66.6699 123.832 66.4459 123.368C66.2219 122.92 65.9019 122.552 65.4859 122.296C65.0699 122.04 64.6059 121.912 64.0779 121.912C63.5339 121.912 63.0699 122.04 62.6539 122.296C62.2379 122.552 61.9339 122.92 61.7099 123.368C61.4859 123.832 61.3739 124.344 61.3739 124.92C61.3739 125.496 61.4859 126.024 61.7099 126.472C61.9339 126.936 62.2379 127.288 62.6539 127.544C63.0699 127.8 63.5339 127.928 64.0779 127.928C64.6059 127.928 65.0699 127.8 65.4859 127.544ZM73.7744 120.84V122.12H73.1184C72.3344 122.12 71.7744 122.392 71.4384 122.904C71.1024 123.432 70.9424 124.072 70.9424 124.84V129H69.6304V120.84H70.7664L70.9424 122.072C71.1664 121.704 71.4704 121.4 71.8544 121.176C72.2224 120.952 72.7344 120.84 73.4064 120.84H73.7744ZM74.6974 122.728C75.0174 122.104 75.4814 121.624 76.0734 121.272C76.6494 120.92 77.3214 120.744 78.0894 120.744C78.8254 120.744 79.4974 120.904 80.0734 121.208C80.6494 121.528 81.0974 121.976 81.4334 122.552C81.7534 123.144 81.9294 123.832 81.9614 124.616C81.9614 124.744 81.9454 124.92 81.9294 125.176H75.5934V125.288C75.6094 126.088 75.8494 126.728 76.3294 127.208C76.7934 127.688 77.4014 127.928 78.1694 127.928C78.7454 127.928 79.2414 127.784 79.6574 127.496C80.0734 127.208 80.3454 126.792 80.4894 126.264H81.8174C81.6574 127.096 81.2574 127.784 80.6174 128.312C79.9774 128.84 79.1934 129.096 78.2654 129.096C77.4494 129.096 76.7454 128.936 76.1374 128.584C75.5294 128.232 75.0494 127.752 74.7134 127.112C74.3774 126.472 74.2174 125.752 74.2174 124.92C74.2174 124.088 74.3774 123.368 74.6974 122.728ZM80.6014 124.088C80.5374 123.4 80.2654 122.856 79.8174 122.472C79.3694 122.088 78.7934 121.896 78.1054 121.896C77.4814 121.896 76.9374 122.104 76.4734 122.504C75.9934 122.92 75.7374 123.448 75.6734 124.088H80.6014Z" fill="#111111"/>
</svg>
