<svg width="320" height="160" viewBox="0 0 320 160" fill="none" xmlns="http://www.w3.org/2000/svg">
<g clip-path="url(#clip0_893_7152)">
<rect width="320" height="160" fill="#111111"/>
<path d="M74.976 62.328C74.336 62.84 73.536 63.096 72.576 63.096C71.776 63.096 71.088 62.92 70.496 62.568C69.888 62.216 69.424 61.736 69.104 61.096C68.768 60.456 68.608 59.736 68.608 58.904C68.608 58.088 68.768 57.368 69.104 56.728C69.44 56.104 69.92 55.624 70.528 55.272C71.136 54.92 71.824 54.744 72.624 54.744C73.584 54.744 74.368 55 74.992 55.512C75.616 56.024 76.016 56.728 76.176 57.624H74.848C74.72 57.112 74.448 56.696 74.048 56.376C73.632 56.072 73.152 55.912 72.576 55.912C71.792 55.912 71.152 56.2 70.672 56.744C70.192 57.304 69.952 58.024 69.952 58.904C69.952 59.8 70.192 60.536 70.672 61.096C71.152 61.656 71.792 61.928 72.576 61.928C73.168 61.928 73.664 61.784 74.08 61.464C74.48 61.16 74.736 60.728 74.864 60.184H76.176C76 61.096 75.6 61.816 74.976 62.328ZM79.169 62.568C78.561 62.216 78.081 61.736 77.745 61.096C77.393 60.472 77.233 59.752 77.233 58.92C77.233 58.104 77.393 57.384 77.745 56.744C78.081 56.12 78.561 55.624 79.169 55.272C79.777 54.92 80.481 54.744 81.281 54.744C82.065 54.744 82.769 54.92 83.377 55.272C83.985 55.624 84.465 56.12 84.817 56.744C85.153 57.384 85.329 58.104 85.329 58.92C85.329 59.752 85.153 60.472 84.817 61.096C84.465 61.736 83.985 62.216 83.377 62.568C82.769 62.92 82.065 63.096 81.281 63.096C80.481 63.096 79.777 62.92 79.169 62.568ZM82.689 61.544C83.105 61.288 83.425 60.936 83.649 60.472C83.873 60.024 83.985 59.496 83.985 58.92C83.985 58.344 83.873 57.832 83.649 57.368C83.425 56.92 83.105 56.552 82.689 56.296C82.273 56.04 81.809 55.912 81.281 55.912C80.737 55.912 80.273 56.04 79.857 56.296C79.441 56.552 79.137 56.92 78.913 57.368C78.689 57.832 78.577 58.344 78.577 58.92C78.577 59.496 78.689 60.024 78.913 60.472C79.137 60.936 79.441 61.288 79.857 61.544C80.273 61.8 80.737 61.928 81.281 61.928C81.809 61.928 82.273 61.8 82.689 61.544ZM93.2175 55.64C93.8255 56.248 94.1295 57.176 94.1295 58.456V63H92.8175V58.536C92.8175 57.704 92.6255 57.064 92.2415 56.616C91.8575 56.168 91.3135 55.944 90.6095 55.944C89.8415 55.944 89.2335 56.216 88.8015 56.744C88.3535 57.288 88.1455 58.008 88.1455 58.92V63H86.8335V54.84H87.9695L88.1455 55.944C88.7535 55.144 89.6495 54.744 90.8335 54.744C91.8255 54.744 92.6095 55.048 93.2175 55.64ZM96.8263 60.312C96.8423 60.808 97.0503 61.208 97.4663 61.512C97.8823 61.832 98.4103 61.976 99.0663 61.976C99.6423 61.976 100.106 61.864 100.458 61.64C100.81 61.416 101.002 61.112 101.002 60.728C101.002 60.408 100.906 60.168 100.746 59.992C100.57 59.832 100.346 59.704 100.074 59.64C99.8023 59.576 99.4183 59.512 98.9223 59.448C98.2183 59.368 97.6423 59.256 97.1943 59.112C96.7463 58.984 96.3783 58.76 96.1063 58.456C95.8183 58.152 95.6903 57.736 95.6903 57.192C95.6903 56.712 95.8183 56.296 96.0903 55.912C96.3623 55.544 96.7303 55.256 97.2103 55.048C97.6743 54.84 98.2023 54.728 98.7943 54.728C99.7543 54.728 100.522 54.952 101.13 55.4C101.738 55.848 102.074 56.488 102.138 57.32H100.826C100.762 56.904 100.554 56.552 100.202 56.264C99.8343 55.992 99.3863 55.848 98.8423 55.848C98.2823 55.848 97.8343 55.976 97.4983 56.2C97.1463 56.424 96.9863 56.728 96.9863 57.096C96.9863 57.384 97.0663 57.592 97.2263 57.736C97.3863 57.896 97.5783 57.992 97.8343 58.04C98.0903 58.104 98.4743 58.152 98.9863 58.216C99.6903 58.312 100.282 58.424 100.746 58.568C101.21 58.728 101.578 58.968 101.866 59.288C102.154 59.624 102.298 60.072 102.298 60.632C102.298 61.128 102.154 61.56 101.866 61.928C101.578 62.312 101.178 62.6 100.698 62.792C100.202 63 99.6583 63.096 99.0663 63.096C97.9943 63.096 97.1303 62.856 96.4903 62.36C95.8503 61.88 95.5143 61.192 95.5143 60.312H96.8263ZM104.331 56.04H102.859V54.84H104.331V52.552H105.643V54.84H107.707V56.04H105.643V60.856C105.643 61.208 105.707 61.448 105.835 61.592C105.963 61.736 106.203 61.8 106.539 61.8H107.963V63H106.459C105.691 63 105.131 62.84 104.811 62.488C104.491 62.152 104.331 61.608 104.331 60.872V56.04ZM124.412 55.608C124.988 56.184 125.276 57.08 125.276 58.296V63H123.964V58.376C123.964 57.592 123.788 56.984 123.452 56.568C123.116 56.152 122.636 55.944 122.028 55.944C121.34 55.944 120.796 56.184 120.411 56.664C120.028 57.144 119.836 57.8 119.836 58.632V63H118.524V58.376C118.524 57.592 118.348 56.984 118.012 56.568C117.66 56.152 117.18 55.944 116.556 55.944C115.884 55.944 115.356 56.2 114.972 56.712C114.588 57.224 114.396 57.88 114.396 58.696V63H113.084V54.84H114.22L114.396 55.96C114.972 55.16 115.772 54.744 116.78 54.744C117.356 54.744 117.884 54.888 118.332 55.144C118.78 55.4 119.132 55.784 119.356 56.296C119.932 55.272 120.876 54.744 122.188 54.744C123.1 54.744 123.836 55.032 124.412 55.608ZM133.983 54.84V63H132.847L132.671 61.912C132.047 62.712 131.183 63.096 130.062 63.096C129.087 63.096 128.303 62.808 127.727 62.2C127.135 61.608 126.847 60.664 126.847 59.384V54.84H128.159V59.304C128.159 60.152 128.335 60.792 128.703 61.24C129.071 61.688 129.599 61.896 130.286 61.896C131.023 61.896 131.615 61.64 132.031 61.096C132.447 60.568 132.671 59.848 132.671 58.92V54.84H133.983ZM136.795 60.312C136.811 60.808 137.019 61.208 137.435 61.512C137.851 61.832 138.379 61.976 139.035 61.976C139.611 61.976 140.075 61.864 140.427 61.64C140.779 61.416 140.971 61.112 140.971 60.728C140.971 60.408 140.875 60.168 140.715 59.992C140.539 59.832 140.315 59.704 140.043 59.64C139.771 59.576 139.387 59.512 138.891 59.448C138.187 59.368 137.611 59.256 137.163 59.112C136.715 58.984 136.347 58.76 136.075 58.456C135.787 58.152 135.659 57.736 135.659 57.192C135.659 56.712 135.787 56.296 136.059 55.912C136.331 55.544 136.699 55.256 137.179 55.048C137.643 54.84 138.171 54.728 138.763 54.728C139.723 54.728 140.491 54.952 141.099 55.4C141.707 55.848 142.043 56.488 142.107 57.32H140.795C140.731 56.904 140.523 56.552 140.171 56.264C139.803 55.992 139.355 55.848 138.811 55.848C138.251 55.848 137.803 55.976 137.467 56.2C137.115 56.424 136.955 56.728 136.955 57.096C136.955 57.384 137.035 57.592 137.195 57.736C137.355 57.896 137.547 57.992 137.803 58.04C138.059 58.104 138.443 58.152 138.955 58.216C139.659 58.312 140.251 58.424 140.715 58.568C141.179 58.728 141.547 58.968 141.835 59.288C142.123 59.624 142.267 60.072 142.267 60.632C142.267 61.128 142.123 61.56 141.835 61.928C141.547 62.312 141.147 62.6 140.667 62.792C140.171 63 139.627 63.096 139.035 63.096C137.963 63.096 137.099 62.856 136.459 62.36C135.819 61.88 135.483 61.192 135.483 60.312H136.795ZM144.299 56.04H142.827V54.84H144.299V52.552H145.611V54.84H147.675V56.04H145.611V60.856C145.611 61.208 145.675 61.448 145.803 61.592C145.931 61.736 146.171 61.8 146.507 61.8H147.931V63H146.427C145.659 63 145.099 62.84 144.779 62.488C144.459 62.152 144.299 61.608 144.299 60.872V56.04ZM149.057 51.784H150.449V56.664H156.241V51.784H157.633V63H156.241V57.944H150.449V63H149.057V51.784ZM167.247 61.8V63H166.527C165.999 63 165.631 62.904 165.407 62.68C165.183 62.472 165.055 62.152 165.055 61.736C164.415 62.648 163.503 63.096 162.319 63.096C161.407 63.096 160.671 62.888 160.127 62.456C159.583 62.04 159.311 61.448 159.311 60.712C159.311 59.896 159.583 59.272 160.143 58.824C160.703 58.392 161.519 58.168 162.591 58.168H164.991V57.608C164.991 57.08 164.799 56.664 164.447 56.36C164.095 56.072 163.599 55.912 162.959 55.912C162.383 55.912 161.919 56.04 161.551 56.296C161.183 56.552 160.959 56.872 160.879 57.288H159.567C159.663 56.488 160.015 55.864 160.623 55.416C161.231 54.968 162.031 54.744 163.023 54.744C164.063 54.744 164.863 55 165.439 55.512C166.015 56.024 166.303 56.744 166.303 57.688V61.208C166.303 61.608 166.479 61.8 166.847 61.8H167.247ZM164.991 59.272H162.463C161.247 59.272 160.639 59.736 160.639 60.632C160.639 61.048 160.799 61.368 161.119 61.608C161.439 61.864 161.871 61.976 162.415 61.976C163.215 61.976 163.839 61.768 164.303 61.352C164.751 60.936 164.991 60.376 164.991 59.672V59.272ZM167.205 54.84H168.613L171.077 61.512L173.525 54.84H174.901L171.845 63H170.261L167.205 54.84ZM175.76 56.728C176.08 56.104 176.544 55.624 177.136 55.272C177.712 54.92 178.384 54.744 179.152 54.744C179.888 54.744 180.56 54.904 181.136 55.208C181.712 55.528 182.16 55.976 182.496 56.552C182.816 57.144 182.992 57.832 183.024 58.616C183.024 58.744 183.008 58.92 182.992 59.176H176.656V59.288C176.672 60.088 176.912 60.728 177.392 61.208C177.856 61.688 178.464 61.928 179.232 61.928C179.808 61.928 180.304 61.784 180.72 61.496C181.136 61.208 181.408 60.792 181.552 60.264H182.88C182.72 61.096 182.32 61.784 181.68 62.312C181.04 62.84 180.256 63.096 179.328 63.096C178.512 63.096 177.808 62.936 177.2 62.584C176.592 62.232 176.112 61.752 175.776 61.112C175.44 60.472 175.28 59.752 175.28 58.92C175.28 58.088 175.44 57.368 175.76 56.728ZM181.664 58.088C181.6 57.4 181.328 56.856 180.88 56.472C180.432 56.088 179.856 55.896 179.168 55.896C178.544 55.896 178 56.104 177.536 56.504C177.056 56.92 176.8 57.448 176.736 58.088H181.664ZM185.514 60.312C185.53 60.808 185.738 61.208 186.154 61.512C186.57 61.832 187.098 61.976 187.754 61.976C188.33 61.976 188.794 61.864 189.146 61.64C189.498 61.416 189.69 61.112 189.69 60.728C189.69 60.408 189.594 60.168 189.434 59.992C189.258 59.832 189.034 59.704 188.762 59.64C188.49 59.576 188.106 59.512 187.61 59.448C186.906 59.368 186.33 59.256 185.882 59.112C185.434 58.984 185.066 58.76 184.794 58.456C184.506 58.152 184.378 57.736 184.378 57.192C184.378 56.712 184.506 56.296 184.778 55.912C185.05 55.544 185.418 55.256 185.898 55.048C186.362 54.84 186.89 54.728 187.482 54.728C188.442 54.728 189.21 54.952 189.818 55.4C190.426 55.848 190.762 56.488 190.826 57.32H189.514C189.45 56.904 189.242 56.552 188.89 56.264C188.522 55.992 188.074 55.848 187.53 55.848C186.97 55.848 186.522 55.976 186.186 56.2C185.834 56.424 185.674 56.728 185.674 57.096C185.674 57.384 185.754 57.592 185.914 57.736C186.074 57.896 186.266 57.992 186.522 58.04C186.778 58.104 187.162 58.152 187.674 58.216C188.378 58.312 188.97 58.424 189.434 58.568C189.898 58.728 190.266 58.968 190.554 59.288C190.842 59.624 190.986 60.072 190.986 60.632C190.986 61.128 190.842 61.56 190.554 61.928C190.266 62.312 189.866 62.6 189.386 62.792C188.89 63 188.346 63.096 187.754 63.096C186.682 63.096 185.818 62.856 185.178 62.36C184.538 61.88 184.202 61.192 184.202 60.312H185.514ZM196.854 57.48V56.36H203.062V57.48H196.854ZM196.854 60.808V59.704H203.062V60.808H196.854ZM209.352 51.784H212.872V52.952H210.584V65.048H212.872V66.2H209.352V51.784ZM214.133 61.56C214.293 61.4 214.517 61.304 214.789 61.304C215.045 61.304 215.269 61.4 215.445 61.56C215.605 61.72 215.701 61.944 215.701 62.2C215.701 62.472 215.605 62.696 215.445 62.856C215.269 63.016 215.045 63.096 214.789 63.096C214.517 63.096 214.293 63.016 214.133 62.856C213.957 62.696 213.877 62.472 213.877 62.2C213.877 61.944 213.957 61.72 214.133 61.56ZM217.43 61.56C217.59 61.4 217.814 61.304 218.086 61.304C218.342 61.304 218.566 61.4 218.742 61.56C218.902 61.72 218.998 61.944 218.998 62.2C218.998 62.472 218.902 62.696 218.742 62.856C218.566 63.016 218.342 63.096 218.086 63.096C217.814 63.096 217.59 63.016 217.43 62.856C217.254 62.696 217.174 62.472 217.174 62.2C217.174 61.944 217.254 61.72 217.43 61.56ZM220.726 61.56C220.886 61.4 221.11 61.304 221.382 61.304C221.638 61.304 221.862 61.4 222.038 61.56C222.198 61.72 222.294 61.944 222.294 62.2C222.294 62.472 222.198 62.696 222.038 62.856C221.862 63.016 221.638 63.096 221.382 63.096C221.11 63.096 220.886 63.016 220.726 62.856C220.55 62.696 220.47 62.472 220.47 62.2C220.47 61.944 220.55 61.72 220.726 61.56ZM224.003 54.84V53.928C224.003 53.208 224.163 52.68 224.499 52.328C224.835 51.976 225.379 51.8 226.131 51.8H227.635V53H226.211C225.891 53 225.651 53.08 225.523 53.208C225.379 53.352 225.315 53.576 225.315 53.896V54.84H227.619V56.04H225.315V63H224.003V56.04H222.53V54.84H224.003ZM228.322 56.728C228.642 56.104 229.106 55.624 229.698 55.272C230.274 54.92 230.946 54.744 231.714 54.744C232.45 54.744 233.122 54.904 233.698 55.208C234.274 55.528 234.722 55.976 235.058 56.552C235.378 57.144 235.554 57.832 235.586 58.616C235.586 58.744 235.57 58.92 235.554 59.176H229.218V59.288C229.234 60.088 229.474 60.728 229.954 61.208C230.418 61.688 231.026 61.928 231.794 61.928C232.37 61.928 232.866 61.784 233.282 61.496C233.698 61.208 233.97 60.792 234.114 60.264H235.442C235.282 61.096 234.882 61.784 234.242 62.312C233.602 62.84 232.818 63.096 231.89 63.096C231.074 63.096 230.37 62.936 229.762 62.584C229.154 62.232 228.674 61.752 228.338 61.112C228.002 60.472 227.842 59.752 227.842 58.92C227.842 58.088 228.002 57.368 228.322 56.728ZM234.226 58.088C234.162 57.4 233.89 56.856 233.442 56.472C232.994 56.088 232.418 55.896 231.73 55.896C231.106 55.896 230.562 56.104 230.098 56.504C229.618 56.92 229.362 57.448 229.298 58.088H234.226ZM244.716 61.8V63H243.996C243.468 63 243.1 62.904 242.876 62.68C242.652 62.472 242.524 62.152 242.524 61.736C241.884 62.648 240.972 63.096 239.788 63.096C238.876 63.096 238.14 62.888 237.596 62.456C237.052 62.04 236.78 61.448 236.78 60.712C236.78 59.896 237.052 59.272 237.612 58.824C238.172 58.392 238.988 58.168 240.06 58.168H242.46V57.608C242.46 57.08 242.268 56.664 241.916 56.36C241.564 56.072 241.068 55.912 240.428 55.912C239.852 55.912 239.388 56.04 239.02 56.296C238.652 56.552 238.428 56.872 238.348 57.288H237.036C237.132 56.488 237.484 55.864 238.092 55.416C238.7 54.968 239.5 54.744 240.492 54.744C241.532 54.744 242.332 55 242.908 55.512C243.484 56.024 243.772 56.744 243.772 57.688V61.208C243.772 61.608 243.948 61.8 244.316 61.8H244.716ZM242.46 59.272H239.932C238.716 59.272 238.108 59.736 238.108 60.632C238.108 61.048 238.268 61.368 238.588 61.608C238.908 61.864 239.34 61.976 239.884 61.976C240.684 61.976 241.308 61.768 241.772 61.352C242.22 60.936 242.46 60.376 242.46 59.672V59.272ZM246.268 56.04H244.796V54.84H246.268V52.552H247.58V54.84H249.644V56.04H247.58V60.856C247.58 61.208 247.644 61.448 247.772 61.592C247.9 61.736 248.14 61.8 248.476 61.8H249.9V63H248.396C247.628 63 247.068 62.84 246.748 62.488C246.428 62.152 246.268 61.608 246.268 60.872V56.04ZM257.858 54.84V63H256.722L256.546 61.912C255.922 62.712 255.058 63.096 253.938 63.096C252.962 63.096 252.178 62.808 251.602 62.2C251.01 61.608 250.722 60.664 250.722 59.384V54.84H252.034V59.304C252.034 60.152 252.21 60.792 252.578 61.24C252.946 61.688 253.474 61.896 254.161 61.896C254.898 61.896 255.49 61.64 255.906 61.096C256.322 60.568 256.546 59.848 256.546 58.92V54.84H257.858ZM263.79 54.84V56.12H263.134C262.35 56.12 261.79 56.392 261.454 56.904C261.118 57.432 260.958 58.072 260.958 58.84V63H259.646V54.84H260.782L260.958 56.072C261.182 55.704 261.486 55.4 261.87 55.176C262.238 54.952 262.75 54.84 263.422 54.84H263.79ZM264.713 56.728C265.033 56.104 265.497 55.624 266.089 55.272C266.665 54.92 267.337 54.744 268.105 54.744C268.841 54.744 269.513 54.904 270.089 55.208C270.665 55.528 271.113 55.976 271.449 56.552C271.769 57.144 271.945 57.832 271.977 58.616C271.977 58.744 271.961 58.92 271.945 59.176H265.609V59.288C265.625 60.088 265.865 60.728 266.345 61.208C266.809 61.688 267.417 61.928 268.185 61.928C268.761 61.928 269.257 61.784 269.673 61.496C270.089 61.208 270.361 60.792 270.505 60.264H271.833C271.673 61.096 271.273 61.784 270.633 62.312C269.993 62.84 269.209 63.096 268.281 63.096C267.465 63.096 266.761 62.936 266.153 62.584C265.545 62.232 265.065 61.752 264.729 61.112C264.393 60.472 264.233 59.752 264.233 58.92C264.233 58.088 264.393 57.368 264.713 56.728ZM270.617 58.088C270.553 57.4 270.281 56.856 269.833 56.472C269.385 56.088 268.809 55.896 268.121 55.896C267.497 55.896 266.953 56.104 266.489 56.504C266.009 56.92 265.753 57.448 265.689 58.088H270.617ZM274.467 60.312C274.483 60.808 274.691 61.208 275.107 61.512C275.523 61.832 276.051 61.976 276.707 61.976C277.283 61.976 277.747 61.864 278.099 61.64C278.451 61.416 278.643 61.112 278.643 60.728C278.643 60.408 278.547 60.168 278.387 59.992C278.211 59.832 277.987 59.704 277.715 59.64C277.443 59.576 277.059 59.512 276.563 59.448C275.859 59.368 275.283 59.256 274.835 59.112C274.387 58.984 274.019 58.76 273.747 58.456C273.459 58.152 273.331 57.736 273.331 57.192C273.331 56.712 273.459 56.296 273.731 55.912C274.003 55.544 274.371 55.256 274.851 55.048C275.315 54.84 275.843 54.728 276.435 54.728C277.395 54.728 278.163 54.952 278.771 55.4C279.379 55.848 279.715 56.488 279.779 57.32H278.467C278.403 56.904 278.195 56.552 277.843 56.264C277.475 55.992 277.027 55.848 276.483 55.848C275.923 55.848 275.475 55.976 275.139 56.2C274.787 56.424 274.627 56.728 274.627 57.096C274.627 57.384 274.707 57.592 274.867 57.736C275.027 57.896 275.219 57.992 275.475 58.04C275.731 58.104 276.115 58.152 276.627 58.216C277.331 58.312 277.923 58.424 278.387 58.568C278.851 58.728 279.219 58.968 279.507 59.288C279.795 59.624 279.939 60.072 279.939 60.632C279.939 61.128 279.795 61.56 279.507 61.928C279.219 62.312 278.819 62.6 278.339 62.792C277.843 63 277.299 63.096 276.707 63.096C275.635 63.096 274.771 62.856 274.131 62.36C273.491 61.88 273.155 61.192 273.155 60.312H274.467ZM284.323 66.216H280.803V65.048H283.091V52.952H280.803V51.8H284.323V66.216ZM287.728 61.8C287.952 62.12 288.08 62.504 288.08 62.952C288.08 63.64 287.872 64.168 287.472 64.552C287.072 64.936 286.528 65.144 285.824 65.16V64.408C286.288 64.408 286.624 64.264 286.848 64.008C287.056 63.752 287.168 63.464 287.168 63.128C287.168 63.032 287.152 62.968 287.152 62.92C287.024 63.048 286.832 63.112 286.608 63.112C286.352 63.112 286.16 63.048 286 62.888C285.84 62.744 285.76 62.536 285.76 62.248C285.76 61.992 285.84 61.768 286.032 61.592C286.224 61.416 286.48 61.32 286.816 61.32C287.2 61.32 287.504 61.48 287.728 61.8ZM286.272 55.56C286.432 55.4 286.656 55.304 286.928 55.304C287.184 55.304 287.408 55.4 287.584 55.56C287.744 55.72 287.84 55.944 287.84 56.2C287.84 56.472 287.744 56.696 287.584 56.856C287.408 57.016 287.184 57.096 286.928 57.096C286.656 57.096 286.432 57.016 286.272 56.856C286.096 56.696 286.016 56.472 286.016 56.2C286.016 55.944 286.096 55.72 286.272 55.56Z" fill="#737373"/>
<path d="M80.224 96.608C80.8 97.184 81.088 98.08 81.088 99.296V104H79.776V99.376C79.776 98.592 79.6 97.984 79.264 97.568C78.928 97.152 78.448 96.944 77.84 96.944C77.152 96.944 76.608 97.184 76.224 97.664C75.84 98.144 75.648 98.8 75.648 99.632V104H74.336V99.376C74.336 98.592 74.16 97.984 73.824 97.568C73.472 97.152 72.992 96.944 72.368 96.944C71.696 96.944 71.168 97.2 70.784 97.712C70.4 98.224 70.208 98.88 70.208 99.696V104H68.896V95.84H70.032L70.208 96.96C70.784 96.16 71.584 95.744 72.592 95.744C73.168 95.744 73.696 95.888 74.144 96.144C74.592 96.4 74.944 96.784 75.168 97.296C75.744 96.272 76.688 95.744 78 95.744C78.912 95.744 79.648 96.032 80.224 96.608ZM89.795 95.84V104H88.659L88.483 102.912C87.859 103.712 86.995 104.096 85.875 104.096C84.899 104.096 84.115 103.808 83.539 103.2C82.947 102.608 82.659 101.664 82.659 100.384V95.84H83.971V100.304C83.971 101.152 84.147 101.792 84.515 102.24C84.883 102.688 85.411 102.896 86.099 102.896C86.835 102.896 87.427 102.64 87.843 102.096C88.259 101.568 88.483 100.848 88.483 99.92V95.84H89.795ZM92.6075 101.312C92.6235 101.808 92.8315 102.208 93.2475 102.512C93.6635 102.832 94.1915 102.976 94.8475 102.976C95.4235 102.976 95.8875 102.864 96.2395 102.64C96.5915 102.416 96.7835 102.112 96.7835 101.728C96.7835 101.408 96.6875 101.168 96.5275 100.992C96.3515 100.832 96.1275 100.704 95.8555 100.64C95.5835 100.576 95.1995 100.512 94.7035 100.448C93.9995 100.368 93.4235 100.256 92.9755 100.112C92.5275 99.984 92.1595 99.76 91.8875 99.456C91.5995 99.152 91.4715 98.736 91.4715 98.192C91.4715 97.712 91.5995 97.296 91.8715 96.912C92.1435 96.544 92.5115 96.256 92.9915 96.048C93.4555 95.84 93.9835 95.728 94.5755 95.728C95.5355 95.728 96.3035 95.952 96.9115 96.4C97.5195 96.848 97.8555 97.488 97.9195 98.32H96.6075C96.5435 97.904 96.3355 97.552 95.9835 97.264C95.6155 96.992 95.1675 96.848 94.6235 96.848C94.0635 96.848 93.6155 96.976 93.2795 97.2C92.9275 97.424 92.7675 97.728 92.7675 98.096C92.7675 98.384 92.8475 98.592 93.0075 98.736C93.1675 98.896 93.3595 98.992 93.6155 99.04C93.8715 99.104 94.2555 99.152 94.7675 99.216C95.4715 99.312 96.0635 99.424 96.5275 99.568C96.9915 99.728 97.3595 99.968 97.6475 100.288C97.9355 100.624 98.0795 101.072 98.0795 101.632C98.0795 102.128 97.9355 102.56 97.6475 102.928C97.3595 103.312 96.9595 103.6 96.4795 103.792C95.9835 104 95.4395 104.096 94.8475 104.096C93.7755 104.096 92.9115 103.856 92.2715 103.36C91.6315 102.88 91.2955 102.192 91.2955 101.312H92.6075ZM100.112 97.04H98.6399V95.84H100.112V93.552H101.424V95.84H103.488V97.04H101.424V101.856C101.424 102.208 101.488 102.448 101.616 102.592C101.744 102.736 101.984 102.8 102.32 102.8H103.744V104H102.24C101.472 104 100.912 103.84 100.592 103.488C100.272 103.152 100.112 102.608 100.112 101.872V97.04ZM104.869 92.784H106.261V97.664H112.053V92.784H113.445V104H112.053V98.944H106.261V104H104.869V92.784ZM123.059 102.8V104H122.339C121.811 104 121.443 103.904 121.219 103.68C120.995 103.472 120.867 103.152 120.867 102.736C120.227 103.648 119.315 104.096 118.131 104.096C117.219 104.096 116.483 103.888 115.939 103.456C115.395 103.04 115.123 102.448 115.123 101.712C115.123 100.896 115.395 100.272 115.955 99.824C116.515 99.392 117.331 99.168 118.403 99.168H120.803V98.608C120.803 98.08 120.611 97.664 120.259 97.36C119.907 97.072 119.411 96.912 118.771 96.912C118.195 96.912 117.731 97.04 117.363 97.296C116.995 97.552 116.771 97.872 116.691 98.288H115.379C115.475 97.488 115.827 96.864 116.435 96.416C117.043 95.968 117.843 95.744 118.835 95.744C119.875 95.744 120.675 96 121.251 96.512C121.827 97.024 122.115 97.744 122.115 98.688V102.208C122.115 102.608 122.291 102.8 122.659 102.8H123.059ZM120.803 100.272H118.275C117.059 100.272 116.451 100.736 116.451 101.632C116.451 102.048 116.611 102.368 116.931 102.608C117.251 102.864 117.683 102.976 118.227 102.976C119.027 102.976 119.651 102.768 120.115 102.352C120.563 101.936 120.803 101.376 120.803 100.672V100.272ZM123.018 95.84H124.426L126.89 102.512L129.338 95.84H130.714L127.658 104H126.074L123.018 95.84ZM131.572 97.728C131.892 97.104 132.356 96.624 132.948 96.272C133.524 95.92 134.196 95.744 134.964 95.744C135.7 95.744 136.372 95.904 136.948 96.208C137.524 96.528 137.972 96.976 138.308 97.552C138.628 98.144 138.804 98.832 138.836 99.616C138.836 99.744 138.82 99.92 138.804 100.176H132.468V100.288C132.484 101.088 132.724 101.728 133.204 102.208C133.668 102.688 134.276 102.928 135.044 102.928C135.62 102.928 136.116 102.784 136.532 102.496C136.948 102.208 137.22 101.792 137.364 101.264H138.692C138.532 102.096 138.132 102.784 137.492 103.312C136.852 103.84 136.068 104.096 135.14 104.096C134.324 104.096 133.62 103.936 133.012 103.584C132.404 103.232 131.924 102.752 131.588 102.112C131.252 101.472 131.092 100.752 131.092 99.92C131.092 99.088 131.252 98.368 131.572 97.728ZM137.476 99.088C137.412 98.4 137.14 97.856 136.692 97.472C136.244 97.088 135.668 96.896 134.98 96.896C134.356 96.896 133.812 97.104 133.348 97.504C132.868 97.92 132.612 98.448 132.548 99.088H137.476ZM141.326 101.312C141.342 101.808 141.55 102.208 141.966 102.512C142.382 102.832 142.91 102.976 143.566 102.976C144.142 102.976 144.606 102.864 144.958 102.64C145.31 102.416 145.502 102.112 145.502 101.728C145.502 101.408 145.406 101.168 145.246 100.992C145.07 100.832 144.846 100.704 144.574 100.64C144.302 100.576 143.918 100.512 143.422 100.448C142.718 100.368 142.142 100.256 141.694 100.112C141.246 99.984 140.878 99.76 140.606 99.456C140.318 99.152 140.19 98.736 140.19 98.192C140.19 97.712 140.318 97.296 140.59 96.912C140.862 96.544 141.23 96.256 141.71 96.048C142.174 95.84 142.702 95.728 143.294 95.728C144.254 95.728 145.022 95.952 145.63 96.4C146.238 96.848 146.574 97.488 146.638 98.32H145.326C145.262 97.904 145.054 97.552 144.702 97.264C144.334 96.992 143.886 96.848 143.342 96.848C142.782 96.848 142.334 96.976 141.998 97.2C141.646 97.424 141.486 97.728 141.486 98.096C141.486 98.384 141.566 98.592 141.726 98.736C141.886 98.896 142.078 98.992 142.334 99.04C142.59 99.104 142.974 99.152 143.486 99.216C144.19 99.312 144.782 99.424 145.246 99.568C145.71 99.728 146.078 99.968 146.366 100.288C146.654 100.624 146.798 101.072 146.798 101.632C146.798 102.128 146.654 102.56 146.366 102.928C146.078 103.312 145.678 103.6 145.198 103.792C144.702 104 144.158 104.096 143.566 104.096C142.494 104.096 141.63 103.856 140.99 103.36C140.35 102.88 140.014 102.192 140.014 101.312H141.326ZM148.258 102.56C148.418 102.4 148.642 102.304 148.914 102.304C149.17 102.304 149.394 102.4 149.57 102.56C149.73 102.72 149.826 102.944 149.826 103.2C149.826 103.472 149.73 103.696 149.57 103.856C149.394 104.016 149.17 104.096 148.914 104.096C148.642 104.096 148.418 104.016 148.258 103.856C148.082 103.696 148.002 103.472 148.002 103.2C148.002 102.944 148.082 102.72 148.258 102.56ZM151.534 95.84V94.928C151.534 94.208 151.694 93.68 152.03 93.328C152.366 92.976 152.91 92.8 153.662 92.8H155.166V94H153.742C153.422 94 153.182 94.08 153.054 94.208C152.91 94.352 152.846 94.576 152.846 94.896V95.84H155.15V97.04H152.846V104H151.534V97.04H150.062V95.84H151.534ZM157.31 103.568C156.702 103.216 156.222 102.736 155.886 102.096C155.534 101.472 155.374 100.752 155.374 99.92C155.374 99.104 155.534 98.384 155.886 97.744C156.222 97.12 156.702 96.624 157.31 96.272C157.918 95.92 158.622 95.744 159.422 95.744C160.206 95.744 160.91 95.92 161.518 96.272C162.126 96.624 162.606 97.12 162.958 97.744C163.294 98.384 163.47 99.104 163.47 99.92C163.47 100.752 163.294 101.472 162.958 102.096C162.606 102.736 162.126 103.216 161.518 103.568C160.91 103.92 160.206 104.096 159.422 104.096C158.622 104.096 157.918 103.92 157.31 103.568ZM160.83 102.544C161.246 102.288 161.566 101.936 161.79 101.472C162.014 101.024 162.126 100.496 162.126 99.92C162.126 99.344 162.014 98.832 161.79 98.368C161.566 97.92 161.246 97.552 160.83 97.296C160.414 97.04 159.95 96.912 159.422 96.912C158.878 96.912 158.414 97.04 157.998 97.296C157.582 97.552 157.278 97.92 157.054 98.368C156.83 98.832 156.718 99.344 156.718 99.92C156.718 100.496 156.83 101.024 157.054 101.472C157.278 101.936 157.582 102.288 157.998 102.544C158.414 102.8 158.878 102.928 159.422 102.928C159.95 102.928 160.414 102.8 160.83 102.544ZM169.118 95.84V97.12H168.462C167.678 97.12 167.118 97.392 166.782 97.904C166.446 98.432 166.286 99.072 166.286 99.84V104H164.974V95.84H166.11L166.286 97.072C166.51 96.704 166.814 96.4 167.198 96.176C167.566 95.952 168.078 95.84 168.75 95.84H169.118ZM170.51 92.8H177.646V94.08H171.902V97.664H176.686V98.944H171.902V102.72H177.854V104H170.51V92.8ZM186.622 102.8V104H185.902C185.374 104 185.006 103.904 184.782 103.68C184.558 103.472 184.43 103.152 184.43 102.736C183.79 103.648 182.878 104.096 181.694 104.096C180.782 104.096 180.046 103.888 179.502 103.456C178.958 103.04 178.686 102.448 178.686 101.712C178.686 100.896 178.958 100.272 179.518 99.824C180.078 99.392 180.894 99.168 181.966 99.168H184.366V98.608C184.366 98.08 184.174 97.664 183.822 97.36C183.47 97.072 182.974 96.912 182.334 96.912C181.758 96.912 181.294 97.04 180.926 97.296C180.558 97.552 180.334 97.872 180.254 98.288H178.942C179.038 97.488 179.39 96.864 179.998 96.416C180.606 95.968 181.406 95.744 182.398 95.744C183.438 95.744 184.238 96 184.814 96.512C185.39 97.024 185.678 97.744 185.678 98.688V102.208C185.678 102.608 185.854 102.8 186.222 102.8H186.622ZM184.366 100.272H181.838C180.622 100.272 180.014 100.736 180.014 101.632C180.014 102.048 180.174 102.368 180.494 102.608C180.814 102.864 181.246 102.976 181.79 102.976C182.59 102.976 183.214 102.768 183.678 102.352C184.126 101.936 184.366 101.376 184.366 100.672V100.272ZM193.71 103.328C193.07 103.84 192.27 104.096 191.31 104.096C190.51 104.096 189.822 103.92 189.23 103.568C188.622 103.216 188.158 102.736 187.838 102.096C187.502 101.456 187.342 100.736 187.342 99.904C187.342 99.088 187.502 98.368 187.838 97.728C188.174 97.104 188.654 96.624 189.262 96.272C189.87 95.92 190.558 95.744 191.358 95.744C192.318 95.744 193.102 96 193.726 96.512C194.35 97.024 194.75 97.728 194.91 98.624H193.582C193.454 98.112 193.182 97.696 192.782 97.376C192.366 97.072 191.886 96.912 191.31 96.912C190.526 96.912 189.886 97.2 189.406 97.744C188.926 98.304 188.686 99.024 188.686 99.904C188.686 100.8 188.926 101.536 189.406 102.096C189.886 102.656 190.526 102.928 191.31 102.928C191.902 102.928 192.398 102.784 192.814 102.464C193.214 102.16 193.47 101.728 193.598 101.184H194.91C194.734 102.096 194.334 102.816 193.71 103.328ZM202.827 96.64C203.435 97.248 203.739 98.176 203.739 99.456V104H202.427V99.536C202.427 98.704 202.235 98.064 201.851 97.616C201.467 97.168 200.907 96.944 200.203 96.944C199.435 96.944 198.843 97.216 198.395 97.744C197.947 98.288 197.739 99.008 197.739 99.92V104H196.427V92.8H197.739V97.184C197.995 96.768 198.347 96.416 198.795 96.144C199.243 95.888 199.787 95.744 200.427 95.744C201.419 95.744 202.219 96.048 202.827 96.64ZM209.316 92.8C208.356 94.128 207.668 95.328 207.284 96.384C206.884 97.44 206.692 98.656 206.692 100C206.692 101.344 206.884 102.56 207.284 103.616C207.668 104.672 208.356 105.872 209.316 107.2H207.94C207.044 105.984 206.388 104.816 205.988 103.696C205.588 102.576 205.396 101.344 205.396 100C205.396 98.656 205.588 97.44 205.988 96.32C206.388 95.2 207.044 94.032 207.94 92.8H209.316ZM221.537 96.608C222.113 97.184 222.401 98.08 222.401 99.296V104H221.089V99.376C221.089 98.592 220.913 97.984 220.577 97.568C220.241 97.152 219.761 96.944 219.153 96.944C218.465 96.944 217.921 97.184 217.536 97.664C217.153 98.144 216.961 98.8 216.961 99.632V104H215.649V99.376C215.649 98.592 215.473 97.984 215.137 97.568C214.785 97.152 214.305 96.944 213.681 96.944C213.009 96.944 212.481 97.2 212.097 97.712C211.713 98.224 211.521 98.88 211.521 99.696V104H210.209V95.84H211.345L211.521 96.96C212.097 96.16 212.897 95.744 213.905 95.744C214.481 95.744 215.009 95.888 215.457 96.144C215.905 96.4 216.257 96.784 216.481 97.296C217.057 96.272 218.001 95.744 219.312 95.744C220.225 95.744 220.961 96.032 221.537 96.608ZM231.108 95.84V104H229.972L229.796 102.912C229.172 103.712 228.308 104.096 227.188 104.096C226.212 104.096 225.428 103.808 224.852 103.2C224.26 102.608 223.972 101.664 223.972 100.384V95.84H225.284V100.304C225.284 101.152 225.46 101.792 225.828 102.24C226.196 102.688 226.724 102.896 227.411 102.896C228.148 102.896 228.74 102.64 229.156 102.096C229.572 101.568 229.796 100.848 229.796 99.92V95.84H231.108ZM233.92 101.312C233.936 101.808 234.144 102.208 234.56 102.512C234.976 102.832 235.504 102.976 236.16 102.976C236.736 102.976 237.2 102.864 237.552 102.64C237.904 102.416 238.096 102.112 238.096 101.728C238.096 101.408 238 101.168 237.84 100.992C237.664 100.832 237.44 100.704 237.168 100.64C236.896 100.576 236.512 100.512 236.016 100.448C235.312 100.368 234.736 100.256 234.288 100.112C233.84 99.984 233.472 99.76 233.2 99.456C232.912 99.152 232.784 98.736 232.784 98.192C232.784 97.712 232.912 97.296 233.184 96.912C233.456 96.544 233.824 96.256 234.304 96.048C234.768 95.84 235.296 95.728 235.888 95.728C236.848 95.728 237.616 95.952 238.224 96.4C238.832 96.848 239.168 97.488 239.232 98.32H237.92C237.856 97.904 237.648 97.552 237.296 97.264C236.928 96.992 236.48 96.848 235.936 96.848C235.376 96.848 234.928 96.976 234.592 97.2C234.24 97.424 234.08 97.728 234.08 98.096C234.08 98.384 234.16 98.592 234.32 98.736C234.48 98.896 234.672 98.992 234.928 99.04C235.184 99.104 235.568 99.152 236.08 99.216C236.784 99.312 237.376 99.424 237.84 99.568C238.304 99.728 238.672 99.968 238.96 100.288C239.248 100.624 239.392 101.072 239.392 101.632C239.392 102.128 239.248 102.56 238.96 102.928C238.672 103.312 238.272 103.6 237.792 103.792C237.296 104 236.752 104.096 236.16 104.096C235.088 104.096 234.224 103.856 233.584 103.36C232.944 102.88 232.608 102.192 232.608 101.312H233.92ZM241.424 97.04H239.952V95.84H241.424V93.552H242.736V95.84H244.8V97.04H242.736V101.856C242.736 102.208 242.8 102.448 242.928 102.592C243.056 102.736 243.296 102.8 243.632 102.8H245.056V104H243.552C242.784 104 242.224 103.84 241.904 103.488C241.584 103.152 241.424 102.608 241.424 101.872V97.04ZM246.182 92.784H247.574V97.664H253.366V92.784H254.758V104H253.366V98.944H247.574V104H246.182V92.784ZM264.372 102.8V104H263.652C263.124 104 262.756 103.904 262.532 103.68C262.308 103.472 262.18 103.152 262.18 102.736C261.54 103.648 260.628 104.096 259.444 104.096C258.532 104.096 257.796 103.888 257.252 103.456C256.708 103.04 256.436 102.448 256.436 101.712C256.436 100.896 256.708 100.272 257.268 99.824C257.828 99.392 258.644 99.168 259.716 99.168H262.116V98.608C262.116 98.08 261.924 97.664 261.572 97.36C261.22 97.072 260.724 96.912 260.084 96.912C259.508 96.912 259.044 97.04 258.676 97.296C258.308 97.552 258.084 97.872 258.004 98.288H256.692C256.788 97.488 257.14 96.864 257.748 96.416C258.356 95.968 259.156 95.744 260.148 95.744C261.188 95.744 261.988 96 262.564 96.512C263.14 97.024 263.428 97.744 263.428 98.688V102.208C263.428 102.608 263.604 102.8 263.972 102.8H264.372ZM262.116 100.272H259.588C258.372 100.272 257.764 100.736 257.764 101.632C257.764 102.048 257.924 102.368 258.244 102.608C258.564 102.864 258.996 102.976 259.54 102.976C260.34 102.976 260.964 102.768 261.428 102.352C261.876 101.936 262.116 101.376 262.116 100.672V100.272ZM264.33 95.84H265.738L268.202 102.512L270.65 95.84H272.026L268.97 104H267.386L264.33 95.84ZM272.885 97.728C273.205 97.104 273.669 96.624 274.261 96.272C274.837 95.92 275.509 95.744 276.277 95.744C277.013 95.744 277.685 95.904 278.261 96.208C278.837 96.528 279.285 96.976 279.621 97.552C279.941 98.144 280.117 98.832 280.149 99.616C280.149 99.744 280.133 99.92 280.117 100.176H273.781V100.288C273.797 101.088 274.037 101.728 274.517 102.208C274.981 102.688 275.589 102.928 276.357 102.928C276.933 102.928 277.429 102.784 277.845 102.496C278.261 102.208 278.533 101.792 278.677 101.264H280.005C279.845 102.096 279.445 102.784 278.805 103.312C278.165 103.84 277.381 104.096 276.453 104.096C275.637 104.096 274.933 103.936 274.325 103.584C273.717 103.232 273.237 102.752 272.901 102.112C272.565 101.472 272.405 100.752 272.405 99.92C272.405 99.088 272.565 98.368 272.885 97.728ZM278.789 99.088C278.725 98.4 278.453 97.856 278.005 97.472C277.557 97.088 276.981 96.896 276.293 96.896C275.669 96.896 275.125 97.104 274.661 97.504C274.181 97.92 273.925 98.448 273.861 99.088H278.789ZM286.026 98.48V97.36H292.234V98.48H286.026ZM286.026 101.808V100.704H292.234V101.808H286.026ZM300.56 98.832V100.08L294.48 102.8V101.52L299.088 99.456L294.48 97.392V96.112L300.56 98.832ZM309.202 94.352C308.914 94.608 308.786 94.976 308.786 95.456C308.786 95.568 308.802 95.76 308.85 96.032L309.17 97.536C309.218 97.808 309.25 98.032 309.25 98.192C309.25 98.656 309.106 99.04 308.85 99.36C308.578 99.68 308.194 99.888 307.714 100C308.194 100.096 308.578 100.288 308.85 100.592C309.122 100.912 309.266 101.296 309.266 101.744C309.266 101.968 309.234 102.208 309.17 102.464L308.85 103.968C308.802 104.256 308.786 104.448 308.786 104.56C308.786 105.04 308.914 105.408 309.202 105.664C309.474 105.92 309.874 106.048 310.402 106.048L310.898 106.064V107.2H310.45C309.538 107.2 308.818 106.992 308.306 106.576C307.794 106.16 307.538 105.568 307.538 104.816C307.538 104.56 307.554 104.336 307.602 104.112L307.906 102.544C307.938 102.352 307.97 102.128 307.97 101.904C307.97 101.488 307.826 101.168 307.554 100.944C307.266 100.72 306.866 100.608 306.354 100.576V99.424C306.882 99.408 307.282 99.28 307.57 99.056C307.842 98.832 307.986 98.512 307.986 98.096C307.986 97.936 307.954 97.728 307.906 97.456L307.602 95.888C307.554 95.68 307.538 95.44 307.538 95.184C307.538 94.448 307.794 93.856 308.306 93.44C308.818 93.024 309.538 92.8 310.45 92.8H310.898V93.936L310.402 93.952C309.874 93.952 309.474 94.096 309.202 94.352Z" fill="#737373"/>
<path d="M68 79.5C68 79.2239 68.2239 79 68.5 79H319.5C319.776 79 320 79.2239 320 79.5C320 79.7761 319.776 80 319.5 80H68.5C68.2239 80 68 79.7761 68 79.5Z" fill="#57B495"/>
<path d="M8 62.5H43.7754L59.3301 80L43.7754 97.5H8C3.85786 97.5 0.5 94.1421 0.5 90V70C0.5 65.8579 3.85786 62.5 8 62.5Z" stroke="#57B495"/>
<path d="M18.32 75.0036V86H16.592V78.5696C16.4349 78.6639 16.1993 78.711 15.9008 78.711H14.0943V77.2343H15.8223C16.0736 77.2343 16.2778 77.1401 16.4192 76.9516C16.5449 76.7631 16.6234 76.5274 16.6234 76.2132V75.0036H18.32ZM19.7456 81.9785L24.9767 75.0036H27.0817V81.9471H28.7469V83.4551H27.0817V86H25.3695V83.4551H19.7456V81.9785ZM21.4893 81.9471H25.3695V76.7945L21.4893 81.9471ZM33.7023 81.0045C34.2678 80.5332 34.7076 80.0934 34.9904 79.6849C35.2732 79.2765 35.4303 78.8367 35.4303 78.3497C35.4303 77.737 35.2418 77.25 34.8647 76.9044C34.4877 76.5588 33.9693 76.386 33.3252 76.386C32.6969 76.386 32.1785 76.5903 31.8015 76.9987C31.4244 77.4071 31.2359 77.9412 31.2359 78.601V78.8052H29.4922V78.5068C29.4922 77.8156 29.6493 77.2029 29.9635 76.6531C30.2777 76.119 30.7332 75.6791 31.3145 75.3649C31.88 75.0508 32.5555 74.8937 33.3252 74.8937C34.5506 74.8937 35.4931 75.2079 36.1843 75.8205C36.8598 76.4332 37.2054 77.25 37.2054 78.2711C37.2054 79.0252 37.0012 79.6692 36.6242 80.2348C36.2314 80.8003 35.6502 81.3972 34.8804 82.0413L31.9586 84.4762H37.2682V86H29.4765V84.6019L33.7023 81.0045Z" fill="#57B495"/>
<rect x="80" width="240" height="160" fill="url(#paint0_linear_893_7152)"/>
</g>
<defs>
<linearGradient id="paint0_linear_893_7152" x1="320" y1="80" x2="80" y2="80" gradientUnits="userSpaceOnUse">
<stop stop-color="#111111"/>
<stop offset="1" stop-color="#111111" stop-opacity="0"/>
</linearGradient>
<clipPath id="clip0_893_7152">
<rect width="320" height="160" fill="white"/>
</clipPath>
</defs>
</svg>
