<svg width="156" height="40" viewBox="0 0 156 40" fill="none" xmlns="http://www.w3.org/2000/svg">
<path d="M21.3965 20.0016C21.3965 20.7683 20.7683 21.3965 20.0016 21.3965C19.2349 21.3965 18.6035 20.7683 18.6035 20.0016C18.6035 19.2349 19.2317 18.6035 20.0016 18.6035C20.7715 18.6035 21.3965 19.2317 21.3965 20.0016ZM40 19.9984C40 31.0284 31.0284 40 20.0016 40C8.97479 40 0 31.0284 0 19.9984C0 8.96835 8.97157 0 20.0016 0C31.0317 0 40 8.97157 40 19.9984ZM6.69083 9.48055C6.72626 10.6274 7.09672 12.0641 7.76677 13.6265C8.44648 15.2243 9.40646 16.9059 10.5855 18.6003C11.713 17.1603 12.979 15.7333 14.3545 14.3577C15.73 12.9822 17.1636 11.713 18.6035 10.5855C16.9091 9.40646 15.2275 8.44971 13.6265 7.76677C12.0512 7.0935 10.6177 6.72304 9.47733 6.69083H9.31948C8.42393 6.69083 7.75711 6.90666 7.32866 7.33188C6.88411 7.77966 6.66828 8.50447 6.69083 9.48055ZM33.3092 30.5194C33.2737 29.3726 32.9033 27.9391 32.2332 26.3735C31.5471 24.7757 30.5903 23.0941 29.4113 21.3997C28.2838 22.8397 27.0178 24.27 25.6423 25.6455C24.2635 27.0242 22.8364 28.287 21.3965 29.4145C23.0909 30.5935 24.7725 31.5503 26.3735 32.2332C27.9456 32.9065 29.3823 33.2802 30.5227 33.3092C31.4988 33.3349 32.2171 33.1223 32.6681 32.6713C33.1159 32.2203 33.3317 31.4955 33.3092 30.5194ZM28.3869 20.0048C27.2369 18.494 25.9161 16.9896 24.4632 15.5368C23.0168 14.0839 21.5124 12.7631 20.0016 11.6131C18.4908 12.7664 16.9832 14.0871 15.5335 15.5368C14.0807 16.9864 12.7631 18.4908 11.6099 20.0016C12.7599 21.5124 14.0807 23.0136 15.5335 24.4665C16.9832 25.9193 18.4876 27.2369 19.9984 28.3901C21.5092 27.2369 23.0136 25.9161 24.4632 24.4665C25.9129 23.0168 27.2336 21.5157 28.3869 20.0048ZM30.5678 34.9746C30.5388 34.9779 30.5066 34.9746 30.4776 34.9746C29.1085 34.9392 27.5074 34.5333 25.7164 33.7666C22.0601 32.2042 18.0237 29.3179 14.3545 25.6455C12.979 24.27 11.713 22.8397 10.5855 21.4029C10.2215 20.9358 9.87034 20.4687 9.53531 20.0016C8.14367 18.0591 7.01941 16.1231 6.23339 14.2836C5.47314 12.5054 5.06725 10.9044 5.02537 9.52565C5.02537 9.49344 5.02537 9.46444 5.02215 9.43223C2.90892 12.4185 1.66546 16.0651 1.66546 19.9984C1.66546 23.9317 2.90892 27.5783 5.02537 30.5678V30.4808C5.0608 29.1117 5.4667 27.5107 6.23339 25.7196C6.8229 24.3408 7.59926 22.9105 8.53668 21.4641C8.87815 21.9344 9.23895 22.4048 9.61263 22.8751C8.87493 24.067 8.24998 25.2396 7.76355 26.3735C7.0935 27.9488 6.71982 29.3823 6.69083 30.5227C6.66828 31.4988 6.88089 32.2236 7.32866 32.6681C7.77966 33.1159 8.50125 33.3285 9.48055 33.3092C10.6274 33.2737 12.0609 32.9033 13.6265 32.2365C14.7669 31.7468 15.9523 31.1154 17.1539 30.3648C17.6274 30.7385 18.0978 31.0961 18.5713 31.4408C17.112 32.3879 15.6688 33.1739 14.2804 33.7666C12.5022 34.5269 10.9012 34.9328 9.52565 34.9746C9.49344 34.9779 9.46122 34.9779 9.43223 34.9779C12.4217 37.0911 16.0683 38.3345 20.0016 38.3345C23.9349 38.3345 27.5815 37.0911 30.5678 34.9746ZM34.9746 30.4776V30.5678C37.0911 27.5783 38.3345 23.9317 38.3345 19.9984C38.3345 16.0651 37.0911 12.4185 34.9746 9.43223C34.9779 9.46122 34.9746 9.49344 34.9746 9.52243C34.9392 10.8915 34.5301 12.4925 33.7666 14.2836C33.1642 15.6849 32.3685 17.1442 31.4086 18.6196C31.0671 18.1461 30.7095 17.6725 30.3358 17.2022C31.0961 15.9878 31.7371 14.7862 32.2332 13.6265C32.9065 12.0544 33.277 10.6177 33.3092 9.47733C33.3349 8.50447 33.1191 7.78288 32.6681 7.33188C32.2203 6.88411 31.502 6.6715 30.5194 6.69083C29.3726 6.72626 27.9359 7.09672 26.3735 7.76677C25.2203 8.25964 24.0283 8.89426 22.8171 9.65128C22.3468 9.2776 21.8765 8.92003 21.4029 8.57856C22.8686 7.62503 24.3215 6.83257 25.7164 6.23339C27.4946 5.47314 29.0956 5.06725 30.4743 5.02537C30.5066 5.02537 30.5388 5.02537 30.5678 5.02215C27.5815 2.90892 23.9349 1.66546 20.0016 1.66546C16.0683 1.66546 12.4217 2.90892 9.43223 5.02537C9.46122 5.02215 9.49344 5.02537 9.52243 5.02537C10.8883 5.0608 12.4893 5.46992 14.2804 6.23339C17.9399 7.79899 21.9731 10.6854 25.6423 14.3577C29.3179 18.0333 32.2042 22.0665 33.7666 25.7196C34.5269 27.4978 34.9328 29.0988 34.9746 30.4776ZM25.7453 19.9984L22.8622 15.1566H17.141L14.2579 19.9984L17.141 24.8401H22.8622L25.7453 19.9984ZM16.1939 19.9984L18.0849 16.8221H21.9119L23.8029 19.9984L21.9119 23.1747H18.0849L16.1939 19.9984Z" fill="white"/>
<path d="M58.0737 12C59.1161 12 60.0227 12.204 60.8385 12.6119C61.6317 13.0198 62.2436 13.5864 62.6969 14.3116C63.1275 15.0368 63.3541 15.898 63.3541 16.8725C63.3541 17.983 63.0368 18.9348 62.4249 19.7507C61.813 20.5666 60.9972 21.1105 59.9773 21.3824L63.5354 27.864H61.3144L58.0283 21.7677H53.9717V27.864H52V12H58.0737ZM53.9717 19.9547H57.915C58.9575 19.9547 59.7734 19.6827 60.4079 19.1161C61.0198 18.5722 61.3371 17.8244 61.3371 16.8725C61.3371 15.966 61.0198 15.2181 60.4079 14.6516C59.7734 14.1076 58.9575 13.813 57.9377 13.813H53.9717V19.9547Z" fill="white"/>
<path d="M75.9058 26.1643V27.864H74.886C74.1381 27.864 73.6169 27.728 73.2996 27.4108C72.9823 27.1161 72.801 26.6629 72.801 26.0737C71.8945 27.3654 70.6027 28 68.9256 28C67.6339 28 66.5914 27.7054 65.8208 27.0935C65.0503 26.5042 64.665 25.6657 64.665 24.6232C64.665 23.4674 65.0503 22.5836 65.8435 21.949C66.6367 21.3371 67.7925 21.0198 69.3109 21.0198H72.7103V20.2266C72.7103 19.4788 72.4384 18.8895 71.9398 18.4589C71.4412 18.051 70.7387 17.8244 69.8322 17.8244C69.0163 17.8244 68.3591 18.0057 67.8378 18.3683C67.3166 18.7309 66.9993 19.1841 66.886 19.7734H65.0276C65.1636 18.6402 65.6622 17.7564 66.5234 17.1218C67.3846 16.4873 68.5177 16.17 69.9228 16.17C71.3959 16.17 72.529 16.5326 73.3449 17.2578C74.1608 17.983 74.5687 19.0028 74.5687 20.3399V25.3258C74.5687 25.8924 74.818 26.1643 75.3392 26.1643H75.9058ZM72.7103 22.5836H69.1296C67.4072 22.5836 66.546 23.2408 66.546 24.5099C66.546 25.0991 66.7727 25.5524 67.2259 25.8924C67.6792 26.255 68.2911 26.4136 69.0616 26.4136C70.1948 26.4136 71.0786 26.119 71.7358 25.5297C72.3704 24.9405 72.7103 24.1473 72.7103 23.1501V22.5836Z" fill="white"/>
<path d="M88.3033 12V27.864H86.6942L86.4449 26.0057C85.4704 27.3428 84.156 28 82.4789 28C81.3911 28 80.4393 27.7734 79.6007 27.2974C78.7622 26.8442 78.105 26.1643 77.6291 25.2578C77.1531 24.3739 76.9265 23.3088 76.9265 22.085C76.9265 20.9292 77.1531 19.9093 77.6291 19.0028C78.105 18.119 78.7622 17.4164 79.6234 16.9178C80.4619 16.4193 81.4138 16.17 82.4789 16.17C83.4081 16.17 84.2013 16.3513 84.8812 16.6912C85.5384 17.0312 86.0597 17.4844 86.4449 18.0737V12H88.3033ZM84.6319 25.8244C85.2211 25.4618 85.6744 24.9632 85.9917 24.3286C86.309 23.694 86.4676 22.9462 86.4676 22.1303C86.4676 21.3144 86.309 20.5666 85.9917 19.9093C85.6744 19.2521 85.2211 18.7309 84.6319 18.3683C84.0427 18.0057 83.3854 17.8244 82.6602 17.8244C81.5044 17.8244 80.5752 18.2323 79.8727 19.0255C79.1701 19.8187 78.8302 20.8385 78.8302 22.085C78.8302 23.3541 79.1701 24.3739 79.8727 25.1671C80.5752 25.9603 81.5044 26.3456 82.6602 26.3456C83.3854 26.3456 84.0427 26.187 84.6319 25.8244Z" fill="white"/>
<path d="M93.1691 27.2521C92.3079 26.7535 91.628 26.0737 91.1521 25.1671C90.6535 24.2833 90.4269 23.2635 90.4269 22.085C90.4269 20.9292 90.6535 19.9093 91.1521 19.0028C91.628 18.119 92.3079 17.4164 93.1691 16.9178C94.0303 16.4193 95.0274 16.17 96.1606 16.17C97.2711 16.17 98.2682 16.4193 99.1294 16.9178C99.9906 17.4164 100.671 18.119 101.169 19.0028C101.645 19.9093 101.894 20.9292 101.894 22.085C101.894 23.2635 101.645 24.2833 101.169 25.1671C100.671 26.0737 99.9906 26.7535 99.1294 27.2521C98.2682 27.7507 97.2711 28 96.1606 28C95.0274 28 94.0303 27.7507 93.1691 27.2521ZM98.1549 25.8017C98.7441 25.4391 99.1974 24.9405 99.5147 24.2833C99.832 23.6487 99.9906 22.9009 99.9906 22.085C99.9906 21.2691 99.832 20.5439 99.5147 19.8867C99.1974 19.2521 98.7441 18.7309 98.1549 18.3683C97.5657 18.0057 96.9085 17.8244 96.1606 17.8244C95.39 17.8244 94.7328 18.0057 94.1436 18.3683C93.5544 18.7309 93.1238 19.2521 92.8065 19.8867C92.4892 20.5439 92.3306 21.2691 92.3306 22.085C92.3306 22.9009 92.4892 23.6487 92.8065 24.2833C93.1238 24.9405 93.5544 25.4391 94.1436 25.8017C94.7328 26.1643 95.39 26.3456 96.1606 26.3456C96.9085 26.3456 97.5657 26.1643 98.1549 25.8017Z" fill="white"/>
<path d="M113.068 17.4391C113.929 18.3003 114.36 19.6147 114.36 21.4278V27.864H112.501V21.5411C112.501 20.3626 112.229 19.4561 111.685 18.8215C111.141 18.187 110.371 17.8697 109.374 17.8697C108.286 17.8697 107.425 18.255 106.813 19.0028C106.178 19.7734 105.884 20.7932 105.884 22.085V27.864H104.025V16.3059H105.634L105.884 17.8697C106.745 16.7365 108.014 16.17 109.691 16.17C111.096 16.17 112.207 16.6006 113.068 17.4391Z" fill="white"/>
<path d="M122.618 12H126.018V27.864H122.618V12Z" fill="#57B495"/>
<path d="M128.704 12H134.211C135.798 12 137.18 12.3399 138.404 13.0198C139.628 13.6997 140.557 14.6289 141.214 15.83C141.871 17.0312 142.211 18.3909 142.211 19.932C142.211 21.4731 141.871 22.8555 141.214 24.0567C140.557 25.2578 139.628 26.187 138.404 26.8669C137.18 27.5467 135.798 27.864 134.211 27.864H128.704V12ZM134.211 25.0312C135.639 25.0312 136.75 24.5779 137.543 23.6487C138.336 22.7195 138.744 21.4731 138.744 19.932C138.744 18.3909 138.336 17.1671 137.543 16.238C136.75 15.3088 135.639 14.8329 134.211 14.8329H132.104V25.0312H134.211Z" fill="#57B495"/>
<path d="M144.307 12H154.959V14.9235H147.707V18.4816H153.599V21.2691H147.707V24.9405H155.208V27.864H144.307V12Z" fill="#57B495"/>
</svg>
