<svg width="970" height="319" viewBox="0 0 970 319" fill="none" xmlns="http://www.w3.org/2000/svg">
<path d="M170.293 159.191C170.293 165.293 165.293 170.293 159.191 170.293C153.089 170.293 148.064 165.293 148.064 159.191C148.064 153.089 153.063 148.064 159.191 148.064C165.319 148.064 170.293 153.063 170.293 159.191ZM318.357 159.165C318.357 246.953 246.953 318.357 159.191 318.357C71.4296 318.357 0 246.953 0 159.165C0 71.3783 71.404 0 159.191 0C246.978 0 318.357 71.404 318.357 159.165ZM53.2517 75.4549C53.5337 84.5823 56.4822 96.0172 61.8151 108.452C67.2248 121.169 74.8652 134.552 84.249 148.038C93.2225 136.578 103.299 125.22 114.246 114.272C125.194 103.324 136.603 93.2225 148.064 84.249C134.578 74.8652 121.194 67.2505 108.452 61.8151C95.9146 56.4566 84.5054 53.5081 75.4292 53.2517H74.1729C67.0454 53.2517 61.7381 54.9695 58.3282 58.3538C54.79 61.9176 53.0722 67.6863 53.2517 75.4549ZM265.105 242.902C264.823 233.774 261.874 222.365 256.541 209.905C251.08 197.188 243.466 183.804 234.082 170.318C225.108 181.779 215.032 193.162 204.085 204.11C193.111 215.084 181.753 225.134 170.293 234.108C183.779 243.491 197.162 251.106 209.905 256.541C222.416 261.9 233.851 264.874 242.927 265.105C250.696 265.31 256.413 263.618 260.003 260.028C263.567 256.439 265.284 250.67 265.105 242.902ZM225.929 159.217C216.776 147.192 206.264 135.219 194.701 123.656C183.189 112.093 171.216 101.581 159.191 92.4277C147.167 101.606 135.168 112.118 123.63 123.656C112.067 135.193 101.581 147.167 92.4021 159.191C101.555 171.216 112.067 183.163 123.63 194.726C135.168 206.289 147.141 216.776 159.165 225.954C171.19 216.776 183.163 206.264 194.701 194.726C206.238 183.189 216.75 171.241 225.929 159.217ZM243.286 278.36C243.055 278.386 242.799 278.36 242.568 278.36C231.672 278.078 218.929 274.848 204.674 268.746C175.574 256.311 143.449 233.338 114.246 204.11C103.299 193.162 93.2225 181.779 84.249 170.344C81.3518 166.626 78.5572 162.909 75.8907 159.191C64.8148 143.731 55.8669 128.322 49.611 113.682C43.5603 99.5297 40.3298 86.7872 39.9965 75.8138C39.9965 75.5574 39.9965 75.3267 39.9708 75.0703C23.1518 98.8374 13.2552 127.861 13.2552 159.165C13.2552 190.47 23.1518 219.493 39.9965 243.286V242.594C40.2785 231.698 43.509 218.955 49.611 204.7C54.3029 193.726 60.4818 182.343 67.9427 170.831C70.6604 174.574 73.532 178.318 76.5061 182.061C70.6348 191.547 65.6609 200.88 61.7894 209.905C56.4566 222.442 53.4825 233.851 53.2517 242.927C53.0722 250.696 54.7644 256.465 58.3282 260.003C61.9176 263.567 67.6607 265.259 75.4549 265.105C84.5823 264.823 95.9915 261.874 108.452 256.567C117.528 252.67 126.963 247.645 136.526 241.671C140.295 244.645 144.039 247.491 147.807 250.234C136.193 257.772 124.707 264.028 113.657 268.746C99.504 274.796 86.7616 278.027 75.8138 278.36C75.5574 278.386 75.3011 278.386 75.0703 278.386C98.8631 295.205 127.886 305.101 159.191 305.101C190.496 305.101 219.519 295.205 243.286 278.36ZM278.36 242.568V243.286C295.205 219.493 305.101 190.47 305.101 159.165C305.101 127.861 295.205 98.8374 278.36 75.0703C278.386 75.3011 278.36 75.5574 278.36 75.7882C278.078 86.6847 274.822 99.4271 268.746 113.682C263.951 124.835 257.618 136.449 249.978 148.192C247.26 144.423 244.414 140.654 241.44 136.911C247.491 127.245 252.593 117.682 256.541 108.452C261.9 95.9403 264.848 84.5054 265.105 75.4292C265.31 67.6863 263.592 61.9433 260.003 58.3538C256.439 54.79 250.721 53.0979 242.902 53.2517C233.774 53.5337 222.339 56.4822 209.905 61.8151C200.726 65.7378 191.24 70.7886 181.599 76.8137C177.856 73.8396 174.113 70.9937 170.344 68.276C182.01 60.687 193.573 54.3798 204.674 49.611C218.827 43.5603 231.569 40.3298 242.543 39.9965C242.799 39.9965 243.055 39.9965 243.286 39.9708C219.519 23.1518 190.496 13.2552 159.191 13.2552C127.886 13.2552 98.8631 23.1518 75.0703 39.9965C75.3011 39.9708 75.5574 39.9965 75.7882 39.9965C86.659 40.2785 99.4015 43.5346 113.657 49.611C142.782 62.0714 174.882 85.0438 204.085 114.272C233.338 143.526 256.311 175.626 268.746 204.7C274.796 218.852 278.027 231.595 278.36 242.568ZM204.905 159.165L181.958 120.63H136.424L113.477 159.165L136.424 197.701H181.958L204.905 159.165ZM128.886 159.165L143.936 133.886H174.395L189.445 159.165L174.395 184.445H143.936L128.886 159.165Z" fill="#001A72"/>
<path d="M421.364 120.578C427.252 120.578 432.372 121.73 436.98 124.034C441.46 126.338 444.916 129.538 447.476 133.634C449.908 137.73 451.188 142.594 451.188 148.098C451.188 154.37 449.396 159.746 445.94 164.354C442.484 168.962 437.876 172.034 432.116 173.57L452.212 210.178H439.668L421.108 175.746H398.196V210.178H387.06V120.578H421.364ZM398.196 165.506H420.468C426.356 165.506 430.964 163.97 434.548 160.77C438.004 157.698 439.796 153.474 439.796 148.098C439.796 142.978 438.004 138.754 434.548 135.554C430.964 132.482 426.356 130.818 420.596 130.818H398.196V165.506ZM522.08 200.578V210.178H516.32C512.096 210.178 509.152 209.41 507.36 207.618C505.568 205.954 504.544 203.394 504.544 200.066C499.424 207.362 492.128 210.946 482.656 210.946C475.36 210.946 469.472 209.282 465.12 205.826C460.768 202.498 458.592 197.762 458.592 191.874C458.592 185.346 460.768 180.354 465.248 176.77C469.728 173.314 476.256 171.522 484.832 171.522H504.032V167.042C504.032 162.818 502.496 159.49 499.68 157.058C496.864 154.754 492.896 153.474 487.776 153.474C483.168 153.474 479.456 154.498 476.512 156.546C473.568 158.594 471.776 161.154 471.136 164.482H460.64C461.408 158.082 464.224 153.09 469.088 149.506C473.952 145.922 480.352 144.13 488.288 144.13C496.608 144.13 503.008 146.178 507.616 150.274C512.224 154.37 514.528 160.13 514.528 167.682V195.842C514.528 199.042 515.936 200.578 518.88 200.578H522.08ZM504.032 180.354H483.808C474.08 180.354 469.216 184.066 469.216 191.234C469.216 194.562 470.496 197.122 473.056 199.042C475.616 201.09 479.072 201.986 483.424 201.986C489.824 201.986 494.816 200.322 498.528 196.994C502.112 193.666 504.032 189.186 504.032 183.554V180.354ZM592.101 120.578V210.178H583.013L581.605 199.682C576.101 207.234 568.677 210.946 559.205 210.946C553.061 210.946 547.685 209.666 542.949 206.978C538.213 204.418 534.501 200.578 531.813 195.458C529.125 190.466 527.845 184.45 527.845 177.538C527.845 171.01 529.125 165.25 531.813 160.13C534.501 155.138 538.213 151.17 543.077 148.354C547.813 145.538 553.189 144.13 559.205 144.13C564.453 144.13 568.933 145.154 572.773 147.074C576.485 148.994 579.429 151.554 581.605 154.882V120.578H592.101ZM571.365 198.658C574.693 196.61 577.253 193.794 579.045 190.21C580.837 186.626 581.733 182.402 581.733 177.794C581.733 173.186 580.837 168.962 579.045 165.25C577.253 161.538 574.693 158.594 571.365 156.546C568.037 154.498 564.325 153.474 560.229 153.474C553.701 153.474 548.453 155.778 544.485 160.258C540.517 164.738 538.597 170.498 538.597 177.538C538.597 184.706 540.517 190.466 544.485 194.946C548.453 199.426 553.701 201.602 560.229 201.602C564.325 201.602 568.037 200.706 571.365 198.658ZM619.583 206.722C614.719 203.906 610.879 200.066 608.191 194.946C605.375 189.954 604.095 184.194 604.095 177.538C604.095 171.01 605.375 165.25 608.191 160.13C610.879 155.138 614.719 151.17 619.583 148.354C624.447 145.538 630.079 144.13 636.479 144.13C642.751 144.13 648.383 145.538 653.247 148.354C658.111 151.17 661.951 155.138 664.767 160.13C667.455 165.25 668.863 171.01 668.863 177.538C668.863 184.194 667.455 189.954 664.767 194.946C661.951 200.066 658.111 203.906 653.247 206.722C648.383 209.538 642.751 210.946 636.479 210.946C630.079 210.946 624.447 209.538 619.583 206.722ZM647.743 198.53C651.071 196.482 653.631 193.666 655.423 189.954C657.215 186.37 658.111 182.146 658.111 177.538C658.111 172.93 657.215 168.834 655.423 165.122C653.631 161.538 651.071 158.594 647.743 156.546C644.415 154.498 640.703 153.474 636.479 153.474C632.127 153.474 628.415 154.498 625.087 156.546C621.759 158.594 619.327 161.538 617.535 165.122C615.743 168.834 614.847 172.93 614.847 177.538C614.847 182.146 615.743 186.37 617.535 189.954C619.327 193.666 621.759 196.482 625.087 198.53C628.415 200.578 632.127 201.602 636.479 201.602C640.703 201.602 644.415 200.578 647.743 198.53ZM731.971 151.298C736.835 156.162 739.267 163.586 739.267 173.826V210.178H728.771V174.466C728.771 167.81 727.235 162.69 724.163 159.106C721.091 155.522 716.739 153.73 711.107 153.73C704.963 153.73 700.099 155.906 696.643 160.13C693.059 164.482 691.395 170.242 691.395 177.538V210.178H680.899V144.898H689.987L691.395 153.73C696.259 147.33 703.427 144.13 712.899 144.13C720.835 144.13 727.107 146.562 731.971 151.298ZM787.173 120.578H801.893V210.178H787.173V120.578ZM818.298 120.578H846.842C855.93 120.578 863.866 122.498 870.778 126.21C877.562 130.05 882.81 135.298 886.522 141.954C890.106 148.738 892.026 156.546 892.026 165.378C892.026 174.21 890.106 182.018 886.522 188.802C882.81 195.586 877.562 200.834 870.778 204.546C863.866 208.386 855.93 210.178 846.842 210.178H818.298V120.578ZM846.842 197.378C856.442 197.378 863.866 194.562 869.114 188.802C874.234 183.042 876.922 175.234 876.922 165.378C876.922 155.65 874.234 147.842 869.114 142.082C863.866 136.322 856.442 133.378 846.842 133.378H833.018V197.378H846.842ZM904.923 120.578H963.419V133.634H919.643V158.466H955.739V171.138H919.643V197.122H964.955V210.178H904.923V120.578Z" fill="#001A72"/>
</svg>
