<svg width="116" height="40" viewBox="0 0 116 40" fill="none" xmlns="http://www.w3.org/2000/svg">
<path d="M58.256 12.1333C59.344 12.1333 60.3187 12.36 61.1573 12.768C61.9733 13.176 62.6307 13.7653 63.084 14.536C63.5373 15.3066 63.7867 16.1906 63.7867 17.188C63.7867 18.2533 63.492 19.1826 62.948 19.976C62.3813 20.792 61.6333 21.3586 60.704 21.676L64.0587 28H61.1573L58.1427 22.2426H54.6067V28H52V12.1333H58.256ZM54.6067 19.976H58.052C58.9813 19.976 59.7293 19.7266 60.2733 19.228C60.8173 18.7293 61.112 18.0493 61.112 17.188C61.112 16.3493 60.8173 15.6693 60.2733 15.1706C59.7293 14.672 58.9813 14.4 58.052 14.4H54.6067V19.976Z" fill="#001A72"/>
<path d="M76.6256 25.8693V28H75.3336C74.5629 28 74.0189 27.8413 73.7016 27.524C73.3616 27.2066 73.2029 26.7533 73.2029 26.1413C72.3189 27.4786 71.0496 28.136 69.3722 28.136C68.0576 28.136 67.0149 27.8413 66.2442 27.2293C65.4509 26.64 65.0656 25.8013 65.0656 24.736C65.0656 23.5573 65.4736 22.628 66.3349 21.9933C67.1736 21.3586 68.3976 21.0186 70.0296 21.0186H72.9536V20.316C72.9536 19.6813 72.7269 19.16 72.2736 18.7973C71.8202 18.4346 71.1856 18.2306 70.3922 18.2306C69.6669 18.2306 69.0776 18.3893 68.6242 18.7066C68.1709 19.024 67.8989 19.432 67.8082 19.9306H65.4056C65.5189 18.7746 66.0402 17.868 66.9469 17.2333C67.8536 16.5986 69.0322 16.2586 70.5056 16.2586C72.0469 16.2586 73.2482 16.6213 74.1096 17.3466C74.9482 18.072 75.3789 19.1146 75.3789 20.4746V25.0533C75.3789 25.5973 75.6282 25.8693 76.1496 25.8693H76.6256ZM72.9536 22.832H69.9162C69.1456 22.832 68.5789 22.9906 68.1709 23.2853C67.7629 23.58 67.5589 24.0106 67.5589 24.5773C67.5589 25.076 67.7402 25.484 68.1256 25.7786C68.5109 26.096 69.0322 26.232 69.7122 26.232C70.7096 26.232 71.5029 25.96 72.0696 25.416C72.6362 24.872 72.9309 24.1466 72.9536 23.24V22.832Z" fill="#001A72"/>
<path d="M89.2243 12.1333V28H87.0937L86.799 26.2546C85.8697 27.524 84.6003 28.136 83.0137 28.136C81.9483 28.136 80.9963 27.9093 80.1803 27.4333C79.3417 26.9573 78.6843 26.2773 78.231 25.3706C77.755 24.464 77.5283 23.4213 77.5283 22.1973C77.5283 21.0186 77.755 19.9986 78.231 19.092C78.707 18.1853 79.3643 17.5053 80.203 17.0066C81.019 16.508 81.971 16.2586 83.0137 16.2586C83.8523 16.2586 84.6003 16.4173 85.235 16.7346C85.8697 17.052 86.3683 17.46 86.7763 18.004V12.1333H89.2243ZM85.8697 25.008C86.4817 24.3053 86.799 23.376 86.799 22.2426C86.799 21.0866 86.4817 20.1573 85.8697 19.432C85.235 18.7066 84.419 18.344 83.4217 18.344C82.4017 18.344 81.5857 18.7066 80.9737 19.432C80.339 20.1573 80.0443 21.064 80.0443 22.1973C80.0443 23.3533 80.339 24.2826 80.9737 25.008C81.5857 25.7333 82.4017 26.0733 83.4217 26.0733C84.419 26.0733 85.235 25.7333 85.8697 25.008Z" fill="#001A72"/>
<path d="M93.9966 27.4106C93.0899 26.912 92.4099 26.232 91.9112 25.3253C91.4126 24.4186 91.1859 23.376 91.1859 22.1973C91.1859 21.0413 91.4126 20.0213 91.9112 19.1146C92.4099 18.208 93.0899 17.5053 93.9966 17.0066C94.9032 16.508 95.9232 16.2586 97.1019 16.2586C98.2579 16.2586 99.2779 16.508 100.185 17.0066C101.091 17.5053 101.771 18.208 102.27 19.1146C102.769 20.0213 103.018 21.0413 103.018 22.1973C103.018 23.376 102.769 24.4186 102.27 25.3253C101.771 26.232 101.091 26.912 100.185 27.4106C99.2779 27.9093 98.2579 28.136 97.1019 28.136C95.9232 28.136 94.9032 27.9093 93.9966 27.4106ZM99.5725 24.9853C100.207 24.26 100.525 23.3306 100.525 22.1973C100.525 21.064 100.207 20.1573 99.5725 19.432C98.9379 18.7066 98.1219 18.344 97.1019 18.344C96.0592 18.344 95.2432 18.7066 94.6312 19.432C93.9966 20.1573 93.7019 21.064 93.7019 22.1973C93.7019 23.3306 93.9966 24.26 94.6312 24.9853C95.2432 25.7106 96.0592 26.0506 97.1019 26.0506C98.1219 26.0506 98.9379 25.7106 99.5725 24.9853Z" fill="#001A72"/>
<path d="M114.461 17.528C115.322 18.3893 115.776 19.7493 115.776 21.608V28H113.305V21.744C113.305 20.656 113.056 19.8173 112.602 19.228C112.126 18.6613 111.446 18.3666 110.54 18.3666C109.565 18.3666 108.794 18.7066 108.25 19.3866C107.706 20.0666 107.434 20.9733 107.434 22.152V28H104.986V16.3946H107.117L107.389 17.9133C108.25 16.8253 109.497 16.2586 111.106 16.2586C112.466 16.2586 113.6 16.6893 114.461 17.528Z" fill="#001A72"/>
<path d="M21.3965 20.0016C21.3965 20.7683 20.7683 21.3965 20.0016 21.3965C19.2349 21.3965 18.6035 20.7683 18.6035 20.0016C18.6035 19.2349 19.2317 18.6035 20.0016 18.6035C20.7715 18.6035 21.3965 19.2317 21.3965 20.0016ZM40 19.9984C40 31.0284 31.0284 40 20.0016 40C8.97479 40 0 31.0284 0 19.9984C0 8.96835 8.97157 0 20.0016 0C31.0317 0 40 8.97157 40 19.9984ZM6.69083 9.48055C6.72626 10.6274 7.09672 12.0641 7.76677 13.6265C8.44648 15.2243 9.40646 16.9059 10.5855 18.6003C11.713 17.1603 12.979 15.7333 14.3545 14.3577C15.73 12.9822 17.1636 11.713 18.6035 10.5855C16.9091 9.40646 15.2275 8.44971 13.6265 7.76677C12.0512 7.0935 10.6177 6.72304 9.47733 6.69083H9.31948C8.42393 6.69083 7.75711 6.90666 7.32866 7.33188C6.88411 7.77966 6.66828 8.50447 6.69083 9.48055ZM33.3092 30.5194C33.2737 29.3726 32.9033 27.9391 32.2332 26.3735C31.5471 24.7757 30.5903 23.0941 29.4113 21.3997C28.2838 22.8397 27.0178 24.27 25.6423 25.6455C24.2635 27.0242 22.8364 28.287 21.3965 29.4145C23.0909 30.5935 24.7725 31.5503 26.3735 32.2332C27.9456 32.9065 29.3823 33.2802 30.5227 33.3092C31.4988 33.3349 32.2171 33.1223 32.6681 32.6713C33.1159 32.2203 33.3317 31.4955 33.3092 30.5194ZM28.3869 20.0048C27.2369 18.494 25.9161 16.9896 24.4632 15.5368C23.0168 14.0839 21.5124 12.7631 20.0016 11.6131C18.4908 12.7664 16.9832 14.0871 15.5335 15.5368C14.0807 16.9864 12.7631 18.4908 11.6099 20.0016C12.7599 21.5124 14.0807 23.0136 15.5335 24.4665C16.9832 25.9193 18.4876 27.2369 19.9984 28.3901C21.5092 27.2369 23.0136 25.9161 24.4632 24.4665C25.9129 23.0168 27.2336 21.5157 28.3869 20.0048ZM30.5678 34.9746C30.5388 34.9779 30.5066 34.9746 30.4776 34.9746C29.1085 34.9392 27.5074 34.5333 25.7164 33.7666C22.0601 32.2042 18.0237 29.3179 14.3545 25.6455C12.979 24.27 11.713 22.8397 10.5855 21.4029C10.2215 20.9358 9.87034 20.4687 9.53531 20.0016C8.14367 18.0591 7.01941 16.1231 6.23339 14.2836C5.47314 12.5054 5.06725 10.9044 5.02537 9.52565C5.02537 9.49344 5.02537 9.46444 5.02215 9.43223C2.90892 12.4185 1.66546 16.0651 1.66546 19.9984C1.66546 23.9317 2.90892 27.5783 5.02537 30.5678V30.4808C5.0608 29.1117 5.4667 27.5107 6.23339 25.7196C6.8229 24.3408 7.59926 22.9105 8.53668 21.4641C8.87815 21.9344 9.23895 22.4048 9.61263 22.8751C8.87493 24.067 8.24998 25.2396 7.76355 26.3735C7.0935 27.9488 6.71982 29.3823 6.69083 30.5227C6.66828 31.4988 6.88089 32.2236 7.32866 32.6681C7.77966 33.1159 8.50125 33.3285 9.48055 33.3092C10.6274 33.2737 12.0609 32.9033 13.6265 32.2365C14.7669 31.7468 15.9523 31.1154 17.1539 30.3648C17.6274 30.7385 18.0978 31.0961 18.5713 31.4408C17.112 32.3879 15.6688 33.1739 14.2804 33.7666C12.5022 34.5269 10.9012 34.9328 9.52565 34.9746C9.49344 34.9779 9.46122 34.9779 9.43223 34.9779C12.4217 37.0911 16.0683 38.3345 20.0016 38.3345C23.9349 38.3345 27.5815 37.0911 30.5678 34.9746ZM34.9746 30.4776V30.5678C37.0911 27.5783 38.3345 23.9317 38.3345 19.9984C38.3345 16.0651 37.0911 12.4185 34.9746 9.43223C34.9779 9.46122 34.9746 9.49344 34.9746 9.52243C34.9392 10.8915 34.5301 12.4925 33.7666 14.2836C33.1642 15.6849 32.3685 17.1442 31.4086 18.6196C31.0671 18.1461 30.7095 17.6725 30.3358 17.2022C31.0961 15.9878 31.7371 14.7862 32.2332 13.6265C32.9065 12.0544 33.277 10.6177 33.3092 9.47733C33.3349 8.50447 33.1191 7.78288 32.6681 7.33188C32.2203 6.88411 31.502 6.6715 30.5194 6.69083C29.3726 6.72626 27.9359 7.09672 26.3735 7.76677C25.2203 8.25964 24.0283 8.89426 22.8171 9.65128C22.3468 9.2776 21.8765 8.92003 21.4029 8.57856C22.8686 7.62503 24.3215 6.83257 25.7164 6.23339C27.4946 5.47314 29.0956 5.06725 30.4743 5.02537C30.5066 5.02537 30.5388 5.02537 30.5678 5.02215C27.5815 2.90892 23.9349 1.66546 20.0016 1.66546C16.0683 1.66546 12.4217 2.90892 9.43223 5.02537C9.46122 5.02215 9.49344 5.02537 9.52243 5.02537C10.8883 5.0608 12.4893 5.46992 14.2804 6.23339C17.9399 7.79899 21.9731 10.6854 25.6423 14.3577C29.3179 18.0333 32.2042 22.0665 33.7666 25.7196C34.5269 27.4978 34.9328 29.0988 34.9746 30.4776ZM25.7453 19.9984L22.8622 15.1566H17.141L14.2579 19.9984L17.141 24.8401H22.8622L25.7453 19.9984ZM16.1939 19.9984L18.0849 16.8221H21.9119L23.8029 19.9984L21.9119 23.1747H18.0849L16.1939 19.9984Z" fill="#57B495"/>
</svg>
