<svg width="280" height="280" viewBox="0 0 280 280" fill="none" xmlns="http://www.w3.org/2000/svg">
<path d="M149.773 140.009C149.773 145.376 145.376 149.773 140.009 149.773C134.643 149.773 130.223 145.376 130.223 140.009C130.223 134.643 134.62 130.223 140.009 130.223C145.399 130.223 149.773 134.62 149.773 140.009ZM279.996 139.987C279.996 217.196 217.196 279.996 140.009 279.996C62.8227 279.996 0 217.196 0 139.987C0 62.7776 62.8001 0 140.009 0C217.219 0 279.996 62.8001 279.996 139.987ZM46.8351 66.3629C47.0832 74.3905 49.6764 84.4476 54.3666 95.384C59.1246 106.569 65.8443 118.339 74.0974 130.2C81.9897 120.121 90.8516 110.131 100.48 100.503C110.109 90.8742 120.143 81.9897 130.223 74.0974C118.362 65.8443 106.591 59.1471 95.384 54.3666C84.3574 49.6538 74.3229 47.0606 66.3404 46.8351H65.2355C58.9667 46.8351 54.299 48.346 51.2999 51.3225C48.1881 54.4568 46.6773 59.5305 46.8351 66.3629ZM233.161 213.633C232.913 205.606 230.32 195.571 225.629 184.612C220.826 173.428 214.129 161.657 205.876 149.796C197.984 159.875 189.122 169.887 179.493 179.516C169.842 189.167 159.853 198.006 149.773 205.899C161.634 214.152 173.405 220.849 184.612 225.629C195.616 230.342 205.673 232.958 213.656 233.161C220.488 233.341 225.517 231.853 228.674 228.696C231.808 225.539 233.319 220.466 233.161 213.633ZM198.705 140.032C190.655 129.456 181.41 118.926 171.24 108.756C161.116 98.5861 150.585 89.3408 140.009 81.2906C129.434 89.3633 118.881 98.6086 108.733 108.756C98.5635 118.903 89.3408 129.434 81.2681 140.009C89.3182 150.585 98.5635 161.093 108.733 171.263C118.881 181.433 129.411 190.655 139.987 198.728C150.562 190.655 161.093 181.41 171.24 171.263C181.388 161.116 190.633 150.608 198.705 140.032ZM213.971 244.819C213.768 244.842 213.543 244.819 213.34 244.819C203.757 244.571 192.549 241.73 180.012 236.363C154.418 225.427 126.164 205.222 100.48 179.516C90.8516 169.887 81.9897 159.875 74.0974 149.818C71.5493 146.549 69.0914 143.279 66.7463 140.009C57.0049 126.412 49.1352 112.86 43.6331 99.9841C38.3115 87.5368 35.4702 76.3298 35.1771 66.6786C35.1771 66.4531 35.1771 66.2502 35.1545 66.0247C20.3621 86.928 11.658 112.454 11.658 139.987C11.658 167.52 20.3621 193.046 35.1771 213.971V213.363C35.4251 203.779 38.2664 192.572 43.6331 180.035C47.7597 170.383 53.1941 160.371 59.756 150.247C62.1462 153.539 64.6717 156.831 67.2875 160.123C62.1236 168.467 57.7491 176.675 54.3441 184.612C49.6538 195.639 47.0381 205.673 46.8351 213.656C46.6773 220.488 48.1656 225.562 51.2999 228.674C54.4568 231.808 59.5079 233.296 66.3629 233.161C74.3905 232.913 84.425 230.32 95.384 225.652C103.367 222.225 111.665 217.805 120.076 212.551C123.39 215.167 126.683 217.67 129.997 220.082C119.783 226.712 109.68 232.214 99.9616 236.363C87.5143 241.685 76.3072 244.526 66.6786 244.819C66.4531 244.842 66.2276 244.842 66.0247 244.842C86.9506 259.634 112.476 268.338 140.009 268.338C167.542 268.338 193.068 259.634 213.971 244.819ZM244.819 213.34V213.971C259.634 193.046 268.338 167.52 268.338 139.987C268.338 112.454 259.634 86.928 244.819 66.0247C244.842 66.2276 244.819 66.4531 244.819 66.6561C244.571 76.2396 241.707 87.4466 236.363 99.9841C232.146 109.793 226.577 120.008 219.857 130.336C217.467 127.021 214.964 123.706 212.348 120.414C217.67 111.913 222.157 103.502 225.629 95.384C230.342 84.3799 232.935 74.3229 233.161 66.3404C233.341 59.5305 231.831 54.4794 228.674 51.3225C225.539 48.1881 220.511 46.6998 213.633 46.8351C205.606 47.0832 195.549 49.6764 184.612 54.3666C176.539 57.8167 168.196 62.2589 159.718 67.5581C156.425 64.9423 153.133 62.4393 149.818 60.0491C160.078 53.3745 170.248 47.8273 180.012 43.6331C192.459 38.3115 203.666 35.4702 213.317 35.1771C213.543 35.1771 213.768 35.1771 213.971 35.1545C193.068 20.3621 167.542 11.658 140.009 11.658C112.476 11.658 86.9506 20.3621 66.0247 35.1771C66.2276 35.1545 66.4531 35.1771 66.6561 35.1771C76.217 35.4251 87.4241 38.2889 99.9616 43.6331C125.578 54.5921 153.81 74.7964 179.493 100.503C205.222 126.232 225.427 154.464 236.363 180.035C241.685 192.482 244.526 203.689 244.819 213.34ZM180.215 139.987L160.033 106.095H119.985L99.8037 139.987L119.985 173.879H160.033L180.215 139.987ZM113.356 139.987L126.592 117.753H153.381L166.618 139.987L153.381 162.221H126.592L113.356 139.987Z" fill="#001A72"/>
</svg>
