<svg width="964" height="319" viewBox="0 0 964 319" fill="none" xmlns="http://www.w3.org/2000/svg">
<path d="M170.293 159.191C170.293 165.293 165.293 170.293 159.191 170.293C153.089 170.293 148.064 165.293 148.064 159.191C148.064 153.089 153.063 148.064 159.191 148.064C165.319 148.064 170.293 153.063 170.293 159.191ZM318.357 159.165C318.357 246.953 246.953 318.357 159.191 318.357C71.4296 318.357 0 246.953 0 159.165C0 71.3783 71.404 0 159.191 0C246.978 0 318.357 71.404 318.357 159.165ZM53.2517 75.4549C53.5337 84.5823 56.4822 96.0172 61.8151 108.452C67.2248 121.169 74.8652 134.552 84.249 148.038C93.2225 136.578 103.299 125.22 114.246 114.272C125.194 103.324 136.603 93.2225 148.064 84.249C134.578 74.8652 121.194 67.2505 108.452 61.8151C95.9146 56.4566 84.5054 53.5081 75.4292 53.2517H74.1729C67.0454 53.2517 61.7381 54.9695 58.3282 58.3538C54.79 61.9176 53.0722 67.6863 53.2517 75.4549ZM265.105 242.902C264.823 233.774 261.874 222.365 256.541 209.905C251.08 197.188 243.466 183.804 234.082 170.318C225.108 181.779 215.032 193.162 204.085 204.11C193.111 215.084 181.753 225.134 170.293 234.108C183.779 243.491 197.162 251.106 209.905 256.541C222.416 261.9 233.851 264.874 242.927 265.105C250.696 265.31 256.413 263.618 260.003 260.028C263.566 256.439 265.284 250.67 265.105 242.902ZM225.929 159.217C216.776 147.192 206.264 135.219 194.701 123.656C183.189 112.093 171.216 101.581 159.191 92.4277C147.167 101.606 135.168 112.118 123.63 123.656C112.067 135.193 101.581 147.167 92.4021 159.191C101.555 171.216 112.067 183.163 123.63 194.726C135.168 206.289 147.141 216.776 159.165 225.954C171.19 216.776 183.163 206.264 194.701 194.726C206.238 183.189 216.75 171.241 225.929 159.217ZM243.286 278.36C243.055 278.386 242.799 278.36 242.568 278.36C231.672 278.078 218.929 274.848 204.674 268.746C175.574 256.311 143.449 233.338 114.246 204.11C103.299 193.162 93.2225 181.779 84.249 170.344C81.3518 166.626 78.5572 162.909 75.8907 159.191C64.8148 143.731 55.8669 128.322 49.611 113.682C43.5603 99.5297 40.3298 86.7872 39.9965 75.8138C39.9965 75.5574 39.9965 75.3267 39.9708 75.0703C23.1518 98.8374 13.2552 127.861 13.2552 159.165C13.2552 190.47 23.1518 219.493 39.9965 243.286V242.594C40.2785 231.698 43.509 218.955 49.611 204.7C54.3029 193.726 60.4818 182.343 67.9427 170.831C70.6604 174.574 73.532 178.318 76.5061 182.061C70.6348 191.547 65.6609 200.88 61.7894 209.905C56.4566 222.442 53.4825 233.851 53.2517 242.927C53.0722 250.696 54.7644 256.465 58.3282 260.003C61.9176 263.566 67.6607 265.259 75.4549 265.105C84.5823 264.823 95.9915 261.874 108.452 256.567C117.528 252.67 126.963 247.645 136.526 241.671C140.295 244.645 144.039 247.491 147.807 250.234C136.193 257.772 124.707 264.028 113.657 268.746C99.5041 274.796 86.7616 278.027 75.8138 278.36C75.5574 278.386 75.301 278.386 75.0703 278.386C98.8631 295.205 127.886 305.101 159.191 305.101C190.496 305.101 219.519 295.205 243.286 278.36ZM278.36 242.568V243.286C295.205 219.493 305.101 190.47 305.101 159.165C305.101 127.861 295.205 98.8374 278.36 75.0703C278.386 75.301 278.36 75.5574 278.36 75.7882C278.078 86.6847 274.822 99.4271 268.746 113.682C263.951 124.835 257.618 136.449 249.978 148.192C247.26 144.423 244.414 140.654 241.44 136.911C247.491 127.245 252.593 117.682 256.541 108.452C261.9 95.9403 264.848 84.5054 265.105 75.4292C265.31 67.6863 263.592 61.9433 260.003 58.3538C256.439 54.79 250.721 53.0979 242.902 53.2517C233.774 53.5337 222.339 56.4822 209.905 61.8151C200.726 65.7378 191.24 70.7886 181.599 76.8137C177.856 73.8396 174.113 70.9937 170.344 68.276C182.01 60.687 193.573 54.3798 204.674 49.611C218.827 43.5603 231.569 40.3298 242.543 39.9965C242.799 39.9965 243.055 39.9965 243.286 39.9708C219.519 23.1518 190.496 13.2552 159.191 13.2552C127.886 13.2552 98.8631 23.1518 75.0703 39.9965C75.301 39.9708 75.5574 39.9965 75.7882 39.9965C86.659 40.2785 99.4015 43.5346 113.657 49.611C142.782 62.0714 174.882 85.0438 204.085 114.272C233.338 143.526 256.311 175.626 268.746 204.7C274.796 218.852 278.027 231.595 278.36 242.568ZM204.905 159.165L181.958 120.63H136.424L113.477 159.165L136.424 197.701H181.958L204.905 159.165ZM128.886 159.165L143.936 133.886H174.395L189.445 159.165L174.395 184.445H143.936L128.886 159.165Z" fill="#001A72"/>
<path d="M407.785 59.546C412.502 59.546 416.604 60.469 420.296 62.315C423.886 64.161 426.655 66.7249 428.706 70.0066C430.654 73.2884 431.68 77.1855 431.68 81.5953C431.68 86.6205 430.244 90.9279 427.475 94.6198C424.706 98.3118 421.014 100.773 416.399 102.004L432.5 131.335H422.45L407.58 103.747H389.222V131.335H380.3V59.546H407.785ZM389.222 95.5428H407.067C411.784 95.5428 415.476 94.3122 418.348 91.7483C421.117 89.287 422.553 85.9027 422.553 81.5953C422.553 77.4931 421.117 74.1088 418.348 71.545C415.476 69.0836 411.784 67.7504 407.169 67.7504H389.222V95.5428Z" fill="#001A72"/>
<path d="M442.342 91.133C444.393 87.1333 447.367 84.0567 451.161 81.8005C454.853 79.5442 459.161 78.4161 464.083 78.4161C468.801 78.4161 473.108 79.4417 476.8 81.3902C480.492 83.4413 483.364 86.3129 485.517 90.0049C487.568 93.7994 488.697 98.2093 488.902 103.234C488.902 104.055 488.799 105.183 488.697 106.824H448.085V107.542C448.187 112.67 449.726 116.772 452.802 119.848C455.776 122.925 459.673 124.463 464.596 124.463C468.288 124.463 471.467 123.54 474.134 121.694C476.8 119.848 478.544 117.182 479.467 113.798H487.979C486.953 119.13 484.389 123.54 480.287 126.925C476.185 130.309 471.16 131.95 465.211 131.95C459.981 131.95 455.469 130.924 451.572 128.668C447.675 126.412 444.598 123.335 442.444 119.233C440.291 115.131 439.265 110.516 439.265 105.183C439.265 99.8501 440.291 95.2352 442.342 91.133ZM480.185 99.8501C479.774 95.4403 478.031 91.9534 475.159 89.4921C472.288 87.0308 468.596 85.8001 464.186 85.8001C460.186 85.8001 456.699 87.1333 453.725 89.6972C450.649 92.3636 449.008 95.7479 448.598 99.8501H480.185Z" fill="#001A72"/>
<path d="M549.468 123.643V131.335H544.853C541.468 131.335 539.11 130.719 537.674 129.283C536.238 127.95 535.418 125.899 535.418 123.233C531.315 129.078 525.47 131.95 517.881 131.95C512.035 131.95 507.318 130.617 503.831 127.848C500.344 125.181 498.6 121.387 498.6 116.669C498.6 111.439 500.344 107.439 503.933 104.568C507.523 101.799 512.753 100.363 519.624 100.363H535.007V96.7735C535.007 93.3892 533.777 90.7227 531.521 88.7742C529.264 86.9282 526.085 85.9027 521.983 85.9027C518.291 85.9027 515.317 86.7231 512.958 88.364C510.599 90.0049 509.164 92.056 508.651 94.7224H500.241C500.857 89.5946 503.113 85.595 507.01 82.7235C510.907 79.8519 516.035 78.4161 522.393 78.4161C529.059 78.4161 534.187 80.057 537.879 83.3388C541.571 86.6205 543.417 91.2355 543.417 97.2863V119.848C543.417 122.412 544.545 123.643 546.904 123.643H549.468ZM535.007 107.439H518.804C511.009 107.439 507.112 110.413 507.112 116.156C507.112 118.823 508.138 120.874 510.189 122.412C512.24 124.053 515.009 124.771 518.496 124.771C523.624 124.771 527.623 123.438 530.598 120.771C533.469 118.105 535.007 114.516 535.007 110.003V107.439Z" fill="#001A72"/>
<path d="M596.955 127.027C592.852 130.309 587.725 131.95 581.571 131.95C576.444 131.95 572.034 130.822 568.239 128.566C564.342 126.309 561.368 123.233 559.317 119.13C557.163 115.028 556.138 110.413 556.138 105.08C556.138 99.8502 557.163 95.2352 559.317 91.133C561.471 87.1333 564.547 84.0567 568.444 81.8005C572.341 79.5442 576.751 78.4161 581.879 78.4161C588.032 78.4161 593.058 80.057 597.057 83.3388C601.057 86.6205 603.621 91.133 604.646 96.8761H596.134C595.314 93.5943 593.57 90.9279 591.006 88.8768C588.34 86.9282 585.263 85.9027 581.571 85.9027C576.546 85.9027 572.444 87.7487 569.367 91.2355C566.291 94.825 564.752 99.4399 564.752 105.08C564.752 110.824 566.291 115.541 569.367 119.13C572.444 122.72 576.546 124.463 581.571 124.463C585.366 124.463 588.545 123.54 591.212 121.489C593.775 119.541 595.416 116.772 596.237 113.285H604.646C603.518 119.13 600.954 123.745 596.955 127.027Z" fill="#001A72"/>
<path d="M619.907 86.7231H610.472V79.0315H619.907V64.3661H628.316V79.0315H641.546V86.7231H628.316V117.592C628.316 119.848 628.727 121.387 629.547 122.31C630.368 123.233 631.906 123.643 634.06 123.643H643.187V131.335H633.547C628.624 131.335 625.035 130.309 622.984 128.053C620.932 125.899 619.907 122.412 619.907 117.695V86.7231Z" fill="#001A72"/>
<path d="M681.343 131.335V59.546H689.547L728.108 114.926V59.546H736.825V131.335H728.621L690.06 75.9548V131.335H681.343Z" fill="#001A72"/>
<path d="M800.487 123.643V131.335H795.872C792.488 131.335 790.129 130.719 788.693 129.283C787.258 127.95 786.437 125.899 786.437 123.233C782.335 129.078 776.489 131.95 768.9 131.95C763.055 131.95 758.337 130.617 754.85 127.848C751.363 125.181 749.62 121.387 749.62 116.669C749.62 111.439 751.363 107.439 754.953 104.568C758.542 101.799 763.772 100.363 770.644 100.363H786.027V96.7735C786.027 93.3892 784.796 90.7227 782.54 88.7742C780.284 86.9282 777.105 85.9027 773.002 85.9027C769.31 85.9027 766.336 86.7231 763.978 88.364C761.619 90.0049 760.183 92.056 759.67 94.7224H751.261C751.876 89.5946 754.132 85.595 758.029 82.7235C761.927 79.8519 767.054 78.4161 773.413 78.4161C780.079 78.4161 785.207 80.057 788.898 83.3388C792.59 86.6205 794.436 91.2355 794.436 97.2863V119.848C794.436 122.412 795.565 123.643 797.923 123.643H800.487ZM786.027 107.439H769.823C762.029 107.439 758.132 110.413 758.132 116.156C758.132 118.823 759.158 120.874 761.209 122.412C763.26 124.053 766.029 124.771 769.516 124.771C774.643 124.771 778.643 123.438 781.617 120.771C784.489 118.105 786.027 114.516 786.027 110.003V107.439Z" fill="#001A72"/>
<path d="M812.49 86.7231H803.055V79.0315H812.49V64.3661H820.9V79.0315H834.129V86.7231H820.9V117.592C820.9 119.848 821.31 121.387 822.13 122.31C822.951 123.233 824.489 123.643 826.643 123.643H835.77V131.335H826.13C821.207 131.335 817.618 130.309 815.567 128.053C813.516 125.899 812.49 122.412 812.49 117.695V86.7231Z" fill="#001A72"/>
<path d="M851.906 60.3664C852.931 61.392 853.444 62.7252 853.444 64.2635C853.444 65.9044 852.931 67.1351 851.906 68.1606C850.88 69.1862 849.547 69.699 848.009 69.699C846.368 69.699 845.137 69.1862 844.112 68.1606C843.086 67.1351 842.573 65.9044 842.573 64.2635C842.573 62.7252 843.086 61.392 844.112 60.3664C845.137 59.3409 846.368 58.8281 848.009 58.8281C849.547 58.8281 850.88 59.3409 851.906 60.3664ZM843.804 79.0315H852.213V131.335H843.804V79.0315Z" fill="#001A72"/>
<path d="M860.555 79.0315H869.58L885.373 121.797L901.064 79.0315H909.884L890.296 131.335H880.143L860.555 79.0315Z" fill="#001A72"/>
<path d="M917.44 91.133C919.491 87.1333 922.465 84.0567 926.26 81.8005C929.952 79.5442 934.259 78.4161 939.182 78.4161C943.899 78.4161 948.207 79.4417 951.899 81.3902C955.591 83.4413 958.462 86.3129 960.616 90.0049C962.667 93.7994 963.795 98.2093 964 103.234C964 104.055 963.898 105.183 963.795 106.824H923.183V107.542C923.286 112.67 924.824 116.772 927.901 119.848C930.875 122.925 934.772 124.463 939.694 124.463C943.386 124.463 946.566 123.54 949.232 121.694C951.899 119.848 953.642 117.182 954.565 113.798H963.077C962.052 119.13 959.488 123.54 955.385 126.925C951.283 130.309 946.258 131.95 940.31 131.95C935.08 131.95 930.567 130.924 926.67 128.668C922.773 126.412 919.696 123.335 917.543 119.233C915.389 115.131 914.363 110.516 914.363 105.183C914.363 99.8501 915.389 95.2352 917.44 91.133ZM955.283 99.8501C954.873 95.4403 953.129 91.9534 950.258 89.4921C947.386 87.0308 943.694 85.8001 939.284 85.8001C935.285 85.8001 931.798 87.1333 928.824 89.6972C925.747 92.3636 924.106 95.7479 923.696 99.8501H955.283Z" fill="#001A72"/>
<path d="M379.89 187.74H391.683V259.528H379.89V187.74Z" fill="#001A72"/>
<path d="M406.878 187.74H429.748C437.03 187.74 443.388 189.278 448.926 192.252C454.361 195.329 458.566 199.534 461.54 204.867C464.412 210.302 465.95 216.558 465.95 223.634C465.95 230.71 464.412 236.966 461.54 242.402C458.566 247.837 454.361 252.042 448.926 255.016C443.388 258.093 437.03 259.528 429.748 259.528H406.878V187.74ZM429.748 249.273C437.44 249.273 443.388 247.017 447.593 242.402C451.695 237.787 453.849 231.531 453.849 223.634C453.849 215.84 451.695 209.584 447.593 204.969C443.388 200.354 437.44 197.995 429.748 197.995H418.672V249.273H429.748Z" fill="#001A72"/>
<path d="M478.334 187.74H525.202V198.2H490.128V218.096H519.049V228.249H490.128V249.068H526.433V259.528H478.334V187.74Z" fill="#001A72"/>
</svg>
