<svg width="79" height="40" viewBox="0 0 79 40" fill="none" xmlns="http://www.w3.org/2000/svg">
<path fill-rule="evenodd" clip-rule="evenodd" d="M0 0H70.0064L79 8.98919V40H8.95887L0 31.0455V0ZM1.03856 1.77563V30.6155L8.65471 38.228V9.41856L1.03856 1.77563ZM1.76941 1.03807L9.38966 8.68514H77.2272L69.5764 1.03807H1.76941ZM77.9614 38.9619H9.69327V9.7232H77.9614V38.9619Z" fill="#001A72"/>
<path d="M21.9481 21.2803C21.9481 22.3183 21.2558 23.218 19.5941 23.218C18.8671 23.218 18.2786 23.045 17.7593 22.8374V21.3841C18.3132 21.6609 18.9709 21.8339 19.5595 21.8339C20.1134 21.8339 20.3903 21.6609 20.3903 21.3495C20.3903 20.3806 17.7593 20.692 17.7593 18.7197C17.7593 17.5086 18.7286 16.782 20.0787 16.782C20.6326 16.782 21.1519 16.9204 21.7058 17.2318V18.7197C20.9788 18.2699 20.4595 18.1315 20.0441 18.1315C19.5595 18.1315 19.2825 18.3045 19.2825 18.6159C19.2825 19.5502 21.9481 19.1695 21.9481 21.2803Z" fill="#001A72"/>
<path d="M23.2983 20C23.2983 18.2353 24.7523 16.782 26.5179 16.782C28.2834 16.782 29.7374 18.2353 29.7374 20C29.7374 21.7647 28.2834 23.218 26.5179 23.218C24.7177 23.1834 23.2983 21.7647 23.2983 20ZM28.145 20C28.145 19.0311 27.418 18.3045 26.5179 18.3045C25.6178 18.3045 24.8562 19.0311 24.8562 20C24.8562 20.9688 25.5832 21.6955 26.4833 21.6955C27.3834 21.6955 28.145 20.9688 28.145 20Z" fill="#001A72"/>
<path d="M33.3041 16.4015V16.9206H35.3466L34.6542 18.3738H33.3387V23.0797H31.8501V18.3738H30.8115V16.9206H31.8501V16.3323C31.8501 14.4638 32.8194 13.5295 34.3426 13.5295C34.7234 13.5295 35.0696 13.5987 35.3812 13.6679V15.1212C35.1042 15.0174 34.7927 14.9828 34.4811 14.9828C33.6503 14.9482 33.3041 15.5019 33.3041 16.4015Z" fill="#001A72"/>
<path d="M38.4614 18.3739V20.8307C38.4614 21.4881 38.8423 21.7649 39.4308 21.7649C39.8116 21.7649 40.1924 21.6611 40.504 21.4535V22.9414C40.0885 23.1144 39.7077 23.2182 39.1538 23.2182C37.8037 23.2182 36.9728 22.4916 36.9728 21.0037V18.3739H36.0728V16.9206H36.9728V15.3635L38.4614 14.9829V16.9552H40.504V18.4085H38.4614V18.3739Z" fill="#001A72"/>
<path d="M51.2699 16.9204L49.2966 23.0796H47.808L46.4579 18.8581L45.0732 23.0796H43.5499L41.5767 16.9204H43.273L44.3808 21.0381L45.6963 16.9204H47.1849L48.5004 21.0381L49.6082 16.9204H51.2699Z" fill="#001A72"/>
<path d="M52.0669 20C52.0669 18.2353 53.3478 16.782 55.1133 16.782C55.8057 16.782 56.3596 16.9896 56.775 17.3356V16.9204H58.2636V23.0796H56.8097V22.5951C56.3942 22.9758 55.8057 23.218 55.0787 23.218C53.3478 23.1834 52.0669 21.7647 52.0669 20ZM56.9135 20C56.9135 19.0311 56.1865 18.3045 55.2864 18.3045C54.3863 18.3045 53.6594 19.0311 53.6594 20C53.6594 20.9688 54.3863 21.6955 55.2864 21.6955C56.1519 21.6955 56.9135 20.9688 56.9135 20Z" fill="#001A72"/>
<path d="M60.3398 16.9205H61.7938V17.7855C62.2439 16.9551 63.0747 16.8167 63.8017 16.8167V18.5814C62.7632 18.3045 61.8285 18.8928 61.8285 20.2077V23.0796H60.3398V16.9205Z" fill="#001A72"/>
<path d="M68.5108 21.7647C69.0993 21.7647 69.7916 21.6609 70.484 21.3841L69.7224 22.9412C69.3762 23.0796 68.8569 23.218 68.2338 23.218C66.0528 23.218 64.7373 21.8685 64.7373 20C64.7373 18.2353 66.0528 16.782 67.9568 16.782C69.2377 16.782 70.2763 17.4394 70.6917 18.2699V20.4844H66.3298C66.5721 21.2457 67.2645 21.7647 68.5108 21.7647ZM66.3298 19.3425H69.5493C69.3416 18.6159 68.7185 18.1661 67.9222 18.1661C67.126 18.1661 66.5375 18.6505 66.3298 19.3425Z" fill="#001A72"/>
<path d="M26.3801 28.27V32.3184H24.8915V28.5122C24.8915 27.8547 24.4068 27.4741 23.9222 27.4741C23.4029 27.4741 22.9528 27.8547 22.9528 28.5122V32.3184H21.4642V28.5122C21.4642 27.8547 20.9796 27.4741 20.4949 27.4741C19.9756 27.4741 19.5256 27.8547 19.5256 28.5122V32.3184H17.9331V26.1938H19.3871V26.6437C19.8371 26.1938 20.2872 26.0554 20.8757 26.0554C21.5335 26.0554 22.0874 26.3322 22.4682 26.8513C22.9874 26.2976 23.6106 26.0554 24.3376 26.0554C25.48 26.0554 26.3801 26.9551 26.3801 28.27Z" fill="#001A72"/>
<path d="M27.9722 29.2387C27.9722 27.474 29.2531 26.0208 31.0186 26.0208C31.711 26.0208 32.2649 26.2284 32.6803 26.5744V26.1592H34.1689V32.3183H32.7149V31.8339C32.2995 32.2145 31.711 32.4567 30.984 32.4567C29.2531 32.4567 27.9722 31.0035 27.9722 29.2387ZM32.8188 29.2387C32.8188 28.2699 32.0918 27.5432 31.1917 27.5432C30.2916 27.5432 29.5646 28.2699 29.5646 29.2387C29.5646 30.2076 30.2916 30.9343 31.1917 30.9343C32.0572 30.9689 32.8188 30.2076 32.8188 29.2387Z" fill="#001A72"/>
<path d="M36.1772 26.1938H37.6312V26.6437C38.0813 26.1938 38.6698 26.0554 39.2583 26.0554C40.5392 26.0554 41.5778 27.0243 41.5778 28.3392V32.3184H40.0892V28.6506C40.0892 27.9931 39.5699 27.4741 38.9121 27.4741C38.2544 27.4741 37.7351 27.9931 37.7351 28.6506V32.3184H36.2465V26.1938H36.1772Z" fill="#001A72"/>
<path d="M47.5663 30.519C47.5663 31.5571 46.8739 32.4567 45.2122 32.4567C44.4852 32.4567 43.8967 32.2837 43.3774 32.0761V30.6228C43.9313 30.8997 44.5891 31.0727 45.1776 31.0727C45.7315 31.0727 46.0085 30.8997 46.0085 30.5882C46.0085 29.6194 43.3774 29.9308 43.3774 27.9585C43.3774 26.7474 44.3468 26.0208 45.6969 26.0208C46.2508 26.0208 46.7701 26.1592 47.324 26.4706V27.9585C46.597 27.5086 46.0777 27.3702 45.6623 27.3702C45.1776 27.3702 44.9007 27.5432 44.9007 27.8547C44.866 28.7889 47.5663 28.4429 47.5663 30.519Z" fill="#001A72"/>
<path d="M50.7855 26.1941V32.3533H49.2969V26.1941H50.7855Z" fill="#001A72"/>
<path d="M52.3438 29.2387C52.3438 27.474 53.7977 26.0208 55.5633 26.0208C57.3289 26.0208 58.7828 27.474 58.7828 29.2387C58.7828 31.0035 57.3289 32.4567 55.5633 32.4567C53.7977 32.4567 52.3438 31.0035 52.3438 29.2387ZM57.1904 29.2387C57.1904 28.2699 56.4634 27.5432 55.5633 27.5432C54.6632 27.5432 53.9362 28.2699 53.9362 29.2387C53.9362 30.2076 54.6632 30.9343 55.5633 30.9343C56.4634 30.9343 57.1904 30.2076 57.1904 29.2387Z" fill="#001A72"/>
<path d="M60.3398 26.1938H61.7938V26.6437C62.2439 26.1938 62.8324 26.0554 63.4209 26.0554C64.7018 26.0554 65.7404 27.0243 65.7404 28.3392V32.3184H64.2518V28.6506C64.2518 27.9931 63.7325 27.4741 63.0747 27.4741C62.417 27.4741 61.8977 27.9931 61.8977 28.6506V32.3184H60.4091V26.1938H60.3398Z" fill="#001A72"/>
<path d="M68.649 30.623V30.8653H68.1297V32.3186H67.8528V30.8653H67.3335V30.623H68.649Z" fill="#001A72"/>
<path d="M69.2373 30.623L69.7912 31.9725L70.3105 30.623H70.6567V32.3186H70.3797V31.0729L69.8604 32.3186H69.6181L69.1681 31.0729V32.3186H68.8911V30.623H69.2373Z" fill="#001A72"/>
</svg>
