<svg width="86" height="36" viewBox="0 0 86 36" fill="none" xmlns="http://www.w3.org/2000/svg">
<path fill-rule="evenodd" clip-rule="evenodd" d="M8.50551 11.2607C7.204 6.02349 7.62373 1.86119 9.99976 0.476537C12.3791 -0.91003 16.1673 0.81085 20.0154 4.57798C23.8349 0.867463 27.5856 -0.818703 29.9477 0.557847C32.3101 1.93456 32.7386 6.05714 31.4642 11.252C36.6255 12.732 40 15.1842 40 17.959C40 20.7284 36.6384 23.1765 31.4939 24.6574C32.7956 29.8949 32.3759 34.0574 29.9998 35.4422C27.6269 36.825 23.8527 35.1171 20.0152 31.3712C16.1493 35.1736 12.3377 36.9163 9.94774 35.5235C7.55803 34.1308 7.1472 29.9285 8.47614 24.6487C3.34852 23.167 0 20.723 0 17.959C0 15.1896 3.36131 12.7416 8.50551 11.2607ZM9.79413 10.9192C9.56765 10.0059 9.39694 9.13095 9.28287 8.30453C9.02738 6.45371 9.06571 4.9164 9.34613 3.7628C9.6254 2.61392 10.1099 1.96423 10.6655 1.64044C11.2211 1.31666 12.0208 1.21798 13.1462 1.5483C14.2761 1.87997 15.6143 2.61512 17.0745 3.76386C17.7308 4.28014 18.4006 4.87115 19.0753 5.53091C17.8471 6.82779 16.623 8.32494 15.4467 9.98791C13.428 10.1802 11.5266 10.4977 9.79413 10.9192ZM20.9498 30.4128C21.6159 31.0625 22.277 31.6451 22.925 32.1548C24.3852 33.3036 25.7234 34.0387 26.8534 34.3704C27.9787 34.7007 28.7784 34.602 29.334 34.2782C29.8896 33.9545 30.3741 33.3048 30.6534 32.1559C30.9338 31.0023 30.9722 29.465 30.7167 27.6142C30.6026 26.7875 30.4318 25.9124 30.2052 24.9989C28.4761 25.4195 26.5788 25.7365 24.5646 25.9289C23.3942 27.5989 22.1748 29.1049 20.9498 30.4128ZM31.1429 23.3612C32.0393 23.1026 32.8751 22.8144 33.6409 22.5011C35.3564 21.7991 36.6561 20.997 37.5056 20.1752C38.3515 19.3567 38.6673 18.6079 38.6673 17.959C38.6673 17.31 38.3515 16.5612 37.5056 15.7427C36.6561 14.9209 35.3564 14.1188 33.6409 13.4169C32.8677 13.1004 32.0232 12.8097 31.1169 12.5493C30.6189 14.2691 29.9474 16.0853 29.1102 17.9425C29.9571 19.8075 30.6372 21.6323 31.1429 23.3612ZM28.354 19.5394C28.9618 20.9742 29.4624 22.3713 29.8535 23.7023C28.5201 24.0249 27.0759 24.2853 25.5462 24.4713C26.033 23.719 26.5086 22.9386 26.9696 22.1327C27.465 21.2665 27.9268 20.4003 28.354 19.5394ZM28.3497 16.3475C28.9494 14.9206 29.4427 13.5318 29.8273 12.2093C28.5009 11.8895 27.065 11.6313 25.5449 11.4465C26.0503 12.224 26.5438 13.032 27.0216 13.8673C27.4953 14.6956 27.9383 15.5238 28.3497 16.3475ZM23.8227 11.272C24.5259 12.2999 25.2112 13.3917 25.8678 14.5397C26.5212 15.682 27.1126 16.8213 27.641 17.9445C27.0995 19.1036 26.4907 20.2803 25.8158 21.4603C25.1767 22.5777 24.5104 23.6417 23.827 24.6456C22.5932 24.7463 21.3136 24.7995 20 24.7995C18.6876 24.7995 17.409 24.7464 16.1762 24.6458C15.4733 23.6181 14.7882 22.5267 14.1317 21.379C13.4726 20.2267 12.8766 19.0775 12.3447 17.9448C12.8633 16.8478 13.442 15.7359 14.0797 14.621C14.7537 13.4426 15.458 12.3234 16.1807 11.2717C17.4121 11.1714 18.6892 11.1184 20 11.1184C21.3121 11.1184 22.5903 11.1715 23.8227 11.272ZM24.5585 9.98841C26.5634 10.1797 28.4525 10.4943 30.1752 10.9117C30.3909 10.0305 30.5543 9.18546 30.6646 8.38584C30.9201 6.53502 30.8818 4.99771 30.6014 3.84411C30.3221 2.69523 29.8376 2.04554 29.282 1.72175C28.7264 1.39797 27.9267 1.29929 26.8014 1.62961C25.6714 1.96128 24.3332 2.69643 22.873 3.84517C22.2426 4.34105 21.5998 4.90587 20.9522 5.53433C22.1736 6.83292 23.3901 8.32892 24.5585 9.98841ZM20.012 6.48792C20.9513 7.48884 21.8925 8.61659 22.8128 9.85518C21.8938 9.80224 20.9547 9.77487 20 9.77487C19.0482 9.77487 18.112 9.80208 17.1956 9.85469C18.1215 8.61469 19.0681 7.48703 20.012 6.48792ZM10.8742 17.9428C10.0248 19.804 9.34109 21.626 8.83079 23.3536C7.9443 23.097 7.1174 22.8114 6.35907 22.5011C4.6436 21.7991 3.34394 20.997 2.49444 20.1752C1.6485 19.3567 1.33268 18.6079 1.33268 17.959C1.33268 17.31 1.6485 16.5612 2.49444 15.7427C3.34394 14.9209 4.6436 14.1188 6.35907 13.4169C7.12473 13.1035 7.96028 12.8154 8.85651 12.5569C9.35918 14.2756 10.0343 16.0892 10.8742 17.9428ZM11.635 16.3545C11.0319 14.9282 10.5347 13.5392 10.1458 12.2158C11.4799 11.893 12.925 11.6324 14.4557 11.4464C13.9317 12.2489 13.4204 13.0841 12.9259 13.9486C12.4664 14.752 12.0359 15.5553 11.635 16.3545ZM11.6307 19.533C12.0476 20.3692 12.4969 21.2103 12.9779 22.0514C13.4556 22.8864 13.9489 23.694 14.4541 24.4713C12.9141 24.2841 11.4607 24.0215 10.1199 23.6959C10.5152 22.3641 11.0196 20.967 11.6307 19.533ZM15.4404 25.9294C13.4125 25.7359 11.5031 25.4161 9.76441 24.9915C9.5268 25.937 9.34864 26.8421 9.23084 27.6955C8.97536 29.5463 9.01369 31.0836 9.2941 32.2372C9.57338 33.3861 10.0579 34.0358 10.6135 34.3596C11.1691 34.6833 11.9688 34.782 13.0941 34.4517C14.2241 34.12 15.5623 33.3849 17.0225 32.2361C17.6963 31.7061 18.3843 31.0973 19.0773 30.4161C17.8456 29.11 16.6185 27.6028 15.4404 25.9294ZM17.1861 26.0627C18.1145 27.3123 19.0643 28.4491 20.0119 29.4567C20.9548 28.4473 21.8992 27.3104 22.822 26.0622C21.9001 26.1155 20.9579 26.143 20 26.143C19.0449 26.143 18.1055 26.1156 17.1861 26.0627Z" fill="#33488E"/>
<path d="M21.25 17.9997C21.25 18.6957 20.6904 19.26 20 19.26C19.3096 19.26 18.75 18.6957 18.75 17.9997C18.75 17.3038 19.3096 16.7395 20 16.7395C20.6904 16.7395 21.25 17.3038 21.25 17.9997Z" fill="#33488E"/>
<path d="M44 7.5H47.5913V28.5H44V7.5Z" fill="#001A72"/>
<path d="M50.9066 7.5H57.8706C60.0878 7.5 62.024 7.95 63.7104 8.82C65.3655 9.72 66.6458 10.95 67.5515 12.51C68.4259 14.1 68.8943 15.93 68.8943 18C68.8943 20.07 68.4259 21.9 67.5515 23.49C66.6458 25.08 65.3655 26.31 63.7104 27.18C62.024 28.08 60.0878 28.5 57.8706 28.5H50.9066V7.5ZM57.8706 25.5C60.2128 25.5 62.024 24.84 63.3044 23.49C64.5535 22.14 65.2093 20.31 65.2093 18C65.2093 15.72 64.5535 13.89 63.3044 12.54C62.024 11.19 60.2128 10.5 57.8706 10.5H54.4979V25.5H57.8706Z" fill="#001A72"/>
<path d="M71.3538 7.5H85.6253V10.56H74.9451V16.38H83.7515V19.35H74.9451V25.44H86V28.5H71.3538V7.5Z" fill="#001A72"/>
</svg>
