<svg width="16" height="16" viewBox="0 0 16 16" fill="currentColor" xmlns="http://www.w3.org/2000/svg">
<path d="M7.5 6.75217V0.999987H8.5V6.75217H7.5Z"/>
<path fill-rule="evenodd" clip-rule="evenodd" d="M10.8815 3.91331C12.1631 4.81861 13 6.31157 13 7.99999C13 10.7614 10.7614 13 8 13C5.23858 13 3 10.7614 3 7.99999C3 6.36425 3.78548 4.91197 4.99983 3.99976L4.44436 3.16655C2.96182 4.25898 2 6.01716 2 7.99999C2 11.3137 4.68629 14 8 14C11.3137 14 14 11.3137 14 7.99999C14 5.93538 12.9572 4.11432 11.3696 3.0348L10.8815 3.91331Z"/>
</svg>
