<svg width="24" height="24" viewBox="0 0 24 24" fill="none" xmlns="http://www.w3.org/2000/svg">
<path d="M12.8379 12.001C12.8379 12.461 12.461 12.8379 12.001 12.8379C11.541 12.8379 11.1621 12.461 11.1621 12.001C11.1621 11.541 11.539 11.1621 12.001 11.1621C12.4629 11.1621 12.8379 11.539 12.8379 12.001ZM24 11.999C24 18.6171 18.6171 24 12.001 24C5.38488 24 0 18.6171 0 11.999C0 5.38101 5.38294 0 12.001 0C18.619 0 24 5.38294 24 11.999ZM4.0145 5.68833C4.03576 6.37642 4.25803 7.23846 4.66006 8.17589C5.06789 9.13457 5.64388 10.1435 6.35129 11.1602C7.02778 10.2962 7.78739 9.43996 8.61271 8.61464C9.43803 7.78932 10.2981 7.02778 11.1621 6.35129C10.1454 5.64388 9.13651 5.06982 8.17589 4.66006C7.23073 4.2561 6.37062 4.03382 5.6864 4.0145H5.59169C5.05436 4.0145 4.65426 4.144 4.3972 4.39913C4.13047 4.66779 4.00097 5.10268 4.0145 5.68833ZM19.9855 18.3117C19.9642 17.6236 19.742 16.7635 19.3399 15.8241C18.9282 14.8654 18.3542 13.8565 17.6468 12.8398C16.9703 13.7038 16.2107 14.562 15.3854 15.3873C14.5581 16.2145 13.7019 16.9722 12.8379 17.6487C13.8546 18.3561 14.8635 18.9302 15.8241 19.3399C16.7673 19.7439 17.6294 19.9681 18.3136 19.9855C18.8993 20.001 19.3303 19.8734 19.6009 19.6028C19.8695 19.3322 19.999 18.8973 19.9855 18.3117ZM17.0321 12.0029C16.3421 11.0964 15.5497 10.1938 14.6779 9.32206C13.8101 8.45035 12.9075 7.65789 12.001 6.96787C11.0945 7.65982 10.1899 8.45228 9.32013 9.32206C8.44842 10.1918 7.65789 11.0945 6.96593 12.001C7.65596 12.9075 8.44842 13.8082 9.32013 14.6799C10.1899 15.5516 11.0925 16.3421 11.999 17.0341C12.9055 16.3421 13.8082 15.5496 14.6779 14.6799C15.5477 13.8101 16.3402 12.9094 17.0321 12.0029ZM18.3407 20.9848C18.3233 20.9867 18.3039 20.9848 18.2865 20.9848C17.4651 20.9635 16.5045 20.72 15.4298 20.26C13.236 19.3225 10.8142 17.5907 8.61271 15.3873C7.78739 14.562 7.02778 13.7038 6.35129 12.8418C6.13288 12.5615 5.9222 12.2812 5.72119 12.001C4.8862 10.8355 4.21165 9.67383 3.74003 8.57019C3.28389 7.50326 3.04035 6.54264 3.01522 5.71539C3.01522 5.69606 3.01522 5.67867 3.01329 5.65934C1.74535 7.45108 0.999275 9.63904 0.999275 11.999C0.999275 14.359 1.74535 16.547 3.01522 18.3407V18.2885C3.03648 17.467 3.28002 16.5064 3.74003 15.4317C4.09374 14.6045 4.55956 13.7463 5.12201 12.8785C5.32689 13.1607 5.54337 13.4429 5.76758 13.7251C5.32496 14.4402 4.94999 15.1438 4.65813 15.8241C4.2561 16.7693 4.03189 17.6294 4.0145 18.3136C4.00097 18.8993 4.12853 19.3341 4.3972 19.6009C4.66779 19.8695 5.10075 19.9971 5.68833 19.9855C6.37642 19.9642 7.23653 19.742 8.17589 19.3419C8.86011 19.0481 9.57139 18.6692 10.2923 18.2189C10.5765 18.4431 10.8587 18.6576 11.1428 18.8645C10.2672 19.4327 9.40131 19.9043 8.56825 20.26C7.50133 20.7161 6.54071 20.9597 5.71539 20.9848C5.69606 20.9867 5.67673 20.9867 5.65934 20.9867C7.45301 22.2547 9.64098 23.0007 12.001 23.0007C14.361 23.0007 16.5489 22.2547 18.3407 20.9848ZM20.9848 18.2865V18.3407C22.2547 16.547 23.0007 14.359 23.0007 11.999C23.0007 9.63904 22.2547 7.45108 20.9848 5.65934C20.9867 5.67673 20.9848 5.69606 20.9848 5.71346C20.9635 6.53491 20.718 7.49553 20.26 8.57019C19.8985 9.41097 19.4211 10.2865 18.8451 11.1718C18.6403 10.8877 18.4257 10.6035 18.2015 10.3213C18.6576 9.59266 19.0423 8.87171 19.3399 8.17589C19.7439 7.23266 19.9662 6.37062 19.9855 5.6864C20.001 5.10268 19.8715 4.66973 19.6009 4.39913C19.3322 4.13047 18.9012 4.0029 18.3117 4.0145C17.6236 4.03576 16.7615 4.25803 15.8241 4.66006C15.1322 4.95579 14.417 5.33655 13.6903 5.79077C13.4081 5.56656 13.1259 5.35202 12.8418 5.14714C13.7212 4.57502 14.5929 4.09954 15.4298 3.74003C16.4967 3.28389 17.4574 3.04035 18.2846 3.01522C18.3039 3.01522 18.3233 3.01522 18.3407 3.01329C16.5489 1.74535 14.361 0.999275 12.001 0.999275C9.64098 0.999275 7.45301 1.74535 5.65934 3.01522C5.67673 3.01329 5.69606 3.01522 5.71346 3.01522C6.53298 3.03648 7.4936 3.28195 8.56825 3.74003C10.764 4.67939 13.1839 6.41121 15.3854 8.61464C17.5907 10.82 19.3225 13.2399 20.26 15.4317C20.7161 16.4987 20.9597 17.4593 20.9848 18.2865ZM15.4472 11.999L13.7173 9.09398H10.2846L8.55472 11.999L10.2846 14.9041H13.7173L15.4472 11.999ZM9.71636 11.999L10.8509 10.0933H13.1471L14.2817 11.999L13.1471 13.9048H10.8509L9.71636 11.999Z" fill="#001A72"/>
</svg>
