<svg width="281" height="280" viewBox="0 0 281 280" fill="none" xmlns="http://www.w3.org/2000/svg">
<rect x="0.860596" width="280" height="280" rx="140" fill="#EBFCF7"/>
<path d="M152.433 120.696H128.563L116.628 140.733L128.563 160.77H152.433L164.369 140.733L152.433 120.696Z" fill="#57B495"/>
<path d="M147.843 140.008C147.843 143.841 144.702 146.982 140.869 146.982C137.035 146.982 133.878 143.841 133.878 140.008C133.878 136.174 137.019 133.017 140.869 133.017C144.718 133.017 147.843 136.158 147.843 140.008ZM240.86 139.992C240.86 195.142 196.003 240 140.869 240C85.7347 240 40.8608 195.142 40.8608 139.992C40.8608 84.8416 85.7186 40 140.869 40C196.019 40 240.86 84.8577 240.86 139.992ZM74.3149 87.4026C74.4921 93.1367 76.3444 100.32 79.6946 108.132C83.0932 116.121 87.893 124.529 93.7882 133.001C99.4256 125.802 105.756 118.666 112.633 111.788C119.511 104.911 126.678 98.5647 133.878 92.9273C125.406 87.0322 116.998 82.2484 108.993 78.8338C101.117 75.4674 93.9492 73.6151 88.2474 73.4541H87.4581C82.9804 73.4541 79.6463 74.5332 77.5041 76.6593C75.2813 78.8982 74.2021 82.5222 74.3149 87.4026ZM207.406 192.597C207.229 186.863 205.377 179.695 202.027 171.867C198.596 163.878 193.812 155.47 187.917 146.998C182.28 154.198 175.949 161.349 169.072 168.227C162.194 175.105 155.043 181.435 147.843 187.072C156.315 192.967 164.723 197.751 172.728 201.166C180.588 204.532 187.772 206.4 193.474 206.545C198.354 206.674 201.946 205.611 204.201 203.356C206.44 201.101 207.519 197.477 207.406 192.597ZM182.795 140.024C177.045 132.47 170.441 124.948 163.177 117.684C155.945 110.419 148.423 103.816 140.869 98.0654C133.315 103.832 125.776 110.436 118.528 117.684C111.264 124.932 104.676 132.454 98.9101 140.008C104.66 147.562 111.264 155.068 118.528 162.332C125.776 169.596 133.298 176.184 140.853 181.95C148.407 176.184 155.929 169.58 163.177 162.332C170.425 155.084 177.029 147.578 182.795 140.024ZM193.699 214.873C193.554 214.889 193.393 214.873 193.248 214.873C186.403 214.696 178.398 212.666 169.442 208.833C151.161 201.021 130.979 186.589 112.633 168.227C105.756 161.349 99.4256 154.198 93.7882 147.014C91.9681 144.679 90.2124 142.343 88.5373 140.008C81.5791 130.295 75.9578 120.615 72.0277 111.418C68.2265 102.527 66.197 94.5219 65.9876 87.6281C65.9876 87.4671 65.9876 87.3221 65.9715 87.161C55.4054 102.092 49.1881 120.325 49.1881 139.992C49.1881 159.658 55.4054 177.891 65.9876 192.838V192.404C66.1648 185.558 68.1943 177.553 72.0277 168.598C74.9753 161.704 78.857 154.552 83.5442 147.32C85.2515 149.672 87.0555 152.024 88.9239 154.375C85.2354 160.335 82.1106 166.198 79.6785 171.867C76.3283 179.744 74.4599 186.911 74.3149 192.613C74.2021 197.493 75.2652 201.117 77.5041 203.34C79.759 205.579 83.367 206.642 88.2635 206.545C93.9975 206.368 101.165 204.516 108.993 201.182C114.695 198.734 120.622 195.577 126.63 191.824C128.998 193.692 131.349 195.48 133.717 197.203C126.421 201.939 119.205 205.869 112.263 208.833C103.372 212.634 95.3666 214.663 88.489 214.873C88.3279 214.889 88.1668 214.889 88.0219 214.889C102.969 225.455 121.202 231.672 140.869 231.672C160.535 231.672 178.768 225.455 193.699 214.873ZM215.734 192.387V192.838C226.316 177.891 232.533 159.658 232.533 139.992C232.533 120.325 226.316 102.092 215.734 87.161C215.75 87.306 215.734 87.4671 215.734 87.612C215.556 94.4575 213.511 102.463 209.693 111.418C206.681 118.425 202.703 125.721 197.903 133.098C196.196 130.73 194.408 128.363 192.54 126.011C196.341 119.939 199.546 113.931 202.027 108.132C205.393 100.272 207.245 93.0884 207.406 87.3865C207.535 82.5222 206.456 78.9143 204.201 76.6593C201.962 74.4205 198.37 73.3574 193.458 73.4541C187.724 73.6312 180.54 75.4835 172.728 78.8338C166.962 81.2981 161.002 84.4712 154.946 88.2563C152.594 86.3879 150.243 84.6 147.875 82.8927C155.204 78.1251 162.468 74.1628 169.442 71.1669C178.333 67.3656 186.338 65.3362 193.232 65.1268C193.393 65.1268 193.554 65.1268 193.699 65.1107C178.768 54.5445 160.535 48.3273 140.869 48.3273C121.202 48.3273 102.969 54.5445 88.0219 65.1268C88.1668 65.1107 88.3279 65.1268 88.4729 65.1268C95.3022 65.304 103.307 67.3495 112.263 71.1669C130.56 78.9948 150.726 93.4266 169.072 111.788C187.45 130.166 201.882 150.332 209.693 168.598C213.495 177.489 215.524 185.494 215.734 192.387ZM169.587 139.992L155.172 115.783H126.566L112.15 139.992L126.566 164.2H155.172L169.587 139.992ZM121.83 139.992L131.285 124.11H150.42L159.875 139.992L150.42 155.873H131.285L121.83 139.992Z" fill="#001A72"/>
</svg>
