<svg width="263" height="263" viewBox="0 0 263 263" fill="none" xmlns="http://www.w3.org/2000/svg">
<path d="M140.682 131.511C140.682 136.552 136.552 140.682 131.511 140.682C126.47 140.682 122.318 136.552 122.318 131.511C122.318 126.47 126.448 122.318 131.511 122.318C136.573 122.318 140.682 126.448 140.682 131.511ZM263 131.489C263 204.012 204.012 263 131.511 263C59.0093 263 0 204.012 0 131.489C0 58.9669 58.9881 0 131.511 0C204.033 0 263 58.9881 263 131.489ZM43.9922 62.3346C44.2252 69.8749 46.6609 79.3215 51.0665 89.5941C55.5356 100.1 61.8475 111.156 69.5996 122.297C77.0128 112.829 85.3368 103.446 94.3809 94.4021C103.425 85.358 112.85 77.0128 122.318 69.5996C111.177 61.8475 100.121 55.5568 89.5941 51.0665C79.2368 46.6398 69.8114 44.204 62.3134 43.9922H61.2756C55.3874 43.9922 51.003 45.4113 48.186 48.2071C45.263 51.1512 43.8439 55.9169 43.9922 62.3346ZM219.008 200.665C218.775 193.125 216.339 183.7 211.933 173.406C207.422 162.9 201.131 151.844 193.379 140.703C185.966 150.171 177.642 159.575 168.598 168.619C159.533 177.684 150.15 185.987 140.682 193.4C151.823 201.153 162.879 207.443 173.406 211.933C183.742 216.36 193.189 218.817 200.687 219.008C207.104 219.177 211.828 217.779 214.793 214.814C217.737 211.849 219.156 207.083 219.008 200.665ZM186.644 131.532C179.082 121.598 170.398 111.707 160.846 102.154C151.336 92.6018 141.444 83.9177 131.511 76.3562C121.577 83.9389 111.664 92.6229 102.133 102.154C92.5806 111.686 83.9177 121.577 76.335 131.511C83.8965 141.444 92.5806 151.314 102.133 160.867C111.664 170.419 121.556 179.082 131.489 186.665C141.423 179.082 151.314 170.398 160.846 160.867C170.377 151.336 179.061 141.465 186.644 131.532ZM200.983 229.958C200.792 229.979 200.581 229.958 200.39 229.958C191.388 229.725 180.861 227.056 169.085 222.015C145.045 211.743 118.506 192.765 94.3809 168.619C85.3368 159.575 77.0128 150.171 69.5996 140.724C67.2062 137.653 64.8975 134.582 62.6947 131.511C53.5447 118.739 46.1526 106.009 40.9845 93.915C35.9859 82.2232 33.3171 71.6965 33.0418 62.6311C33.0418 62.4193 33.0418 62.2287 33.0206 62.0169C19.1261 81.6514 10.9504 105.628 10.9504 131.489C10.9504 157.351 19.1261 181.327 33.0418 200.983V200.411C33.2748 191.409 35.9435 180.883 40.9845 169.106C44.8606 160.041 49.9651 150.637 56.1287 141.127C58.3738 144.219 60.7461 147.311 63.203 150.404C58.3527 158.241 54.2436 165.95 51.0453 173.406C46.6398 183.763 44.1828 193.189 43.9922 200.687C43.8439 207.104 45.2418 211.87 48.186 214.793C51.1512 217.737 55.8957 219.135 62.3346 219.008C69.8749 218.775 79.3003 216.339 89.5941 211.955C97.092 208.735 104.887 204.584 112.787 199.649C115.9 202.106 118.993 204.457 122.106 206.723C112.512 212.95 103.023 218.118 93.8938 222.015C82.2021 227.014 71.6753 229.683 62.6311 229.958C62.4193 229.979 62.2075 229.979 62.0169 229.979C81.6725 243.874 105.649 252.05 131.511 252.05C157.372 252.05 181.349 243.874 200.983 229.958ZM229.958 200.39V200.983C243.874 181.327 252.05 157.351 252.05 131.489C252.05 105.628 243.874 81.6514 229.958 62.0169C229.979 62.2075 229.958 62.4193 229.958 62.61C229.725 71.6117 227.035 82.1385 222.015 93.915C218.055 103.129 212.823 112.723 206.511 122.424C204.266 119.311 201.915 116.197 199.458 113.105C204.457 105.12 208.672 97.2191 211.933 89.5941C216.36 79.2579 218.796 69.8114 219.008 62.3134C219.177 55.9169 217.758 51.1724 214.793 48.2071C211.849 45.263 207.125 43.8651 200.665 43.9922C193.125 44.2252 183.679 46.6609 173.406 51.0665C165.823 54.3072 157.986 58.4797 150.022 63.4572C146.93 61.0002 143.838 58.6492 140.724 56.404C150.361 50.1346 159.914 44.9241 169.085 40.9845C180.777 35.9859 191.304 33.3171 200.369 33.0418C200.581 33.0418 200.792 33.0418 200.983 33.0206C181.349 19.1261 157.372 10.9504 131.511 10.9504C105.649 10.9504 81.6725 19.1261 62.0169 33.0418C62.2075 33.0206 62.4193 33.0418 62.61 33.0418C71.5906 33.2748 82.1173 35.9647 93.8938 40.9845C117.955 51.2783 144.473 70.2562 168.598 94.4021C192.765 118.569 211.743 145.087 222.015 169.106C227.014 180.798 229.683 191.325 229.958 200.39ZM169.276 131.489L150.319 99.6549H112.702L93.7455 131.489L112.702 163.324H150.319L169.276 131.489ZM106.475 131.489L118.908 110.605H144.071L156.504 131.489L144.071 152.374H118.908L106.475 131.489Z" fill="#FCFCFF"/>
</svg>
