<svg width="95" height="24" viewBox="0 0 95 24" fill="none" xmlns="http://www.w3.org/2000/svg">
<path d="M0.295455 0.727272H5.45455L12.3636 17.5909H12.6364L19.5455 0.727272H24.7045V24H20.6591V8.01136H20.4432L14.0114 23.9318H10.9886L4.55682 7.97727H4.34091V24H0.295455V0.727272ZM27.3755 0.727272H32.5345L39.4436 17.5909H39.7164L46.6255 0.727272H51.7845V24H47.7391V8.01136H47.5232L41.0914 23.9318H38.0686L31.6368 7.97727H31.4209V24H27.3755V0.727272ZM54.4555 24V0.727272H58.6714V11.4205H58.9555L68.035 0.727272H73.1827L64.1827 11.1705L73.2623 24H68.1941L61.2509 14.0227L58.6714 17.0682V24H54.4555ZM77.3053 0.727272L83.3622 19.0455H83.6008L89.6462 0.727272H94.2826L86.0781 24H80.8735L72.6803 0.727272H77.3053Z" fill="black"/>
</svg>
