<svg width="24" height="24" viewBox="0 0 24 24" fill="none" xmlns="http://www.w3.org/2000/svg">
<g clip-path="url(#clip0_950_630)">
<path d="M16.6295 16.563C17.5152 16.4705 18.1871 15.6997 18.1565 14.7748C18.126 13.8499 17.3624 13.1099 16.4462 13.1099H16.3851C15.4384 13.1408 14.7054 13.9424 14.7359 14.8981C14.7665 15.3606 14.9497 15.7614 15.2246 16.0389C14.1862 18.1046 12.5981 19.6153 10.2159 20.8794C8.59718 21.7426 6.91742 22.0509 5.23767 21.8351C3.86332 21.6501 2.79439 21.0335 2.12249 20.0161C1.14517 18.5054 1.05355 16.8713 1.87816 15.2373C2.45844 14.0657 3.37467 13.2024 3.95495 12.7708C3.83278 12.37 3.64954 11.6917 3.55791 11.1984C-0.870533 14.4357 -0.412419 18.8137 0.931386 20.8794C1.93924 22.4209 3.98549 23.3767 6.24552 23.3767C6.85634 23.3767 7.46716 23.315 8.07798 23.1609C11.9872 22.3901 14.9497 20.0469 16.6295 16.563ZM22.0047 12.7399C19.6836 9.99598 16.263 8.48525 12.3537 8.48525H11.8651C11.5902 7.93029 11.0099 7.56032 10.3686 7.56032H10.3075C9.3607 7.59115 8.62772 8.39276 8.65826 9.34853C8.6888 10.2735 9.45233 11.0134 10.3686 11.0134H10.4296C11.1015 10.9826 11.6818 10.5509 11.9261 9.96515H12.4759C14.797 9.96515 16.996 10.6434 18.9811 11.9692C20.5082 12.9866 21.6076 14.3123 22.2185 15.9155C22.7377 17.2105 22.7071 18.4745 22.1574 19.5536C21.3022 21.1877 19.8668 22.0818 17.9733 22.0818C16.7516 22.0818 15.5911 21.7118 14.9803 21.4343C14.6443 21.7426 14.0335 22.2359 13.6059 22.5442C14.9192 23.1609 16.263 23.5 17.5457 23.5C20.4776 23.5 22.646 21.866 23.4706 20.2319C24.3563 18.4437 24.2953 15.3606 22.0047 12.7399ZM6.48985 17.0871C6.52039 18.0121 7.28392 18.752 8.20015 18.752H8.26123C9.208 18.7212 9.94098 17.9196 9.91044 16.9638C9.8799 16.0389 9.11638 15.2989 8.20015 15.2989H8.13906C8.07798 15.2989 7.98636 15.2989 7.92528 15.3298C6.6731 13.2332 6.1539 10.9517 6.33714 8.48525C6.45931 6.63539 7.07013 5.03217 8.13906 3.70643C9.02475 2.56568 10.735 2.01072 11.8956 1.97989C15.133 1.91823 16.5073 5.98794 16.5989 7.62198C16.996 7.71448 17.6679 7.93029 18.126 8.08445C17.7595 3.08981 14.7054 0.5 11.7734 0.5C9.02475 0.5 6.48985 2.50402 5.482 5.46381C4.07711 9.41019 4.99334 13.2024 6.70364 16.193C6.55093 16.4088 6.45931 16.748 6.48985 17.0871Z" fill="black"/>
</g>
<defs>
<clipPath id="clip0_950_630">
<rect width="24" height="24" fill="white"/>
</clipPath>
</defs>
</svg>
