<svg width="463" height="448" viewBox="0 0 463 448" fill="none" xmlns="http://www.w3.org/2000/svg">
<ellipse cx="231.5" cy="224" rx="231.5" ry="224" transform="rotate(-180 231.5 224)" fill="url(#paint0_linear_514_45116)"/>
<path d="M248.204 196.976H214.785L198.075 225.028L214.785 253.08H248.204L264.914 225.028L248.204 196.976Z" fill="#57B495"/>
<path d="M241.777 224.013C241.777 229.38 237.38 233.777 232.013 233.777C226.646 233.777 222.227 229.38 222.227 224.013C222.227 218.646 226.624 214.227 232.013 214.227C237.403 214.227 241.777 218.624 241.777 224.013ZM372.004 223.991C372.004 301.202 309.202 364.004 232.013 364.004C154.824 364.004 92 301.202 92 223.991C92 146.779 154.802 84 232.013 84C309.225 84 372.004 146.802 372.004 223.991ZM138.836 150.365C139.084 158.393 141.678 168.45 146.368 179.387C151.126 190.572 157.846 202.343 166.099 214.204C173.992 204.124 182.854 194.134 192.483 184.506C202.112 174.877 212.147 165.992 222.227 158.099C210.365 149.846 198.594 143.149 187.387 138.368C176.36 133.655 166.325 131.062 158.342 130.836H157.237C150.968 130.836 146.301 132.347 143.301 135.324C140.189 138.458 138.679 143.532 138.836 150.365ZM325.167 297.639C324.919 289.611 322.326 279.577 317.636 268.617C312.833 257.432 306.135 245.661 297.882 233.8C289.989 243.88 281.127 253.892 271.498 263.521C261.869 273.15 251.857 282.012 241.777 289.904C253.639 298.158 265.41 304.855 276.617 309.636C287.622 314.349 297.679 316.965 305.662 317.167C312.494 317.348 317.523 315.86 320.68 312.703C323.814 309.546 325.325 304.472 325.167 297.639ZM290.711 224.036C282.661 213.46 273.415 202.929 263.245 192.759C253.12 182.589 242.589 173.343 232.013 165.293C221.437 173.366 210.884 182.611 200.736 192.759C190.566 202.906 181.343 213.437 173.27 224.013C181.321 234.589 190.566 245.098 200.736 255.268C210.884 265.438 221.415 274.661 231.991 282.734C242.567 274.661 253.098 265.415 263.245 255.268C273.393 245.12 282.638 234.612 290.711 224.036ZM305.977 328.826C305.774 328.848 305.549 328.826 305.346 328.826C295.762 328.578 284.555 325.736 272.017 320.37C246.423 309.433 218.168 289.228 192.483 263.521C182.854 253.892 173.992 243.88 166.099 233.822C163.551 230.553 161.093 227.283 158.748 224.013C149.007 210.416 141.137 196.863 135.634 183.987C130.313 171.539 127.471 160.332 127.178 150.68C127.178 150.455 127.178 150.252 127.156 150.027C112.363 170.93 103.658 196.457 103.658 223.991C103.658 251.524 112.363 277.051 127.178 297.977V297.369C127.426 287.785 130.267 276.577 135.634 264.04C139.761 254.388 145.196 244.376 151.758 234.251C154.148 237.543 156.674 240.836 159.289 244.128C154.125 252.471 149.751 260.68 146.346 268.617C141.655 279.644 139.039 289.679 138.836 297.662C138.679 304.494 140.167 309.568 143.301 312.68C146.458 315.814 151.51 317.303 158.365 317.167C166.393 316.919 176.427 314.326 187.387 309.658C195.369 306.231 203.668 301.811 212.079 296.557C215.394 299.173 218.686 301.676 222.001 304.088C211.786 310.718 201.683 316.22 191.964 320.37C179.517 325.691 168.309 328.533 158.68 328.826C158.455 328.848 158.229 328.848 158.027 328.848C178.953 343.641 204.48 352.346 232.013 352.346C259.547 352.346 285.073 343.641 305.977 328.826ZM336.826 297.346V297.977C351.641 277.051 360.346 251.524 360.346 223.991C360.346 196.457 351.641 170.93 336.826 150.027C336.848 150.229 336.826 150.455 336.826 150.658C336.578 160.242 333.714 171.449 328.37 183.987C324.153 193.796 318.583 204.011 311.863 214.339C309.473 211.024 306.97 207.71 304.354 204.417C309.676 195.916 314.163 187.505 317.636 179.387C322.349 168.382 324.942 158.325 325.167 150.342C325.348 143.532 323.837 138.481 320.68 135.324C317.546 132.189 312.517 130.701 305.639 130.836C297.611 131.084 287.554 133.678 276.617 138.368C268.544 141.818 260.201 146.261 251.722 151.56C248.43 148.944 245.137 146.441 241.822 144.051C252.083 137.376 262.253 131.829 272.017 127.634C284.465 122.313 295.672 119.471 305.323 119.178C305.549 119.178 305.774 119.178 305.977 119.156C285.073 104.363 259.547 95.6584 232.013 95.6584C204.48 95.6584 178.953 104.363 158.027 119.178C158.229 119.156 158.455 119.178 158.658 119.178C168.219 119.426 179.427 122.29 191.964 127.634C217.581 138.594 245.814 158.798 271.498 184.506C297.228 210.235 317.433 238.468 328.37 264.04C333.691 276.487 336.533 287.695 336.826 297.346ZM272.22 223.991L252.038 190.098H211.989L191.806 223.991L211.989 257.883H252.038L272.22 223.991ZM205.359 223.991L218.596 201.756H245.385L258.622 223.991L245.385 246.225H218.596L205.359 223.991Z" fill="#001A72"/>
<defs>
<linearGradient id="paint0_linear_514_45116" x1="231.5" y1="1.52588e-05" x2="189.982" y2="579.265" gradientUnits="userSpaceOnUse">
<stop stop-color="#82CAB2"/>
<stop offset="0.525" stop-color="#DFF2EC"/>
<stop offset="1" stop-color="white"/>
</linearGradient>
</defs>
</svg>
