<svg width="463" height="448" viewBox="0 0 463 448" fill="none" xmlns="http://www.w3.org/2000/svg">
<ellipse cx="231.5" cy="224" rx="231.5" ry="224" transform="rotate(-180 231.5 224)" fill="url(#paint0_linear_502_44945)"/>
<path d="M166.01 321.434L140.015 293.57" stroke="#001A72" stroke-width="6" stroke-linecap="round" stroke-linejoin="round"/>
<path d="M290.27 257.626L285.355 315.678C285.227 317.179 284.78 318.628 284.048 319.914C283.315 321.2 282.318 322.289 281.131 323.097L225.898 360.774C224.581 361.673 223.072 362.197 221.514 362.297C219.956 362.397 218.399 362.071 216.991 361.347C215.583 360.624 214.371 359.529 213.467 358.164C212.564 356.799 212 355.21 211.828 353.547L205.971 308.538" fill="#82CAB2"/>
<path d="M290.27 257.626L285.355 315.678C285.227 317.179 284.78 318.628 284.048 319.914C283.315 321.2 282.318 322.289 281.131 323.097L225.898 360.774C224.581 361.673 223.072 362.197 221.514 362.297C219.956 362.397 218.399 362.071 216.991 361.347C215.583 360.624 214.371 359.529 213.467 358.164C212.564 356.799 212 355.21 211.828 353.547L205.971 308.538" stroke="#001A72" stroke-width="6" stroke-linecap="round" stroke-linejoin="round"/>
<path d="M199.545 160.381L145.385 165.649C143.985 165.786 142.633 166.265 141.433 167.05C140.233 167.835 139.217 168.905 138.463 170.177L103.312 229.379C102.474 230.79 101.985 232.408 101.891 234.078C101.798 235.748 102.103 237.417 102.777 238.926C103.452 240.435 104.474 241.735 105.747 242.703C107.021 243.671 108.503 244.276 110.055 244.46L152.046 250.738" fill="#82CAB2"/>
<path d="M199.545 160.381L145.385 165.649C143.985 165.786 142.633 166.265 141.433 167.05C140.233 167.835 139.217 168.905 138.463 170.177L103.312 229.379C102.474 230.79 101.985 232.408 101.891 234.078C101.798 235.748 102.103 237.417 102.777 238.926C103.452 240.435 104.474 241.735 105.747 242.703C107.021 243.671 108.503 244.276 110.055 244.46L152.046 250.738" stroke="#001A72" stroke-width="6" stroke-linecap="round" stroke-linejoin="round"/>
<path d="M152.046 250.739C184.045 116.67 288.954 119.77 316.631 123.575C318.659 123.847 320.543 124.836 321.988 126.384C323.433 127.933 324.355 129.953 324.609 132.126C328.159 161.792 331.051 274.24 205.971 308.539L152.046 250.739Z" fill="white" stroke="#001A72" stroke-width="6" stroke-linecap="round" stroke-linejoin="round"/>
<path d="M245.622 208.238C250.109 213.047 257.383 213.047 261.87 208.238C266.356 203.429 266.356 195.632 261.87 190.823C257.383 186.014 250.109 186.014 245.622 190.823C241.136 195.632 241.136 203.429 245.622 208.238Z" fill="#001A72"/>
<defs>
<linearGradient id="paint0_linear_502_44945" x1="231.5" y1="1.52588e-05" x2="189.982" y2="579.265" gradientUnits="userSpaceOnUse">
<stop stop-color="#82CAB2"/>
<stop offset="0.525" stop-color="#DFF2EC"/>
<stop offset="1" stop-color="white" stop-opacity="0"/>
</linearGradient>
</defs>
</svg>
