<svg xmlns="http://www.w3.org/2000/svg" xmlns:xlink="http://www.w3.org/1999/xlink" version="1.1" width="429pt" height="888pt" viewBox="0 0 429 888">
<defs>
<clipPath id="clip_0">
<path transform="matrix(1,0,0,-1,0,888)" d="M335.2913 887H337.2738C340.3995 887 342.2301 886.9853 344.4339 886.9543 346.661 886.923 348.7326 886.8728 350.7388 886.7985 357.7444 886.5385 363.5838 885.9893 369.3691 884.9112 384.0873 882.1691 396.7656 875.9974 406.8813 865.8812 416.9967 855.7663 423.1683 843.0895 425.9115 828.3722 426.9901 822.5834 427.5391 816.7424 427.7991 809.7297 427.8195 809.1799 427.8379 808.6372 427.8546 808.0947L427.8783 807.2803C427.9717 803.8805 428.0001 800.3553 428.0001 795.0225V92.97195C428.0001 86.37347 427.9568 82.52668 427.7987 78.26092 427.5387 71.25344 426.9898 65.41535 425.9118 59.63049 423.1697 44.91277 416.998 32.23453 406.8813 22.11784 396.766 12.00289 384.0888 5.831145 369.3728 3.088549 363.5827 2.009691 357.7391 1.460356 350.7302 1.200909 350.3027 1.185062 349.8789 1.170374 349.4559 1.156773L348.6099 1.130996C345.0815 1.029444 341.4645 .9999076 336.0191 .9999076H92.976C86.43999 .9999076 82.53756 1.04244 78.26139 1.200929 71.25364 1.460921 65.41551 2.009844 59.63058 3.087834 44.91334 5.82986 32.23496 12.00174 22.11818 22.11809 12.00265 32.23363 5.83107 44.91097 3.089384 59.62503 2.009939 65.414 1.460761 71.25508 1.20063 78.27087 1.063965 81.96369 1.011527 85.66101 1 90.61645V92.976 795.0371 797.4024C1.011553 802.3435 1.064167 806.043 1.201356 809.7382 1.461365 816.7459 2.010301 822.5842 3.088242 828.3685 5.830312 843.0865 12.00194 855.7648 22.11818 865.881 32.23337 875.9962 44.91012 882.1677 59.62713 884.9109 65.41689 885.9897 71.26071 886.5391 78.27051 886.7986 82.22054 886.9448 85.85563 887 91.57382 887H334.6606C334.876 887 335.0861 887 335.2913 887ZM336.1693 870H92.83189C88.18726 870 83.54395 869.9822 78.89967 869.8102 73.46967 869.6092 68.10067 869.1972 62.74133 868.1985 51.92367 866.1822 42.08467 861.8059 34.139 853.8602 26.19267 845.9139 21.81633 836.0739 19.80067 825.2549 18.80267 819.8995 18.391 814.5342 18.18967 809.1079 18.04439 805.1948 18.00953 801.2825 18 797.3694V795.023 92.976 90.63051C18.00951 86.71999 18.04428 82.81013 18.189 78.89957 18.39033 73.46957 18.802 68.10057 19.80133 62.74124 21.817 51.92357 26.19333 42.08457 34.139 34.13891 42.08567 26.19257 51.92567 21.81591 62.74433 19.80024 68.1 18.80224 73.465 18.39057 78.89167 18.18924 83.58633 18.01524 88.28067 17.99991 92.976 17.99991H336.0191C340.7134 17.99991 345.4064 18.01524 350.1004 18.18924 355.5304 18.39024 360.8991 18.80224 366.2588 19.80091 377.0761 21.81691 386.9151 26.19357 394.8608 34.13891 402.8074 42.08557 407.1838 51.92557 409.1994 62.74424 410.1974 68.09991 410.6091 73.46491 410.8104 78.89124 410.9844 83.58624 411.0001 88.28024 411.0001 92.97557V795.0225C411.0001 799.7155 410.9848 804.4071 410.8108 809.0998 410.6094 814.5298 410.1978 819.8985 409.1991 825.2581 407.1828 836.0758 402.8064 845.9148 394.8608 853.8601 386.9144 861.8068 377.0744 866.1831 366.2554 868.1988 360.8998 869.1968 355.5348 869.6088 350.1084 869.8101 344.6874 870.0111 339.2678 870 333.8458 870H336.1693Z"/>
</clipPath>
<clipPath id="clip_1">
<path transform="matrix(1,0,0,-1,0,888)" d="M337.2712 886C340.3935 886 342.2211 885.9853 344.4199 885.9544 346.6397 885.9232 348.7037 885.8732 350.7017 885.7991 357.6622 885.5409 363.4554 884.996 369.1859 883.9281 383.7152 881.2212 396.2098 875.1389 406.1742 865.1741 416.1382 855.2105 422.2204 842.7174 424.9284 828.189 425.9968 822.455 426.5414 816.6603 426.7998 809.6927 426.9572 805.4471 427.0001 801.6234 427.0001 795.0225V92.97217C427.0001 86.38525 426.9569 82.5481 426.7994 78.298 426.5411 71.33559 425.9965 65.54371 424.9288 59.81365 422.2218 45.28479 416.1396 32.7903 406.1742 22.82496 396.2102 12.86133 383.7168 6.779025 369.1896 4.071629 363.4544 3.00299 357.657 2.458002 350.6931 2.200222 346.4337 2.042332 342.542 1.999908 336.0191 1.999908H92.976C86.45157 1.999908 82.55897 2.042333 78.29846 2.200241 71.33579 2.458562 65.54386 3.003139 59.81374 4.070917 45.28535 6.777756 32.79072 12.86019 22.82529 22.8252 12.86109 32.7894 6.77896 45.283 4.07244 59.80834 3.003232 65.5424 2.458402 71.33724 2.199946 78.30785 2.063794 81.98683 2.011505 85.67363 2 90.61728V92.976 795.0362 797.4005C2.01153 802.3308 2.063994 806.0198 2.200668 809.7011 2.459005 816.6638 3.003596 822.4559 4.071326 828.1854 6.778209 842.7144 12.8604 855.209 22.82529 865.1739 32.78915 875.1378 45.28219 881.2198 59.81032 883.9278 65.54523 884.9964 71.3428 885.5414 78.30752 885.7992 78.44807 885.8045 78.58823 885.8095 78.72811 885.8145L79.56479 885.8428C83.04391 885.9546 86.48022 886 91.57614 886H334.6607C334.8759 886 335.0858 886 335.2908 886H337.2712ZM336.1693 870H92.83189C88.18726 870 83.54395 869.9822 78.89967 869.8102 73.46967 869.6092 68.10067 869.1972 62.74133 868.1985 51.92367 866.1822 42.08467 861.8059 34.139 853.8602 26.19267 845.9139 21.81633 836.0739 19.80067 825.2549 18.80267 819.8995 18.391 814.5342 18.18967 809.1079 18.04439 805.1948 18.00953 801.2825 18 797.3694V795.023 92.976 90.63051C18.00951 86.71999 18.04428 82.81013 18.189 78.89957 18.39033 73.46957 18.802 68.10057 19.80133 62.74124 21.817 51.92357 26.19333 42.08457 34.139 34.13891 42.08567 26.19257 51.92567 21.81591 62.74433 19.80024 68.1 18.80224 73.465 18.39057 78.89167 18.18924 83.58633 18.01524 88.28067 17.99991 92.976 17.99991H336.0191C340.7134 17.99991 345.4064 18.01524 350.1004 18.18924 355.5304 18.39024 360.8991 18.80224 366.2588 19.80091 377.0761 21.81691 386.9151 26.19357 394.8608 34.13891 402.8074 42.08557 407.1838 51.92557 409.1994 62.74424 410.1974 68.09991 410.6091 73.46491 410.8104 78.89124 410.9844 83.58624 411.0001 88.28024 411.0001 92.97557V795.0225C411.0001 799.7155 410.9848 804.4071 410.8108 809.0998 410.6094 814.5298 410.1978 819.8985 409.1991 825.2581 407.1828 836.0758 402.8064 845.9148 394.8608 853.8601 386.9144 861.8068 377.0744 866.1831 366.2554 868.1988 360.8998 869.1968 355.5348 869.6088 350.1084 869.8101 344.6874 870.0111 339.2678 870 333.8458 870H336.1693Z"/>
</clipPath>
<clipPath id="clip_2">
<path transform="matrix(1,0,0,-1,0,888)" d="M335.2902 885H337.2686C339.7377 885 341.3957 884.9895 343.0678 884.9713L343.5972 884.9651C343.8632 884.9619 344.1316 884.9583 344.4058 884.9545 346.6183 884.9234 348.6748 884.8736 350.6646 884.7998 357.5801 884.5432 363.3271 884.0027 369.0028 882.9451 383.3432 880.2733 395.6541 874.2805 405.4671 864.467 415.2798 854.6547 421.2725 842.3454 423.9453 828.0058 425.0035 822.3267 425.5438 816.5782 425.8005 809.6556 425.9573 805.4256 426.0001 801.6116 426.0001 795.0225V92.97238C426.0001 87.24547 425.9671 83.60302 425.8553 79.96067L425.8291 79.15041C425.8199 78.87976 425.8102 78.60827 425.8001 78.33508 425.5435 71.41774 425.0032 65.67206 423.9457 59.99681 421.2739 45.65681 415.2811 33.34606 405.4671 23.53208 395.6544 13.71977 383.3447 7.726904 369.0064 5.054709 363.3261 3.996289 357.5749 3.455649 350.6561 3.199536 346.4123 3.042225 342.5305 2.999908 336.0191 2.999908H92.976C86.46316 2.999908 82.58039 3.042225 78.33554 3.199554 71.41793 3.456202 65.67222 3.996435 59.99691 5.053999 45.65737 7.725652 33.34647 13.71865 23.5324 23.53231 13.71954 33.34517 7.72685 45.65504 5.055496 59.99164 3.996525 65.67081 3.456042 71.4194 3.199261 78.34483 3.063622 82.00997 3.011482 85.68625 3 90.6181V92.976 795.0354 797.3985C3.010554 801.8262 3.053786 805.2485 3.161607 808.5622L3.199981 809.664C3.456645 816.5816 3.996891 822.3275 5.05441 828.0022 7.726107 842.3424 13.71885 854.6533 23.5324 864.4668 33.34493 874.2793 45.65425 880.272 59.99351 882.9447 65.67357 884.0031 71.42489 884.5438 78.34453 884.7999 78.48457 884.8051 78.62422 884.8102 78.76359 884.8151L79.59732 884.8433C83.06443 884.9548 86.49214 885 91.57847 885H334.6608C334.8758 885 335.0855 885 335.2902 885ZM336.1693 870H92.83189C88.18726 870 83.54395 869.9822 78.89967 869.8102 73.46967 869.6092 68.10067 869.1972 62.74133 868.1985 51.92367 866.1822 42.08467 861.8059 34.139 853.8602 26.19267 845.9139 21.81633 836.0739 19.80067 825.2549 18.80267 819.8995 18.391 814.5342 18.18967 809.1079 18.04439 805.1948 18.00953 801.2825 18 797.3694V795.023 92.976 90.63051C18.00951 86.71999 18.04428 82.81013 18.189 78.89957 18.39033 73.46957 18.802 68.10057 19.80133 62.74124 21.817 51.92357 26.19333 42.08457 34.139 34.13891 42.08567 26.19257 51.92567 21.81591 62.74433 19.80024 68.1 18.80224 73.465 18.39057 78.89167 18.18924 83.58633 18.01524 88.28067 17.99991 92.976 17.99991H336.0191C340.7134 17.99991 345.4064 18.01524 350.1004 18.18924 355.5304 18.39024 360.8991 18.80224 366.2588 19.80091 377.0761 21.81691 386.9151 26.19357 394.8608 34.13891 402.8074 42.08557 407.1838 51.92557 409.1994 62.74424 410.1974 68.09991 410.6091 73.46491 410.8104 78.89124 410.9844 83.58624 411.0001 88.28024 411.0001 92.97557V795.0225C411.0001 799.7155 410.9848 804.4071 410.8108 809.0998 410.6094 814.5298 410.1978 819.8985 409.1991 825.2581 407.1828 836.0758 402.8064 845.9148 394.8608 853.8601 386.9144 861.8068 377.0744 866.1831 366.2554 868.1988 360.8998 869.1968 355.5348 869.6088 350.1084 869.8101 344.6874 870.0111 339.2678 870 333.8458 870H336.1693Z"/>
</clipPath>
<clipPath id="clip_3">
<path transform="matrix(1,0,0,-1,0,888)" d="M344.3355 879.955C346.5117 879.9244 348.5304 879.8755 350.4792 879.8033 357.1693 879.555 362.6852 879.0362 368.087 878.0296 381.4831 875.5338 392.8752 869.9882 401.9317 860.9314 410.9877 851.8758 416.5332 840.485 419.0299 827.0899 420.037 821.685 420.5556 816.1675 420.8039 809.4703 420.9578 805.3186 421.0001 801.5526 421.0001 795.0225V92.97344C421.0001 87.50716 420.9698 83.967 420.8696 80.51517L420.8452 79.71933C420.8323 79.32136 420.8185 78.92268 420.8036 78.52047 420.5553 71.82848 420.0368 66.31385 419.0303 60.91262 416.5345 47.51692 410.9889 36.12487 401.9317 27.06769 392.8756 18.01196 381.4845 12.4663 368.0905 9.970109 362.6844 8.962783 357.1645 8.44388 350.4709 8.196104 350.1932 8.18581 349.9169 8.176016 349.6413 8.166702L348.4021 8.127955C344.9548 8.028923 341.397 7.999908 336.0191 7.999908H92.976C87.38174 7.999908 83.75637 8.031291 80.17678 8.140185L79.35066 8.166712C79.07498 8.176027 78.79868 8.185821 78.52091 8.196116 71.82867 8.444404 66.314 8.962912 60.91271 9.969413 47.51747 12.46513 36.12524 18.01091 27.06793 27.06784 18.01176 36.12401 12.4663 47.51521 9.970775 60.90818 8.96299 66.31284 8.444246 71.83022 8.195841 78.52975 8.062763 82.12566 8.011369 85.74935 8 90.62224V797.3888C8.011394 802.2549 8.062958 805.8805 8.196543 809.4786 8.444845 816.1709 8.963367 821.6857 9.969829 827.0864 12.46559 840.4824 18.01112 851.8745 27.06793 860.9313 36.12383 869.9872 47.51459 875.5326 60.90945 878.0293 66.31526 879.0366 71.83534 879.5556 78.52957 879.8034 78.80449 879.8135 79.07798 879.8232 79.3509 879.8324L80.1688 879.8587 80.98843 879.8823C83.71603 879.9562 86.55701 879.9927 90.35717 879.999L338.2441 879.9995C340.764 879.9966 342.4079 879.9821 344.3355 879.955ZM92.83189 870 333.8458 869.9999C335.3949 869.9999 336.9439 870.0008 338.4927 869.9975L336.1693 870H92.83189C90.50958 870 88.18759 869.9956 85.86565 869.9696L88.18762 869.9885C89.73562 869.9975 91.28368 869.9996 92.83189 870Z" fill-rule="evenodd"/>
</clipPath>
<clipPath id="clip_4">
<path transform="matrix(1,0,0,-1,0,888)" d="M3 793H8V787H3Z" fill-rule="evenodd"/>
</clipPath>
<clipPath id="clip_5">
<path transform="matrix(1,0,0,-1,0,888)" d="M421 793H426V787H421Z" fill-rule="evenodd"/>
</clipPath>
<clipPath id="clip_6">
<path transform="matrix(1,0,0,-1,0,888)" d="M3 100H8V94H3Z" fill-rule="evenodd"/>
</clipPath>
<clipPath id="clip_7">
<path transform="matrix(1,0,0,-1,0,888)" d="M421 100H426V94H421Z" fill-rule="evenodd"/>
</clipPath>
<clipPath id="clip_8">
<path transform="matrix(1,0,0,-1,0,888)" d="M332 885H338V880H332Z" fill-rule="evenodd"/>
</clipPath>
<clipPath id="clip_9">
<path transform="matrix(1,0,0,-1,0,888)" d="M92 8H98V3H92Z" fill-rule="evenodd"/>
</clipPath>
</defs>
<g clip-path="url(#clip_0)">
<path transform="matrix(1,0,0,-1,0,888)" d="M0 888H429.0001V-.00009239492H0Z" fill-opacity=".1477"/>
</g>
<g clip-path="url(#clip_1)">
<path transform="matrix(1,0,0,-1,0,888)" d="M1 887H428.0001V.9999076H1Z" fill="#7e7e7e"/>
</g>
<g clip-path="url(#clip_2)">
<path transform="matrix(1,0,0,-1,0,888)" d="M2 886H427.0001V1.999908H2Z" fill="#2c2c2c"/>
</g>
<g clip-path="url(#clip_3)">
<path transform="matrix(1,0,0,-1,0,888)" d="M7 880.9995H422.0001V6.999908H7Z"/>
</g>
<g clip-path="url(#clip_4)">
<path transform="matrix(1,0,0,-1,0,888)" d="M2 794H9V786H2Z" fill-opacity=".3"/>
</g>
<g clip-path="url(#clip_5)">
<path transform="matrix(1,0,0,-1,0,888)" d="M420 794H427V786H420Z" fill-opacity=".3"/>
</g>
<g clip-path="url(#clip_6)">
<path transform="matrix(1,0,0,-1,0,888)" d="M2 101H9V93H2Z" fill-opacity=".3"/>
</g>
<g clip-path="url(#clip_7)">
<path transform="matrix(1,0,0,-1,0,888)" d="M420 101H427V93H420Z" fill-opacity=".3"/>
</g>
<g clip-path="url(#clip_8)">
<path transform="matrix(1,0,0,-1,0,888)" d="M331 886H339V879H331Z" fill-opacity=".3"/>
</g>
<g clip-path="url(#clip_9)">
<path transform="matrix(1,0,0,-1,0,888)" d="M91 9H99V2H91Z" fill-opacity=".3"/>
</g>
</svg>
