<svg xmlns="http://www.w3.org/2000/svg" xmlns:xlink="http://www.w3.org/1999/xlink" version="1.1" width="1179pt" height="2556pt" viewBox="0 0 1179 2556">
<defs>
<clipPath id="clip_0">
<path transform="matrix(1,0,0,-1,0,2556)" d="M1179 224.9271C1178.997 210.8411 1178.953 196.7591 1178.431 182.6741 1177.827 166.3951 1176.592 150.3001 1173.598 134.2331 1167.551 101.7771 1154.422 72.2571 1130.582 48.4171 1106.745 24.5811 1077.228 11.4511 1044.776 5.4031 1028.697 2.4071 1012.591 1.1711 996.3013 .5681 982.2193 .0461 968.1403 .0001 954.0573 .0001H224.928L221.4066 .001307176C208.4948 .01107222 195.5853 .0896 182.675 .5681 166.395 1.1721 150.3 2.4071 134.233 5.4011 101.777 11.4481 72.257 24.5781 48.417 48.4171 24.58 72.2541 11.451 101.7711 5.404 134.2241 2.406 150.3021 1.171 166.4091 .567 182.6991 .046 196.7771 0 210.8521 0 224.9311V224.9272 2331.068L.001207755 2334.587C.01009086 2346.326 .07586053 2358.064 .4479381 2369.802L.569 2373.324C1.173 2389.603 2.408 2405.699 5.402 2421.765 11.449 2454.222 24.578 2483.742 48.417 2507.581 72.254 2531.418 101.771 2544.547 134.224 2550.596 150.302 2553.592 166.409 2554.828 182.699 2555.431 196.4532 2555.94 210.2046 2555.995 223.9598 2556H955.0442C968.8062 2555.995 982.5643 2555.941 996.3253 2555.431 1012.604 2554.827 1028.699 2553.591 1044.766 2550.597 1077.223 2544.55 1106.743 2531.421 1130.582 2507.581 1154.419 2483.745 1167.548 2454.228 1173.597 2421.775 1176.593 2405.696 1177.828 2389.59 1178.432 2373.3 1178.954 2359.222 1178.997 2345.147 1179 2331.068ZM576.981 2518.377H465.0402C458.3429 2518.368 451.7227 2518.239 445.0576 2516.707 437.5756 2514.988 430.6696 2511.665 424.6816 2506.852 412.6286 2497.166 405.6256 2482.445 405.6256 2467 405.6256 2451.556 412.6296 2436.834 424.6826 2427.149 430.6726 2422.334 437.5806 2419.011 445.0646 2417.293 452.0308 2415.693 458.9471 2415.624 465.9544 2415.623H576.0682C583.0774 2415.624 589.9956 2415.693 596.9646 2417.294 604.4456 2419.014 611.3516 2422.337 617.3406 2427.15 629.3936 2436.836 636.3956 2451.556 636.3956 2467 636.3956 2482.446 629.3926 2497.167 617.3386 2506.852 611.3496 2511.666 604.4416 2514.99 596.9576 2516.709 590.2942 2518.239 583.6758 2518.368 576.981 2518.377ZM721.9914 2518.157C693.7384 2518.157 670.8354 2495.253 670.8354 2467 670.8354 2438.747 693.7384 2415.843 721.9914 2415.843 750.2454 2415.843 773.1484 2438.747 773.1484 2467 773.1484 2495.253 750.2454 2518.157 721.9914 2518.157Z" fill-rule="evenodd"/>
</clipPath>
<clipPath id="clip_1">
<path transform="matrix(1,0,0,-1,0,2556)" d="M0 0H1179V2556H0Z"/>
</clipPath>
</defs>
<g clip-path="url(#clip_0)">
<g clip-path="url(#clip_1)">
<path transform="matrix(1,0,0,-1,0,2556)" d="M-1 2557H1180V-.9999H-1Z"/>
</g>
</g>
</svg>
